M48
; DRILL file {KiCad 5.1.12-84ad8e8a86~92~ubuntu20.04.1} date Sat 13 Nov 2021 03:40:43 PM EST
; FORMAT={-:-/ absolute / inch / decimal}
; #@! TF.CreationDate,2021-11-13T15:40:43-05:00
; #@! TF.GenerationSoftware,Kicad,Pcbnew,5.1.12-84ad8e8a86~92~ubuntu20.04.1
; #@! TF.FileFunction,Plated,1,2,PTH
FMAT,2
INCH
T1C0.0394
T2C0.0433
T3C0.0512
T4C0.0827
%
G90
G05
T1
X6.7953Y-2.5157
X6.7953Y-2.6157
X6.7953Y-2.7157
X6.7953Y-2.8157
X6.7953Y-2.9157
X6.7953Y-3.0157
X6.7953Y-3.1157
X6.7953Y-3.2157
X6.7953Y-3.3157
X6.7953Y-3.4157
X6.7953Y-3.5157
X6.7953Y-3.6157
X7.2047Y-1.5551
X7.2047Y-2.7362
X7.2047Y-3.9173
X7.2047Y-5.0984
X7.3031Y-1.5551
X7.3031Y-2.7362
X7.3031Y-3.9173
X7.3031Y-5.0984
X7.4016Y-1.5551
X7.4016Y-2.7362
X7.4016Y-3.9173
X7.4016Y-5.0984
X8.6811Y-3.9173
X8.7795Y-3.9173
X8.878Y-3.9173
T3
X7.1063Y-1.8898
X7.1063Y-3.0709
X7.1063Y-4.252
X7.1063Y-5.4331
X7.3031Y-1.8898
X7.3031Y-3.0709
X7.3031Y-4.252
X7.3031Y-5.4331
X7.5Y-1.8898
X7.5Y-3.0709
X7.5Y-4.252
X7.5Y-5.4331
X8.5827Y-4.252
X8.7795Y-4.252
X8.9764Y-4.252
T4
X8.7795Y-4.6181
X8.7795Y-4.8031
X8.7795Y-4.9882
T2
G00X7.1142Y-1.2736
M15
G01X7.1142Y-1.2461
M16
G05
G00X7.1142Y-2.4547
M15
G01X7.1142Y-2.4272
M16
G05
G00X7.1142Y-3.6358
M15
G01X7.1142Y-3.6083
M16
G05
G00X7.1142Y-4.8169
M15
G01X7.1142Y-4.7894
M16
G05
G00X7.4921Y-1.2736
M15
G01X7.4921Y-1.2461
M16
G05
G00X7.4921Y-2.4547
M15
G01X7.4921Y-2.4272
M16
G05
G00X7.4921Y-3.6358
M15
G01X7.4921Y-3.6083
M16
G05
G00X7.4921Y-4.8169
M15
G01X7.4921Y-4.7894
M16
G05
G00X8.5906Y-3.6358
M15
G01X8.5906Y-3.6083
M16
G05
G00X8.9685Y-3.6358
M15
G01X8.9685Y-3.6083
M16
G05
T0
M30
