%TF.GenerationSoftware,KiCad,Pcbnew,5.1.12-84ad8e8a86~92~ubuntu20.04.1*%
%TF.CreationDate,2021-11-13T15:40:40-05:00*%
%TF.ProjectId,gearseq,67656172-7365-4712-9e6b-696361645f70,rev?*%
%TF.SameCoordinates,Original*%
%TF.FileFunction,Soldermask,Bot*%
%TF.FilePolarity,Negative*%
%FSLAX46Y46*%
G04 Gerber Fmt 4.6, Leading zero omitted, Abs format (unit mm)*
G04 Created by KiCad (PCBNEW 5.1.12-84ad8e8a86~92~ubuntu20.04.1) date 2021-11-13 15:40:40*
%MOMM*%
%LPD*%
G01*
G04 APERTURE LIST*
%ADD10O,2.720000X3.240000*%
%ADD11C,1.800000*%
%ADD12R,1.800000X1.800000*%
%ADD13C,3.200000*%
%ADD14C,2.340000*%
%ADD15O,1.700000X1.700000*%
%ADD16R,1.700000X1.700000*%
%ADD17C,3.100000*%
G04 APERTURE END LIST*
D10*
%TO.C,RV5*%
X180700000Y-122000000D03*
X190300000Y-122000000D03*
D11*
X188000000Y-129500000D03*
X185500000Y-129500000D03*
D12*
X183000000Y-129500000D03*
%TD*%
D10*
%TO.C,RV3*%
X180700000Y-62000000D03*
X190300000Y-62000000D03*
D11*
X188000000Y-69500000D03*
X185500000Y-69500000D03*
D12*
X183000000Y-69500000D03*
%TD*%
D13*
%TO.C,H3*%
X201500000Y-25000000D03*
%TD*%
%TO.C,H4*%
X201500000Y-138900000D03*
%TD*%
D10*
%TO.C,RV1*%
X218200000Y-92000000D03*
X227800000Y-92000000D03*
D11*
X225500000Y-99500000D03*
X223000000Y-99500000D03*
D12*
X220500000Y-99500000D03*
%TD*%
D14*
%TO.C,RV10*%
X190500000Y-138000000D03*
X185500000Y-138000000D03*
X180500000Y-138000000D03*
%TD*%
%TO.C,RV9*%
X190500000Y-108000000D03*
X185500000Y-108000000D03*
X180500000Y-108000000D03*
%TD*%
D10*
%TO.C,RV2*%
X180700000Y-32000000D03*
X190300000Y-32000000D03*
D11*
X188000000Y-39500000D03*
X185500000Y-39500000D03*
D12*
X183000000Y-39500000D03*
%TD*%
D10*
%TO.C,RV4*%
X180700000Y-92000000D03*
X190300000Y-92000000D03*
D11*
X188000000Y-99500000D03*
X185500000Y-99500000D03*
D12*
X183000000Y-99500000D03*
%TD*%
D14*
%TO.C,RV6*%
X228000000Y-108000000D03*
X223000000Y-108000000D03*
X218000000Y-108000000D03*
%TD*%
D15*
%TO.C,J14*%
X172600000Y-91840000D03*
X172600000Y-89300000D03*
X172600000Y-86760000D03*
X172600000Y-84220000D03*
X172600000Y-81680000D03*
X172600000Y-79140000D03*
X172600000Y-76600000D03*
X172600000Y-74060000D03*
X172600000Y-71520000D03*
X172600000Y-68980000D03*
X172600000Y-66440000D03*
D16*
X172600000Y-63900000D03*
%TD*%
D14*
%TO.C,RV8*%
X190500000Y-78000000D03*
X185500000Y-78000000D03*
X180500000Y-78000000D03*
%TD*%
D17*
%TO.C,SW3*%
X223000000Y-126700000D03*
X223000000Y-117300000D03*
X223000000Y-122000000D03*
%TD*%
D14*
%TO.C,RV7*%
X190500000Y-48000000D03*
X185500000Y-48000000D03*
X180500000Y-48000000D03*
%TD*%
M02*
