%TF.GenerationSoftware,KiCad,Pcbnew,5.1.12-84ad8e8a86~92~ubuntu20.04.1*%
%TF.CreationDate,2021-11-13T15:40:40-05:00*%
%TF.ProjectId,gearseq,67656172-7365-4712-9e6b-696361645f70,rev?*%
%TF.SameCoordinates,Original*%
%TF.FileFunction,Copper,L1,Top*%
%TF.FilePolarity,Positive*%
%FSLAX46Y46*%
G04 Gerber Fmt 4.6, Leading zero omitted, Abs format (unit mm)*
G04 Created by KiCad (PCBNEW 5.1.12-84ad8e8a86~92~ubuntu20.04.1) date 2021-11-13 15:40:40*
%MOMM*%
%LPD*%
G01*
G04 APERTURE LIST*
%TA.AperFunction,ComponentPad*%
%ADD10O,2.720000X3.240000*%
%TD*%
%TA.AperFunction,ComponentPad*%
%ADD11C,1.800000*%
%TD*%
%TA.AperFunction,ComponentPad*%
%ADD12R,1.800000X1.800000*%
%TD*%
%TA.AperFunction,ComponentPad*%
%ADD13C,2.340000*%
%TD*%
%TA.AperFunction,ComponentPad*%
%ADD14O,1.700000X1.700000*%
%TD*%
%TA.AperFunction,ComponentPad*%
%ADD15R,1.700000X1.700000*%
%TD*%
%TA.AperFunction,ComponentPad*%
%ADD16C,3.100000*%
%TD*%
%TA.AperFunction,Conductor*%
%ADD17C,0.250000*%
%TD*%
%TA.AperFunction,Conductor*%
%ADD18C,0.254000*%
%TD*%
%TA.AperFunction,Conductor*%
%ADD19C,0.100000*%
%TD*%
G04 APERTURE END LIST*
D10*
%TO.P,RV5,*%
%TO.N,*%
X180700000Y-122000000D03*
X190300000Y-122000000D03*
D11*
%TO.P,RV5,3*%
%TO.N,POT_4_CW_P*%
X188000000Y-129500000D03*
%TO.P,RV5,2*%
%TO.N,POT_4_W_P*%
X185500000Y-129500000D03*
D12*
%TO.P,RV5,1*%
%TO.N,GND1*%
X183000000Y-129500000D03*
%TD*%
D10*
%TO.P,RV3,*%
%TO.N,*%
X180700000Y-62000000D03*
X190300000Y-62000000D03*
D11*
%TO.P,RV3,3*%
%TO.N,POT_2_CW_P*%
X188000000Y-69500000D03*
%TO.P,RV3,2*%
%TO.N,POT_2_W_P*%
X185500000Y-69500000D03*
D12*
%TO.P,RV3,1*%
%TO.N,GND1*%
X183000000Y-69500000D03*
%TD*%
D10*
%TO.P,RV1,*%
%TO.N,*%
X218200000Y-92000000D03*
X227800000Y-92000000D03*
D11*
%TO.P,RV1,3*%
%TO.N,+5V_1*%
X225500000Y-99500000D03*
%TO.P,RV1,2*%
%TO.N,POT_ALG_P*%
X223000000Y-99500000D03*
D12*
%TO.P,RV1,1*%
%TO.N,GND1*%
X220500000Y-99500000D03*
%TD*%
D13*
%TO.P,RV10,3*%
%TO.N,POT_4_CW_P*%
X190500000Y-138000000D03*
%TO.P,RV10,2*%
%TO.N,POT_4_W_P*%
X185500000Y-138000000D03*
%TO.P,RV10,1*%
%TO.N,GND1*%
X180500000Y-138000000D03*
%TD*%
%TO.P,RV9,3*%
%TO.N,POT_3_CW_P*%
X190500000Y-108000000D03*
%TO.P,RV9,2*%
%TO.N,POT_3_W_P*%
X185500000Y-108000000D03*
%TO.P,RV9,1*%
%TO.N,GND1*%
X180500000Y-108000000D03*
%TD*%
D10*
%TO.P,RV2,*%
%TO.N,*%
X180700000Y-32000000D03*
X190300000Y-32000000D03*
D11*
%TO.P,RV2,3*%
%TO.N,POT_1_CW_P*%
X188000000Y-39500000D03*
%TO.P,RV2,2*%
%TO.N,POT_1_W_P*%
X185500000Y-39500000D03*
D12*
%TO.P,RV2,1*%
%TO.N,GND1*%
X183000000Y-39500000D03*
%TD*%
D10*
%TO.P,RV4,*%
%TO.N,*%
X180700000Y-92000000D03*
X190300000Y-92000000D03*
D11*
%TO.P,RV4,3*%
%TO.N,POT_3_CW_P*%
X188000000Y-99500000D03*
%TO.P,RV4,2*%
%TO.N,POT_3_W_P*%
X185500000Y-99500000D03*
D12*
%TO.P,RV4,1*%
%TO.N,GND1*%
X183000000Y-99500000D03*
%TD*%
D13*
%TO.P,RV6,3*%
%TO.N,+5V_1*%
X228000000Y-108000000D03*
%TO.P,RV6,2*%
%TO.N,POT_ALG_P*%
X223000000Y-108000000D03*
%TO.P,RV6,1*%
%TO.N,GND1*%
X218000000Y-108000000D03*
%TD*%
D14*
%TO.P,J14,12*%
%TO.N,POT_4_W_P*%
X172600000Y-91840000D03*
%TO.P,J14,11*%
%TO.N,POT_4_CW_P*%
X172600000Y-89300000D03*
%TO.P,J14,10*%
%TO.N,POT_3_W_P*%
X172600000Y-86760000D03*
%TO.P,J14,9*%
%TO.N,POT_3_CW_P*%
X172600000Y-84220000D03*
%TO.P,J14,8*%
%TO.N,DISP_SW_P*%
X172600000Y-81680000D03*
%TO.P,J14,7*%
%TO.N,POT_ALG_P*%
X172600000Y-79140000D03*
%TO.P,J14,6*%
%TO.N,POT_2_CW_P*%
X172600000Y-76600000D03*
%TO.P,J14,5*%
%TO.N,POT_2_W_P*%
X172600000Y-74060000D03*
%TO.P,J14,4*%
%TO.N,POT_1_CW_P*%
X172600000Y-71520000D03*
%TO.P,J14,3*%
%TO.N,POT_1_W_P*%
X172600000Y-68980000D03*
%TO.P,J14,2*%
%TO.N,+5V_1*%
X172600000Y-66440000D03*
D15*
%TO.P,J14,1*%
%TO.N,GND1*%
X172600000Y-63900000D03*
%TD*%
D13*
%TO.P,RV8,3*%
%TO.N,POT_2_CW_P*%
X190500000Y-78000000D03*
%TO.P,RV8,2*%
%TO.N,POT_2_W_P*%
X185500000Y-78000000D03*
%TO.P,RV8,1*%
%TO.N,GND1*%
X180500000Y-78000000D03*
%TD*%
D16*
%TO.P,SW3,1*%
%TO.N,GND1*%
X223000000Y-126700000D03*
%TO.P,SW3,3*%
%TO.N,N/C*%
X223000000Y-117300000D03*
%TO.P,SW3,2*%
%TO.N,DISP_SW_P*%
X223000000Y-122000000D03*
%TD*%
D13*
%TO.P,RV7,3*%
%TO.N,POT_1_CW_P*%
X190500000Y-48000000D03*
%TO.P,RV7,2*%
%TO.N,POT_1_W_P*%
X185500000Y-48000000D03*
%TO.P,RV7,1*%
%TO.N,GND1*%
X180500000Y-48000000D03*
%TD*%
D17*
%TO.N,POT_4_W_P*%
X185500000Y-138000000D02*
X185500000Y-129500000D01*
X180395022Y-124395021D02*
X185500000Y-129500000D01*
X178283000Y-92443000D02*
X178283000Y-122862374D01*
X179815647Y-124395021D02*
X180395022Y-124395021D01*
X178283000Y-122862374D02*
X179815647Y-124395021D01*
X177680000Y-91840000D02*
X178283000Y-92443000D01*
X172600000Y-91840000D02*
X177680000Y-91840000D01*
%TO.N,POT_4_CW_P*%
X172600000Y-89300000D02*
X177680000Y-89300000D01*
X180002047Y-123945010D02*
X182445010Y-123945010D01*
X179014990Y-107272408D02*
X179004999Y-107282399D01*
X179014990Y-90634990D02*
X179014990Y-107272408D01*
X190500000Y-138000000D02*
X190500000Y-132000000D01*
X182445010Y-123945010D02*
X188000000Y-129500000D01*
X179004999Y-108717601D02*
X179014990Y-108727592D01*
X190500000Y-132000000D02*
X188000000Y-129500000D01*
X179004999Y-107282399D02*
X179004999Y-108717601D01*
X179014990Y-108727592D02*
X179014990Y-122957953D01*
X177680000Y-89300000D02*
X179014990Y-90634990D01*
X179014990Y-122957953D02*
X180002047Y-123945010D01*
%TO.N,POT_3_W_P*%
X185500000Y-108000000D02*
X185500000Y-99500000D01*
X172600000Y-86760000D02*
X178882081Y-86760000D01*
X178882081Y-86760000D02*
X185500000Y-93377919D01*
X185500000Y-93377919D02*
X185500000Y-99500000D01*
%TO.N,POT_3_CW_P*%
X177680000Y-84220000D02*
X188000000Y-94540000D01*
X190500000Y-102000000D02*
X188000000Y-99500000D01*
X190500000Y-108000000D02*
X190500000Y-102000000D01*
X172600000Y-84220000D02*
X177680000Y-84220000D01*
X188000000Y-94540000D02*
X188000000Y-99500000D01*
%TO.N,POT_2_W_P*%
X180940000Y-74060000D02*
X185500000Y-69500000D01*
X172600000Y-74060000D02*
X180940000Y-74060000D01*
%TO.N,POT_2_CW_P*%
X190500000Y-78000000D02*
X185009500Y-72509500D01*
X185009500Y-72509500D02*
X185009500Y-72490500D01*
X172600000Y-76600000D02*
X179687398Y-76600000D01*
X185009500Y-72490500D02*
X188000000Y-69500000D01*
X180058398Y-76229000D02*
X181271000Y-76229000D01*
X181271000Y-76229000D02*
X185009500Y-72490500D01*
X179687398Y-76600000D02*
X180058398Y-76229000D01*
%TO.N,POT_1_W_P*%
X176315001Y-48684999D02*
X185500000Y-39500000D01*
X172600000Y-68980000D02*
X176315001Y-65264999D01*
X176315001Y-65264999D02*
X176315001Y-48684999D01*
%TO.N,POT_1_CW_P*%
X180995001Y-46504999D02*
X179782399Y-46504999D01*
X176886000Y-50614000D02*
X176886000Y-67234000D01*
X185068000Y-42568000D02*
X184932000Y-42568000D01*
X190500000Y-48000000D02*
X185068000Y-42568000D01*
X179782399Y-46504999D02*
X179004999Y-47282399D01*
X176886000Y-67234000D02*
X172600000Y-71520000D01*
X179004999Y-48495001D02*
X176886000Y-50614000D01*
X179004999Y-47282399D02*
X179004999Y-48495001D01*
X188000000Y-39500000D02*
X184932000Y-42568000D01*
X184932000Y-42568000D02*
X180995001Y-46504999D01*
%TO.N,POT_ALG_P*%
X188316000Y-79140000D02*
X209901001Y-100725001D01*
X181572602Y-79140000D02*
X184427398Y-79140000D01*
X186217601Y-79495001D02*
X186572602Y-79140000D01*
X172600000Y-79140000D02*
X179427398Y-79140000D01*
X179782399Y-79495001D02*
X181217601Y-79495001D01*
X186572602Y-79140000D02*
X188316000Y-79140000D01*
X179427398Y-79140000D02*
X179782399Y-79495001D01*
X209901001Y-100725001D02*
X221774999Y-100725001D01*
X184427398Y-79140000D02*
X184782399Y-79495001D01*
X184782399Y-79495001D02*
X186217601Y-79495001D01*
X221774999Y-100725001D02*
X223000000Y-99500000D01*
X181217601Y-79495001D02*
X181572602Y-79140000D01*
%TO.N,+5V_1*%
X171000000Y-79436000D02*
X171879001Y-80315001D01*
X228000000Y-108000000D02*
X223824988Y-103824988D01*
X209714601Y-101175012D02*
X223824988Y-101175012D01*
X171000000Y-68040000D02*
X171000000Y-79436000D01*
X188854590Y-80315001D02*
X209714601Y-101175012D01*
X172600000Y-66440000D02*
X171000000Y-68040000D01*
X171879001Y-80315001D02*
X188854590Y-80315001D01*
X223824988Y-103824988D02*
X223824988Y-101175012D01*
X223824988Y-101175012D02*
X225500000Y-99500000D01*
%TO.N,DISP_SW_P*%
X182622963Y-81680000D02*
X222942963Y-122000000D01*
X172600000Y-81680000D02*
X182622963Y-81680000D01*
X222942963Y-122000000D02*
X223000000Y-122000000D01*
%TD*%
D18*
%TO.N,GND1*%
X203815001Y-81966343D02*
X203811686Y-82000000D01*
X203824912Y-82134283D01*
X203864081Y-82263406D01*
X203927688Y-82382407D01*
X204013289Y-82486711D01*
X204117593Y-82572312D01*
X204236594Y-82635919D01*
X204365717Y-82675088D01*
X204466353Y-82685000D01*
X204500000Y-82688314D01*
X204533647Y-82685000D01*
X234815001Y-82685000D01*
X234815000Y-141315000D01*
X169685000Y-141315000D01*
X169685000Y-139256602D01*
X179423003Y-139256602D01*
X179539275Y-139538389D01*
X179857860Y-139696257D01*
X180201122Y-139788938D01*
X180555869Y-139812873D01*
X180908470Y-139767139D01*
X181245373Y-139653495D01*
X181460725Y-139538389D01*
X181576997Y-139256602D01*
X180500000Y-138179605D01*
X179423003Y-139256602D01*
X169685000Y-139256602D01*
X169685000Y-138055869D01*
X178687127Y-138055869D01*
X178732861Y-138408470D01*
X178846505Y-138745373D01*
X178961611Y-138960725D01*
X179243398Y-139076997D01*
X180320395Y-138000000D01*
X180679605Y-138000000D01*
X181756602Y-139076997D01*
X182038389Y-138960725D01*
X182196257Y-138642140D01*
X182288938Y-138298878D01*
X182312873Y-137944131D01*
X182267139Y-137591530D01*
X182153495Y-137254627D01*
X182038389Y-137039275D01*
X181756602Y-136923003D01*
X180679605Y-138000000D01*
X180320395Y-138000000D01*
X179243398Y-136923003D01*
X178961611Y-137039275D01*
X178803743Y-137357860D01*
X178711062Y-137701122D01*
X178687127Y-138055869D01*
X169685000Y-138055869D01*
X169685000Y-136743398D01*
X179423003Y-136743398D01*
X180500000Y-137820395D01*
X181576997Y-136743398D01*
X181460725Y-136461611D01*
X181142140Y-136303743D01*
X180798878Y-136211062D01*
X180444131Y-136187127D01*
X180091530Y-136232861D01*
X179754627Y-136346505D01*
X179539275Y-136461611D01*
X179423003Y-136743398D01*
X169685000Y-136743398D01*
X169685000Y-130400000D01*
X181461928Y-130400000D01*
X181474188Y-130524482D01*
X181510498Y-130644180D01*
X181569463Y-130754494D01*
X181648815Y-130851185D01*
X181745506Y-130930537D01*
X181855820Y-130989502D01*
X181975518Y-131025812D01*
X182100000Y-131038072D01*
X182714250Y-131035000D01*
X182873000Y-130876250D01*
X182873000Y-129627000D01*
X181623750Y-129627000D01*
X181465000Y-129785750D01*
X181461928Y-130400000D01*
X169685000Y-130400000D01*
X169685000Y-68040000D01*
X170236324Y-68040000D01*
X170240000Y-68077322D01*
X170240001Y-79398668D01*
X170236324Y-79436000D01*
X170240001Y-79473333D01*
X170250998Y-79584986D01*
X170264180Y-79628442D01*
X170294454Y-79728246D01*
X170365026Y-79860276D01*
X170436201Y-79947002D01*
X170460000Y-79976001D01*
X170488998Y-79999799D01*
X171315201Y-80826003D01*
X171339000Y-80855002D01*
X171355955Y-80868916D01*
X171284010Y-80976589D01*
X171172068Y-81246842D01*
X171115000Y-81533740D01*
X171115000Y-81826260D01*
X171172068Y-82113158D01*
X171284010Y-82383411D01*
X171446525Y-82626632D01*
X171653368Y-82833475D01*
X171827760Y-82950000D01*
X171653368Y-83066525D01*
X171446525Y-83273368D01*
X171284010Y-83516589D01*
X171172068Y-83786842D01*
X171115000Y-84073740D01*
X171115000Y-84366260D01*
X171172068Y-84653158D01*
X171284010Y-84923411D01*
X171446525Y-85166632D01*
X171653368Y-85373475D01*
X171827760Y-85490000D01*
X171653368Y-85606525D01*
X171446525Y-85813368D01*
X171284010Y-86056589D01*
X171172068Y-86326842D01*
X171115000Y-86613740D01*
X171115000Y-86906260D01*
X171172068Y-87193158D01*
X171284010Y-87463411D01*
X171446525Y-87706632D01*
X171653368Y-87913475D01*
X171827760Y-88030000D01*
X171653368Y-88146525D01*
X171446525Y-88353368D01*
X171284010Y-88596589D01*
X171172068Y-88866842D01*
X171115000Y-89153740D01*
X171115000Y-89446260D01*
X171172068Y-89733158D01*
X171284010Y-90003411D01*
X171446525Y-90246632D01*
X171653368Y-90453475D01*
X171827760Y-90570000D01*
X171653368Y-90686525D01*
X171446525Y-90893368D01*
X171284010Y-91136589D01*
X171172068Y-91406842D01*
X171115000Y-91693740D01*
X171115000Y-91986260D01*
X171172068Y-92273158D01*
X171284010Y-92543411D01*
X171446525Y-92786632D01*
X171653368Y-92993475D01*
X171896589Y-93155990D01*
X172166842Y-93267932D01*
X172453740Y-93325000D01*
X172746260Y-93325000D01*
X173033158Y-93267932D01*
X173303411Y-93155990D01*
X173546632Y-92993475D01*
X173753475Y-92786632D01*
X173878178Y-92600000D01*
X177365199Y-92600000D01*
X177523000Y-92757802D01*
X177523001Y-122825041D01*
X177519324Y-122862374D01*
X177523001Y-122899707D01*
X177533998Y-123011360D01*
X177547180Y-123054816D01*
X177577454Y-123154620D01*
X177648026Y-123286650D01*
X177667219Y-123310036D01*
X177743000Y-123402375D01*
X177771998Y-123426173D01*
X179251847Y-124906023D01*
X179275646Y-124935022D01*
X179391371Y-125029995D01*
X179523400Y-125100567D01*
X179666661Y-125144024D01*
X179778314Y-125155021D01*
X179778323Y-125155021D01*
X179815646Y-125158697D01*
X179852969Y-125155021D01*
X180080221Y-125155021D01*
X182890199Y-127965000D01*
X182872998Y-127965000D01*
X182872998Y-128123748D01*
X182714250Y-127965000D01*
X182100000Y-127961928D01*
X181975518Y-127974188D01*
X181855820Y-128010498D01*
X181745506Y-128069463D01*
X181648815Y-128148815D01*
X181569463Y-128245506D01*
X181510498Y-128355820D01*
X181474188Y-128475518D01*
X181461928Y-128600000D01*
X181465000Y-129214250D01*
X181623750Y-129373000D01*
X182873000Y-129373000D01*
X182873000Y-129353000D01*
X183127000Y-129353000D01*
X183127000Y-129373000D01*
X183147000Y-129373000D01*
X183147000Y-129627000D01*
X183127000Y-129627000D01*
X183127000Y-130876250D01*
X183285750Y-131035000D01*
X183900000Y-131038072D01*
X184024482Y-131025812D01*
X184144180Y-130989502D01*
X184254494Y-130930537D01*
X184351185Y-130851185D01*
X184430537Y-130754494D01*
X184483880Y-130654697D01*
X184521495Y-130692312D01*
X184740001Y-130838313D01*
X184740000Y-136361084D01*
X184645012Y-136400429D01*
X184349379Y-136597965D01*
X184097965Y-136849379D01*
X183900429Y-137145012D01*
X183764365Y-137473501D01*
X183695000Y-137822223D01*
X183695000Y-138177777D01*
X183764365Y-138526499D01*
X183900429Y-138854988D01*
X184097965Y-139150621D01*
X184349379Y-139402035D01*
X184645012Y-139599571D01*
X184973501Y-139735635D01*
X185322223Y-139805000D01*
X185677777Y-139805000D01*
X186026499Y-139735635D01*
X186354988Y-139599571D01*
X186650621Y-139402035D01*
X186902035Y-139150621D01*
X187099571Y-138854988D01*
X187235635Y-138526499D01*
X187305000Y-138177777D01*
X187305000Y-137822223D01*
X187235635Y-137473501D01*
X187099571Y-137145012D01*
X186902035Y-136849379D01*
X186650621Y-136597965D01*
X186354988Y-136400429D01*
X186260000Y-136361084D01*
X186260000Y-130838313D01*
X186478505Y-130692312D01*
X186692312Y-130478505D01*
X186750000Y-130392169D01*
X186807688Y-130478505D01*
X187021495Y-130692312D01*
X187272905Y-130860299D01*
X187552257Y-130976011D01*
X187848816Y-131035000D01*
X188151184Y-131035000D01*
X188408930Y-130983731D01*
X189740001Y-132314803D01*
X189740000Y-136361084D01*
X189645012Y-136400429D01*
X189349379Y-136597965D01*
X189097965Y-136849379D01*
X188900429Y-137145012D01*
X188764365Y-137473501D01*
X188695000Y-137822223D01*
X188695000Y-138177777D01*
X188764365Y-138526499D01*
X188900429Y-138854988D01*
X189097965Y-139150621D01*
X189349379Y-139402035D01*
X189645012Y-139599571D01*
X189973501Y-139735635D01*
X190322223Y-139805000D01*
X190677777Y-139805000D01*
X191026499Y-139735635D01*
X191354988Y-139599571D01*
X191650621Y-139402035D01*
X191902035Y-139150621D01*
X192099571Y-138854988D01*
X192172106Y-138679872D01*
X199265000Y-138679872D01*
X199265000Y-139120128D01*
X199350890Y-139551925D01*
X199519369Y-139958669D01*
X199763962Y-140324729D01*
X200075271Y-140636038D01*
X200441331Y-140880631D01*
X200848075Y-141049110D01*
X201279872Y-141135000D01*
X201720128Y-141135000D01*
X202151925Y-141049110D01*
X202558669Y-140880631D01*
X202924729Y-140636038D01*
X203236038Y-140324729D01*
X203480631Y-139958669D01*
X203649110Y-139551925D01*
X203735000Y-139120128D01*
X203735000Y-138679872D01*
X203649110Y-138248075D01*
X203480631Y-137841331D01*
X203236038Y-137475271D01*
X202924729Y-137163962D01*
X202558669Y-136919369D01*
X202151925Y-136750890D01*
X201720128Y-136665000D01*
X201279872Y-136665000D01*
X200848075Y-136750890D01*
X200441331Y-136919369D01*
X200075271Y-137163962D01*
X199763962Y-137475271D01*
X199519369Y-137841331D01*
X199350890Y-138248075D01*
X199265000Y-138679872D01*
X192172106Y-138679872D01*
X192235635Y-138526499D01*
X192305000Y-138177777D01*
X192305000Y-137822223D01*
X192235635Y-137473501D01*
X192099571Y-137145012D01*
X191902035Y-136849379D01*
X191650621Y-136597965D01*
X191354988Y-136400429D01*
X191260000Y-136361084D01*
X191260000Y-132037323D01*
X191263676Y-132000000D01*
X191260000Y-131962677D01*
X191260000Y-131962667D01*
X191249003Y-131851014D01*
X191205546Y-131707753D01*
X191134974Y-131575723D01*
X191063799Y-131488997D01*
X191040001Y-131459999D01*
X191011003Y-131436201D01*
X189483731Y-129908930D01*
X189535000Y-129651184D01*
X189535000Y-129348816D01*
X189476011Y-129052257D01*
X189360299Y-128772905D01*
X189192312Y-128521495D01*
X188978505Y-128307688D01*
X188858123Y-128227251D01*
X221652354Y-128227251D01*
X221814381Y-128547930D01*
X222197675Y-128743725D01*
X222611803Y-128860981D01*
X223040848Y-128895192D01*
X223468324Y-128845042D01*
X223877802Y-128712461D01*
X224185619Y-128547930D01*
X224347646Y-128227251D01*
X223000000Y-126879605D01*
X221652354Y-128227251D01*
X188858123Y-128227251D01*
X188727095Y-128139701D01*
X188447743Y-128023989D01*
X188151184Y-127965000D01*
X187848816Y-127965000D01*
X187591070Y-128016269D01*
X186315649Y-126740848D01*
X220804808Y-126740848D01*
X220854958Y-127168324D01*
X220987539Y-127577802D01*
X221152070Y-127885619D01*
X221472749Y-128047646D01*
X222820395Y-126700000D01*
X223179605Y-126700000D01*
X224527251Y-128047646D01*
X224847930Y-127885619D01*
X225043725Y-127502325D01*
X225160981Y-127088197D01*
X225195192Y-126659152D01*
X225145042Y-126231676D01*
X225012461Y-125822198D01*
X224847930Y-125514381D01*
X224527251Y-125352354D01*
X223179605Y-126700000D01*
X222820395Y-126700000D01*
X221472749Y-125352354D01*
X221152070Y-125514381D01*
X220956275Y-125897675D01*
X220839019Y-126311803D01*
X220804808Y-126740848D01*
X186315649Y-126740848D01*
X184747550Y-125172749D01*
X221652354Y-125172749D01*
X223000000Y-126520395D01*
X224347646Y-125172749D01*
X224185619Y-124852070D01*
X223802325Y-124656275D01*
X223388197Y-124539019D01*
X222959152Y-124504808D01*
X222531676Y-124554958D01*
X222122198Y-124687539D01*
X221814381Y-124852070D01*
X221652354Y-125172749D01*
X184747550Y-125172749D01*
X183008814Y-123434013D01*
X182985011Y-123405009D01*
X182869286Y-123310036D01*
X182737257Y-123239464D01*
X182593996Y-123196007D01*
X182482343Y-123185010D01*
X182482332Y-123185010D01*
X182468410Y-123183639D01*
X182552057Y-123027147D01*
X182666133Y-122651088D01*
X182695000Y-122357998D01*
X182695000Y-121642003D01*
X182695000Y-121642002D01*
X188305000Y-121642002D01*
X188305000Y-122357997D01*
X188333867Y-122651087D01*
X188447943Y-123027146D01*
X188633193Y-123373725D01*
X188882497Y-123677503D01*
X189186275Y-123926807D01*
X189532853Y-124112057D01*
X189908912Y-124226133D01*
X190300000Y-124264652D01*
X190691087Y-124226133D01*
X191067146Y-124112057D01*
X191413725Y-123926807D01*
X191717503Y-123677503D01*
X191966807Y-123373725D01*
X192152057Y-123027147D01*
X192266133Y-122651088D01*
X192295000Y-122357998D01*
X192295000Y-121642003D01*
X192266133Y-121348913D01*
X192152057Y-120972853D01*
X191966807Y-120626275D01*
X191717503Y-120322497D01*
X191413725Y-120073193D01*
X191067147Y-119887943D01*
X190691088Y-119773867D01*
X190300000Y-119735348D01*
X189908913Y-119773867D01*
X189532854Y-119887943D01*
X189186276Y-120073193D01*
X188882498Y-120322497D01*
X188633193Y-120626275D01*
X188447943Y-120972853D01*
X188333867Y-121348912D01*
X188305000Y-121642002D01*
X182695000Y-121642002D01*
X182666133Y-121348913D01*
X182552057Y-120972853D01*
X182366807Y-120626275D01*
X182117503Y-120322497D01*
X181813725Y-120073193D01*
X181467147Y-119887943D01*
X181091088Y-119773867D01*
X180700000Y-119735348D01*
X180308913Y-119773867D01*
X179932854Y-119887943D01*
X179774990Y-119972323D01*
X179774990Y-109655193D01*
X179857860Y-109696257D01*
X180201122Y-109788938D01*
X180555869Y-109812873D01*
X180908470Y-109767139D01*
X181245373Y-109653495D01*
X181460725Y-109538389D01*
X181576997Y-109256602D01*
X180500000Y-108179605D01*
X180485858Y-108193748D01*
X180306253Y-108014143D01*
X180320395Y-108000000D01*
X180679605Y-108000000D01*
X181756602Y-109076997D01*
X182038389Y-108960725D01*
X182196257Y-108642140D01*
X182288938Y-108298878D01*
X182312873Y-107944131D01*
X182267139Y-107591530D01*
X182153495Y-107254627D01*
X182038389Y-107039275D01*
X181756602Y-106923003D01*
X180679605Y-108000000D01*
X180320395Y-108000000D01*
X180306253Y-107985858D01*
X180485858Y-107806253D01*
X180500000Y-107820395D01*
X181576997Y-106743398D01*
X181460725Y-106461611D01*
X181142140Y-106303743D01*
X180798878Y-106211062D01*
X180444131Y-106187127D01*
X180091530Y-106232861D01*
X179774990Y-106339636D01*
X179774990Y-100400000D01*
X181461928Y-100400000D01*
X181474188Y-100524482D01*
X181510498Y-100644180D01*
X181569463Y-100754494D01*
X181648815Y-100851185D01*
X181745506Y-100930537D01*
X181855820Y-100989502D01*
X181975518Y-101025812D01*
X182100000Y-101038072D01*
X182714250Y-101035000D01*
X182873000Y-100876250D01*
X182873000Y-99627000D01*
X181623750Y-99627000D01*
X181465000Y-99785750D01*
X181461928Y-100400000D01*
X179774990Y-100400000D01*
X179774990Y-98600000D01*
X181461928Y-98600000D01*
X181465000Y-99214250D01*
X181623750Y-99373000D01*
X182873000Y-99373000D01*
X182873000Y-98123750D01*
X182714250Y-97965000D01*
X182100000Y-97961928D01*
X181975518Y-97974188D01*
X181855820Y-98010498D01*
X181745506Y-98069463D01*
X181648815Y-98148815D01*
X181569463Y-98245506D01*
X181510498Y-98355820D01*
X181474188Y-98475518D01*
X181461928Y-98600000D01*
X179774990Y-98600000D01*
X179774990Y-94027677D01*
X179932853Y-94112057D01*
X180308912Y-94226133D01*
X180700000Y-94264652D01*
X181091087Y-94226133D01*
X181467146Y-94112057D01*
X181813725Y-93926807D01*
X182117503Y-93677503D01*
X182366807Y-93373725D01*
X182552057Y-93027147D01*
X182666133Y-92651088D01*
X182695000Y-92357998D01*
X182695000Y-91647721D01*
X184740000Y-93692721D01*
X184740001Y-98161687D01*
X184521495Y-98307688D01*
X184483880Y-98345303D01*
X184430537Y-98245506D01*
X184351185Y-98148815D01*
X184254494Y-98069463D01*
X184144180Y-98010498D01*
X184024482Y-97974188D01*
X183900000Y-97961928D01*
X183285750Y-97965000D01*
X183127000Y-98123750D01*
X183127000Y-99373000D01*
X183147000Y-99373000D01*
X183147000Y-99627000D01*
X183127000Y-99627000D01*
X183127000Y-100876250D01*
X183285750Y-101035000D01*
X183900000Y-101038072D01*
X184024482Y-101025812D01*
X184144180Y-100989502D01*
X184254494Y-100930537D01*
X184351185Y-100851185D01*
X184430537Y-100754494D01*
X184483880Y-100654697D01*
X184521495Y-100692312D01*
X184740001Y-100838313D01*
X184740000Y-106361084D01*
X184645012Y-106400429D01*
X184349379Y-106597965D01*
X184097965Y-106849379D01*
X183900429Y-107145012D01*
X183764365Y-107473501D01*
X183695000Y-107822223D01*
X183695000Y-108177777D01*
X183764365Y-108526499D01*
X183900429Y-108854988D01*
X184097965Y-109150621D01*
X184349379Y-109402035D01*
X184645012Y-109599571D01*
X184973501Y-109735635D01*
X185322223Y-109805000D01*
X185677777Y-109805000D01*
X186026499Y-109735635D01*
X186354988Y-109599571D01*
X186650621Y-109402035D01*
X186902035Y-109150621D01*
X187099571Y-108854988D01*
X187235635Y-108526499D01*
X187305000Y-108177777D01*
X187305000Y-107822223D01*
X187235635Y-107473501D01*
X187099571Y-107145012D01*
X186902035Y-106849379D01*
X186650621Y-106597965D01*
X186354988Y-106400429D01*
X186260000Y-106361084D01*
X186260000Y-100838313D01*
X186478505Y-100692312D01*
X186692312Y-100478505D01*
X186750000Y-100392169D01*
X186807688Y-100478505D01*
X187021495Y-100692312D01*
X187272905Y-100860299D01*
X187552257Y-100976011D01*
X187848816Y-101035000D01*
X188151184Y-101035000D01*
X188408930Y-100983731D01*
X189740001Y-102314803D01*
X189740000Y-106361084D01*
X189645012Y-106400429D01*
X189349379Y-106597965D01*
X189097965Y-106849379D01*
X188900429Y-107145012D01*
X188764365Y-107473501D01*
X188695000Y-107822223D01*
X188695000Y-108177777D01*
X188764365Y-108526499D01*
X188900429Y-108854988D01*
X189097965Y-109150621D01*
X189349379Y-109402035D01*
X189645012Y-109599571D01*
X189973501Y-109735635D01*
X190322223Y-109805000D01*
X190677777Y-109805000D01*
X191026499Y-109735635D01*
X191354988Y-109599571D01*
X191650621Y-109402035D01*
X191902035Y-109150621D01*
X192099571Y-108854988D01*
X192235635Y-108526499D01*
X192305000Y-108177777D01*
X192305000Y-107822223D01*
X192235635Y-107473501D01*
X192099571Y-107145012D01*
X191902035Y-106849379D01*
X191650621Y-106597965D01*
X191354988Y-106400429D01*
X191260000Y-106361084D01*
X191260000Y-102037323D01*
X191263676Y-102000000D01*
X191260000Y-101962677D01*
X191260000Y-101962667D01*
X191249003Y-101851014D01*
X191205546Y-101707753D01*
X191134974Y-101575723D01*
X191063799Y-101488997D01*
X191040001Y-101459999D01*
X191011003Y-101436201D01*
X189483731Y-99908930D01*
X189535000Y-99651184D01*
X189535000Y-99348816D01*
X189476011Y-99052257D01*
X189360299Y-98772905D01*
X189192312Y-98521495D01*
X188978505Y-98307688D01*
X188760000Y-98161687D01*
X188760000Y-94577323D01*
X188763676Y-94540000D01*
X188760000Y-94502677D01*
X188760000Y-94502667D01*
X188749003Y-94391014D01*
X188705546Y-94247753D01*
X188634975Y-94115725D01*
X188634974Y-94115723D01*
X188563799Y-94028997D01*
X188540001Y-93999999D01*
X188511004Y-93976202D01*
X178243804Y-83709003D01*
X178220001Y-83679999D01*
X178104276Y-83585026D01*
X177972247Y-83514454D01*
X177828986Y-83470997D01*
X177717333Y-83460000D01*
X177717322Y-83460000D01*
X177680000Y-83456324D01*
X177642678Y-83460000D01*
X173878178Y-83460000D01*
X173753475Y-83273368D01*
X173546632Y-83066525D01*
X173372240Y-82950000D01*
X173546632Y-82833475D01*
X173753475Y-82626632D01*
X173878178Y-82440000D01*
X182308162Y-82440000D01*
X189704145Y-89835983D01*
X189532854Y-89887943D01*
X189186276Y-90073193D01*
X188882498Y-90322497D01*
X188633193Y-90626275D01*
X188447943Y-90972853D01*
X188333867Y-91348912D01*
X188305000Y-91642002D01*
X188305000Y-92357997D01*
X188333867Y-92651087D01*
X188447943Y-93027146D01*
X188633193Y-93373725D01*
X188882497Y-93677503D01*
X189186275Y-93926807D01*
X189532853Y-94112057D01*
X189908912Y-94226133D01*
X190300000Y-94264652D01*
X190691087Y-94226133D01*
X191067146Y-94112057D01*
X191413725Y-93926807D01*
X191717503Y-93677503D01*
X191966807Y-93373725D01*
X192152057Y-93027147D01*
X192266133Y-92651088D01*
X192288828Y-92420666D01*
X220996166Y-121128005D01*
X220898969Y-121362659D01*
X220815000Y-121784796D01*
X220815000Y-122215204D01*
X220898969Y-122637341D01*
X221063678Y-123034985D01*
X221302800Y-123392856D01*
X221607144Y-123697200D01*
X221965015Y-123936322D01*
X222362659Y-124101031D01*
X222784796Y-124185000D01*
X223215204Y-124185000D01*
X223637341Y-124101031D01*
X224034985Y-123936322D01*
X224392856Y-123697200D01*
X224697200Y-123392856D01*
X224936322Y-123034985D01*
X225101031Y-122637341D01*
X225185000Y-122215204D01*
X225185000Y-121784796D01*
X225101031Y-121362659D01*
X224936322Y-120965015D01*
X224697200Y-120607144D01*
X224392856Y-120302800D01*
X224034985Y-120063678D01*
X223637341Y-119898969D01*
X223215204Y-119815000D01*
X222784796Y-119815000D01*
X222362659Y-119898969D01*
X222047342Y-120029577D01*
X219102561Y-117084796D01*
X220815000Y-117084796D01*
X220815000Y-117515204D01*
X220898969Y-117937341D01*
X221063678Y-118334985D01*
X221302800Y-118692856D01*
X221607144Y-118997200D01*
X221965015Y-119236322D01*
X222362659Y-119401031D01*
X222784796Y-119485000D01*
X223215204Y-119485000D01*
X223637341Y-119401031D01*
X224034985Y-119236322D01*
X224392856Y-118997200D01*
X224697200Y-118692856D01*
X224936322Y-118334985D01*
X225101031Y-117937341D01*
X225185000Y-117515204D01*
X225185000Y-117084796D01*
X225101031Y-116662659D01*
X224936322Y-116265015D01*
X224697200Y-115907144D01*
X224392856Y-115602800D01*
X224034985Y-115363678D01*
X223637341Y-115198969D01*
X223215204Y-115115000D01*
X222784796Y-115115000D01*
X222362659Y-115198969D01*
X221965015Y-115363678D01*
X221607144Y-115602800D01*
X221302800Y-115907144D01*
X221063678Y-116265015D01*
X220898969Y-116662659D01*
X220815000Y-117084796D01*
X219102561Y-117084796D01*
X211274367Y-109256602D01*
X216923003Y-109256602D01*
X217039275Y-109538389D01*
X217357860Y-109696257D01*
X217701122Y-109788938D01*
X218055869Y-109812873D01*
X218408470Y-109767139D01*
X218745373Y-109653495D01*
X218960725Y-109538389D01*
X219076997Y-109256602D01*
X218000000Y-108179605D01*
X216923003Y-109256602D01*
X211274367Y-109256602D01*
X210073634Y-108055869D01*
X216187127Y-108055869D01*
X216232861Y-108408470D01*
X216346505Y-108745373D01*
X216461611Y-108960725D01*
X216743398Y-109076997D01*
X217820395Y-108000000D01*
X218179605Y-108000000D01*
X219256602Y-109076997D01*
X219538389Y-108960725D01*
X219696257Y-108642140D01*
X219788938Y-108298878D01*
X219812873Y-107944131D01*
X219797061Y-107822223D01*
X221195000Y-107822223D01*
X221195000Y-108177777D01*
X221264365Y-108526499D01*
X221400429Y-108854988D01*
X221597965Y-109150621D01*
X221849379Y-109402035D01*
X222145012Y-109599571D01*
X222473501Y-109735635D01*
X222822223Y-109805000D01*
X223177777Y-109805000D01*
X223526499Y-109735635D01*
X223854988Y-109599571D01*
X224150621Y-109402035D01*
X224402035Y-109150621D01*
X224599571Y-108854988D01*
X224735635Y-108526499D01*
X224805000Y-108177777D01*
X224805000Y-107822223D01*
X224735635Y-107473501D01*
X224599571Y-107145012D01*
X224402035Y-106849379D01*
X224150621Y-106597965D01*
X223854988Y-106400429D01*
X223526499Y-106264365D01*
X223177777Y-106195000D01*
X222822223Y-106195000D01*
X222473501Y-106264365D01*
X222145012Y-106400429D01*
X221849379Y-106597965D01*
X221597965Y-106849379D01*
X221400429Y-107145012D01*
X221264365Y-107473501D01*
X221195000Y-107822223D01*
X219797061Y-107822223D01*
X219767139Y-107591530D01*
X219653495Y-107254627D01*
X219538389Y-107039275D01*
X219256602Y-106923003D01*
X218179605Y-108000000D01*
X217820395Y-108000000D01*
X216743398Y-106923003D01*
X216461611Y-107039275D01*
X216303743Y-107357860D01*
X216211062Y-107701122D01*
X216187127Y-108055869D01*
X210073634Y-108055869D01*
X208761163Y-106743398D01*
X216923003Y-106743398D01*
X218000000Y-107820395D01*
X219076997Y-106743398D01*
X218960725Y-106461611D01*
X218642140Y-106303743D01*
X218298878Y-106211062D01*
X217944131Y-106187127D01*
X217591530Y-106232861D01*
X217254627Y-106346505D01*
X217039275Y-106461611D01*
X216923003Y-106743398D01*
X208761163Y-106743398D01*
X183186767Y-81169003D01*
X183162964Y-81139999D01*
X183083764Y-81075001D01*
X188539789Y-81075001D01*
X209150806Y-101686020D01*
X209174600Y-101715013D01*
X209203593Y-101738807D01*
X209203597Y-101738811D01*
X209274286Y-101796823D01*
X209290325Y-101809986D01*
X209422354Y-101880558D01*
X209565615Y-101924015D01*
X209677268Y-101935012D01*
X209677277Y-101935012D01*
X209714600Y-101938688D01*
X209751923Y-101935012D01*
X223064989Y-101935012D01*
X223064988Y-103787665D01*
X223061312Y-103824988D01*
X223064988Y-103862310D01*
X223064988Y-103862320D01*
X223075985Y-103973973D01*
X223119442Y-104117234D01*
X223190014Y-104249264D01*
X223229859Y-104297814D01*
X223284987Y-104364989D01*
X223313991Y-104388792D01*
X226303710Y-107378512D01*
X226264365Y-107473501D01*
X226195000Y-107822223D01*
X226195000Y-108177777D01*
X226264365Y-108526499D01*
X226400429Y-108854988D01*
X226597965Y-109150621D01*
X226849379Y-109402035D01*
X227145012Y-109599571D01*
X227473501Y-109735635D01*
X227822223Y-109805000D01*
X228177777Y-109805000D01*
X228526499Y-109735635D01*
X228854988Y-109599571D01*
X229150621Y-109402035D01*
X229402035Y-109150621D01*
X229599571Y-108854988D01*
X229735635Y-108526499D01*
X229805000Y-108177777D01*
X229805000Y-107822223D01*
X229735635Y-107473501D01*
X229599571Y-107145012D01*
X229402035Y-106849379D01*
X229150621Y-106597965D01*
X228854988Y-106400429D01*
X228526499Y-106264365D01*
X228177777Y-106195000D01*
X227822223Y-106195000D01*
X227473501Y-106264365D01*
X227378512Y-106303710D01*
X224584988Y-103510187D01*
X224584988Y-101489813D01*
X225091070Y-100983731D01*
X225348816Y-101035000D01*
X225651184Y-101035000D01*
X225947743Y-100976011D01*
X226227095Y-100860299D01*
X226478505Y-100692312D01*
X226692312Y-100478505D01*
X226860299Y-100227095D01*
X226976011Y-99947743D01*
X227035000Y-99651184D01*
X227035000Y-99348816D01*
X226976011Y-99052257D01*
X226860299Y-98772905D01*
X226692312Y-98521495D01*
X226478505Y-98307688D01*
X226227095Y-98139701D01*
X225947743Y-98023989D01*
X225651184Y-97965000D01*
X225348816Y-97965000D01*
X225052257Y-98023989D01*
X224772905Y-98139701D01*
X224521495Y-98307688D01*
X224307688Y-98521495D01*
X224250000Y-98607831D01*
X224192312Y-98521495D01*
X223978505Y-98307688D01*
X223727095Y-98139701D01*
X223447743Y-98023989D01*
X223151184Y-97965000D01*
X222848816Y-97965000D01*
X222552257Y-98023989D01*
X222272905Y-98139701D01*
X222021495Y-98307688D01*
X221983880Y-98345303D01*
X221930537Y-98245506D01*
X221851185Y-98148815D01*
X221754494Y-98069463D01*
X221644180Y-98010498D01*
X221524482Y-97974188D01*
X221400000Y-97961928D01*
X220785750Y-97965000D01*
X220627000Y-98123750D01*
X220627000Y-99373000D01*
X220647000Y-99373000D01*
X220647000Y-99627000D01*
X220627000Y-99627000D01*
X220627000Y-99647000D01*
X220373000Y-99647000D01*
X220373000Y-99627000D01*
X219123750Y-99627000D01*
X218965000Y-99785750D01*
X218964104Y-99965001D01*
X210215803Y-99965001D01*
X208850802Y-98600000D01*
X218961928Y-98600000D01*
X218965000Y-99214250D01*
X219123750Y-99373000D01*
X220373000Y-99373000D01*
X220373000Y-98123750D01*
X220214250Y-97965000D01*
X219600000Y-97961928D01*
X219475518Y-97974188D01*
X219355820Y-98010498D01*
X219245506Y-98069463D01*
X219148815Y-98148815D01*
X219069463Y-98245506D01*
X219010498Y-98355820D01*
X218974188Y-98475518D01*
X218961928Y-98600000D01*
X208850802Y-98600000D01*
X201892804Y-91642002D01*
X216205000Y-91642002D01*
X216205000Y-92357997D01*
X216233867Y-92651087D01*
X216347943Y-93027146D01*
X216533193Y-93373725D01*
X216782497Y-93677503D01*
X217086275Y-93926807D01*
X217432853Y-94112057D01*
X217808912Y-94226133D01*
X218200000Y-94264652D01*
X218591087Y-94226133D01*
X218967146Y-94112057D01*
X219313725Y-93926807D01*
X219617503Y-93677503D01*
X219866807Y-93373725D01*
X220052057Y-93027147D01*
X220166133Y-92651088D01*
X220195000Y-92357998D01*
X220195000Y-91642003D01*
X220195000Y-91642002D01*
X225805000Y-91642002D01*
X225805000Y-92357997D01*
X225833867Y-92651087D01*
X225947943Y-93027146D01*
X226133193Y-93373725D01*
X226382497Y-93677503D01*
X226686275Y-93926807D01*
X227032853Y-94112057D01*
X227408912Y-94226133D01*
X227800000Y-94264652D01*
X228191087Y-94226133D01*
X228567146Y-94112057D01*
X228913725Y-93926807D01*
X229217503Y-93677503D01*
X229466807Y-93373725D01*
X229652057Y-93027147D01*
X229766133Y-92651088D01*
X229795000Y-92357998D01*
X229795000Y-91642003D01*
X229766133Y-91348913D01*
X229652057Y-90972853D01*
X229466807Y-90626275D01*
X229217503Y-90322497D01*
X228913725Y-90073193D01*
X228567147Y-89887943D01*
X228191088Y-89773867D01*
X227800000Y-89735348D01*
X227408913Y-89773867D01*
X227032854Y-89887943D01*
X226686276Y-90073193D01*
X226382498Y-90322497D01*
X226133193Y-90626275D01*
X225947943Y-90972853D01*
X225833867Y-91348912D01*
X225805000Y-91642002D01*
X220195000Y-91642002D01*
X220166133Y-91348913D01*
X220052057Y-90972853D01*
X219866807Y-90626275D01*
X219617503Y-90322497D01*
X219313725Y-90073193D01*
X218967147Y-89887943D01*
X218591088Y-89773867D01*
X218200000Y-89735348D01*
X217808913Y-89773867D01*
X217432854Y-89887943D01*
X217086276Y-90073193D01*
X216782498Y-90322497D01*
X216533193Y-90626275D01*
X216347943Y-90972853D01*
X216233867Y-91348912D01*
X216205000Y-91642002D01*
X201892804Y-91642002D01*
X189989648Y-79738847D01*
X190322223Y-79805000D01*
X190677777Y-79805000D01*
X191026499Y-79735635D01*
X191354988Y-79599571D01*
X191650621Y-79402035D01*
X191902035Y-79150621D01*
X192099571Y-78854988D01*
X192235635Y-78526499D01*
X192305000Y-78177777D01*
X192305000Y-77822223D01*
X192235635Y-77473501D01*
X192099571Y-77145012D01*
X191902035Y-76849379D01*
X191650621Y-76597965D01*
X191354988Y-76400429D01*
X191026499Y-76264365D01*
X190677777Y-76195000D01*
X190322223Y-76195000D01*
X189973501Y-76264365D01*
X189878512Y-76303710D01*
X186074801Y-72500000D01*
X187591070Y-70983731D01*
X187848816Y-71035000D01*
X188151184Y-71035000D01*
X188447743Y-70976011D01*
X188727095Y-70860299D01*
X188978505Y-70692312D01*
X189192312Y-70478505D01*
X189360299Y-70227095D01*
X189476011Y-69947743D01*
X189535000Y-69651184D01*
X189535000Y-69348816D01*
X189476011Y-69052257D01*
X189360299Y-68772905D01*
X189192312Y-68521495D01*
X188978505Y-68307688D01*
X188727095Y-68139701D01*
X188447743Y-68023989D01*
X188151184Y-67965000D01*
X187848816Y-67965000D01*
X187552257Y-68023989D01*
X187272905Y-68139701D01*
X187021495Y-68307688D01*
X186807688Y-68521495D01*
X186750000Y-68607831D01*
X186692312Y-68521495D01*
X186478505Y-68307688D01*
X186227095Y-68139701D01*
X185947743Y-68023989D01*
X185651184Y-67965000D01*
X185348816Y-67965000D01*
X185052257Y-68023989D01*
X184772905Y-68139701D01*
X184521495Y-68307688D01*
X184483880Y-68345303D01*
X184430537Y-68245506D01*
X184351185Y-68148815D01*
X184254494Y-68069463D01*
X184144180Y-68010498D01*
X184024482Y-67974188D01*
X183900000Y-67961928D01*
X183285750Y-67965000D01*
X183127000Y-68123750D01*
X183127000Y-69373000D01*
X183147000Y-69373000D01*
X183147000Y-69627000D01*
X183127000Y-69627000D01*
X183127000Y-69647000D01*
X182873000Y-69647000D01*
X182873000Y-69627000D01*
X181623750Y-69627000D01*
X181465000Y-69785750D01*
X181461928Y-70400000D01*
X181474188Y-70524482D01*
X181510498Y-70644180D01*
X181569463Y-70754494D01*
X181648815Y-70851185D01*
X181745506Y-70930537D01*
X181855820Y-70989502D01*
X181975518Y-71025812D01*
X182100000Y-71038072D01*
X182714250Y-71035000D01*
X182872998Y-70876252D01*
X182872998Y-71035000D01*
X182890198Y-71035000D01*
X180625199Y-73300000D01*
X173878178Y-73300000D01*
X173753475Y-73113368D01*
X173546632Y-72906525D01*
X173372240Y-72790000D01*
X173546632Y-72673475D01*
X173753475Y-72466632D01*
X173915990Y-72223411D01*
X174027932Y-71953158D01*
X174085000Y-71666260D01*
X174085000Y-71373740D01*
X174041209Y-71153592D01*
X176594801Y-68600000D01*
X181461928Y-68600000D01*
X181465000Y-69214250D01*
X181623750Y-69373000D01*
X182873000Y-69373000D01*
X182873000Y-68123750D01*
X182714250Y-67965000D01*
X182100000Y-67961928D01*
X181975518Y-67974188D01*
X181855820Y-68010498D01*
X181745506Y-68069463D01*
X181648815Y-68148815D01*
X181569463Y-68245506D01*
X181510498Y-68355820D01*
X181474188Y-68475518D01*
X181461928Y-68600000D01*
X176594801Y-68600000D01*
X177397003Y-67797799D01*
X177426001Y-67774001D01*
X177520974Y-67658276D01*
X177591546Y-67526247D01*
X177635003Y-67382986D01*
X177646000Y-67271333D01*
X177646000Y-67271324D01*
X177649676Y-67234001D01*
X177646000Y-67196678D01*
X177646000Y-61642002D01*
X178705000Y-61642002D01*
X178705000Y-62357997D01*
X178733867Y-62651087D01*
X178847943Y-63027146D01*
X179033193Y-63373725D01*
X179282497Y-63677503D01*
X179586275Y-63926807D01*
X179932853Y-64112057D01*
X180308912Y-64226133D01*
X180700000Y-64264652D01*
X181091087Y-64226133D01*
X181467146Y-64112057D01*
X181813725Y-63926807D01*
X182117503Y-63677503D01*
X182366807Y-63373725D01*
X182552057Y-63027147D01*
X182666133Y-62651088D01*
X182695000Y-62357998D01*
X182695000Y-61642003D01*
X182695000Y-61642002D01*
X188305000Y-61642002D01*
X188305000Y-62357997D01*
X188333867Y-62651087D01*
X188447943Y-63027146D01*
X188633193Y-63373725D01*
X188882497Y-63677503D01*
X189186275Y-63926807D01*
X189532853Y-64112057D01*
X189908912Y-64226133D01*
X190300000Y-64264652D01*
X190691087Y-64226133D01*
X191067146Y-64112057D01*
X191413725Y-63926807D01*
X191717503Y-63677503D01*
X191966807Y-63373725D01*
X192152057Y-63027147D01*
X192266133Y-62651088D01*
X192295000Y-62357998D01*
X192295000Y-61642003D01*
X192266133Y-61348913D01*
X192152057Y-60972853D01*
X191966807Y-60626275D01*
X191717503Y-60322497D01*
X191413725Y-60073193D01*
X191067147Y-59887943D01*
X190691088Y-59773867D01*
X190300000Y-59735348D01*
X189908913Y-59773867D01*
X189532854Y-59887943D01*
X189186276Y-60073193D01*
X188882498Y-60322497D01*
X188633193Y-60626275D01*
X188447943Y-60972853D01*
X188333867Y-61348912D01*
X188305000Y-61642002D01*
X182695000Y-61642002D01*
X182666133Y-61348913D01*
X182552057Y-60972853D01*
X182366807Y-60626275D01*
X182117503Y-60322497D01*
X181813725Y-60073193D01*
X181467147Y-59887943D01*
X181091088Y-59773867D01*
X180700000Y-59735348D01*
X180308913Y-59773867D01*
X179932854Y-59887943D01*
X179586276Y-60073193D01*
X179282498Y-60322497D01*
X179033193Y-60626275D01*
X178847943Y-60972853D01*
X178733867Y-61348912D01*
X178705000Y-61642002D01*
X177646000Y-61642002D01*
X177646000Y-50928801D01*
X179255332Y-49319470D01*
X179307735Y-49371873D01*
X179423004Y-49256604D01*
X179539275Y-49538389D01*
X179857860Y-49696257D01*
X180201122Y-49788938D01*
X180555869Y-49812873D01*
X180908470Y-49767139D01*
X181245373Y-49653495D01*
X181460725Y-49538389D01*
X181576997Y-49256602D01*
X180500000Y-48179605D01*
X180485858Y-48193748D01*
X180306253Y-48014143D01*
X180320395Y-48000000D01*
X180306253Y-47985858D01*
X180485858Y-47806253D01*
X180500000Y-47820395D01*
X180514143Y-47806253D01*
X180693748Y-47985858D01*
X180679605Y-48000000D01*
X181756602Y-49076997D01*
X182038389Y-48960725D01*
X182196257Y-48642140D01*
X182288938Y-48298878D01*
X182312873Y-47944131D01*
X182297061Y-47822223D01*
X183695000Y-47822223D01*
X183695000Y-48177777D01*
X183764365Y-48526499D01*
X183900429Y-48854988D01*
X184097965Y-49150621D01*
X184349379Y-49402035D01*
X184645012Y-49599571D01*
X184973501Y-49735635D01*
X185322223Y-49805000D01*
X185677777Y-49805000D01*
X186026499Y-49735635D01*
X186354988Y-49599571D01*
X186650621Y-49402035D01*
X186902035Y-49150621D01*
X187099571Y-48854988D01*
X187235635Y-48526499D01*
X187305000Y-48177777D01*
X187305000Y-47822223D01*
X187235635Y-47473501D01*
X187099571Y-47145012D01*
X186902035Y-46849379D01*
X186650621Y-46597965D01*
X186354988Y-46400429D01*
X186026499Y-46264365D01*
X185677777Y-46195000D01*
X185322223Y-46195000D01*
X184973501Y-46264365D01*
X184645012Y-46400429D01*
X184349379Y-46597965D01*
X184097965Y-46849379D01*
X183900429Y-47145012D01*
X183764365Y-47473501D01*
X183695000Y-47822223D01*
X182297061Y-47822223D01*
X182267139Y-47591530D01*
X182153495Y-47254627D01*
X182038389Y-47039275D01*
X181756604Y-46923004D01*
X181871873Y-46807735D01*
X181819470Y-46755332D01*
X185000001Y-43574802D01*
X188803710Y-47378512D01*
X188764365Y-47473501D01*
X188695000Y-47822223D01*
X188695000Y-48177777D01*
X188764365Y-48526499D01*
X188900429Y-48854988D01*
X189097965Y-49150621D01*
X189349379Y-49402035D01*
X189645012Y-49599571D01*
X189973501Y-49735635D01*
X190322223Y-49805000D01*
X190677777Y-49805000D01*
X191026499Y-49735635D01*
X191354988Y-49599571D01*
X191650621Y-49402035D01*
X191902035Y-49150621D01*
X192099571Y-48854988D01*
X192235635Y-48526499D01*
X192305000Y-48177777D01*
X192305000Y-47822223D01*
X192235635Y-47473501D01*
X192099571Y-47145012D01*
X191902035Y-46849379D01*
X191650621Y-46597965D01*
X191354988Y-46400429D01*
X191026499Y-46264365D01*
X190677777Y-46195000D01*
X190322223Y-46195000D01*
X189973501Y-46264365D01*
X189878512Y-46303710D01*
X186074801Y-42500000D01*
X187591070Y-40983731D01*
X187848816Y-41035000D01*
X188151184Y-41035000D01*
X188447743Y-40976011D01*
X188727095Y-40860299D01*
X188978505Y-40692312D01*
X189192312Y-40478505D01*
X189360299Y-40227095D01*
X189476011Y-39947743D01*
X189535000Y-39651184D01*
X189535000Y-39348816D01*
X189476011Y-39052257D01*
X189360299Y-38772905D01*
X189192312Y-38521495D01*
X188978505Y-38307688D01*
X188727095Y-38139701D01*
X188447743Y-38023989D01*
X188151184Y-37965000D01*
X187848816Y-37965000D01*
X187552257Y-38023989D01*
X187272905Y-38139701D01*
X187021495Y-38307688D01*
X186807688Y-38521495D01*
X186750000Y-38607831D01*
X186692312Y-38521495D01*
X186478505Y-38307688D01*
X186227095Y-38139701D01*
X185947743Y-38023989D01*
X185651184Y-37965000D01*
X185348816Y-37965000D01*
X185052257Y-38023989D01*
X184772905Y-38139701D01*
X184521495Y-38307688D01*
X184483880Y-38345303D01*
X184430537Y-38245506D01*
X184351185Y-38148815D01*
X184254494Y-38069463D01*
X184144180Y-38010498D01*
X184024482Y-37974188D01*
X183900000Y-37961928D01*
X183285750Y-37965000D01*
X183127000Y-38123750D01*
X183127000Y-39373000D01*
X183147000Y-39373000D01*
X183147000Y-39627000D01*
X183127000Y-39627000D01*
X183127000Y-39647000D01*
X182873000Y-39647000D01*
X182873000Y-39627000D01*
X181623750Y-39627000D01*
X181465000Y-39785750D01*
X181461928Y-40400000D01*
X181474188Y-40524482D01*
X181510498Y-40644180D01*
X181569463Y-40754494D01*
X181648815Y-40851185D01*
X181745506Y-40930537D01*
X181855820Y-40989502D01*
X181975518Y-41025812D01*
X182100000Y-41038072D01*
X182714250Y-41035000D01*
X182872998Y-40876252D01*
X182872998Y-41035000D01*
X182890198Y-41035000D01*
X175803999Y-48121200D01*
X175775001Y-48144998D01*
X175751203Y-48173996D01*
X175751202Y-48173997D01*
X175680027Y-48260723D01*
X175609455Y-48392753D01*
X175565999Y-48536014D01*
X175551325Y-48684999D01*
X175555002Y-48722332D01*
X175555001Y-64950197D01*
X174085000Y-66420198D01*
X174085000Y-66293740D01*
X174027932Y-66006842D01*
X173915990Y-65736589D01*
X173753475Y-65493368D01*
X173621620Y-65361513D01*
X173694180Y-65339502D01*
X173804494Y-65280537D01*
X173901185Y-65201185D01*
X173980537Y-65104494D01*
X174039502Y-64994180D01*
X174075812Y-64874482D01*
X174088072Y-64750000D01*
X174085000Y-64185750D01*
X173926250Y-64027000D01*
X172727000Y-64027000D01*
X172727000Y-64047000D01*
X172473000Y-64047000D01*
X172473000Y-64027000D01*
X171273750Y-64027000D01*
X171115000Y-64185750D01*
X171111928Y-64750000D01*
X171124188Y-64874482D01*
X171160498Y-64994180D01*
X171219463Y-65104494D01*
X171298815Y-65201185D01*
X171395506Y-65280537D01*
X171505820Y-65339502D01*
X171578380Y-65361513D01*
X171446525Y-65493368D01*
X171284010Y-65736589D01*
X171172068Y-66006842D01*
X171115000Y-66293740D01*
X171115000Y-66586260D01*
X171158791Y-66806408D01*
X170489003Y-67476196D01*
X170459999Y-67499999D01*
X170404871Y-67567174D01*
X170365026Y-67615724D01*
X170295924Y-67745003D01*
X170294454Y-67747754D01*
X170250997Y-67891015D01*
X170240000Y-68002668D01*
X170240000Y-68002678D01*
X170236324Y-68040000D01*
X169685000Y-68040000D01*
X169685000Y-63050000D01*
X171111928Y-63050000D01*
X171115000Y-63614250D01*
X171273750Y-63773000D01*
X172473000Y-63773000D01*
X172473000Y-62573750D01*
X172727000Y-62573750D01*
X172727000Y-63773000D01*
X173926250Y-63773000D01*
X174085000Y-63614250D01*
X174088072Y-63050000D01*
X174075812Y-62925518D01*
X174039502Y-62805820D01*
X173980537Y-62695506D01*
X173901185Y-62598815D01*
X173804494Y-62519463D01*
X173694180Y-62460498D01*
X173574482Y-62424188D01*
X173450000Y-62411928D01*
X172885750Y-62415000D01*
X172727000Y-62573750D01*
X172473000Y-62573750D01*
X172314250Y-62415000D01*
X171750000Y-62411928D01*
X171625518Y-62424188D01*
X171505820Y-62460498D01*
X171395506Y-62519463D01*
X171298815Y-62598815D01*
X171219463Y-62695506D01*
X171160498Y-62805820D01*
X171124188Y-62925518D01*
X171111928Y-63050000D01*
X169685000Y-63050000D01*
X169685000Y-38600000D01*
X181461928Y-38600000D01*
X181465000Y-39214250D01*
X181623750Y-39373000D01*
X182873000Y-39373000D01*
X182873000Y-38123750D01*
X182714250Y-37965000D01*
X182100000Y-37961928D01*
X181975518Y-37974188D01*
X181855820Y-38010498D01*
X181745506Y-38069463D01*
X181648815Y-38148815D01*
X181569463Y-38245506D01*
X181510498Y-38355820D01*
X181474188Y-38475518D01*
X181461928Y-38600000D01*
X169685000Y-38600000D01*
X169685000Y-31642002D01*
X178705000Y-31642002D01*
X178705000Y-32357997D01*
X178733867Y-32651087D01*
X178847943Y-33027146D01*
X179033193Y-33373725D01*
X179282497Y-33677503D01*
X179586275Y-33926807D01*
X179932853Y-34112057D01*
X180308912Y-34226133D01*
X180700000Y-34264652D01*
X181091087Y-34226133D01*
X181467146Y-34112057D01*
X181813725Y-33926807D01*
X182117503Y-33677503D01*
X182366807Y-33373725D01*
X182552057Y-33027147D01*
X182666133Y-32651088D01*
X182695000Y-32357998D01*
X182695000Y-31642003D01*
X182695000Y-31642002D01*
X188305000Y-31642002D01*
X188305000Y-32357997D01*
X188333867Y-32651087D01*
X188447943Y-33027146D01*
X188633193Y-33373725D01*
X188882497Y-33677503D01*
X189186275Y-33926807D01*
X189532853Y-34112057D01*
X189908912Y-34226133D01*
X190300000Y-34264652D01*
X190691087Y-34226133D01*
X191067146Y-34112057D01*
X191413725Y-33926807D01*
X191717503Y-33677503D01*
X191966807Y-33373725D01*
X192152057Y-33027147D01*
X192266133Y-32651088D01*
X192295000Y-32357998D01*
X192295000Y-31642003D01*
X192266133Y-31348913D01*
X192152057Y-30972853D01*
X191966807Y-30626275D01*
X191717503Y-30322497D01*
X191413725Y-30073193D01*
X191067147Y-29887943D01*
X190691088Y-29773867D01*
X190300000Y-29735348D01*
X189908913Y-29773867D01*
X189532854Y-29887943D01*
X189186276Y-30073193D01*
X188882498Y-30322497D01*
X188633193Y-30626275D01*
X188447943Y-30972853D01*
X188333867Y-31348912D01*
X188305000Y-31642002D01*
X182695000Y-31642002D01*
X182666133Y-31348913D01*
X182552057Y-30972853D01*
X182366807Y-30626275D01*
X182117503Y-30322497D01*
X181813725Y-30073193D01*
X181467147Y-29887943D01*
X181091088Y-29773867D01*
X180700000Y-29735348D01*
X180308913Y-29773867D01*
X179932854Y-29887943D01*
X179586276Y-30073193D01*
X179282498Y-30322497D01*
X179033193Y-30626275D01*
X178847943Y-30972853D01*
X178733867Y-31348912D01*
X178705000Y-31642002D01*
X169685000Y-31642002D01*
X169685000Y-24779872D01*
X199265000Y-24779872D01*
X199265000Y-25220128D01*
X199350890Y-25651925D01*
X199519369Y-26058669D01*
X199763962Y-26424729D01*
X200075271Y-26736038D01*
X200441331Y-26980631D01*
X200848075Y-27149110D01*
X201279872Y-27235000D01*
X201720128Y-27235000D01*
X202151925Y-27149110D01*
X202558669Y-26980631D01*
X202924729Y-26736038D01*
X203236038Y-26424729D01*
X203480631Y-26058669D01*
X203649110Y-25651925D01*
X203735000Y-25220128D01*
X203735000Y-24779872D01*
X203649110Y-24348075D01*
X203480631Y-23941331D01*
X203236038Y-23575271D01*
X202924729Y-23263962D01*
X202558669Y-23019369D01*
X202151925Y-22850890D01*
X201720128Y-22765000D01*
X201279872Y-22765000D01*
X200848075Y-22850890D01*
X200441331Y-23019369D01*
X200075271Y-23263962D01*
X199763962Y-23575271D01*
X199519369Y-23941331D01*
X199350890Y-24348075D01*
X199265000Y-24779872D01*
X169685000Y-24779872D01*
X169685000Y-22685000D01*
X203815000Y-22685000D01*
X203815001Y-81966343D01*
%TA.AperFunction,Conductor*%
D19*
G36*
X203815001Y-81966343D02*
G01*
X203811686Y-82000000D01*
X203824912Y-82134283D01*
X203864081Y-82263406D01*
X203927688Y-82382407D01*
X204013289Y-82486711D01*
X204117593Y-82572312D01*
X204236594Y-82635919D01*
X204365717Y-82675088D01*
X204466353Y-82685000D01*
X204500000Y-82688314D01*
X204533647Y-82685000D01*
X234815001Y-82685000D01*
X234815000Y-141315000D01*
X169685000Y-141315000D01*
X169685000Y-139256602D01*
X179423003Y-139256602D01*
X179539275Y-139538389D01*
X179857860Y-139696257D01*
X180201122Y-139788938D01*
X180555869Y-139812873D01*
X180908470Y-139767139D01*
X181245373Y-139653495D01*
X181460725Y-139538389D01*
X181576997Y-139256602D01*
X180500000Y-138179605D01*
X179423003Y-139256602D01*
X169685000Y-139256602D01*
X169685000Y-138055869D01*
X178687127Y-138055869D01*
X178732861Y-138408470D01*
X178846505Y-138745373D01*
X178961611Y-138960725D01*
X179243398Y-139076997D01*
X180320395Y-138000000D01*
X180679605Y-138000000D01*
X181756602Y-139076997D01*
X182038389Y-138960725D01*
X182196257Y-138642140D01*
X182288938Y-138298878D01*
X182312873Y-137944131D01*
X182267139Y-137591530D01*
X182153495Y-137254627D01*
X182038389Y-137039275D01*
X181756602Y-136923003D01*
X180679605Y-138000000D01*
X180320395Y-138000000D01*
X179243398Y-136923003D01*
X178961611Y-137039275D01*
X178803743Y-137357860D01*
X178711062Y-137701122D01*
X178687127Y-138055869D01*
X169685000Y-138055869D01*
X169685000Y-136743398D01*
X179423003Y-136743398D01*
X180500000Y-137820395D01*
X181576997Y-136743398D01*
X181460725Y-136461611D01*
X181142140Y-136303743D01*
X180798878Y-136211062D01*
X180444131Y-136187127D01*
X180091530Y-136232861D01*
X179754627Y-136346505D01*
X179539275Y-136461611D01*
X179423003Y-136743398D01*
X169685000Y-136743398D01*
X169685000Y-130400000D01*
X181461928Y-130400000D01*
X181474188Y-130524482D01*
X181510498Y-130644180D01*
X181569463Y-130754494D01*
X181648815Y-130851185D01*
X181745506Y-130930537D01*
X181855820Y-130989502D01*
X181975518Y-131025812D01*
X182100000Y-131038072D01*
X182714250Y-131035000D01*
X182873000Y-130876250D01*
X182873000Y-129627000D01*
X181623750Y-129627000D01*
X181465000Y-129785750D01*
X181461928Y-130400000D01*
X169685000Y-130400000D01*
X169685000Y-68040000D01*
X170236324Y-68040000D01*
X170240000Y-68077322D01*
X170240001Y-79398668D01*
X170236324Y-79436000D01*
X170240001Y-79473333D01*
X170250998Y-79584986D01*
X170264180Y-79628442D01*
X170294454Y-79728246D01*
X170365026Y-79860276D01*
X170436201Y-79947002D01*
X170460000Y-79976001D01*
X170488998Y-79999799D01*
X171315201Y-80826003D01*
X171339000Y-80855002D01*
X171355955Y-80868916D01*
X171284010Y-80976589D01*
X171172068Y-81246842D01*
X171115000Y-81533740D01*
X171115000Y-81826260D01*
X171172068Y-82113158D01*
X171284010Y-82383411D01*
X171446525Y-82626632D01*
X171653368Y-82833475D01*
X171827760Y-82950000D01*
X171653368Y-83066525D01*
X171446525Y-83273368D01*
X171284010Y-83516589D01*
X171172068Y-83786842D01*
X171115000Y-84073740D01*
X171115000Y-84366260D01*
X171172068Y-84653158D01*
X171284010Y-84923411D01*
X171446525Y-85166632D01*
X171653368Y-85373475D01*
X171827760Y-85490000D01*
X171653368Y-85606525D01*
X171446525Y-85813368D01*
X171284010Y-86056589D01*
X171172068Y-86326842D01*
X171115000Y-86613740D01*
X171115000Y-86906260D01*
X171172068Y-87193158D01*
X171284010Y-87463411D01*
X171446525Y-87706632D01*
X171653368Y-87913475D01*
X171827760Y-88030000D01*
X171653368Y-88146525D01*
X171446525Y-88353368D01*
X171284010Y-88596589D01*
X171172068Y-88866842D01*
X171115000Y-89153740D01*
X171115000Y-89446260D01*
X171172068Y-89733158D01*
X171284010Y-90003411D01*
X171446525Y-90246632D01*
X171653368Y-90453475D01*
X171827760Y-90570000D01*
X171653368Y-90686525D01*
X171446525Y-90893368D01*
X171284010Y-91136589D01*
X171172068Y-91406842D01*
X171115000Y-91693740D01*
X171115000Y-91986260D01*
X171172068Y-92273158D01*
X171284010Y-92543411D01*
X171446525Y-92786632D01*
X171653368Y-92993475D01*
X171896589Y-93155990D01*
X172166842Y-93267932D01*
X172453740Y-93325000D01*
X172746260Y-93325000D01*
X173033158Y-93267932D01*
X173303411Y-93155990D01*
X173546632Y-92993475D01*
X173753475Y-92786632D01*
X173878178Y-92600000D01*
X177365199Y-92600000D01*
X177523000Y-92757802D01*
X177523001Y-122825041D01*
X177519324Y-122862374D01*
X177523001Y-122899707D01*
X177533998Y-123011360D01*
X177547180Y-123054816D01*
X177577454Y-123154620D01*
X177648026Y-123286650D01*
X177667219Y-123310036D01*
X177743000Y-123402375D01*
X177771998Y-123426173D01*
X179251847Y-124906023D01*
X179275646Y-124935022D01*
X179391371Y-125029995D01*
X179523400Y-125100567D01*
X179666661Y-125144024D01*
X179778314Y-125155021D01*
X179778323Y-125155021D01*
X179815646Y-125158697D01*
X179852969Y-125155021D01*
X180080221Y-125155021D01*
X182890199Y-127965000D01*
X182872998Y-127965000D01*
X182872998Y-128123748D01*
X182714250Y-127965000D01*
X182100000Y-127961928D01*
X181975518Y-127974188D01*
X181855820Y-128010498D01*
X181745506Y-128069463D01*
X181648815Y-128148815D01*
X181569463Y-128245506D01*
X181510498Y-128355820D01*
X181474188Y-128475518D01*
X181461928Y-128600000D01*
X181465000Y-129214250D01*
X181623750Y-129373000D01*
X182873000Y-129373000D01*
X182873000Y-129353000D01*
X183127000Y-129353000D01*
X183127000Y-129373000D01*
X183147000Y-129373000D01*
X183147000Y-129627000D01*
X183127000Y-129627000D01*
X183127000Y-130876250D01*
X183285750Y-131035000D01*
X183900000Y-131038072D01*
X184024482Y-131025812D01*
X184144180Y-130989502D01*
X184254494Y-130930537D01*
X184351185Y-130851185D01*
X184430537Y-130754494D01*
X184483880Y-130654697D01*
X184521495Y-130692312D01*
X184740001Y-130838313D01*
X184740000Y-136361084D01*
X184645012Y-136400429D01*
X184349379Y-136597965D01*
X184097965Y-136849379D01*
X183900429Y-137145012D01*
X183764365Y-137473501D01*
X183695000Y-137822223D01*
X183695000Y-138177777D01*
X183764365Y-138526499D01*
X183900429Y-138854988D01*
X184097965Y-139150621D01*
X184349379Y-139402035D01*
X184645012Y-139599571D01*
X184973501Y-139735635D01*
X185322223Y-139805000D01*
X185677777Y-139805000D01*
X186026499Y-139735635D01*
X186354988Y-139599571D01*
X186650621Y-139402035D01*
X186902035Y-139150621D01*
X187099571Y-138854988D01*
X187235635Y-138526499D01*
X187305000Y-138177777D01*
X187305000Y-137822223D01*
X187235635Y-137473501D01*
X187099571Y-137145012D01*
X186902035Y-136849379D01*
X186650621Y-136597965D01*
X186354988Y-136400429D01*
X186260000Y-136361084D01*
X186260000Y-130838313D01*
X186478505Y-130692312D01*
X186692312Y-130478505D01*
X186750000Y-130392169D01*
X186807688Y-130478505D01*
X187021495Y-130692312D01*
X187272905Y-130860299D01*
X187552257Y-130976011D01*
X187848816Y-131035000D01*
X188151184Y-131035000D01*
X188408930Y-130983731D01*
X189740001Y-132314803D01*
X189740000Y-136361084D01*
X189645012Y-136400429D01*
X189349379Y-136597965D01*
X189097965Y-136849379D01*
X188900429Y-137145012D01*
X188764365Y-137473501D01*
X188695000Y-137822223D01*
X188695000Y-138177777D01*
X188764365Y-138526499D01*
X188900429Y-138854988D01*
X189097965Y-139150621D01*
X189349379Y-139402035D01*
X189645012Y-139599571D01*
X189973501Y-139735635D01*
X190322223Y-139805000D01*
X190677777Y-139805000D01*
X191026499Y-139735635D01*
X191354988Y-139599571D01*
X191650621Y-139402035D01*
X191902035Y-139150621D01*
X192099571Y-138854988D01*
X192172106Y-138679872D01*
X199265000Y-138679872D01*
X199265000Y-139120128D01*
X199350890Y-139551925D01*
X199519369Y-139958669D01*
X199763962Y-140324729D01*
X200075271Y-140636038D01*
X200441331Y-140880631D01*
X200848075Y-141049110D01*
X201279872Y-141135000D01*
X201720128Y-141135000D01*
X202151925Y-141049110D01*
X202558669Y-140880631D01*
X202924729Y-140636038D01*
X203236038Y-140324729D01*
X203480631Y-139958669D01*
X203649110Y-139551925D01*
X203735000Y-139120128D01*
X203735000Y-138679872D01*
X203649110Y-138248075D01*
X203480631Y-137841331D01*
X203236038Y-137475271D01*
X202924729Y-137163962D01*
X202558669Y-136919369D01*
X202151925Y-136750890D01*
X201720128Y-136665000D01*
X201279872Y-136665000D01*
X200848075Y-136750890D01*
X200441331Y-136919369D01*
X200075271Y-137163962D01*
X199763962Y-137475271D01*
X199519369Y-137841331D01*
X199350890Y-138248075D01*
X199265000Y-138679872D01*
X192172106Y-138679872D01*
X192235635Y-138526499D01*
X192305000Y-138177777D01*
X192305000Y-137822223D01*
X192235635Y-137473501D01*
X192099571Y-137145012D01*
X191902035Y-136849379D01*
X191650621Y-136597965D01*
X191354988Y-136400429D01*
X191260000Y-136361084D01*
X191260000Y-132037323D01*
X191263676Y-132000000D01*
X191260000Y-131962677D01*
X191260000Y-131962667D01*
X191249003Y-131851014D01*
X191205546Y-131707753D01*
X191134974Y-131575723D01*
X191063799Y-131488997D01*
X191040001Y-131459999D01*
X191011003Y-131436201D01*
X189483731Y-129908930D01*
X189535000Y-129651184D01*
X189535000Y-129348816D01*
X189476011Y-129052257D01*
X189360299Y-128772905D01*
X189192312Y-128521495D01*
X188978505Y-128307688D01*
X188858123Y-128227251D01*
X221652354Y-128227251D01*
X221814381Y-128547930D01*
X222197675Y-128743725D01*
X222611803Y-128860981D01*
X223040848Y-128895192D01*
X223468324Y-128845042D01*
X223877802Y-128712461D01*
X224185619Y-128547930D01*
X224347646Y-128227251D01*
X223000000Y-126879605D01*
X221652354Y-128227251D01*
X188858123Y-128227251D01*
X188727095Y-128139701D01*
X188447743Y-128023989D01*
X188151184Y-127965000D01*
X187848816Y-127965000D01*
X187591070Y-128016269D01*
X186315649Y-126740848D01*
X220804808Y-126740848D01*
X220854958Y-127168324D01*
X220987539Y-127577802D01*
X221152070Y-127885619D01*
X221472749Y-128047646D01*
X222820395Y-126700000D01*
X223179605Y-126700000D01*
X224527251Y-128047646D01*
X224847930Y-127885619D01*
X225043725Y-127502325D01*
X225160981Y-127088197D01*
X225195192Y-126659152D01*
X225145042Y-126231676D01*
X225012461Y-125822198D01*
X224847930Y-125514381D01*
X224527251Y-125352354D01*
X223179605Y-126700000D01*
X222820395Y-126700000D01*
X221472749Y-125352354D01*
X221152070Y-125514381D01*
X220956275Y-125897675D01*
X220839019Y-126311803D01*
X220804808Y-126740848D01*
X186315649Y-126740848D01*
X184747550Y-125172749D01*
X221652354Y-125172749D01*
X223000000Y-126520395D01*
X224347646Y-125172749D01*
X224185619Y-124852070D01*
X223802325Y-124656275D01*
X223388197Y-124539019D01*
X222959152Y-124504808D01*
X222531676Y-124554958D01*
X222122198Y-124687539D01*
X221814381Y-124852070D01*
X221652354Y-125172749D01*
X184747550Y-125172749D01*
X183008814Y-123434013D01*
X182985011Y-123405009D01*
X182869286Y-123310036D01*
X182737257Y-123239464D01*
X182593996Y-123196007D01*
X182482343Y-123185010D01*
X182482332Y-123185010D01*
X182468410Y-123183639D01*
X182552057Y-123027147D01*
X182666133Y-122651088D01*
X182695000Y-122357998D01*
X182695000Y-121642003D01*
X182695000Y-121642002D01*
X188305000Y-121642002D01*
X188305000Y-122357997D01*
X188333867Y-122651087D01*
X188447943Y-123027146D01*
X188633193Y-123373725D01*
X188882497Y-123677503D01*
X189186275Y-123926807D01*
X189532853Y-124112057D01*
X189908912Y-124226133D01*
X190300000Y-124264652D01*
X190691087Y-124226133D01*
X191067146Y-124112057D01*
X191413725Y-123926807D01*
X191717503Y-123677503D01*
X191966807Y-123373725D01*
X192152057Y-123027147D01*
X192266133Y-122651088D01*
X192295000Y-122357998D01*
X192295000Y-121642003D01*
X192266133Y-121348913D01*
X192152057Y-120972853D01*
X191966807Y-120626275D01*
X191717503Y-120322497D01*
X191413725Y-120073193D01*
X191067147Y-119887943D01*
X190691088Y-119773867D01*
X190300000Y-119735348D01*
X189908913Y-119773867D01*
X189532854Y-119887943D01*
X189186276Y-120073193D01*
X188882498Y-120322497D01*
X188633193Y-120626275D01*
X188447943Y-120972853D01*
X188333867Y-121348912D01*
X188305000Y-121642002D01*
X182695000Y-121642002D01*
X182666133Y-121348913D01*
X182552057Y-120972853D01*
X182366807Y-120626275D01*
X182117503Y-120322497D01*
X181813725Y-120073193D01*
X181467147Y-119887943D01*
X181091088Y-119773867D01*
X180700000Y-119735348D01*
X180308913Y-119773867D01*
X179932854Y-119887943D01*
X179774990Y-119972323D01*
X179774990Y-109655193D01*
X179857860Y-109696257D01*
X180201122Y-109788938D01*
X180555869Y-109812873D01*
X180908470Y-109767139D01*
X181245373Y-109653495D01*
X181460725Y-109538389D01*
X181576997Y-109256602D01*
X180500000Y-108179605D01*
X180485858Y-108193748D01*
X180306253Y-108014143D01*
X180320395Y-108000000D01*
X180679605Y-108000000D01*
X181756602Y-109076997D01*
X182038389Y-108960725D01*
X182196257Y-108642140D01*
X182288938Y-108298878D01*
X182312873Y-107944131D01*
X182267139Y-107591530D01*
X182153495Y-107254627D01*
X182038389Y-107039275D01*
X181756602Y-106923003D01*
X180679605Y-108000000D01*
X180320395Y-108000000D01*
X180306253Y-107985858D01*
X180485858Y-107806253D01*
X180500000Y-107820395D01*
X181576997Y-106743398D01*
X181460725Y-106461611D01*
X181142140Y-106303743D01*
X180798878Y-106211062D01*
X180444131Y-106187127D01*
X180091530Y-106232861D01*
X179774990Y-106339636D01*
X179774990Y-100400000D01*
X181461928Y-100400000D01*
X181474188Y-100524482D01*
X181510498Y-100644180D01*
X181569463Y-100754494D01*
X181648815Y-100851185D01*
X181745506Y-100930537D01*
X181855820Y-100989502D01*
X181975518Y-101025812D01*
X182100000Y-101038072D01*
X182714250Y-101035000D01*
X182873000Y-100876250D01*
X182873000Y-99627000D01*
X181623750Y-99627000D01*
X181465000Y-99785750D01*
X181461928Y-100400000D01*
X179774990Y-100400000D01*
X179774990Y-98600000D01*
X181461928Y-98600000D01*
X181465000Y-99214250D01*
X181623750Y-99373000D01*
X182873000Y-99373000D01*
X182873000Y-98123750D01*
X182714250Y-97965000D01*
X182100000Y-97961928D01*
X181975518Y-97974188D01*
X181855820Y-98010498D01*
X181745506Y-98069463D01*
X181648815Y-98148815D01*
X181569463Y-98245506D01*
X181510498Y-98355820D01*
X181474188Y-98475518D01*
X181461928Y-98600000D01*
X179774990Y-98600000D01*
X179774990Y-94027677D01*
X179932853Y-94112057D01*
X180308912Y-94226133D01*
X180700000Y-94264652D01*
X181091087Y-94226133D01*
X181467146Y-94112057D01*
X181813725Y-93926807D01*
X182117503Y-93677503D01*
X182366807Y-93373725D01*
X182552057Y-93027147D01*
X182666133Y-92651088D01*
X182695000Y-92357998D01*
X182695000Y-91647721D01*
X184740000Y-93692721D01*
X184740001Y-98161687D01*
X184521495Y-98307688D01*
X184483880Y-98345303D01*
X184430537Y-98245506D01*
X184351185Y-98148815D01*
X184254494Y-98069463D01*
X184144180Y-98010498D01*
X184024482Y-97974188D01*
X183900000Y-97961928D01*
X183285750Y-97965000D01*
X183127000Y-98123750D01*
X183127000Y-99373000D01*
X183147000Y-99373000D01*
X183147000Y-99627000D01*
X183127000Y-99627000D01*
X183127000Y-100876250D01*
X183285750Y-101035000D01*
X183900000Y-101038072D01*
X184024482Y-101025812D01*
X184144180Y-100989502D01*
X184254494Y-100930537D01*
X184351185Y-100851185D01*
X184430537Y-100754494D01*
X184483880Y-100654697D01*
X184521495Y-100692312D01*
X184740001Y-100838313D01*
X184740000Y-106361084D01*
X184645012Y-106400429D01*
X184349379Y-106597965D01*
X184097965Y-106849379D01*
X183900429Y-107145012D01*
X183764365Y-107473501D01*
X183695000Y-107822223D01*
X183695000Y-108177777D01*
X183764365Y-108526499D01*
X183900429Y-108854988D01*
X184097965Y-109150621D01*
X184349379Y-109402035D01*
X184645012Y-109599571D01*
X184973501Y-109735635D01*
X185322223Y-109805000D01*
X185677777Y-109805000D01*
X186026499Y-109735635D01*
X186354988Y-109599571D01*
X186650621Y-109402035D01*
X186902035Y-109150621D01*
X187099571Y-108854988D01*
X187235635Y-108526499D01*
X187305000Y-108177777D01*
X187305000Y-107822223D01*
X187235635Y-107473501D01*
X187099571Y-107145012D01*
X186902035Y-106849379D01*
X186650621Y-106597965D01*
X186354988Y-106400429D01*
X186260000Y-106361084D01*
X186260000Y-100838313D01*
X186478505Y-100692312D01*
X186692312Y-100478505D01*
X186750000Y-100392169D01*
X186807688Y-100478505D01*
X187021495Y-100692312D01*
X187272905Y-100860299D01*
X187552257Y-100976011D01*
X187848816Y-101035000D01*
X188151184Y-101035000D01*
X188408930Y-100983731D01*
X189740001Y-102314803D01*
X189740000Y-106361084D01*
X189645012Y-106400429D01*
X189349379Y-106597965D01*
X189097965Y-106849379D01*
X188900429Y-107145012D01*
X188764365Y-107473501D01*
X188695000Y-107822223D01*
X188695000Y-108177777D01*
X188764365Y-108526499D01*
X188900429Y-108854988D01*
X189097965Y-109150621D01*
X189349379Y-109402035D01*
X189645012Y-109599571D01*
X189973501Y-109735635D01*
X190322223Y-109805000D01*
X190677777Y-109805000D01*
X191026499Y-109735635D01*
X191354988Y-109599571D01*
X191650621Y-109402035D01*
X191902035Y-109150621D01*
X192099571Y-108854988D01*
X192235635Y-108526499D01*
X192305000Y-108177777D01*
X192305000Y-107822223D01*
X192235635Y-107473501D01*
X192099571Y-107145012D01*
X191902035Y-106849379D01*
X191650621Y-106597965D01*
X191354988Y-106400429D01*
X191260000Y-106361084D01*
X191260000Y-102037323D01*
X191263676Y-102000000D01*
X191260000Y-101962677D01*
X191260000Y-101962667D01*
X191249003Y-101851014D01*
X191205546Y-101707753D01*
X191134974Y-101575723D01*
X191063799Y-101488997D01*
X191040001Y-101459999D01*
X191011003Y-101436201D01*
X189483731Y-99908930D01*
X189535000Y-99651184D01*
X189535000Y-99348816D01*
X189476011Y-99052257D01*
X189360299Y-98772905D01*
X189192312Y-98521495D01*
X188978505Y-98307688D01*
X188760000Y-98161687D01*
X188760000Y-94577323D01*
X188763676Y-94540000D01*
X188760000Y-94502677D01*
X188760000Y-94502667D01*
X188749003Y-94391014D01*
X188705546Y-94247753D01*
X188634975Y-94115725D01*
X188634974Y-94115723D01*
X188563799Y-94028997D01*
X188540001Y-93999999D01*
X188511004Y-93976202D01*
X178243804Y-83709003D01*
X178220001Y-83679999D01*
X178104276Y-83585026D01*
X177972247Y-83514454D01*
X177828986Y-83470997D01*
X177717333Y-83460000D01*
X177717322Y-83460000D01*
X177680000Y-83456324D01*
X177642678Y-83460000D01*
X173878178Y-83460000D01*
X173753475Y-83273368D01*
X173546632Y-83066525D01*
X173372240Y-82950000D01*
X173546632Y-82833475D01*
X173753475Y-82626632D01*
X173878178Y-82440000D01*
X182308162Y-82440000D01*
X189704145Y-89835983D01*
X189532854Y-89887943D01*
X189186276Y-90073193D01*
X188882498Y-90322497D01*
X188633193Y-90626275D01*
X188447943Y-90972853D01*
X188333867Y-91348912D01*
X188305000Y-91642002D01*
X188305000Y-92357997D01*
X188333867Y-92651087D01*
X188447943Y-93027146D01*
X188633193Y-93373725D01*
X188882497Y-93677503D01*
X189186275Y-93926807D01*
X189532853Y-94112057D01*
X189908912Y-94226133D01*
X190300000Y-94264652D01*
X190691087Y-94226133D01*
X191067146Y-94112057D01*
X191413725Y-93926807D01*
X191717503Y-93677503D01*
X191966807Y-93373725D01*
X192152057Y-93027147D01*
X192266133Y-92651088D01*
X192288828Y-92420666D01*
X220996166Y-121128005D01*
X220898969Y-121362659D01*
X220815000Y-121784796D01*
X220815000Y-122215204D01*
X220898969Y-122637341D01*
X221063678Y-123034985D01*
X221302800Y-123392856D01*
X221607144Y-123697200D01*
X221965015Y-123936322D01*
X222362659Y-124101031D01*
X222784796Y-124185000D01*
X223215204Y-124185000D01*
X223637341Y-124101031D01*
X224034985Y-123936322D01*
X224392856Y-123697200D01*
X224697200Y-123392856D01*
X224936322Y-123034985D01*
X225101031Y-122637341D01*
X225185000Y-122215204D01*
X225185000Y-121784796D01*
X225101031Y-121362659D01*
X224936322Y-120965015D01*
X224697200Y-120607144D01*
X224392856Y-120302800D01*
X224034985Y-120063678D01*
X223637341Y-119898969D01*
X223215204Y-119815000D01*
X222784796Y-119815000D01*
X222362659Y-119898969D01*
X222047342Y-120029577D01*
X219102561Y-117084796D01*
X220815000Y-117084796D01*
X220815000Y-117515204D01*
X220898969Y-117937341D01*
X221063678Y-118334985D01*
X221302800Y-118692856D01*
X221607144Y-118997200D01*
X221965015Y-119236322D01*
X222362659Y-119401031D01*
X222784796Y-119485000D01*
X223215204Y-119485000D01*
X223637341Y-119401031D01*
X224034985Y-119236322D01*
X224392856Y-118997200D01*
X224697200Y-118692856D01*
X224936322Y-118334985D01*
X225101031Y-117937341D01*
X225185000Y-117515204D01*
X225185000Y-117084796D01*
X225101031Y-116662659D01*
X224936322Y-116265015D01*
X224697200Y-115907144D01*
X224392856Y-115602800D01*
X224034985Y-115363678D01*
X223637341Y-115198969D01*
X223215204Y-115115000D01*
X222784796Y-115115000D01*
X222362659Y-115198969D01*
X221965015Y-115363678D01*
X221607144Y-115602800D01*
X221302800Y-115907144D01*
X221063678Y-116265015D01*
X220898969Y-116662659D01*
X220815000Y-117084796D01*
X219102561Y-117084796D01*
X211274367Y-109256602D01*
X216923003Y-109256602D01*
X217039275Y-109538389D01*
X217357860Y-109696257D01*
X217701122Y-109788938D01*
X218055869Y-109812873D01*
X218408470Y-109767139D01*
X218745373Y-109653495D01*
X218960725Y-109538389D01*
X219076997Y-109256602D01*
X218000000Y-108179605D01*
X216923003Y-109256602D01*
X211274367Y-109256602D01*
X210073634Y-108055869D01*
X216187127Y-108055869D01*
X216232861Y-108408470D01*
X216346505Y-108745373D01*
X216461611Y-108960725D01*
X216743398Y-109076997D01*
X217820395Y-108000000D01*
X218179605Y-108000000D01*
X219256602Y-109076997D01*
X219538389Y-108960725D01*
X219696257Y-108642140D01*
X219788938Y-108298878D01*
X219812873Y-107944131D01*
X219797061Y-107822223D01*
X221195000Y-107822223D01*
X221195000Y-108177777D01*
X221264365Y-108526499D01*
X221400429Y-108854988D01*
X221597965Y-109150621D01*
X221849379Y-109402035D01*
X222145012Y-109599571D01*
X222473501Y-109735635D01*
X222822223Y-109805000D01*
X223177777Y-109805000D01*
X223526499Y-109735635D01*
X223854988Y-109599571D01*
X224150621Y-109402035D01*
X224402035Y-109150621D01*
X224599571Y-108854988D01*
X224735635Y-108526499D01*
X224805000Y-108177777D01*
X224805000Y-107822223D01*
X224735635Y-107473501D01*
X224599571Y-107145012D01*
X224402035Y-106849379D01*
X224150621Y-106597965D01*
X223854988Y-106400429D01*
X223526499Y-106264365D01*
X223177777Y-106195000D01*
X222822223Y-106195000D01*
X222473501Y-106264365D01*
X222145012Y-106400429D01*
X221849379Y-106597965D01*
X221597965Y-106849379D01*
X221400429Y-107145012D01*
X221264365Y-107473501D01*
X221195000Y-107822223D01*
X219797061Y-107822223D01*
X219767139Y-107591530D01*
X219653495Y-107254627D01*
X219538389Y-107039275D01*
X219256602Y-106923003D01*
X218179605Y-108000000D01*
X217820395Y-108000000D01*
X216743398Y-106923003D01*
X216461611Y-107039275D01*
X216303743Y-107357860D01*
X216211062Y-107701122D01*
X216187127Y-108055869D01*
X210073634Y-108055869D01*
X208761163Y-106743398D01*
X216923003Y-106743398D01*
X218000000Y-107820395D01*
X219076997Y-106743398D01*
X218960725Y-106461611D01*
X218642140Y-106303743D01*
X218298878Y-106211062D01*
X217944131Y-106187127D01*
X217591530Y-106232861D01*
X217254627Y-106346505D01*
X217039275Y-106461611D01*
X216923003Y-106743398D01*
X208761163Y-106743398D01*
X183186767Y-81169003D01*
X183162964Y-81139999D01*
X183083764Y-81075001D01*
X188539789Y-81075001D01*
X209150806Y-101686020D01*
X209174600Y-101715013D01*
X209203593Y-101738807D01*
X209203597Y-101738811D01*
X209274286Y-101796823D01*
X209290325Y-101809986D01*
X209422354Y-101880558D01*
X209565615Y-101924015D01*
X209677268Y-101935012D01*
X209677277Y-101935012D01*
X209714600Y-101938688D01*
X209751923Y-101935012D01*
X223064989Y-101935012D01*
X223064988Y-103787665D01*
X223061312Y-103824988D01*
X223064988Y-103862310D01*
X223064988Y-103862320D01*
X223075985Y-103973973D01*
X223119442Y-104117234D01*
X223190014Y-104249264D01*
X223229859Y-104297814D01*
X223284987Y-104364989D01*
X223313991Y-104388792D01*
X226303710Y-107378512D01*
X226264365Y-107473501D01*
X226195000Y-107822223D01*
X226195000Y-108177777D01*
X226264365Y-108526499D01*
X226400429Y-108854988D01*
X226597965Y-109150621D01*
X226849379Y-109402035D01*
X227145012Y-109599571D01*
X227473501Y-109735635D01*
X227822223Y-109805000D01*
X228177777Y-109805000D01*
X228526499Y-109735635D01*
X228854988Y-109599571D01*
X229150621Y-109402035D01*
X229402035Y-109150621D01*
X229599571Y-108854988D01*
X229735635Y-108526499D01*
X229805000Y-108177777D01*
X229805000Y-107822223D01*
X229735635Y-107473501D01*
X229599571Y-107145012D01*
X229402035Y-106849379D01*
X229150621Y-106597965D01*
X228854988Y-106400429D01*
X228526499Y-106264365D01*
X228177777Y-106195000D01*
X227822223Y-106195000D01*
X227473501Y-106264365D01*
X227378512Y-106303710D01*
X224584988Y-103510187D01*
X224584988Y-101489813D01*
X225091070Y-100983731D01*
X225348816Y-101035000D01*
X225651184Y-101035000D01*
X225947743Y-100976011D01*
X226227095Y-100860299D01*
X226478505Y-100692312D01*
X226692312Y-100478505D01*
X226860299Y-100227095D01*
X226976011Y-99947743D01*
X227035000Y-99651184D01*
X227035000Y-99348816D01*
X226976011Y-99052257D01*
X226860299Y-98772905D01*
X226692312Y-98521495D01*
X226478505Y-98307688D01*
X226227095Y-98139701D01*
X225947743Y-98023989D01*
X225651184Y-97965000D01*
X225348816Y-97965000D01*
X225052257Y-98023989D01*
X224772905Y-98139701D01*
X224521495Y-98307688D01*
X224307688Y-98521495D01*
X224250000Y-98607831D01*
X224192312Y-98521495D01*
X223978505Y-98307688D01*
X223727095Y-98139701D01*
X223447743Y-98023989D01*
X223151184Y-97965000D01*
X222848816Y-97965000D01*
X222552257Y-98023989D01*
X222272905Y-98139701D01*
X222021495Y-98307688D01*
X221983880Y-98345303D01*
X221930537Y-98245506D01*
X221851185Y-98148815D01*
X221754494Y-98069463D01*
X221644180Y-98010498D01*
X221524482Y-97974188D01*
X221400000Y-97961928D01*
X220785750Y-97965000D01*
X220627000Y-98123750D01*
X220627000Y-99373000D01*
X220647000Y-99373000D01*
X220647000Y-99627000D01*
X220627000Y-99627000D01*
X220627000Y-99647000D01*
X220373000Y-99647000D01*
X220373000Y-99627000D01*
X219123750Y-99627000D01*
X218965000Y-99785750D01*
X218964104Y-99965001D01*
X210215803Y-99965001D01*
X208850802Y-98600000D01*
X218961928Y-98600000D01*
X218965000Y-99214250D01*
X219123750Y-99373000D01*
X220373000Y-99373000D01*
X220373000Y-98123750D01*
X220214250Y-97965000D01*
X219600000Y-97961928D01*
X219475518Y-97974188D01*
X219355820Y-98010498D01*
X219245506Y-98069463D01*
X219148815Y-98148815D01*
X219069463Y-98245506D01*
X219010498Y-98355820D01*
X218974188Y-98475518D01*
X218961928Y-98600000D01*
X208850802Y-98600000D01*
X201892804Y-91642002D01*
X216205000Y-91642002D01*
X216205000Y-92357997D01*
X216233867Y-92651087D01*
X216347943Y-93027146D01*
X216533193Y-93373725D01*
X216782497Y-93677503D01*
X217086275Y-93926807D01*
X217432853Y-94112057D01*
X217808912Y-94226133D01*
X218200000Y-94264652D01*
X218591087Y-94226133D01*
X218967146Y-94112057D01*
X219313725Y-93926807D01*
X219617503Y-93677503D01*
X219866807Y-93373725D01*
X220052057Y-93027147D01*
X220166133Y-92651088D01*
X220195000Y-92357998D01*
X220195000Y-91642003D01*
X220195000Y-91642002D01*
X225805000Y-91642002D01*
X225805000Y-92357997D01*
X225833867Y-92651087D01*
X225947943Y-93027146D01*
X226133193Y-93373725D01*
X226382497Y-93677503D01*
X226686275Y-93926807D01*
X227032853Y-94112057D01*
X227408912Y-94226133D01*
X227800000Y-94264652D01*
X228191087Y-94226133D01*
X228567146Y-94112057D01*
X228913725Y-93926807D01*
X229217503Y-93677503D01*
X229466807Y-93373725D01*
X229652057Y-93027147D01*
X229766133Y-92651088D01*
X229795000Y-92357998D01*
X229795000Y-91642003D01*
X229766133Y-91348913D01*
X229652057Y-90972853D01*
X229466807Y-90626275D01*
X229217503Y-90322497D01*
X228913725Y-90073193D01*
X228567147Y-89887943D01*
X228191088Y-89773867D01*
X227800000Y-89735348D01*
X227408913Y-89773867D01*
X227032854Y-89887943D01*
X226686276Y-90073193D01*
X226382498Y-90322497D01*
X226133193Y-90626275D01*
X225947943Y-90972853D01*
X225833867Y-91348912D01*
X225805000Y-91642002D01*
X220195000Y-91642002D01*
X220166133Y-91348913D01*
X220052057Y-90972853D01*
X219866807Y-90626275D01*
X219617503Y-90322497D01*
X219313725Y-90073193D01*
X218967147Y-89887943D01*
X218591088Y-89773867D01*
X218200000Y-89735348D01*
X217808913Y-89773867D01*
X217432854Y-89887943D01*
X217086276Y-90073193D01*
X216782498Y-90322497D01*
X216533193Y-90626275D01*
X216347943Y-90972853D01*
X216233867Y-91348912D01*
X216205000Y-91642002D01*
X201892804Y-91642002D01*
X189989648Y-79738847D01*
X190322223Y-79805000D01*
X190677777Y-79805000D01*
X191026499Y-79735635D01*
X191354988Y-79599571D01*
X191650621Y-79402035D01*
X191902035Y-79150621D01*
X192099571Y-78854988D01*
X192235635Y-78526499D01*
X192305000Y-78177777D01*
X192305000Y-77822223D01*
X192235635Y-77473501D01*
X192099571Y-77145012D01*
X191902035Y-76849379D01*
X191650621Y-76597965D01*
X191354988Y-76400429D01*
X191026499Y-76264365D01*
X190677777Y-76195000D01*
X190322223Y-76195000D01*
X189973501Y-76264365D01*
X189878512Y-76303710D01*
X186074801Y-72500000D01*
X187591070Y-70983731D01*
X187848816Y-71035000D01*
X188151184Y-71035000D01*
X188447743Y-70976011D01*
X188727095Y-70860299D01*
X188978505Y-70692312D01*
X189192312Y-70478505D01*
X189360299Y-70227095D01*
X189476011Y-69947743D01*
X189535000Y-69651184D01*
X189535000Y-69348816D01*
X189476011Y-69052257D01*
X189360299Y-68772905D01*
X189192312Y-68521495D01*
X188978505Y-68307688D01*
X188727095Y-68139701D01*
X188447743Y-68023989D01*
X188151184Y-67965000D01*
X187848816Y-67965000D01*
X187552257Y-68023989D01*
X187272905Y-68139701D01*
X187021495Y-68307688D01*
X186807688Y-68521495D01*
X186750000Y-68607831D01*
X186692312Y-68521495D01*
X186478505Y-68307688D01*
X186227095Y-68139701D01*
X185947743Y-68023989D01*
X185651184Y-67965000D01*
X185348816Y-67965000D01*
X185052257Y-68023989D01*
X184772905Y-68139701D01*
X184521495Y-68307688D01*
X184483880Y-68345303D01*
X184430537Y-68245506D01*
X184351185Y-68148815D01*
X184254494Y-68069463D01*
X184144180Y-68010498D01*
X184024482Y-67974188D01*
X183900000Y-67961928D01*
X183285750Y-67965000D01*
X183127000Y-68123750D01*
X183127000Y-69373000D01*
X183147000Y-69373000D01*
X183147000Y-69627000D01*
X183127000Y-69627000D01*
X183127000Y-69647000D01*
X182873000Y-69647000D01*
X182873000Y-69627000D01*
X181623750Y-69627000D01*
X181465000Y-69785750D01*
X181461928Y-70400000D01*
X181474188Y-70524482D01*
X181510498Y-70644180D01*
X181569463Y-70754494D01*
X181648815Y-70851185D01*
X181745506Y-70930537D01*
X181855820Y-70989502D01*
X181975518Y-71025812D01*
X182100000Y-71038072D01*
X182714250Y-71035000D01*
X182872998Y-70876252D01*
X182872998Y-71035000D01*
X182890198Y-71035000D01*
X180625199Y-73300000D01*
X173878178Y-73300000D01*
X173753475Y-73113368D01*
X173546632Y-72906525D01*
X173372240Y-72790000D01*
X173546632Y-72673475D01*
X173753475Y-72466632D01*
X173915990Y-72223411D01*
X174027932Y-71953158D01*
X174085000Y-71666260D01*
X174085000Y-71373740D01*
X174041209Y-71153592D01*
X176594801Y-68600000D01*
X181461928Y-68600000D01*
X181465000Y-69214250D01*
X181623750Y-69373000D01*
X182873000Y-69373000D01*
X182873000Y-68123750D01*
X182714250Y-67965000D01*
X182100000Y-67961928D01*
X181975518Y-67974188D01*
X181855820Y-68010498D01*
X181745506Y-68069463D01*
X181648815Y-68148815D01*
X181569463Y-68245506D01*
X181510498Y-68355820D01*
X181474188Y-68475518D01*
X181461928Y-68600000D01*
X176594801Y-68600000D01*
X177397003Y-67797799D01*
X177426001Y-67774001D01*
X177520974Y-67658276D01*
X177591546Y-67526247D01*
X177635003Y-67382986D01*
X177646000Y-67271333D01*
X177646000Y-67271324D01*
X177649676Y-67234001D01*
X177646000Y-67196678D01*
X177646000Y-61642002D01*
X178705000Y-61642002D01*
X178705000Y-62357997D01*
X178733867Y-62651087D01*
X178847943Y-63027146D01*
X179033193Y-63373725D01*
X179282497Y-63677503D01*
X179586275Y-63926807D01*
X179932853Y-64112057D01*
X180308912Y-64226133D01*
X180700000Y-64264652D01*
X181091087Y-64226133D01*
X181467146Y-64112057D01*
X181813725Y-63926807D01*
X182117503Y-63677503D01*
X182366807Y-63373725D01*
X182552057Y-63027147D01*
X182666133Y-62651088D01*
X182695000Y-62357998D01*
X182695000Y-61642003D01*
X182695000Y-61642002D01*
X188305000Y-61642002D01*
X188305000Y-62357997D01*
X188333867Y-62651087D01*
X188447943Y-63027146D01*
X188633193Y-63373725D01*
X188882497Y-63677503D01*
X189186275Y-63926807D01*
X189532853Y-64112057D01*
X189908912Y-64226133D01*
X190300000Y-64264652D01*
X190691087Y-64226133D01*
X191067146Y-64112057D01*
X191413725Y-63926807D01*
X191717503Y-63677503D01*
X191966807Y-63373725D01*
X192152057Y-63027147D01*
X192266133Y-62651088D01*
X192295000Y-62357998D01*
X192295000Y-61642003D01*
X192266133Y-61348913D01*
X192152057Y-60972853D01*
X191966807Y-60626275D01*
X191717503Y-60322497D01*
X191413725Y-60073193D01*
X191067147Y-59887943D01*
X190691088Y-59773867D01*
X190300000Y-59735348D01*
X189908913Y-59773867D01*
X189532854Y-59887943D01*
X189186276Y-60073193D01*
X188882498Y-60322497D01*
X188633193Y-60626275D01*
X188447943Y-60972853D01*
X188333867Y-61348912D01*
X188305000Y-61642002D01*
X182695000Y-61642002D01*
X182666133Y-61348913D01*
X182552057Y-60972853D01*
X182366807Y-60626275D01*
X182117503Y-60322497D01*
X181813725Y-60073193D01*
X181467147Y-59887943D01*
X181091088Y-59773867D01*
X180700000Y-59735348D01*
X180308913Y-59773867D01*
X179932854Y-59887943D01*
X179586276Y-60073193D01*
X179282498Y-60322497D01*
X179033193Y-60626275D01*
X178847943Y-60972853D01*
X178733867Y-61348912D01*
X178705000Y-61642002D01*
X177646000Y-61642002D01*
X177646000Y-50928801D01*
X179255332Y-49319470D01*
X179307735Y-49371873D01*
X179423004Y-49256604D01*
X179539275Y-49538389D01*
X179857860Y-49696257D01*
X180201122Y-49788938D01*
X180555869Y-49812873D01*
X180908470Y-49767139D01*
X181245373Y-49653495D01*
X181460725Y-49538389D01*
X181576997Y-49256602D01*
X180500000Y-48179605D01*
X180485858Y-48193748D01*
X180306253Y-48014143D01*
X180320395Y-48000000D01*
X180306253Y-47985858D01*
X180485858Y-47806253D01*
X180500000Y-47820395D01*
X180514143Y-47806253D01*
X180693748Y-47985858D01*
X180679605Y-48000000D01*
X181756602Y-49076997D01*
X182038389Y-48960725D01*
X182196257Y-48642140D01*
X182288938Y-48298878D01*
X182312873Y-47944131D01*
X182297061Y-47822223D01*
X183695000Y-47822223D01*
X183695000Y-48177777D01*
X183764365Y-48526499D01*
X183900429Y-48854988D01*
X184097965Y-49150621D01*
X184349379Y-49402035D01*
X184645012Y-49599571D01*
X184973501Y-49735635D01*
X185322223Y-49805000D01*
X185677777Y-49805000D01*
X186026499Y-49735635D01*
X186354988Y-49599571D01*
X186650621Y-49402035D01*
X186902035Y-49150621D01*
X187099571Y-48854988D01*
X187235635Y-48526499D01*
X187305000Y-48177777D01*
X187305000Y-47822223D01*
X187235635Y-47473501D01*
X187099571Y-47145012D01*
X186902035Y-46849379D01*
X186650621Y-46597965D01*
X186354988Y-46400429D01*
X186026499Y-46264365D01*
X185677777Y-46195000D01*
X185322223Y-46195000D01*
X184973501Y-46264365D01*
X184645012Y-46400429D01*
X184349379Y-46597965D01*
X184097965Y-46849379D01*
X183900429Y-47145012D01*
X183764365Y-47473501D01*
X183695000Y-47822223D01*
X182297061Y-47822223D01*
X182267139Y-47591530D01*
X182153495Y-47254627D01*
X182038389Y-47039275D01*
X181756604Y-46923004D01*
X181871873Y-46807735D01*
X181819470Y-46755332D01*
X185000001Y-43574802D01*
X188803710Y-47378512D01*
X188764365Y-47473501D01*
X188695000Y-47822223D01*
X188695000Y-48177777D01*
X188764365Y-48526499D01*
X188900429Y-48854988D01*
X189097965Y-49150621D01*
X189349379Y-49402035D01*
X189645012Y-49599571D01*
X189973501Y-49735635D01*
X190322223Y-49805000D01*
X190677777Y-49805000D01*
X191026499Y-49735635D01*
X191354988Y-49599571D01*
X191650621Y-49402035D01*
X191902035Y-49150621D01*
X192099571Y-48854988D01*
X192235635Y-48526499D01*
X192305000Y-48177777D01*
X192305000Y-47822223D01*
X192235635Y-47473501D01*
X192099571Y-47145012D01*
X191902035Y-46849379D01*
X191650621Y-46597965D01*
X191354988Y-46400429D01*
X191026499Y-46264365D01*
X190677777Y-46195000D01*
X190322223Y-46195000D01*
X189973501Y-46264365D01*
X189878512Y-46303710D01*
X186074801Y-42500000D01*
X187591070Y-40983731D01*
X187848816Y-41035000D01*
X188151184Y-41035000D01*
X188447743Y-40976011D01*
X188727095Y-40860299D01*
X188978505Y-40692312D01*
X189192312Y-40478505D01*
X189360299Y-40227095D01*
X189476011Y-39947743D01*
X189535000Y-39651184D01*
X189535000Y-39348816D01*
X189476011Y-39052257D01*
X189360299Y-38772905D01*
X189192312Y-38521495D01*
X188978505Y-38307688D01*
X188727095Y-38139701D01*
X188447743Y-38023989D01*
X188151184Y-37965000D01*
X187848816Y-37965000D01*
X187552257Y-38023989D01*
X187272905Y-38139701D01*
X187021495Y-38307688D01*
X186807688Y-38521495D01*
X186750000Y-38607831D01*
X186692312Y-38521495D01*
X186478505Y-38307688D01*
X186227095Y-38139701D01*
X185947743Y-38023989D01*
X185651184Y-37965000D01*
X185348816Y-37965000D01*
X185052257Y-38023989D01*
X184772905Y-38139701D01*
X184521495Y-38307688D01*
X184483880Y-38345303D01*
X184430537Y-38245506D01*
X184351185Y-38148815D01*
X184254494Y-38069463D01*
X184144180Y-38010498D01*
X184024482Y-37974188D01*
X183900000Y-37961928D01*
X183285750Y-37965000D01*
X183127000Y-38123750D01*
X183127000Y-39373000D01*
X183147000Y-39373000D01*
X183147000Y-39627000D01*
X183127000Y-39627000D01*
X183127000Y-39647000D01*
X182873000Y-39647000D01*
X182873000Y-39627000D01*
X181623750Y-39627000D01*
X181465000Y-39785750D01*
X181461928Y-40400000D01*
X181474188Y-40524482D01*
X181510498Y-40644180D01*
X181569463Y-40754494D01*
X181648815Y-40851185D01*
X181745506Y-40930537D01*
X181855820Y-40989502D01*
X181975518Y-41025812D01*
X182100000Y-41038072D01*
X182714250Y-41035000D01*
X182872998Y-40876252D01*
X182872998Y-41035000D01*
X182890198Y-41035000D01*
X175803999Y-48121200D01*
X175775001Y-48144998D01*
X175751203Y-48173996D01*
X175751202Y-48173997D01*
X175680027Y-48260723D01*
X175609455Y-48392753D01*
X175565999Y-48536014D01*
X175551325Y-48684999D01*
X175555002Y-48722332D01*
X175555001Y-64950197D01*
X174085000Y-66420198D01*
X174085000Y-66293740D01*
X174027932Y-66006842D01*
X173915990Y-65736589D01*
X173753475Y-65493368D01*
X173621620Y-65361513D01*
X173694180Y-65339502D01*
X173804494Y-65280537D01*
X173901185Y-65201185D01*
X173980537Y-65104494D01*
X174039502Y-64994180D01*
X174075812Y-64874482D01*
X174088072Y-64750000D01*
X174085000Y-64185750D01*
X173926250Y-64027000D01*
X172727000Y-64027000D01*
X172727000Y-64047000D01*
X172473000Y-64047000D01*
X172473000Y-64027000D01*
X171273750Y-64027000D01*
X171115000Y-64185750D01*
X171111928Y-64750000D01*
X171124188Y-64874482D01*
X171160498Y-64994180D01*
X171219463Y-65104494D01*
X171298815Y-65201185D01*
X171395506Y-65280537D01*
X171505820Y-65339502D01*
X171578380Y-65361513D01*
X171446525Y-65493368D01*
X171284010Y-65736589D01*
X171172068Y-66006842D01*
X171115000Y-66293740D01*
X171115000Y-66586260D01*
X171158791Y-66806408D01*
X170489003Y-67476196D01*
X170459999Y-67499999D01*
X170404871Y-67567174D01*
X170365026Y-67615724D01*
X170295924Y-67745003D01*
X170294454Y-67747754D01*
X170250997Y-67891015D01*
X170240000Y-68002668D01*
X170240000Y-68002678D01*
X170236324Y-68040000D01*
X169685000Y-68040000D01*
X169685000Y-63050000D01*
X171111928Y-63050000D01*
X171115000Y-63614250D01*
X171273750Y-63773000D01*
X172473000Y-63773000D01*
X172473000Y-62573750D01*
X172727000Y-62573750D01*
X172727000Y-63773000D01*
X173926250Y-63773000D01*
X174085000Y-63614250D01*
X174088072Y-63050000D01*
X174075812Y-62925518D01*
X174039502Y-62805820D01*
X173980537Y-62695506D01*
X173901185Y-62598815D01*
X173804494Y-62519463D01*
X173694180Y-62460498D01*
X173574482Y-62424188D01*
X173450000Y-62411928D01*
X172885750Y-62415000D01*
X172727000Y-62573750D01*
X172473000Y-62573750D01*
X172314250Y-62415000D01*
X171750000Y-62411928D01*
X171625518Y-62424188D01*
X171505820Y-62460498D01*
X171395506Y-62519463D01*
X171298815Y-62598815D01*
X171219463Y-62695506D01*
X171160498Y-62805820D01*
X171124188Y-62925518D01*
X171111928Y-63050000D01*
X169685000Y-63050000D01*
X169685000Y-38600000D01*
X181461928Y-38600000D01*
X181465000Y-39214250D01*
X181623750Y-39373000D01*
X182873000Y-39373000D01*
X182873000Y-38123750D01*
X182714250Y-37965000D01*
X182100000Y-37961928D01*
X181975518Y-37974188D01*
X181855820Y-38010498D01*
X181745506Y-38069463D01*
X181648815Y-38148815D01*
X181569463Y-38245506D01*
X181510498Y-38355820D01*
X181474188Y-38475518D01*
X181461928Y-38600000D01*
X169685000Y-38600000D01*
X169685000Y-31642002D01*
X178705000Y-31642002D01*
X178705000Y-32357997D01*
X178733867Y-32651087D01*
X178847943Y-33027146D01*
X179033193Y-33373725D01*
X179282497Y-33677503D01*
X179586275Y-33926807D01*
X179932853Y-34112057D01*
X180308912Y-34226133D01*
X180700000Y-34264652D01*
X181091087Y-34226133D01*
X181467146Y-34112057D01*
X181813725Y-33926807D01*
X182117503Y-33677503D01*
X182366807Y-33373725D01*
X182552057Y-33027147D01*
X182666133Y-32651088D01*
X182695000Y-32357998D01*
X182695000Y-31642003D01*
X182695000Y-31642002D01*
X188305000Y-31642002D01*
X188305000Y-32357997D01*
X188333867Y-32651087D01*
X188447943Y-33027146D01*
X188633193Y-33373725D01*
X188882497Y-33677503D01*
X189186275Y-33926807D01*
X189532853Y-34112057D01*
X189908912Y-34226133D01*
X190300000Y-34264652D01*
X190691087Y-34226133D01*
X191067146Y-34112057D01*
X191413725Y-33926807D01*
X191717503Y-33677503D01*
X191966807Y-33373725D01*
X192152057Y-33027147D01*
X192266133Y-32651088D01*
X192295000Y-32357998D01*
X192295000Y-31642003D01*
X192266133Y-31348913D01*
X192152057Y-30972853D01*
X191966807Y-30626275D01*
X191717503Y-30322497D01*
X191413725Y-30073193D01*
X191067147Y-29887943D01*
X190691088Y-29773867D01*
X190300000Y-29735348D01*
X189908913Y-29773867D01*
X189532854Y-29887943D01*
X189186276Y-30073193D01*
X188882498Y-30322497D01*
X188633193Y-30626275D01*
X188447943Y-30972853D01*
X188333867Y-31348912D01*
X188305000Y-31642002D01*
X182695000Y-31642002D01*
X182666133Y-31348913D01*
X182552057Y-30972853D01*
X182366807Y-30626275D01*
X182117503Y-30322497D01*
X181813725Y-30073193D01*
X181467147Y-29887943D01*
X181091088Y-29773867D01*
X180700000Y-29735348D01*
X180308913Y-29773867D01*
X179932854Y-29887943D01*
X179586276Y-30073193D01*
X179282498Y-30322497D01*
X179033193Y-30626275D01*
X178847943Y-30972853D01*
X178733867Y-31348912D01*
X178705000Y-31642002D01*
X169685000Y-31642002D01*
X169685000Y-24779872D01*
X199265000Y-24779872D01*
X199265000Y-25220128D01*
X199350890Y-25651925D01*
X199519369Y-26058669D01*
X199763962Y-26424729D01*
X200075271Y-26736038D01*
X200441331Y-26980631D01*
X200848075Y-27149110D01*
X201279872Y-27235000D01*
X201720128Y-27235000D01*
X202151925Y-27149110D01*
X202558669Y-26980631D01*
X202924729Y-26736038D01*
X203236038Y-26424729D01*
X203480631Y-26058669D01*
X203649110Y-25651925D01*
X203735000Y-25220128D01*
X203735000Y-24779872D01*
X203649110Y-24348075D01*
X203480631Y-23941331D01*
X203236038Y-23575271D01*
X202924729Y-23263962D01*
X202558669Y-23019369D01*
X202151925Y-22850890D01*
X201720128Y-22765000D01*
X201279872Y-22765000D01*
X200848075Y-22850890D01*
X200441331Y-23019369D01*
X200075271Y-23263962D01*
X199763962Y-23575271D01*
X199519369Y-23941331D01*
X199350890Y-24348075D01*
X199265000Y-24779872D01*
X169685000Y-24779872D01*
X169685000Y-22685000D01*
X203815000Y-22685000D01*
X203815001Y-81966343D01*
G37*
%TD.AperFunction*%
D18*
X180693748Y-77985858D02*
X180679605Y-78000000D01*
X180693748Y-78014143D01*
X180514143Y-78193748D01*
X180500000Y-78179605D01*
X180485858Y-78193748D01*
X180306253Y-78014143D01*
X180320395Y-78000000D01*
X180306253Y-77985858D01*
X180485858Y-77806253D01*
X180500000Y-77820395D01*
X180514143Y-77806253D01*
X180693748Y-77985858D01*
%TA.AperFunction,Conductor*%
D19*
G36*
X180693748Y-77985858D02*
G01*
X180679605Y-78000000D01*
X180693748Y-78014143D01*
X180514143Y-78193748D01*
X180500000Y-78179605D01*
X180485858Y-78193748D01*
X180306253Y-78014143D01*
X180320395Y-78000000D01*
X180306253Y-77985858D01*
X180485858Y-77806253D01*
X180500000Y-77820395D01*
X180514143Y-77806253D01*
X180693748Y-77985858D01*
G37*
%TD.AperFunction*%
%TD*%
M02*
