%TF.GenerationSoftware,KiCad,Pcbnew,5.1.12-84ad8e8a86~92~ubuntu20.04.1*%
%TF.CreationDate,2021-11-13T15:40:40-05:00*%
%TF.ProjectId,gearseq,67656172-7365-4712-9e6b-696361645f70,rev?*%
%TF.SameCoordinates,Original*%
%TF.FileFunction,Legend,Bot*%
%TF.FilePolarity,Positive*%
%FSLAX46Y46*%
G04 Gerber Fmt 4.6, Leading zero omitted, Abs format (unit mm)*
G04 Created by KiCad (PCBNEW 5.1.12-84ad8e8a86~92~ubuntu20.04.1) date 2021-11-13 15:40:40*
%MOMM*%
%LPD*%
G01*
G04 APERTURE LIST*
%ADD10C,0.150000*%
%ADD11C,0.120000*%
G04 APERTURE END LIST*
D10*
X176217357Y-63525000D02*
X176288786Y-63489285D01*
X176395929Y-63489285D01*
X176503072Y-63525000D01*
X176574500Y-63596428D01*
X176610214Y-63667857D01*
X176645929Y-63810714D01*
X176645929Y-63917857D01*
X176610214Y-64060714D01*
X176574500Y-64132142D01*
X176503072Y-64203571D01*
X176395929Y-64239285D01*
X176324500Y-64239285D01*
X176217357Y-64203571D01*
X176181643Y-64167857D01*
X176181643Y-63917857D01*
X176324500Y-63917857D01*
X175860214Y-64239285D02*
X175860214Y-63489285D01*
X175431643Y-64239285D01*
X175431643Y-63489285D01*
X175074500Y-64239285D02*
X175074500Y-63489285D01*
X174895929Y-63489285D01*
X174788786Y-63525000D01*
X174717357Y-63596428D01*
X174681643Y-63667857D01*
X174645929Y-63810714D01*
X174645929Y-63917857D01*
X174681643Y-64060714D01*
X174717357Y-64132142D01*
X174788786Y-64203571D01*
X174895929Y-64239285D01*
X175074500Y-64239285D01*
X179467357Y-74399285D02*
X179467357Y-73649285D01*
X179181643Y-73649285D01*
X179110214Y-73685000D01*
X179074500Y-73720714D01*
X179038786Y-73792142D01*
X179038786Y-73899285D01*
X179074500Y-73970714D01*
X179110214Y-74006428D01*
X179181643Y-74042142D01*
X179467357Y-74042142D01*
X178610214Y-74399285D02*
X178681643Y-74363571D01*
X178717357Y-74327857D01*
X178753072Y-74256428D01*
X178753072Y-74042142D01*
X178717357Y-73970714D01*
X178681643Y-73935000D01*
X178610214Y-73899285D01*
X178503072Y-73899285D01*
X178431643Y-73935000D01*
X178395929Y-73970714D01*
X178360214Y-74042142D01*
X178360214Y-74256428D01*
X178395929Y-74327857D01*
X178431643Y-74363571D01*
X178503072Y-74399285D01*
X178610214Y-74399285D01*
X178145929Y-73899285D02*
X177860214Y-73899285D01*
X178038786Y-73649285D02*
X178038786Y-74292142D01*
X178003072Y-74363571D01*
X177931643Y-74399285D01*
X177860214Y-74399285D01*
X177110214Y-73649285D02*
X176645929Y-73649285D01*
X176895929Y-73935000D01*
X176788786Y-73935000D01*
X176717357Y-73970714D01*
X176681643Y-74006428D01*
X176645929Y-74077857D01*
X176645929Y-74256428D01*
X176681643Y-74327857D01*
X176717357Y-74363571D01*
X176788786Y-74399285D01*
X177003072Y-74399285D01*
X177074500Y-74363571D01*
X177110214Y-74327857D01*
X175431643Y-74363571D02*
X175503072Y-74399285D01*
X175645929Y-74399285D01*
X175717357Y-74363571D01*
X175753072Y-74327857D01*
X175788786Y-74256428D01*
X175788786Y-74042142D01*
X175753072Y-73970714D01*
X175717357Y-73935000D01*
X175645929Y-73899285D01*
X175503072Y-73899285D01*
X175431643Y-73935000D01*
X175181643Y-73899285D02*
X175038786Y-74399285D01*
X174895929Y-74042142D01*
X174753072Y-74399285D01*
X174610214Y-73899285D01*
X178824500Y-76939285D02*
X178824500Y-76189285D01*
X178538786Y-76189285D01*
X178467357Y-76225000D01*
X178431643Y-76260714D01*
X178395929Y-76332142D01*
X178395929Y-76439285D01*
X178431643Y-76510714D01*
X178467357Y-76546428D01*
X178538786Y-76582142D01*
X178824500Y-76582142D01*
X177967357Y-76939285D02*
X178038786Y-76903571D01*
X178074500Y-76867857D01*
X178110214Y-76796428D01*
X178110214Y-76582142D01*
X178074500Y-76510714D01*
X178038786Y-76475000D01*
X177967357Y-76439285D01*
X177860214Y-76439285D01*
X177788786Y-76475000D01*
X177753072Y-76510714D01*
X177717357Y-76582142D01*
X177717357Y-76796428D01*
X177753072Y-76867857D01*
X177788786Y-76903571D01*
X177860214Y-76939285D01*
X177967357Y-76939285D01*
X177503072Y-76439285D02*
X177217357Y-76439285D01*
X177395929Y-76189285D02*
X177395929Y-76832142D01*
X177360214Y-76903571D01*
X177288786Y-76939285D01*
X177217357Y-76939285D01*
X176467357Y-76189285D02*
X176003072Y-76189285D01*
X176253072Y-76475000D01*
X176145929Y-76475000D01*
X176074500Y-76510714D01*
X176038786Y-76546428D01*
X176003072Y-76617857D01*
X176003072Y-76796428D01*
X176038786Y-76867857D01*
X176074500Y-76903571D01*
X176145929Y-76939285D01*
X176360214Y-76939285D01*
X176431643Y-76903571D01*
X176467357Y-76867857D01*
X175181643Y-76439285D02*
X175038786Y-76939285D01*
X174895929Y-76582142D01*
X174753072Y-76939285D01*
X174610214Y-76439285D01*
X178681643Y-82146285D02*
X178681643Y-81396285D01*
X178503072Y-81396285D01*
X178395929Y-81432000D01*
X178324500Y-81503428D01*
X178288786Y-81574857D01*
X178253072Y-81717714D01*
X178253072Y-81824857D01*
X178288786Y-81967714D01*
X178324500Y-82039142D01*
X178395929Y-82110571D01*
X178503072Y-82146285D01*
X178681643Y-82146285D01*
X177931643Y-82146285D02*
X177931643Y-81646285D01*
X177931643Y-81396285D02*
X177967357Y-81432000D01*
X177931643Y-81467714D01*
X177895929Y-81432000D01*
X177931643Y-81396285D01*
X177931643Y-81467714D01*
X177610214Y-82110571D02*
X177538786Y-82146285D01*
X177395929Y-82146285D01*
X177324500Y-82110571D01*
X177288786Y-82039142D01*
X177288786Y-82003428D01*
X177324500Y-81932000D01*
X177395929Y-81896285D01*
X177503072Y-81896285D01*
X177574500Y-81860571D01*
X177610214Y-81789142D01*
X177610214Y-81753428D01*
X177574500Y-81682000D01*
X177503072Y-81646285D01*
X177395929Y-81646285D01*
X177324500Y-81682000D01*
X176967357Y-81646285D02*
X176967357Y-82396285D01*
X176967357Y-81682000D02*
X176895929Y-81646285D01*
X176753072Y-81646285D01*
X176681643Y-81682000D01*
X176645929Y-81717714D01*
X176610214Y-81789142D01*
X176610214Y-82003428D01*
X176645929Y-82074857D01*
X176681643Y-82110571D01*
X176753072Y-82146285D01*
X176895929Y-82146285D01*
X176967357Y-82110571D01*
X175753072Y-82110571D02*
X175681643Y-82146285D01*
X175538786Y-82146285D01*
X175467357Y-82110571D01*
X175431643Y-82039142D01*
X175431643Y-82003428D01*
X175467357Y-81932000D01*
X175538786Y-81896285D01*
X175645929Y-81896285D01*
X175717357Y-81860571D01*
X175753072Y-81789142D01*
X175753072Y-81753428D01*
X175717357Y-81682000D01*
X175645929Y-81646285D01*
X175538786Y-81646285D01*
X175467357Y-81682000D01*
X175181643Y-81646285D02*
X175038786Y-82146285D01*
X174895929Y-81789142D01*
X174753072Y-82146285D01*
X174610214Y-81646285D01*
X179324500Y-94719285D02*
X179574500Y-94362142D01*
X179753072Y-94719285D02*
X179753072Y-93969285D01*
X179467357Y-93969285D01*
X179395929Y-94005000D01*
X179360214Y-94040714D01*
X179324500Y-94112142D01*
X179324500Y-94219285D01*
X179360214Y-94290714D01*
X179395929Y-94326428D01*
X179467357Y-94362142D01*
X179753072Y-94362142D01*
X178717357Y-94683571D02*
X178788786Y-94719285D01*
X178931643Y-94719285D01*
X179003072Y-94683571D01*
X179038786Y-94612142D01*
X179038786Y-94326428D01*
X179003072Y-94255000D01*
X178931643Y-94219285D01*
X178788786Y-94219285D01*
X178717357Y-94255000D01*
X178681643Y-94326428D01*
X178681643Y-94397857D01*
X179038786Y-94469285D01*
X178395929Y-94683571D02*
X178324500Y-94719285D01*
X178181643Y-94719285D01*
X178110214Y-94683571D01*
X178074500Y-94612142D01*
X178074500Y-94576428D01*
X178110214Y-94505000D01*
X178181643Y-94469285D01*
X178288786Y-94469285D01*
X178360214Y-94433571D01*
X178395929Y-94362142D01*
X178395929Y-94326428D01*
X178360214Y-94255000D01*
X178288786Y-94219285D01*
X178181643Y-94219285D01*
X178110214Y-94255000D01*
X177467357Y-94683571D02*
X177538786Y-94719285D01*
X177681643Y-94719285D01*
X177753072Y-94683571D01*
X177788786Y-94612142D01*
X177788786Y-94326428D01*
X177753072Y-94255000D01*
X177681643Y-94219285D01*
X177538786Y-94219285D01*
X177467357Y-94255000D01*
X177431643Y-94326428D01*
X177431643Y-94397857D01*
X177788786Y-94469285D01*
X177217357Y-94219285D02*
X176931643Y-94219285D01*
X177110214Y-93969285D02*
X177110214Y-94612142D01*
X177074500Y-94683571D01*
X177003072Y-94719285D01*
X176931643Y-94719285D01*
X176110214Y-94719285D02*
X176110214Y-93969285D01*
X176110214Y-94255000D02*
X176038786Y-94219285D01*
X175895929Y-94219285D01*
X175824500Y-94255000D01*
X175788786Y-94290714D01*
X175753072Y-94362142D01*
X175753072Y-94576428D01*
X175788786Y-94647857D01*
X175824500Y-94683571D01*
X175895929Y-94719285D01*
X176038786Y-94719285D01*
X176110214Y-94683571D01*
X175538786Y-94219285D02*
X175253072Y-94219285D01*
X175431643Y-93969285D02*
X175431643Y-94612142D01*
X175395929Y-94683571D01*
X175324500Y-94719285D01*
X175253072Y-94719285D01*
X175003072Y-94219285D02*
X175003072Y-94719285D01*
X175003072Y-94290714D02*
X174967357Y-94255000D01*
X174895929Y-94219285D01*
X174788786Y-94219285D01*
X174717357Y-94255000D01*
X174681643Y-94326428D01*
X174681643Y-94719285D01*
X178824500Y-71859285D02*
X178824500Y-71109285D01*
X178538786Y-71109285D01*
X178467357Y-71145000D01*
X178431643Y-71180714D01*
X178395929Y-71252142D01*
X178395929Y-71359285D01*
X178431643Y-71430714D01*
X178467357Y-71466428D01*
X178538786Y-71502142D01*
X178824500Y-71502142D01*
X177967357Y-71859285D02*
X178038786Y-71823571D01*
X178074500Y-71787857D01*
X178110214Y-71716428D01*
X178110214Y-71502142D01*
X178074500Y-71430714D01*
X178038786Y-71395000D01*
X177967357Y-71359285D01*
X177860214Y-71359285D01*
X177788786Y-71395000D01*
X177753072Y-71430714D01*
X177717357Y-71502142D01*
X177717357Y-71716428D01*
X177753072Y-71787857D01*
X177788786Y-71823571D01*
X177860214Y-71859285D01*
X177967357Y-71859285D01*
X177503072Y-71359285D02*
X177217357Y-71359285D01*
X177395929Y-71109285D02*
X177395929Y-71752142D01*
X177360214Y-71823571D01*
X177288786Y-71859285D01*
X177217357Y-71859285D01*
X176003072Y-71859285D02*
X176431643Y-71859285D01*
X176217357Y-71859285D02*
X176217357Y-71109285D01*
X176288786Y-71216428D01*
X176360214Y-71287857D01*
X176431643Y-71323571D01*
X175181643Y-71359285D02*
X175038786Y-71859285D01*
X174895929Y-71502142D01*
X174753072Y-71859285D01*
X174610214Y-71359285D01*
X178431643Y-79265000D02*
X178074500Y-79265000D01*
X178503072Y-79479285D02*
X178253072Y-78729285D01*
X178003072Y-79479285D01*
X177645929Y-79479285D02*
X177717357Y-79443571D01*
X177753072Y-79372142D01*
X177753072Y-78729285D01*
X177038786Y-78979285D02*
X177038786Y-79586428D01*
X177074500Y-79657857D01*
X177110214Y-79693571D01*
X177181643Y-79729285D01*
X177288786Y-79729285D01*
X177360214Y-79693571D01*
X177038786Y-79443571D02*
X177110214Y-79479285D01*
X177253072Y-79479285D01*
X177324500Y-79443571D01*
X177360214Y-79407857D01*
X177395929Y-79336428D01*
X177395929Y-79122142D01*
X177360214Y-79050714D01*
X177324500Y-79015000D01*
X177253072Y-78979285D01*
X177110214Y-78979285D01*
X177038786Y-79015000D01*
X176110214Y-78979285D02*
X176110214Y-79729285D01*
X176110214Y-79015000D02*
X176038786Y-78979285D01*
X175895929Y-78979285D01*
X175824500Y-79015000D01*
X175788786Y-79050714D01*
X175753072Y-79122142D01*
X175753072Y-79336428D01*
X175788786Y-79407857D01*
X175824500Y-79443571D01*
X175895929Y-79479285D01*
X176038786Y-79479285D01*
X176110214Y-79443571D01*
X175324500Y-79479285D02*
X175395929Y-79443571D01*
X175431643Y-79407857D01*
X175467357Y-79336428D01*
X175467357Y-79122142D01*
X175431643Y-79050714D01*
X175395929Y-79015000D01*
X175324500Y-78979285D01*
X175217357Y-78979285D01*
X175145929Y-79015000D01*
X175110214Y-79050714D01*
X175074500Y-79122142D01*
X175074500Y-79336428D01*
X175110214Y-79407857D01*
X175145929Y-79443571D01*
X175217357Y-79479285D01*
X175324500Y-79479285D01*
X174860214Y-78979285D02*
X174574500Y-78979285D01*
X174753072Y-78729285D02*
X174753072Y-79372142D01*
X174717357Y-79443571D01*
X174645929Y-79479285D01*
X174574500Y-79479285D01*
X178824500Y-92179285D02*
X178824500Y-91429285D01*
X178538786Y-91429285D01*
X178467357Y-91465000D01*
X178431643Y-91500714D01*
X178395929Y-91572142D01*
X178395929Y-91679285D01*
X178431643Y-91750714D01*
X178467357Y-91786428D01*
X178538786Y-91822142D01*
X178824500Y-91822142D01*
X177967357Y-92179285D02*
X178038786Y-92143571D01*
X178074500Y-92107857D01*
X178110214Y-92036428D01*
X178110214Y-91822142D01*
X178074500Y-91750714D01*
X178038786Y-91715000D01*
X177967357Y-91679285D01*
X177860214Y-91679285D01*
X177788786Y-91715000D01*
X177753072Y-91750714D01*
X177717357Y-91822142D01*
X177717357Y-92036428D01*
X177753072Y-92107857D01*
X177788786Y-92143571D01*
X177860214Y-92179285D01*
X177967357Y-92179285D01*
X177503072Y-91679285D02*
X177217357Y-91679285D01*
X177395929Y-91429285D02*
X177395929Y-92072142D01*
X177360214Y-92143571D01*
X177288786Y-92179285D01*
X177217357Y-92179285D01*
X176074500Y-91679285D02*
X176074500Y-92179285D01*
X176253072Y-91393571D02*
X176431643Y-91929285D01*
X175967357Y-91929285D01*
X175181643Y-91679285D02*
X175038786Y-92179285D01*
X174895929Y-91822142D01*
X174753072Y-92179285D01*
X174610214Y-91679285D01*
X176574500Y-66029285D02*
X176324500Y-66779285D01*
X176074500Y-66029285D01*
X175395929Y-66707857D02*
X175431643Y-66743571D01*
X175538786Y-66779285D01*
X175610214Y-66779285D01*
X175717357Y-66743571D01*
X175788786Y-66672142D01*
X175824500Y-66600714D01*
X175860214Y-66457857D01*
X175860214Y-66350714D01*
X175824500Y-66207857D01*
X175788786Y-66136428D01*
X175717357Y-66065000D01*
X175610214Y-66029285D01*
X175538786Y-66029285D01*
X175431643Y-66065000D01*
X175395929Y-66100714D01*
X174645929Y-66707857D02*
X174681643Y-66743571D01*
X174788786Y-66779285D01*
X174860214Y-66779285D01*
X174967357Y-66743571D01*
X175038786Y-66672142D01*
X175074500Y-66600714D01*
X175110214Y-66457857D01*
X175110214Y-66350714D01*
X175074500Y-66207857D01*
X175038786Y-66136428D01*
X174967357Y-66065000D01*
X174860214Y-66029285D01*
X174788786Y-66029285D01*
X174681643Y-66065000D01*
X174645929Y-66100714D01*
X179181643Y-97223571D02*
X179074500Y-97259285D01*
X178895929Y-97259285D01*
X178824500Y-97223571D01*
X178788786Y-97187857D01*
X178753072Y-97116428D01*
X178753072Y-97045000D01*
X178788786Y-96973571D01*
X178824500Y-96937857D01*
X178895929Y-96902142D01*
X179038786Y-96866428D01*
X179110214Y-96830714D01*
X179145929Y-96795000D01*
X179181643Y-96723571D01*
X179181643Y-96652142D01*
X179145929Y-96580714D01*
X179110214Y-96545000D01*
X179038786Y-96509285D01*
X178860214Y-96509285D01*
X178753072Y-96545000D01*
X178538786Y-96759285D02*
X178253072Y-96759285D01*
X178431643Y-96509285D02*
X178431643Y-97152142D01*
X178395929Y-97223571D01*
X178324500Y-97259285D01*
X178253072Y-97259285D01*
X177717357Y-97223571D02*
X177788786Y-97259285D01*
X177931643Y-97259285D01*
X178003072Y-97223571D01*
X178038786Y-97152142D01*
X178038786Y-96866428D01*
X178003072Y-96795000D01*
X177931643Y-96759285D01*
X177788786Y-96759285D01*
X177717357Y-96795000D01*
X177681643Y-96866428D01*
X177681643Y-96937857D01*
X178038786Y-97009285D01*
X177360214Y-96759285D02*
X177360214Y-97509285D01*
X177360214Y-96795000D02*
X177288786Y-96759285D01*
X177145929Y-96759285D01*
X177074500Y-96795000D01*
X177038786Y-96830714D01*
X177003072Y-96902142D01*
X177003072Y-97116428D01*
X177038786Y-97187857D01*
X177074500Y-97223571D01*
X177145929Y-97259285D01*
X177288786Y-97259285D01*
X177360214Y-97223571D01*
X176110214Y-97259285D02*
X176110214Y-96509285D01*
X176110214Y-96795000D02*
X176038786Y-96759285D01*
X175895929Y-96759285D01*
X175824500Y-96795000D01*
X175788786Y-96830714D01*
X175753072Y-96902142D01*
X175753072Y-97116428D01*
X175788786Y-97187857D01*
X175824500Y-97223571D01*
X175895929Y-97259285D01*
X176038786Y-97259285D01*
X176110214Y-97223571D01*
X175538786Y-96759285D02*
X175253072Y-96759285D01*
X175431643Y-96509285D02*
X175431643Y-97152142D01*
X175395929Y-97223571D01*
X175324500Y-97259285D01*
X175253072Y-97259285D01*
X175003072Y-96759285D02*
X175003072Y-97259285D01*
X175003072Y-96830714D02*
X174967357Y-96795000D01*
X174895929Y-96759285D01*
X174788786Y-96759285D01*
X174717357Y-96795000D01*
X174681643Y-96866428D01*
X174681643Y-97259285D01*
X179467357Y-84559285D02*
X179467357Y-83809285D01*
X179181643Y-83809285D01*
X179110214Y-83845000D01*
X179074500Y-83880714D01*
X179038786Y-83952142D01*
X179038786Y-84059285D01*
X179074500Y-84130714D01*
X179110214Y-84166428D01*
X179181643Y-84202142D01*
X179467357Y-84202142D01*
X178610214Y-84559285D02*
X178681643Y-84523571D01*
X178717357Y-84487857D01*
X178753072Y-84416428D01*
X178753072Y-84202142D01*
X178717357Y-84130714D01*
X178681643Y-84095000D01*
X178610214Y-84059285D01*
X178503072Y-84059285D01*
X178431643Y-84095000D01*
X178395929Y-84130714D01*
X178360214Y-84202142D01*
X178360214Y-84416428D01*
X178395929Y-84487857D01*
X178431643Y-84523571D01*
X178503072Y-84559285D01*
X178610214Y-84559285D01*
X178145929Y-84059285D02*
X177860214Y-84059285D01*
X178038786Y-83809285D02*
X178038786Y-84452142D01*
X178003072Y-84523571D01*
X177931643Y-84559285D01*
X177860214Y-84559285D01*
X177074500Y-83880714D02*
X177038786Y-83845000D01*
X176967357Y-83809285D01*
X176788786Y-83809285D01*
X176717357Y-83845000D01*
X176681643Y-83880714D01*
X176645929Y-83952142D01*
X176645929Y-84023571D01*
X176681643Y-84130714D01*
X177110214Y-84559285D01*
X176645929Y-84559285D01*
X175431643Y-84523571D02*
X175503072Y-84559285D01*
X175645929Y-84559285D01*
X175717357Y-84523571D01*
X175753072Y-84487857D01*
X175788786Y-84416428D01*
X175788786Y-84202142D01*
X175753072Y-84130714D01*
X175717357Y-84095000D01*
X175645929Y-84059285D01*
X175503072Y-84059285D01*
X175431643Y-84095000D01*
X175181643Y-84059285D02*
X175038786Y-84559285D01*
X174895929Y-84202142D01*
X174753072Y-84559285D01*
X174610214Y-84059285D01*
X179467357Y-89639285D02*
X179467357Y-88889285D01*
X179181643Y-88889285D01*
X179110214Y-88925000D01*
X179074500Y-88960714D01*
X179038786Y-89032142D01*
X179038786Y-89139285D01*
X179074500Y-89210714D01*
X179110214Y-89246428D01*
X179181643Y-89282142D01*
X179467357Y-89282142D01*
X178610214Y-89639285D02*
X178681643Y-89603571D01*
X178717357Y-89567857D01*
X178753072Y-89496428D01*
X178753072Y-89282142D01*
X178717357Y-89210714D01*
X178681643Y-89175000D01*
X178610214Y-89139285D01*
X178503072Y-89139285D01*
X178431643Y-89175000D01*
X178395929Y-89210714D01*
X178360214Y-89282142D01*
X178360214Y-89496428D01*
X178395929Y-89567857D01*
X178431643Y-89603571D01*
X178503072Y-89639285D01*
X178610214Y-89639285D01*
X178145929Y-89139285D02*
X177860214Y-89139285D01*
X178038786Y-88889285D02*
X178038786Y-89532142D01*
X178003072Y-89603571D01*
X177931643Y-89639285D01*
X177860214Y-89639285D01*
X176717357Y-89139285D02*
X176717357Y-89639285D01*
X176895929Y-88853571D02*
X177074500Y-89389285D01*
X176610214Y-89389285D01*
X175431643Y-89603571D02*
X175503072Y-89639285D01*
X175645929Y-89639285D01*
X175717357Y-89603571D01*
X175753072Y-89567857D01*
X175788786Y-89496428D01*
X175788786Y-89282142D01*
X175753072Y-89210714D01*
X175717357Y-89175000D01*
X175645929Y-89139285D01*
X175503072Y-89139285D01*
X175431643Y-89175000D01*
X175181643Y-89139285D02*
X175038786Y-89639285D01*
X174895929Y-89282142D01*
X174753072Y-89639285D01*
X174610214Y-89139285D01*
X178824500Y-87099285D02*
X178824500Y-86349285D01*
X178538786Y-86349285D01*
X178467357Y-86385000D01*
X178431643Y-86420714D01*
X178395929Y-86492142D01*
X178395929Y-86599285D01*
X178431643Y-86670714D01*
X178467357Y-86706428D01*
X178538786Y-86742142D01*
X178824500Y-86742142D01*
X177967357Y-87099285D02*
X178038786Y-87063571D01*
X178074500Y-87027857D01*
X178110214Y-86956428D01*
X178110214Y-86742142D01*
X178074500Y-86670714D01*
X178038786Y-86635000D01*
X177967357Y-86599285D01*
X177860214Y-86599285D01*
X177788786Y-86635000D01*
X177753072Y-86670714D01*
X177717357Y-86742142D01*
X177717357Y-86956428D01*
X177753072Y-87027857D01*
X177788786Y-87063571D01*
X177860214Y-87099285D01*
X177967357Y-87099285D01*
X177503072Y-86599285D02*
X177217357Y-86599285D01*
X177395929Y-86349285D02*
X177395929Y-86992142D01*
X177360214Y-87063571D01*
X177288786Y-87099285D01*
X177217357Y-87099285D01*
X176431643Y-86420714D02*
X176395929Y-86385000D01*
X176324500Y-86349285D01*
X176145929Y-86349285D01*
X176074500Y-86385000D01*
X176038786Y-86420714D01*
X176003072Y-86492142D01*
X176003072Y-86563571D01*
X176038786Y-86670714D01*
X176467357Y-87099285D01*
X176003072Y-87099285D01*
X175181643Y-86599285D02*
X175038786Y-87099285D01*
X174895929Y-86742142D01*
X174753072Y-87099285D01*
X174610214Y-86599285D01*
X179467357Y-69319285D02*
X179467357Y-68569285D01*
X179181643Y-68569285D01*
X179110214Y-68605000D01*
X179074500Y-68640714D01*
X179038786Y-68712142D01*
X179038786Y-68819285D01*
X179074500Y-68890714D01*
X179110214Y-68926428D01*
X179181643Y-68962142D01*
X179467357Y-68962142D01*
X178610214Y-69319285D02*
X178681643Y-69283571D01*
X178717357Y-69247857D01*
X178753072Y-69176428D01*
X178753072Y-68962142D01*
X178717357Y-68890714D01*
X178681643Y-68855000D01*
X178610214Y-68819285D01*
X178503072Y-68819285D01*
X178431643Y-68855000D01*
X178395929Y-68890714D01*
X178360214Y-68962142D01*
X178360214Y-69176428D01*
X178395929Y-69247857D01*
X178431643Y-69283571D01*
X178503072Y-69319285D01*
X178610214Y-69319285D01*
X178145929Y-68819285D02*
X177860214Y-68819285D01*
X178038786Y-68569285D02*
X178038786Y-69212142D01*
X178003072Y-69283571D01*
X177931643Y-69319285D01*
X177860214Y-69319285D01*
X176645929Y-69319285D02*
X177074500Y-69319285D01*
X176860214Y-69319285D02*
X176860214Y-68569285D01*
X176931643Y-68676428D01*
X177003072Y-68747857D01*
X177074500Y-68783571D01*
X175431643Y-69283571D02*
X175503072Y-69319285D01*
X175645929Y-69319285D01*
X175717357Y-69283571D01*
X175753072Y-69247857D01*
X175788786Y-69176428D01*
X175788786Y-68962142D01*
X175753072Y-68890714D01*
X175717357Y-68855000D01*
X175645929Y-68819285D01*
X175503072Y-68819285D01*
X175431643Y-68855000D01*
X175181643Y-68819285D02*
X175038786Y-69319285D01*
X174895929Y-68962142D01*
X174753072Y-69319285D01*
X174610214Y-68819285D01*
D11*
%TO.C,J14*%
X173930000Y-65170000D02*
X171270000Y-65170000D01*
X173930000Y-65170000D02*
X173930000Y-93170000D01*
X173930000Y-93170000D02*
X171270000Y-93170000D01*
X171270000Y-65170000D02*
X171270000Y-93170000D01*
X171270000Y-62570000D02*
X171270000Y-63900000D01*
X172600000Y-62570000D02*
X171270000Y-62570000D01*
D10*
X173409523Y-60582380D02*
X173409523Y-61296666D01*
X173457142Y-61439523D01*
X173552380Y-61534761D01*
X173695238Y-61582380D01*
X173790476Y-61582380D01*
X172409523Y-61582380D02*
X172980952Y-61582380D01*
X172695238Y-61582380D02*
X172695238Y-60582380D01*
X172790476Y-60725238D01*
X172885714Y-60820476D01*
X172980952Y-60868095D01*
X171552380Y-60915714D02*
X171552380Y-61582380D01*
X171790476Y-60534761D02*
X172028571Y-61249047D01*
X171409523Y-61249047D01*
%TD*%
M02*
