G04 #@! TF.GenerationSoftware,KiCad,Pcbnew,5.1.10-88a1d61d58~90~ubuntu20.04.1*
G04 #@! TF.CreationDate,2021-10-03T08:03:09-04:00*
G04 #@! TF.ProjectId,gearseq_panel,67656172-7365-4715-9f70-616e656c2e6b,rev?*
G04 #@! TF.SameCoordinates,Original*
G04 #@! TF.FileFunction,Copper,L1,Top*
G04 #@! TF.FilePolarity,Positive*
%FSLAX46Y46*%
G04 Gerber Fmt 4.6, Leading zero omitted, Abs format (unit mm)*
G04 Created by KiCad (PCBNEW 5.1.10-88a1d61d58~90~ubuntu20.04.1) date 2021-10-03 08:03:09*
%MOMM*%
%LPD*%
G01*
G04 APERTURE LIST*
G04 #@! TA.AperFunction,ComponentPad*
%ADD10C,9.000000*%
G04 #@! TD*
G04 #@! TA.AperFunction,ComponentPad*
%ADD11C,14.000000*%
G04 #@! TD*
G04 #@! TA.AperFunction,ComponentPad*
%ADD12C,18.000000*%
G04 #@! TD*
G04 #@! TA.AperFunction,ComponentPad*
%ADD13C,5.500000*%
G04 #@! TD*
G04 #@! TA.AperFunction,ComponentPad*
%ADD14O,6.800000X4.000000*%
G04 #@! TD*
G04 #@! TA.AperFunction,Conductor*
%ADD15C,0.254000*%
G04 #@! TD*
G04 #@! TA.AperFunction,Conductor*
%ADD16C,0.100000*%
G04 #@! TD*
G04 APERTURE END LIST*
D10*
X75000000Y-90000000D03*
D11*
X12500000Y-90000000D03*
D12*
X12500000Y-150000000D03*
X37500000Y-150000000D03*
D13*
X75000000Y-180000000D03*
X25000000Y-180000000D03*
X75000000Y-170000000D03*
X25000000Y-170000000D03*
D11*
X87500000Y-175000000D03*
X62500000Y-175000000D03*
X12500000Y-30000000D03*
X12500000Y-60000000D03*
X37500000Y-175000000D03*
X12500000Y-175000000D03*
X12500000Y-120000000D03*
D10*
X37500000Y-90000000D03*
X37500000Y-60000000D03*
X37500000Y-30000000D03*
X37500000Y-120000000D03*
D14*
X95600000Y-3000000D03*
X95600000Y-197000000D03*
X4400000Y-3000000D03*
X4400000Y-197000000D03*
D15*
X92630475Y-879635D02*
X92246970Y-1226576D01*
X91938519Y-1641669D01*
X91716975Y-2108962D01*
X91620333Y-2462838D01*
X91727009Y-2873000D01*
X95473000Y-2873000D01*
X95473000Y-2853000D01*
X95727000Y-2853000D01*
X95727000Y-2873000D01*
X95747000Y-2873000D01*
X95747000Y-3127000D01*
X95727000Y-3127000D01*
X95727000Y-5635000D01*
X97127000Y-5635000D01*
X97638623Y-5559593D01*
X98125704Y-5385822D01*
X98569525Y-5120365D01*
X98953030Y-4773424D01*
X99261481Y-4358331D01*
X99315001Y-4245444D01*
X99315000Y-195754554D01*
X99261481Y-195641669D01*
X98953030Y-195226576D01*
X98569525Y-194879635D01*
X98125704Y-194614178D01*
X97638623Y-194440407D01*
X97127000Y-194365000D01*
X95727000Y-194365000D01*
X95727000Y-196873000D01*
X95747000Y-196873000D01*
X95747000Y-197127000D01*
X95727000Y-197127000D01*
X95727000Y-197147000D01*
X95473000Y-197147000D01*
X95473000Y-197127000D01*
X91727009Y-197127000D01*
X91620333Y-197537162D01*
X91716975Y-197891038D01*
X91938519Y-198358331D01*
X92246970Y-198773424D01*
X92630475Y-199120365D01*
X92955888Y-199315000D01*
X7044112Y-199315000D01*
X7369525Y-199120365D01*
X7753030Y-198773424D01*
X8061481Y-198358331D01*
X8283025Y-197891038D01*
X8379667Y-197537162D01*
X8272991Y-197127000D01*
X4527000Y-197127000D01*
X4527000Y-197147000D01*
X4273000Y-197147000D01*
X4273000Y-197127000D01*
X4253000Y-197127000D01*
X4253000Y-196873000D01*
X4273000Y-196873000D01*
X4273000Y-194365000D01*
X4527000Y-194365000D01*
X4527000Y-196873000D01*
X8272991Y-196873000D01*
X8379667Y-196462838D01*
X91620333Y-196462838D01*
X91727009Y-196873000D01*
X95473000Y-196873000D01*
X95473000Y-194365000D01*
X94073000Y-194365000D01*
X93561377Y-194440407D01*
X93074296Y-194614178D01*
X92630475Y-194879635D01*
X92246970Y-195226576D01*
X91938519Y-195641669D01*
X91716975Y-196108962D01*
X91620333Y-196462838D01*
X8379667Y-196462838D01*
X8283025Y-196108962D01*
X8061481Y-195641669D01*
X7753030Y-195226576D01*
X7369525Y-194879635D01*
X6925704Y-194614178D01*
X6438623Y-194440407D01*
X5927000Y-194365000D01*
X4527000Y-194365000D01*
X4273000Y-194365000D01*
X2873000Y-194365000D01*
X2361377Y-194440407D01*
X1874296Y-194614178D01*
X1430475Y-194879635D01*
X1046970Y-195226576D01*
X738519Y-195641669D01*
X685000Y-195754554D01*
X685000Y-180401674D01*
X7277932Y-180401674D01*
X8093908Y-181280530D01*
X9403840Y-182019437D01*
X10832756Y-182488591D01*
X12325743Y-182669963D01*
X13825428Y-182556583D01*
X15274176Y-182152807D01*
X16616314Y-181474153D01*
X16906092Y-181280530D01*
X17722068Y-180401674D01*
X12500000Y-175179605D01*
X7277932Y-180401674D01*
X685000Y-180401674D01*
X685000Y-174825743D01*
X4830037Y-174825743D01*
X4943417Y-176325428D01*
X5347193Y-177774176D01*
X6025847Y-179116314D01*
X6219470Y-179406092D01*
X7098326Y-180222068D01*
X12320395Y-175000000D01*
X12679605Y-175000000D01*
X17901674Y-180222068D01*
X18499939Y-179666607D01*
X21615000Y-179666607D01*
X21615000Y-180333393D01*
X21745083Y-180987368D01*
X22000252Y-181603399D01*
X22370698Y-182157812D01*
X22842188Y-182629302D01*
X23396601Y-182999748D01*
X24012632Y-183254917D01*
X24666607Y-183385000D01*
X25333393Y-183385000D01*
X25987368Y-183254917D01*
X26603399Y-182999748D01*
X27157812Y-182629302D01*
X27629302Y-182157812D01*
X27999748Y-181603399D01*
X28254917Y-180987368D01*
X28371418Y-180401674D01*
X32277932Y-180401674D01*
X33093908Y-181280530D01*
X34403840Y-182019437D01*
X35832756Y-182488591D01*
X37325743Y-182669963D01*
X38825428Y-182556583D01*
X40274176Y-182152807D01*
X41616314Y-181474153D01*
X41906092Y-181280530D01*
X42722068Y-180401674D01*
X57277932Y-180401674D01*
X58093908Y-181280530D01*
X59403840Y-182019437D01*
X60832756Y-182488591D01*
X62325743Y-182669963D01*
X63825428Y-182556583D01*
X65274176Y-182152807D01*
X66616314Y-181474153D01*
X66906092Y-181280530D01*
X67722068Y-180401674D01*
X62500000Y-175179605D01*
X57277932Y-180401674D01*
X42722068Y-180401674D01*
X37500000Y-175179605D01*
X32277932Y-180401674D01*
X28371418Y-180401674D01*
X28385000Y-180333393D01*
X28385000Y-179666607D01*
X28254917Y-179012632D01*
X27999748Y-178396601D01*
X27629302Y-177842188D01*
X27157812Y-177370698D01*
X26603399Y-177000252D01*
X25987368Y-176745083D01*
X25333393Y-176615000D01*
X24666607Y-176615000D01*
X24012632Y-176745083D01*
X23396601Y-177000252D01*
X22842188Y-177370698D01*
X22370698Y-177842188D01*
X22000252Y-178396601D01*
X21745083Y-179012632D01*
X21615000Y-179666607D01*
X18499939Y-179666607D01*
X18780530Y-179406092D01*
X19519437Y-178096160D01*
X19988591Y-176667244D01*
X20169963Y-175174257D01*
X20143615Y-174825743D01*
X29830037Y-174825743D01*
X29943417Y-176325428D01*
X30347193Y-177774176D01*
X31025847Y-179116314D01*
X31219470Y-179406092D01*
X32098326Y-180222068D01*
X37320395Y-175000000D01*
X37679605Y-175000000D01*
X42901674Y-180222068D01*
X43780530Y-179406092D01*
X44519437Y-178096160D01*
X44988591Y-176667244D01*
X45169963Y-175174257D01*
X45143615Y-174825743D01*
X54830037Y-174825743D01*
X54943417Y-176325428D01*
X55347193Y-177774176D01*
X56025847Y-179116314D01*
X56219470Y-179406092D01*
X57098326Y-180222068D01*
X62320395Y-175000000D01*
X62679605Y-175000000D01*
X67901674Y-180222068D01*
X68499939Y-179666607D01*
X71615000Y-179666607D01*
X71615000Y-180333393D01*
X71745083Y-180987368D01*
X72000252Y-181603399D01*
X72370698Y-182157812D01*
X72842188Y-182629302D01*
X73396601Y-182999748D01*
X74012632Y-183254917D01*
X74666607Y-183385000D01*
X75333393Y-183385000D01*
X75987368Y-183254917D01*
X76603399Y-182999748D01*
X77157812Y-182629302D01*
X77629302Y-182157812D01*
X77999748Y-181603399D01*
X78254917Y-180987368D01*
X78371418Y-180401674D01*
X82277932Y-180401674D01*
X83093908Y-181280530D01*
X84403840Y-182019437D01*
X85832756Y-182488591D01*
X87325743Y-182669963D01*
X88825428Y-182556583D01*
X90274176Y-182152807D01*
X91616314Y-181474153D01*
X91906092Y-181280530D01*
X92722068Y-180401674D01*
X87500000Y-175179605D01*
X82277932Y-180401674D01*
X78371418Y-180401674D01*
X78385000Y-180333393D01*
X78385000Y-179666607D01*
X78254917Y-179012632D01*
X77999748Y-178396601D01*
X77629302Y-177842188D01*
X77157812Y-177370698D01*
X76603399Y-177000252D01*
X75987368Y-176745083D01*
X75333393Y-176615000D01*
X74666607Y-176615000D01*
X74012632Y-176745083D01*
X73396601Y-177000252D01*
X72842188Y-177370698D01*
X72370698Y-177842188D01*
X72000252Y-178396601D01*
X71745083Y-179012632D01*
X71615000Y-179666607D01*
X68499939Y-179666607D01*
X68780530Y-179406092D01*
X69519437Y-178096160D01*
X69988591Y-176667244D01*
X70169963Y-175174257D01*
X70143615Y-174825743D01*
X79830037Y-174825743D01*
X79943417Y-176325428D01*
X80347193Y-177774176D01*
X81025847Y-179116314D01*
X81219470Y-179406092D01*
X82098326Y-180222068D01*
X87320395Y-175000000D01*
X87679605Y-175000000D01*
X92901674Y-180222068D01*
X93780530Y-179406092D01*
X94519437Y-178096160D01*
X94988591Y-176667244D01*
X95169963Y-175174257D01*
X95056583Y-173674572D01*
X94652807Y-172225824D01*
X93974153Y-170883686D01*
X93780530Y-170593908D01*
X92901674Y-169777932D01*
X87679605Y-175000000D01*
X87320395Y-175000000D01*
X82098326Y-169777932D01*
X81219470Y-170593908D01*
X80480563Y-171903840D01*
X80011409Y-173332756D01*
X79830037Y-174825743D01*
X70143615Y-174825743D01*
X70056583Y-173674572D01*
X69652807Y-172225824D01*
X68974153Y-170883686D01*
X68780530Y-170593908D01*
X67901674Y-169777932D01*
X62679605Y-175000000D01*
X62320395Y-175000000D01*
X57098326Y-169777932D01*
X56219470Y-170593908D01*
X55480563Y-171903840D01*
X55011409Y-173332756D01*
X54830037Y-174825743D01*
X45143615Y-174825743D01*
X45056583Y-173674572D01*
X44652807Y-172225824D01*
X43974153Y-170883686D01*
X43780530Y-170593908D01*
X42901674Y-169777932D01*
X37679605Y-175000000D01*
X37320395Y-175000000D01*
X32098326Y-169777932D01*
X31219470Y-170593908D01*
X30480563Y-171903840D01*
X30011409Y-173332756D01*
X29830037Y-174825743D01*
X20143615Y-174825743D01*
X20056583Y-173674572D01*
X19652807Y-172225824D01*
X18974153Y-170883686D01*
X18780530Y-170593908D01*
X17901674Y-169777932D01*
X12679605Y-175000000D01*
X12320395Y-175000000D01*
X7098326Y-169777932D01*
X6219470Y-170593908D01*
X5480563Y-171903840D01*
X5011409Y-173332756D01*
X4830037Y-174825743D01*
X685000Y-174825743D01*
X685000Y-169598326D01*
X7277932Y-169598326D01*
X12500000Y-174820395D01*
X17653787Y-169666607D01*
X21615000Y-169666607D01*
X21615000Y-170333393D01*
X21745083Y-170987368D01*
X22000252Y-171603399D01*
X22370698Y-172157812D01*
X22842188Y-172629302D01*
X23396601Y-172999748D01*
X24012632Y-173254917D01*
X24666607Y-173385000D01*
X25333393Y-173385000D01*
X25987368Y-173254917D01*
X26603399Y-172999748D01*
X27157812Y-172629302D01*
X27629302Y-172157812D01*
X27999748Y-171603399D01*
X28254917Y-170987368D01*
X28385000Y-170333393D01*
X28385000Y-169666607D01*
X28371419Y-169598326D01*
X32277932Y-169598326D01*
X37500000Y-174820395D01*
X42722068Y-169598326D01*
X57277932Y-169598326D01*
X62500000Y-174820395D01*
X67653787Y-169666607D01*
X71615000Y-169666607D01*
X71615000Y-170333393D01*
X71745083Y-170987368D01*
X72000252Y-171603399D01*
X72370698Y-172157812D01*
X72842188Y-172629302D01*
X73396601Y-172999748D01*
X74012632Y-173254917D01*
X74666607Y-173385000D01*
X75333393Y-173385000D01*
X75987368Y-173254917D01*
X76603399Y-172999748D01*
X77157812Y-172629302D01*
X77629302Y-172157812D01*
X77999748Y-171603399D01*
X78254917Y-170987368D01*
X78385000Y-170333393D01*
X78385000Y-169666607D01*
X78371419Y-169598326D01*
X82277932Y-169598326D01*
X87500000Y-174820395D01*
X92722068Y-169598326D01*
X91906092Y-168719470D01*
X90596160Y-167980563D01*
X89167244Y-167511409D01*
X87674257Y-167330037D01*
X86174572Y-167443417D01*
X84725824Y-167847193D01*
X83383686Y-168525847D01*
X83093908Y-168719470D01*
X82277932Y-169598326D01*
X78371419Y-169598326D01*
X78254917Y-169012632D01*
X77999748Y-168396601D01*
X77629302Y-167842188D01*
X77157812Y-167370698D01*
X76603399Y-167000252D01*
X75987368Y-166745083D01*
X75333393Y-166615000D01*
X74666607Y-166615000D01*
X74012632Y-166745083D01*
X73396601Y-167000252D01*
X72842188Y-167370698D01*
X72370698Y-167842188D01*
X72000252Y-168396601D01*
X71745083Y-169012632D01*
X71615000Y-169666607D01*
X67653787Y-169666607D01*
X67722068Y-169598326D01*
X66906092Y-168719470D01*
X65596160Y-167980563D01*
X64167244Y-167511409D01*
X62674257Y-167330037D01*
X61174572Y-167443417D01*
X59725824Y-167847193D01*
X58383686Y-168525847D01*
X58093908Y-168719470D01*
X57277932Y-169598326D01*
X42722068Y-169598326D01*
X41906092Y-168719470D01*
X40596160Y-167980563D01*
X39167244Y-167511409D01*
X37674257Y-167330037D01*
X36174572Y-167443417D01*
X34725824Y-167847193D01*
X33383686Y-168525847D01*
X33093908Y-168719470D01*
X32277932Y-169598326D01*
X28371419Y-169598326D01*
X28254917Y-169012632D01*
X27999748Y-168396601D01*
X27629302Y-167842188D01*
X27157812Y-167370698D01*
X26603399Y-167000252D01*
X25987368Y-166745083D01*
X25333393Y-166615000D01*
X24666607Y-166615000D01*
X24012632Y-166745083D01*
X23396601Y-167000252D01*
X22842188Y-167370698D01*
X22370698Y-167842188D01*
X22000252Y-168396601D01*
X21745083Y-169012632D01*
X21615000Y-169666607D01*
X17653787Y-169666607D01*
X17722068Y-169598326D01*
X16906092Y-168719470D01*
X15596160Y-167980563D01*
X14167244Y-167511409D01*
X12674257Y-167330037D01*
X11174572Y-167443417D01*
X9725824Y-167847193D01*
X8383686Y-168525847D01*
X8093908Y-168719470D01*
X7277932Y-169598326D01*
X685000Y-169598326D01*
X685000Y-156822890D01*
X5856716Y-156822890D01*
X6912521Y-157906570D01*
X8562379Y-158844710D01*
X10363557Y-159442954D01*
X12246837Y-159678310D01*
X14139846Y-159541734D01*
X15969837Y-159038474D01*
X17666483Y-158187870D01*
X18087479Y-157906570D01*
X19143284Y-156822890D01*
X30856716Y-156822890D01*
X31912521Y-157906570D01*
X33562379Y-158844710D01*
X35363557Y-159442954D01*
X37246837Y-159678310D01*
X39139846Y-159541734D01*
X40969837Y-159038474D01*
X42666483Y-158187870D01*
X43087479Y-157906570D01*
X44143284Y-156822890D01*
X37500000Y-150179605D01*
X30856716Y-156822890D01*
X19143284Y-156822890D01*
X12500000Y-150179605D01*
X5856716Y-156822890D01*
X685000Y-156822890D01*
X685000Y-149746837D01*
X2821690Y-149746837D01*
X2958266Y-151639846D01*
X3461526Y-153469837D01*
X4312130Y-155166483D01*
X4593430Y-155587479D01*
X5677110Y-156643284D01*
X12320395Y-150000000D01*
X12679605Y-150000000D01*
X19322890Y-156643284D01*
X20406570Y-155587479D01*
X21344710Y-153937621D01*
X21942954Y-152136443D01*
X22178310Y-150253163D01*
X22141780Y-149746837D01*
X27821690Y-149746837D01*
X27958266Y-151639846D01*
X28461526Y-153469837D01*
X29312130Y-155166483D01*
X29593430Y-155587479D01*
X30677110Y-156643284D01*
X37320395Y-150000000D01*
X37679605Y-150000000D01*
X44322890Y-156643284D01*
X45406570Y-155587479D01*
X46344710Y-153937621D01*
X46942954Y-152136443D01*
X47178310Y-150253163D01*
X47041734Y-148360154D01*
X46538474Y-146530163D01*
X45687870Y-144833517D01*
X45406570Y-144412521D01*
X44322890Y-143356716D01*
X37679605Y-150000000D01*
X37320395Y-150000000D01*
X30677110Y-143356716D01*
X29593430Y-144412521D01*
X28655290Y-146062379D01*
X28057046Y-147863557D01*
X27821690Y-149746837D01*
X22141780Y-149746837D01*
X22041734Y-148360154D01*
X21538474Y-146530163D01*
X20687870Y-144833517D01*
X20406570Y-144412521D01*
X19322890Y-143356716D01*
X12679605Y-150000000D01*
X12320395Y-150000000D01*
X5677110Y-143356716D01*
X4593430Y-144412521D01*
X3655290Y-146062379D01*
X3057046Y-147863557D01*
X2821690Y-149746837D01*
X685000Y-149746837D01*
X685000Y-143177110D01*
X5856716Y-143177110D01*
X12500000Y-149820395D01*
X19143284Y-143177110D01*
X30856716Y-143177110D01*
X37500000Y-149820395D01*
X44143284Y-143177110D01*
X43087479Y-142093430D01*
X41437621Y-141155290D01*
X39636443Y-140557046D01*
X37753163Y-140321690D01*
X35860154Y-140458266D01*
X34030163Y-140961526D01*
X32333517Y-141812130D01*
X31912521Y-142093430D01*
X30856716Y-143177110D01*
X19143284Y-143177110D01*
X18087479Y-142093430D01*
X16437621Y-141155290D01*
X14636443Y-140557046D01*
X12753163Y-140321690D01*
X10860154Y-140458266D01*
X9030163Y-140961526D01*
X7333517Y-141812130D01*
X6912521Y-142093430D01*
X5856716Y-143177110D01*
X685000Y-143177110D01*
X685000Y-125401674D01*
X7277932Y-125401674D01*
X8093908Y-126280530D01*
X9403840Y-127019437D01*
X10832756Y-127488591D01*
X12325743Y-127669963D01*
X13825428Y-127556583D01*
X15274176Y-127152807D01*
X16616314Y-126474153D01*
X16906092Y-126280530D01*
X17722068Y-125401674D01*
X12500000Y-120179605D01*
X7277932Y-125401674D01*
X685000Y-125401674D01*
X685000Y-119825743D01*
X4830037Y-119825743D01*
X4943417Y-121325428D01*
X5347193Y-122774176D01*
X6025847Y-124116314D01*
X6219470Y-124406092D01*
X7098326Y-125222068D01*
X12320395Y-120000000D01*
X12679605Y-120000000D01*
X17901674Y-125222068D01*
X18780530Y-124406092D01*
X19221145Y-123624971D01*
X34054634Y-123624971D01*
X34570783Y-124247788D01*
X35455768Y-124737630D01*
X36419314Y-125045407D01*
X37424389Y-125159293D01*
X38432370Y-125074910D01*
X39404520Y-124795501D01*
X40303481Y-124331803D01*
X40429217Y-124247788D01*
X40945366Y-123624971D01*
X37500000Y-120179605D01*
X34054634Y-123624971D01*
X19221145Y-123624971D01*
X19519437Y-123096160D01*
X19988591Y-121667244D01*
X20169963Y-120174257D01*
X20151073Y-119924389D01*
X32340707Y-119924389D01*
X32425090Y-120932370D01*
X32704499Y-121904520D01*
X33168197Y-122803481D01*
X33252212Y-122929217D01*
X33875029Y-123445366D01*
X37320395Y-120000000D01*
X37679605Y-120000000D01*
X41124971Y-123445366D01*
X41747788Y-122929217D01*
X42237630Y-122044232D01*
X42545407Y-121080686D01*
X42659293Y-120075611D01*
X42574910Y-119067630D01*
X42295501Y-118095480D01*
X41831803Y-117196519D01*
X41747788Y-117070783D01*
X41124971Y-116554634D01*
X37679605Y-120000000D01*
X37320395Y-120000000D01*
X33875029Y-116554634D01*
X33252212Y-117070783D01*
X32762370Y-117955768D01*
X32454593Y-118919314D01*
X32340707Y-119924389D01*
X20151073Y-119924389D01*
X20056583Y-118674572D01*
X19652807Y-117225824D01*
X19222602Y-116375029D01*
X34054634Y-116375029D01*
X37500000Y-119820395D01*
X40945366Y-116375029D01*
X40429217Y-115752212D01*
X39544232Y-115262370D01*
X38580686Y-114954593D01*
X37575611Y-114840707D01*
X36567630Y-114925090D01*
X35595480Y-115204499D01*
X34696519Y-115668197D01*
X34570783Y-115752212D01*
X34054634Y-116375029D01*
X19222602Y-116375029D01*
X18974153Y-115883686D01*
X18780530Y-115593908D01*
X17901674Y-114777932D01*
X12679605Y-120000000D01*
X12320395Y-120000000D01*
X7098326Y-114777932D01*
X6219470Y-115593908D01*
X5480563Y-116903840D01*
X5011409Y-118332756D01*
X4830037Y-119825743D01*
X685000Y-119825743D01*
X685000Y-114598326D01*
X7277932Y-114598326D01*
X12500000Y-119820395D01*
X17722068Y-114598326D01*
X16906092Y-113719470D01*
X15596160Y-112980563D01*
X14167244Y-112511409D01*
X12674257Y-112330037D01*
X11174572Y-112443417D01*
X9725824Y-112847193D01*
X8383686Y-113525847D01*
X8093908Y-113719470D01*
X7277932Y-114598326D01*
X685000Y-114598326D01*
X685000Y-95401674D01*
X7277932Y-95401674D01*
X8093908Y-96280530D01*
X9403840Y-97019437D01*
X10832756Y-97488591D01*
X12325743Y-97669963D01*
X13825428Y-97556583D01*
X15274176Y-97152807D01*
X16616314Y-96474153D01*
X16906092Y-96280530D01*
X17722068Y-95401674D01*
X12500000Y-90179605D01*
X7277932Y-95401674D01*
X685000Y-95401674D01*
X685000Y-89825743D01*
X4830037Y-89825743D01*
X4943417Y-91325428D01*
X5347193Y-92774176D01*
X6025847Y-94116314D01*
X6219470Y-94406092D01*
X7098326Y-95222068D01*
X12320395Y-90000000D01*
X12679605Y-90000000D01*
X17901674Y-95222068D01*
X18780530Y-94406092D01*
X19221145Y-93624971D01*
X34054634Y-93624971D01*
X34570783Y-94247788D01*
X35455768Y-94737630D01*
X36419314Y-95045407D01*
X37424389Y-95159293D01*
X38432370Y-95074910D01*
X39404520Y-94795501D01*
X40303481Y-94331803D01*
X40429217Y-94247788D01*
X40945366Y-93624971D01*
X71554634Y-93624971D01*
X72070783Y-94247788D01*
X72955768Y-94737630D01*
X73919314Y-95045407D01*
X74924389Y-95159293D01*
X75932370Y-95074910D01*
X76904520Y-94795501D01*
X77803481Y-94331803D01*
X77929217Y-94247788D01*
X78445366Y-93624971D01*
X75000000Y-90179605D01*
X71554634Y-93624971D01*
X40945366Y-93624971D01*
X37500000Y-90179605D01*
X34054634Y-93624971D01*
X19221145Y-93624971D01*
X19519437Y-93096160D01*
X19988591Y-91667244D01*
X20169963Y-90174257D01*
X20151073Y-89924389D01*
X32340707Y-89924389D01*
X32425090Y-90932370D01*
X32704499Y-91904520D01*
X33168197Y-92803481D01*
X33252212Y-92929217D01*
X33875029Y-93445366D01*
X37320395Y-90000000D01*
X37679605Y-90000000D01*
X41124971Y-93445366D01*
X41747788Y-92929217D01*
X42237630Y-92044232D01*
X42545407Y-91080686D01*
X42659293Y-90075611D01*
X42646634Y-89924389D01*
X69840707Y-89924389D01*
X69925090Y-90932370D01*
X70204499Y-91904520D01*
X70668197Y-92803481D01*
X70752212Y-92929217D01*
X71375029Y-93445366D01*
X74820395Y-90000000D01*
X75179605Y-90000000D01*
X78624971Y-93445366D01*
X79247788Y-92929217D01*
X79737630Y-92044232D01*
X80045407Y-91080686D01*
X80159293Y-90075611D01*
X80074910Y-89067630D01*
X79795501Y-88095480D01*
X79331803Y-87196519D01*
X79247788Y-87070783D01*
X78624971Y-86554634D01*
X75179605Y-90000000D01*
X74820395Y-90000000D01*
X71375029Y-86554634D01*
X70752212Y-87070783D01*
X70262370Y-87955768D01*
X69954593Y-88919314D01*
X69840707Y-89924389D01*
X42646634Y-89924389D01*
X42574910Y-89067630D01*
X42295501Y-88095480D01*
X41831803Y-87196519D01*
X41747788Y-87070783D01*
X41124971Y-86554634D01*
X37679605Y-90000000D01*
X37320395Y-90000000D01*
X33875029Y-86554634D01*
X33252212Y-87070783D01*
X32762370Y-87955768D01*
X32454593Y-88919314D01*
X32340707Y-89924389D01*
X20151073Y-89924389D01*
X20056583Y-88674572D01*
X19652807Y-87225824D01*
X19222602Y-86375029D01*
X34054634Y-86375029D01*
X37500000Y-89820395D01*
X40945366Y-86375029D01*
X71554634Y-86375029D01*
X75000000Y-89820395D01*
X78445366Y-86375029D01*
X77929217Y-85752212D01*
X77044232Y-85262370D01*
X76080686Y-84954593D01*
X75075611Y-84840707D01*
X74067630Y-84925090D01*
X73095480Y-85204499D01*
X72196519Y-85668197D01*
X72070783Y-85752212D01*
X71554634Y-86375029D01*
X40945366Y-86375029D01*
X40429217Y-85752212D01*
X39544232Y-85262370D01*
X38580686Y-84954593D01*
X37575611Y-84840707D01*
X36567630Y-84925090D01*
X35595480Y-85204499D01*
X34696519Y-85668197D01*
X34570783Y-85752212D01*
X34054634Y-86375029D01*
X19222602Y-86375029D01*
X18974153Y-85883686D01*
X18780530Y-85593908D01*
X17901674Y-84777932D01*
X12679605Y-90000000D01*
X12320395Y-90000000D01*
X7098326Y-84777932D01*
X6219470Y-85593908D01*
X5480563Y-86903840D01*
X5011409Y-88332756D01*
X4830037Y-89825743D01*
X685000Y-89825743D01*
X685000Y-84598326D01*
X7277932Y-84598326D01*
X12500000Y-89820395D01*
X17722068Y-84598326D01*
X16906092Y-83719470D01*
X15596160Y-82980563D01*
X14167244Y-82511409D01*
X12674257Y-82330037D01*
X11174572Y-82443417D01*
X9725824Y-82847193D01*
X8383686Y-83525847D01*
X8093908Y-83719470D01*
X7277932Y-84598326D01*
X685000Y-84598326D01*
X685000Y-76079872D01*
X57596000Y-76079872D01*
X57596000Y-76520128D01*
X57681890Y-76951925D01*
X57850369Y-77358669D01*
X58094962Y-77724729D01*
X58406271Y-78036038D01*
X58772331Y-78280631D01*
X59179075Y-78449110D01*
X59610872Y-78535000D01*
X60051128Y-78535000D01*
X60482925Y-78449110D01*
X60889669Y-78280631D01*
X61255729Y-78036038D01*
X61567038Y-77724729D01*
X61811631Y-77358669D01*
X61980110Y-76951925D01*
X62066000Y-76520128D01*
X62066000Y-76079872D01*
X87934000Y-76079872D01*
X87934000Y-76520128D01*
X88019890Y-76951925D01*
X88188369Y-77358669D01*
X88432962Y-77724729D01*
X88744271Y-78036038D01*
X89110331Y-78280631D01*
X89517075Y-78449110D01*
X89948872Y-78535000D01*
X90389128Y-78535000D01*
X90820925Y-78449110D01*
X91227669Y-78280631D01*
X91593729Y-78036038D01*
X91905038Y-77724729D01*
X92149631Y-77358669D01*
X92318110Y-76951925D01*
X92404000Y-76520128D01*
X92404000Y-76079872D01*
X92318110Y-75648075D01*
X92149631Y-75241331D01*
X91905038Y-74875271D01*
X91593729Y-74563962D01*
X91227669Y-74319369D01*
X90820925Y-74150890D01*
X90389128Y-74065000D01*
X89948872Y-74065000D01*
X89517075Y-74150890D01*
X89110331Y-74319369D01*
X88744271Y-74563962D01*
X88432962Y-74875271D01*
X88188369Y-75241331D01*
X88019890Y-75648075D01*
X87934000Y-76079872D01*
X62066000Y-76079872D01*
X61980110Y-75648075D01*
X61811631Y-75241331D01*
X61567038Y-74875271D01*
X61255729Y-74563962D01*
X60889669Y-74319369D01*
X60482925Y-74150890D01*
X60051128Y-74065000D01*
X59610872Y-74065000D01*
X59179075Y-74150890D01*
X58772331Y-74319369D01*
X58406271Y-74563962D01*
X58094962Y-74875271D01*
X57850369Y-75241331D01*
X57681890Y-75648075D01*
X57596000Y-76079872D01*
X685000Y-76079872D01*
X685000Y-65401674D01*
X7277932Y-65401674D01*
X8093908Y-66280530D01*
X9403840Y-67019437D01*
X10832756Y-67488591D01*
X12325743Y-67669963D01*
X13825428Y-67556583D01*
X15274176Y-67152807D01*
X16616314Y-66474153D01*
X16906092Y-66280530D01*
X17722068Y-65401674D01*
X12500000Y-60179605D01*
X7277932Y-65401674D01*
X685000Y-65401674D01*
X685000Y-59825743D01*
X4830037Y-59825743D01*
X4943417Y-61325428D01*
X5347193Y-62774176D01*
X6025847Y-64116314D01*
X6219470Y-64406092D01*
X7098326Y-65222068D01*
X12320395Y-60000000D01*
X12679605Y-60000000D01*
X17901674Y-65222068D01*
X18780530Y-64406092D01*
X19221145Y-63624971D01*
X34054634Y-63624971D01*
X34570783Y-64247788D01*
X35455768Y-64737630D01*
X36419314Y-65045407D01*
X37424389Y-65159293D01*
X38432370Y-65074910D01*
X39404520Y-64795501D01*
X40303481Y-64331803D01*
X40429217Y-64247788D01*
X40945366Y-63624971D01*
X37500000Y-60179605D01*
X34054634Y-63624971D01*
X19221145Y-63624971D01*
X19519437Y-63096160D01*
X19988591Y-61667244D01*
X20169963Y-60174257D01*
X20151073Y-59924389D01*
X32340707Y-59924389D01*
X32425090Y-60932370D01*
X32704499Y-61904520D01*
X33168197Y-62803481D01*
X33252212Y-62929217D01*
X33875029Y-63445366D01*
X37320395Y-60000000D01*
X37679605Y-60000000D01*
X41124971Y-63445366D01*
X41747788Y-62929217D01*
X42237630Y-62044232D01*
X42545407Y-61080686D01*
X42659293Y-60075611D01*
X42574910Y-59067630D01*
X42295501Y-58095480D01*
X41831803Y-57196519D01*
X41747788Y-57070783D01*
X41124971Y-56554634D01*
X37679605Y-60000000D01*
X37320395Y-60000000D01*
X33875029Y-56554634D01*
X33252212Y-57070783D01*
X32762370Y-57955768D01*
X32454593Y-58919314D01*
X32340707Y-59924389D01*
X20151073Y-59924389D01*
X20056583Y-58674572D01*
X19652807Y-57225824D01*
X19222602Y-56375029D01*
X34054634Y-56375029D01*
X37500000Y-59820395D01*
X40945366Y-56375029D01*
X40429217Y-55752212D01*
X39544232Y-55262370D01*
X38580686Y-54954593D01*
X37575611Y-54840707D01*
X36567630Y-54925090D01*
X35595480Y-55204499D01*
X34696519Y-55668197D01*
X34570783Y-55752212D01*
X34054634Y-56375029D01*
X19222602Y-56375029D01*
X18974153Y-55883686D01*
X18780530Y-55593908D01*
X17901674Y-54777932D01*
X12679605Y-60000000D01*
X12320395Y-60000000D01*
X7098326Y-54777932D01*
X6219470Y-55593908D01*
X5480563Y-56903840D01*
X5011409Y-58332756D01*
X4830037Y-59825743D01*
X685000Y-59825743D01*
X685000Y-54598326D01*
X7277932Y-54598326D01*
X12500000Y-59820395D01*
X17722068Y-54598326D01*
X16906092Y-53719470D01*
X15596160Y-52980563D01*
X14589355Y-52650000D01*
X59601638Y-52650000D01*
X59605000Y-52684135D01*
X59605001Y-67315855D01*
X59601638Y-67350000D01*
X59615057Y-67486244D01*
X59654798Y-67617252D01*
X59719333Y-67737989D01*
X59806183Y-67843817D01*
X59912011Y-67930667D01*
X60032748Y-67995202D01*
X60163756Y-68034943D01*
X60265865Y-68045000D01*
X60265866Y-68045000D01*
X60300000Y-68048362D01*
X60334135Y-68045000D01*
X89665866Y-68045000D01*
X89700000Y-68048362D01*
X89836244Y-68034943D01*
X89967252Y-67995202D01*
X90087989Y-67930667D01*
X90193817Y-67843817D01*
X90280667Y-67737989D01*
X90345202Y-67617252D01*
X90384943Y-67486244D01*
X90395000Y-67384135D01*
X90398362Y-67350000D01*
X90395000Y-67315865D01*
X90395000Y-52684135D01*
X90398362Y-52650000D01*
X90384943Y-52513756D01*
X90345202Y-52382748D01*
X90280667Y-52262011D01*
X90193817Y-52156183D01*
X90087989Y-52069333D01*
X89967252Y-52004798D01*
X89836244Y-51965057D01*
X89734135Y-51955000D01*
X89734134Y-51955000D01*
X89700000Y-51951638D01*
X89665865Y-51955000D01*
X60334134Y-51955000D01*
X60300000Y-51951638D01*
X60265865Y-51955000D01*
X60163756Y-51965057D01*
X60032748Y-52004798D01*
X59912011Y-52069333D01*
X59806183Y-52156183D01*
X59719333Y-52262011D01*
X59654798Y-52382748D01*
X59615057Y-52513756D01*
X59601638Y-52650000D01*
X14589355Y-52650000D01*
X14167244Y-52511409D01*
X12674257Y-52330037D01*
X11174572Y-52443417D01*
X9725824Y-52847193D01*
X8383686Y-53525847D01*
X8093908Y-53719470D01*
X7277932Y-54598326D01*
X685000Y-54598326D01*
X685000Y-47579872D01*
X57596000Y-47579872D01*
X57596000Y-48020128D01*
X57681890Y-48451925D01*
X57850369Y-48858669D01*
X58094962Y-49224729D01*
X58406271Y-49536038D01*
X58772331Y-49780631D01*
X59179075Y-49949110D01*
X59610872Y-50035000D01*
X60051128Y-50035000D01*
X60482925Y-49949110D01*
X60889669Y-49780631D01*
X61255729Y-49536038D01*
X61567038Y-49224729D01*
X61811631Y-48858669D01*
X61980110Y-48451925D01*
X62066000Y-48020128D01*
X62066000Y-47579872D01*
X87934000Y-47579872D01*
X87934000Y-48020128D01*
X88019890Y-48451925D01*
X88188369Y-48858669D01*
X88432962Y-49224729D01*
X88744271Y-49536038D01*
X89110331Y-49780631D01*
X89517075Y-49949110D01*
X89948872Y-50035000D01*
X90389128Y-50035000D01*
X90820925Y-49949110D01*
X91227669Y-49780631D01*
X91593729Y-49536038D01*
X91905038Y-49224729D01*
X92149631Y-48858669D01*
X92318110Y-48451925D01*
X92404000Y-48020128D01*
X92404000Y-47579872D01*
X92318110Y-47148075D01*
X92149631Y-46741331D01*
X91905038Y-46375271D01*
X91593729Y-46063962D01*
X91227669Y-45819369D01*
X90820925Y-45650890D01*
X90389128Y-45565000D01*
X89948872Y-45565000D01*
X89517075Y-45650890D01*
X89110331Y-45819369D01*
X88744271Y-46063962D01*
X88432962Y-46375271D01*
X88188369Y-46741331D01*
X88019890Y-47148075D01*
X87934000Y-47579872D01*
X62066000Y-47579872D01*
X61980110Y-47148075D01*
X61811631Y-46741331D01*
X61567038Y-46375271D01*
X61255729Y-46063962D01*
X60889669Y-45819369D01*
X60482925Y-45650890D01*
X60051128Y-45565000D01*
X59610872Y-45565000D01*
X59179075Y-45650890D01*
X58772331Y-45819369D01*
X58406271Y-46063962D01*
X58094962Y-46375271D01*
X57850369Y-46741331D01*
X57681890Y-47148075D01*
X57596000Y-47579872D01*
X685000Y-47579872D01*
X685000Y-35401674D01*
X7277932Y-35401674D01*
X8093908Y-36280530D01*
X9403840Y-37019437D01*
X10832756Y-37488591D01*
X12325743Y-37669963D01*
X13825428Y-37556583D01*
X15274176Y-37152807D01*
X16616314Y-36474153D01*
X16906092Y-36280530D01*
X17722068Y-35401674D01*
X12500000Y-30179605D01*
X7277932Y-35401674D01*
X685000Y-35401674D01*
X685000Y-29825743D01*
X4830037Y-29825743D01*
X4943417Y-31325428D01*
X5347193Y-32774176D01*
X6025847Y-34116314D01*
X6219470Y-34406092D01*
X7098326Y-35222068D01*
X12320395Y-30000000D01*
X12679605Y-30000000D01*
X17901674Y-35222068D01*
X18780530Y-34406092D01*
X19221145Y-33624971D01*
X34054634Y-33624971D01*
X34570783Y-34247788D01*
X35455768Y-34737630D01*
X36419314Y-35045407D01*
X37424389Y-35159293D01*
X38432370Y-35074910D01*
X39404520Y-34795501D01*
X40303481Y-34331803D01*
X40429217Y-34247788D01*
X40945366Y-33624971D01*
X37500000Y-30179605D01*
X34054634Y-33624971D01*
X19221145Y-33624971D01*
X19519437Y-33096160D01*
X19988591Y-31667244D01*
X20169963Y-30174257D01*
X20151073Y-29924389D01*
X32340707Y-29924389D01*
X32425090Y-30932370D01*
X32704499Y-31904520D01*
X33168197Y-32803481D01*
X33252212Y-32929217D01*
X33875029Y-33445366D01*
X37320395Y-30000000D01*
X37679605Y-30000000D01*
X41124971Y-33445366D01*
X41747788Y-32929217D01*
X42237630Y-32044232D01*
X42545407Y-31080686D01*
X42659293Y-30075611D01*
X42574910Y-29067630D01*
X42295501Y-28095480D01*
X41831803Y-27196519D01*
X41747788Y-27070783D01*
X41124971Y-26554634D01*
X37679605Y-30000000D01*
X37320395Y-30000000D01*
X33875029Y-26554634D01*
X33252212Y-27070783D01*
X32762370Y-27955768D01*
X32454593Y-28919314D01*
X32340707Y-29924389D01*
X20151073Y-29924389D01*
X20056583Y-28674572D01*
X19652807Y-27225824D01*
X19222602Y-26375029D01*
X34054634Y-26375029D01*
X37500000Y-29820395D01*
X40945366Y-26375029D01*
X40429217Y-25752212D01*
X39544232Y-25262370D01*
X38580686Y-24954593D01*
X37575611Y-24840707D01*
X36567630Y-24925090D01*
X35595480Y-25204499D01*
X34696519Y-25668197D01*
X34570783Y-25752212D01*
X34054634Y-26375029D01*
X19222602Y-26375029D01*
X18974153Y-25883686D01*
X18780530Y-25593908D01*
X17901674Y-24777932D01*
X12679605Y-30000000D01*
X12320395Y-30000000D01*
X7098326Y-24777932D01*
X6219470Y-25593908D01*
X5480563Y-26903840D01*
X5011409Y-28332756D01*
X4830037Y-29825743D01*
X685000Y-29825743D01*
X685000Y-24598326D01*
X7277932Y-24598326D01*
X12500000Y-29820395D01*
X17722068Y-24598326D01*
X16906092Y-23719470D01*
X15596160Y-22980563D01*
X14167244Y-22511409D01*
X12674257Y-22330037D01*
X11174572Y-22443417D01*
X9725824Y-22847193D01*
X8383686Y-23525847D01*
X8093908Y-23719470D01*
X7277932Y-24598326D01*
X685000Y-24598326D01*
X685000Y-4245446D01*
X738519Y-4358331D01*
X1046970Y-4773424D01*
X1430475Y-5120365D01*
X1874296Y-5385822D01*
X2361377Y-5559593D01*
X2873000Y-5635000D01*
X4273000Y-5635000D01*
X4273000Y-3127000D01*
X4527000Y-3127000D01*
X4527000Y-5635000D01*
X5927000Y-5635000D01*
X6438623Y-5559593D01*
X6925704Y-5385822D01*
X7369525Y-5120365D01*
X7753030Y-4773424D01*
X8061481Y-4358331D01*
X8283025Y-3891038D01*
X8379667Y-3537162D01*
X91620333Y-3537162D01*
X91716975Y-3891038D01*
X91938519Y-4358331D01*
X92246970Y-4773424D01*
X92630475Y-5120365D01*
X93074296Y-5385822D01*
X93561377Y-5559593D01*
X94073000Y-5635000D01*
X95473000Y-5635000D01*
X95473000Y-3127000D01*
X91727009Y-3127000D01*
X91620333Y-3537162D01*
X8379667Y-3537162D01*
X8272991Y-3127000D01*
X4527000Y-3127000D01*
X4273000Y-3127000D01*
X4253000Y-3127000D01*
X4253000Y-2873000D01*
X4273000Y-2873000D01*
X4273000Y-2853000D01*
X4527000Y-2853000D01*
X4527000Y-2873000D01*
X8272991Y-2873000D01*
X8379667Y-2462838D01*
X8283025Y-2108962D01*
X8061481Y-1641669D01*
X7753030Y-1226576D01*
X7369525Y-879635D01*
X7044112Y-685000D01*
X92955888Y-685000D01*
X92630475Y-879635D01*
G04 #@! TA.AperFunction,Conductor*
D16*
G36*
X92630475Y-879635D02*
G01*
X92246970Y-1226576D01*
X91938519Y-1641669D01*
X91716975Y-2108962D01*
X91620333Y-2462838D01*
X91727009Y-2873000D01*
X95473000Y-2873000D01*
X95473000Y-2853000D01*
X95727000Y-2853000D01*
X95727000Y-2873000D01*
X95747000Y-2873000D01*
X95747000Y-3127000D01*
X95727000Y-3127000D01*
X95727000Y-5635000D01*
X97127000Y-5635000D01*
X97638623Y-5559593D01*
X98125704Y-5385822D01*
X98569525Y-5120365D01*
X98953030Y-4773424D01*
X99261481Y-4358331D01*
X99315001Y-4245444D01*
X99315000Y-195754554D01*
X99261481Y-195641669D01*
X98953030Y-195226576D01*
X98569525Y-194879635D01*
X98125704Y-194614178D01*
X97638623Y-194440407D01*
X97127000Y-194365000D01*
X95727000Y-194365000D01*
X95727000Y-196873000D01*
X95747000Y-196873000D01*
X95747000Y-197127000D01*
X95727000Y-197127000D01*
X95727000Y-197147000D01*
X95473000Y-197147000D01*
X95473000Y-197127000D01*
X91727009Y-197127000D01*
X91620333Y-197537162D01*
X91716975Y-197891038D01*
X91938519Y-198358331D01*
X92246970Y-198773424D01*
X92630475Y-199120365D01*
X92955888Y-199315000D01*
X7044112Y-199315000D01*
X7369525Y-199120365D01*
X7753030Y-198773424D01*
X8061481Y-198358331D01*
X8283025Y-197891038D01*
X8379667Y-197537162D01*
X8272991Y-197127000D01*
X4527000Y-197127000D01*
X4527000Y-197147000D01*
X4273000Y-197147000D01*
X4273000Y-197127000D01*
X4253000Y-197127000D01*
X4253000Y-196873000D01*
X4273000Y-196873000D01*
X4273000Y-194365000D01*
X4527000Y-194365000D01*
X4527000Y-196873000D01*
X8272991Y-196873000D01*
X8379667Y-196462838D01*
X91620333Y-196462838D01*
X91727009Y-196873000D01*
X95473000Y-196873000D01*
X95473000Y-194365000D01*
X94073000Y-194365000D01*
X93561377Y-194440407D01*
X93074296Y-194614178D01*
X92630475Y-194879635D01*
X92246970Y-195226576D01*
X91938519Y-195641669D01*
X91716975Y-196108962D01*
X91620333Y-196462838D01*
X8379667Y-196462838D01*
X8283025Y-196108962D01*
X8061481Y-195641669D01*
X7753030Y-195226576D01*
X7369525Y-194879635D01*
X6925704Y-194614178D01*
X6438623Y-194440407D01*
X5927000Y-194365000D01*
X4527000Y-194365000D01*
X4273000Y-194365000D01*
X2873000Y-194365000D01*
X2361377Y-194440407D01*
X1874296Y-194614178D01*
X1430475Y-194879635D01*
X1046970Y-195226576D01*
X738519Y-195641669D01*
X685000Y-195754554D01*
X685000Y-180401674D01*
X7277932Y-180401674D01*
X8093908Y-181280530D01*
X9403840Y-182019437D01*
X10832756Y-182488591D01*
X12325743Y-182669963D01*
X13825428Y-182556583D01*
X15274176Y-182152807D01*
X16616314Y-181474153D01*
X16906092Y-181280530D01*
X17722068Y-180401674D01*
X12500000Y-175179605D01*
X7277932Y-180401674D01*
X685000Y-180401674D01*
X685000Y-174825743D01*
X4830037Y-174825743D01*
X4943417Y-176325428D01*
X5347193Y-177774176D01*
X6025847Y-179116314D01*
X6219470Y-179406092D01*
X7098326Y-180222068D01*
X12320395Y-175000000D01*
X12679605Y-175000000D01*
X17901674Y-180222068D01*
X18499939Y-179666607D01*
X21615000Y-179666607D01*
X21615000Y-180333393D01*
X21745083Y-180987368D01*
X22000252Y-181603399D01*
X22370698Y-182157812D01*
X22842188Y-182629302D01*
X23396601Y-182999748D01*
X24012632Y-183254917D01*
X24666607Y-183385000D01*
X25333393Y-183385000D01*
X25987368Y-183254917D01*
X26603399Y-182999748D01*
X27157812Y-182629302D01*
X27629302Y-182157812D01*
X27999748Y-181603399D01*
X28254917Y-180987368D01*
X28371418Y-180401674D01*
X32277932Y-180401674D01*
X33093908Y-181280530D01*
X34403840Y-182019437D01*
X35832756Y-182488591D01*
X37325743Y-182669963D01*
X38825428Y-182556583D01*
X40274176Y-182152807D01*
X41616314Y-181474153D01*
X41906092Y-181280530D01*
X42722068Y-180401674D01*
X57277932Y-180401674D01*
X58093908Y-181280530D01*
X59403840Y-182019437D01*
X60832756Y-182488591D01*
X62325743Y-182669963D01*
X63825428Y-182556583D01*
X65274176Y-182152807D01*
X66616314Y-181474153D01*
X66906092Y-181280530D01*
X67722068Y-180401674D01*
X62500000Y-175179605D01*
X57277932Y-180401674D01*
X42722068Y-180401674D01*
X37500000Y-175179605D01*
X32277932Y-180401674D01*
X28371418Y-180401674D01*
X28385000Y-180333393D01*
X28385000Y-179666607D01*
X28254917Y-179012632D01*
X27999748Y-178396601D01*
X27629302Y-177842188D01*
X27157812Y-177370698D01*
X26603399Y-177000252D01*
X25987368Y-176745083D01*
X25333393Y-176615000D01*
X24666607Y-176615000D01*
X24012632Y-176745083D01*
X23396601Y-177000252D01*
X22842188Y-177370698D01*
X22370698Y-177842188D01*
X22000252Y-178396601D01*
X21745083Y-179012632D01*
X21615000Y-179666607D01*
X18499939Y-179666607D01*
X18780530Y-179406092D01*
X19519437Y-178096160D01*
X19988591Y-176667244D01*
X20169963Y-175174257D01*
X20143615Y-174825743D01*
X29830037Y-174825743D01*
X29943417Y-176325428D01*
X30347193Y-177774176D01*
X31025847Y-179116314D01*
X31219470Y-179406092D01*
X32098326Y-180222068D01*
X37320395Y-175000000D01*
X37679605Y-175000000D01*
X42901674Y-180222068D01*
X43780530Y-179406092D01*
X44519437Y-178096160D01*
X44988591Y-176667244D01*
X45169963Y-175174257D01*
X45143615Y-174825743D01*
X54830037Y-174825743D01*
X54943417Y-176325428D01*
X55347193Y-177774176D01*
X56025847Y-179116314D01*
X56219470Y-179406092D01*
X57098326Y-180222068D01*
X62320395Y-175000000D01*
X62679605Y-175000000D01*
X67901674Y-180222068D01*
X68499939Y-179666607D01*
X71615000Y-179666607D01*
X71615000Y-180333393D01*
X71745083Y-180987368D01*
X72000252Y-181603399D01*
X72370698Y-182157812D01*
X72842188Y-182629302D01*
X73396601Y-182999748D01*
X74012632Y-183254917D01*
X74666607Y-183385000D01*
X75333393Y-183385000D01*
X75987368Y-183254917D01*
X76603399Y-182999748D01*
X77157812Y-182629302D01*
X77629302Y-182157812D01*
X77999748Y-181603399D01*
X78254917Y-180987368D01*
X78371418Y-180401674D01*
X82277932Y-180401674D01*
X83093908Y-181280530D01*
X84403840Y-182019437D01*
X85832756Y-182488591D01*
X87325743Y-182669963D01*
X88825428Y-182556583D01*
X90274176Y-182152807D01*
X91616314Y-181474153D01*
X91906092Y-181280530D01*
X92722068Y-180401674D01*
X87500000Y-175179605D01*
X82277932Y-180401674D01*
X78371418Y-180401674D01*
X78385000Y-180333393D01*
X78385000Y-179666607D01*
X78254917Y-179012632D01*
X77999748Y-178396601D01*
X77629302Y-177842188D01*
X77157812Y-177370698D01*
X76603399Y-177000252D01*
X75987368Y-176745083D01*
X75333393Y-176615000D01*
X74666607Y-176615000D01*
X74012632Y-176745083D01*
X73396601Y-177000252D01*
X72842188Y-177370698D01*
X72370698Y-177842188D01*
X72000252Y-178396601D01*
X71745083Y-179012632D01*
X71615000Y-179666607D01*
X68499939Y-179666607D01*
X68780530Y-179406092D01*
X69519437Y-178096160D01*
X69988591Y-176667244D01*
X70169963Y-175174257D01*
X70143615Y-174825743D01*
X79830037Y-174825743D01*
X79943417Y-176325428D01*
X80347193Y-177774176D01*
X81025847Y-179116314D01*
X81219470Y-179406092D01*
X82098326Y-180222068D01*
X87320395Y-175000000D01*
X87679605Y-175000000D01*
X92901674Y-180222068D01*
X93780530Y-179406092D01*
X94519437Y-178096160D01*
X94988591Y-176667244D01*
X95169963Y-175174257D01*
X95056583Y-173674572D01*
X94652807Y-172225824D01*
X93974153Y-170883686D01*
X93780530Y-170593908D01*
X92901674Y-169777932D01*
X87679605Y-175000000D01*
X87320395Y-175000000D01*
X82098326Y-169777932D01*
X81219470Y-170593908D01*
X80480563Y-171903840D01*
X80011409Y-173332756D01*
X79830037Y-174825743D01*
X70143615Y-174825743D01*
X70056583Y-173674572D01*
X69652807Y-172225824D01*
X68974153Y-170883686D01*
X68780530Y-170593908D01*
X67901674Y-169777932D01*
X62679605Y-175000000D01*
X62320395Y-175000000D01*
X57098326Y-169777932D01*
X56219470Y-170593908D01*
X55480563Y-171903840D01*
X55011409Y-173332756D01*
X54830037Y-174825743D01*
X45143615Y-174825743D01*
X45056583Y-173674572D01*
X44652807Y-172225824D01*
X43974153Y-170883686D01*
X43780530Y-170593908D01*
X42901674Y-169777932D01*
X37679605Y-175000000D01*
X37320395Y-175000000D01*
X32098326Y-169777932D01*
X31219470Y-170593908D01*
X30480563Y-171903840D01*
X30011409Y-173332756D01*
X29830037Y-174825743D01*
X20143615Y-174825743D01*
X20056583Y-173674572D01*
X19652807Y-172225824D01*
X18974153Y-170883686D01*
X18780530Y-170593908D01*
X17901674Y-169777932D01*
X12679605Y-175000000D01*
X12320395Y-175000000D01*
X7098326Y-169777932D01*
X6219470Y-170593908D01*
X5480563Y-171903840D01*
X5011409Y-173332756D01*
X4830037Y-174825743D01*
X685000Y-174825743D01*
X685000Y-169598326D01*
X7277932Y-169598326D01*
X12500000Y-174820395D01*
X17653787Y-169666607D01*
X21615000Y-169666607D01*
X21615000Y-170333393D01*
X21745083Y-170987368D01*
X22000252Y-171603399D01*
X22370698Y-172157812D01*
X22842188Y-172629302D01*
X23396601Y-172999748D01*
X24012632Y-173254917D01*
X24666607Y-173385000D01*
X25333393Y-173385000D01*
X25987368Y-173254917D01*
X26603399Y-172999748D01*
X27157812Y-172629302D01*
X27629302Y-172157812D01*
X27999748Y-171603399D01*
X28254917Y-170987368D01*
X28385000Y-170333393D01*
X28385000Y-169666607D01*
X28371419Y-169598326D01*
X32277932Y-169598326D01*
X37500000Y-174820395D01*
X42722068Y-169598326D01*
X57277932Y-169598326D01*
X62500000Y-174820395D01*
X67653787Y-169666607D01*
X71615000Y-169666607D01*
X71615000Y-170333393D01*
X71745083Y-170987368D01*
X72000252Y-171603399D01*
X72370698Y-172157812D01*
X72842188Y-172629302D01*
X73396601Y-172999748D01*
X74012632Y-173254917D01*
X74666607Y-173385000D01*
X75333393Y-173385000D01*
X75987368Y-173254917D01*
X76603399Y-172999748D01*
X77157812Y-172629302D01*
X77629302Y-172157812D01*
X77999748Y-171603399D01*
X78254917Y-170987368D01*
X78385000Y-170333393D01*
X78385000Y-169666607D01*
X78371419Y-169598326D01*
X82277932Y-169598326D01*
X87500000Y-174820395D01*
X92722068Y-169598326D01*
X91906092Y-168719470D01*
X90596160Y-167980563D01*
X89167244Y-167511409D01*
X87674257Y-167330037D01*
X86174572Y-167443417D01*
X84725824Y-167847193D01*
X83383686Y-168525847D01*
X83093908Y-168719470D01*
X82277932Y-169598326D01*
X78371419Y-169598326D01*
X78254917Y-169012632D01*
X77999748Y-168396601D01*
X77629302Y-167842188D01*
X77157812Y-167370698D01*
X76603399Y-167000252D01*
X75987368Y-166745083D01*
X75333393Y-166615000D01*
X74666607Y-166615000D01*
X74012632Y-166745083D01*
X73396601Y-167000252D01*
X72842188Y-167370698D01*
X72370698Y-167842188D01*
X72000252Y-168396601D01*
X71745083Y-169012632D01*
X71615000Y-169666607D01*
X67653787Y-169666607D01*
X67722068Y-169598326D01*
X66906092Y-168719470D01*
X65596160Y-167980563D01*
X64167244Y-167511409D01*
X62674257Y-167330037D01*
X61174572Y-167443417D01*
X59725824Y-167847193D01*
X58383686Y-168525847D01*
X58093908Y-168719470D01*
X57277932Y-169598326D01*
X42722068Y-169598326D01*
X41906092Y-168719470D01*
X40596160Y-167980563D01*
X39167244Y-167511409D01*
X37674257Y-167330037D01*
X36174572Y-167443417D01*
X34725824Y-167847193D01*
X33383686Y-168525847D01*
X33093908Y-168719470D01*
X32277932Y-169598326D01*
X28371419Y-169598326D01*
X28254917Y-169012632D01*
X27999748Y-168396601D01*
X27629302Y-167842188D01*
X27157812Y-167370698D01*
X26603399Y-167000252D01*
X25987368Y-166745083D01*
X25333393Y-166615000D01*
X24666607Y-166615000D01*
X24012632Y-166745083D01*
X23396601Y-167000252D01*
X22842188Y-167370698D01*
X22370698Y-167842188D01*
X22000252Y-168396601D01*
X21745083Y-169012632D01*
X21615000Y-169666607D01*
X17653787Y-169666607D01*
X17722068Y-169598326D01*
X16906092Y-168719470D01*
X15596160Y-167980563D01*
X14167244Y-167511409D01*
X12674257Y-167330037D01*
X11174572Y-167443417D01*
X9725824Y-167847193D01*
X8383686Y-168525847D01*
X8093908Y-168719470D01*
X7277932Y-169598326D01*
X685000Y-169598326D01*
X685000Y-156822890D01*
X5856716Y-156822890D01*
X6912521Y-157906570D01*
X8562379Y-158844710D01*
X10363557Y-159442954D01*
X12246837Y-159678310D01*
X14139846Y-159541734D01*
X15969837Y-159038474D01*
X17666483Y-158187870D01*
X18087479Y-157906570D01*
X19143284Y-156822890D01*
X30856716Y-156822890D01*
X31912521Y-157906570D01*
X33562379Y-158844710D01*
X35363557Y-159442954D01*
X37246837Y-159678310D01*
X39139846Y-159541734D01*
X40969837Y-159038474D01*
X42666483Y-158187870D01*
X43087479Y-157906570D01*
X44143284Y-156822890D01*
X37500000Y-150179605D01*
X30856716Y-156822890D01*
X19143284Y-156822890D01*
X12500000Y-150179605D01*
X5856716Y-156822890D01*
X685000Y-156822890D01*
X685000Y-149746837D01*
X2821690Y-149746837D01*
X2958266Y-151639846D01*
X3461526Y-153469837D01*
X4312130Y-155166483D01*
X4593430Y-155587479D01*
X5677110Y-156643284D01*
X12320395Y-150000000D01*
X12679605Y-150000000D01*
X19322890Y-156643284D01*
X20406570Y-155587479D01*
X21344710Y-153937621D01*
X21942954Y-152136443D01*
X22178310Y-150253163D01*
X22141780Y-149746837D01*
X27821690Y-149746837D01*
X27958266Y-151639846D01*
X28461526Y-153469837D01*
X29312130Y-155166483D01*
X29593430Y-155587479D01*
X30677110Y-156643284D01*
X37320395Y-150000000D01*
X37679605Y-150000000D01*
X44322890Y-156643284D01*
X45406570Y-155587479D01*
X46344710Y-153937621D01*
X46942954Y-152136443D01*
X47178310Y-150253163D01*
X47041734Y-148360154D01*
X46538474Y-146530163D01*
X45687870Y-144833517D01*
X45406570Y-144412521D01*
X44322890Y-143356716D01*
X37679605Y-150000000D01*
X37320395Y-150000000D01*
X30677110Y-143356716D01*
X29593430Y-144412521D01*
X28655290Y-146062379D01*
X28057046Y-147863557D01*
X27821690Y-149746837D01*
X22141780Y-149746837D01*
X22041734Y-148360154D01*
X21538474Y-146530163D01*
X20687870Y-144833517D01*
X20406570Y-144412521D01*
X19322890Y-143356716D01*
X12679605Y-150000000D01*
X12320395Y-150000000D01*
X5677110Y-143356716D01*
X4593430Y-144412521D01*
X3655290Y-146062379D01*
X3057046Y-147863557D01*
X2821690Y-149746837D01*
X685000Y-149746837D01*
X685000Y-143177110D01*
X5856716Y-143177110D01*
X12500000Y-149820395D01*
X19143284Y-143177110D01*
X30856716Y-143177110D01*
X37500000Y-149820395D01*
X44143284Y-143177110D01*
X43087479Y-142093430D01*
X41437621Y-141155290D01*
X39636443Y-140557046D01*
X37753163Y-140321690D01*
X35860154Y-140458266D01*
X34030163Y-140961526D01*
X32333517Y-141812130D01*
X31912521Y-142093430D01*
X30856716Y-143177110D01*
X19143284Y-143177110D01*
X18087479Y-142093430D01*
X16437621Y-141155290D01*
X14636443Y-140557046D01*
X12753163Y-140321690D01*
X10860154Y-140458266D01*
X9030163Y-140961526D01*
X7333517Y-141812130D01*
X6912521Y-142093430D01*
X5856716Y-143177110D01*
X685000Y-143177110D01*
X685000Y-125401674D01*
X7277932Y-125401674D01*
X8093908Y-126280530D01*
X9403840Y-127019437D01*
X10832756Y-127488591D01*
X12325743Y-127669963D01*
X13825428Y-127556583D01*
X15274176Y-127152807D01*
X16616314Y-126474153D01*
X16906092Y-126280530D01*
X17722068Y-125401674D01*
X12500000Y-120179605D01*
X7277932Y-125401674D01*
X685000Y-125401674D01*
X685000Y-119825743D01*
X4830037Y-119825743D01*
X4943417Y-121325428D01*
X5347193Y-122774176D01*
X6025847Y-124116314D01*
X6219470Y-124406092D01*
X7098326Y-125222068D01*
X12320395Y-120000000D01*
X12679605Y-120000000D01*
X17901674Y-125222068D01*
X18780530Y-124406092D01*
X19221145Y-123624971D01*
X34054634Y-123624971D01*
X34570783Y-124247788D01*
X35455768Y-124737630D01*
X36419314Y-125045407D01*
X37424389Y-125159293D01*
X38432370Y-125074910D01*
X39404520Y-124795501D01*
X40303481Y-124331803D01*
X40429217Y-124247788D01*
X40945366Y-123624971D01*
X37500000Y-120179605D01*
X34054634Y-123624971D01*
X19221145Y-123624971D01*
X19519437Y-123096160D01*
X19988591Y-121667244D01*
X20169963Y-120174257D01*
X20151073Y-119924389D01*
X32340707Y-119924389D01*
X32425090Y-120932370D01*
X32704499Y-121904520D01*
X33168197Y-122803481D01*
X33252212Y-122929217D01*
X33875029Y-123445366D01*
X37320395Y-120000000D01*
X37679605Y-120000000D01*
X41124971Y-123445366D01*
X41747788Y-122929217D01*
X42237630Y-122044232D01*
X42545407Y-121080686D01*
X42659293Y-120075611D01*
X42574910Y-119067630D01*
X42295501Y-118095480D01*
X41831803Y-117196519D01*
X41747788Y-117070783D01*
X41124971Y-116554634D01*
X37679605Y-120000000D01*
X37320395Y-120000000D01*
X33875029Y-116554634D01*
X33252212Y-117070783D01*
X32762370Y-117955768D01*
X32454593Y-118919314D01*
X32340707Y-119924389D01*
X20151073Y-119924389D01*
X20056583Y-118674572D01*
X19652807Y-117225824D01*
X19222602Y-116375029D01*
X34054634Y-116375029D01*
X37500000Y-119820395D01*
X40945366Y-116375029D01*
X40429217Y-115752212D01*
X39544232Y-115262370D01*
X38580686Y-114954593D01*
X37575611Y-114840707D01*
X36567630Y-114925090D01*
X35595480Y-115204499D01*
X34696519Y-115668197D01*
X34570783Y-115752212D01*
X34054634Y-116375029D01*
X19222602Y-116375029D01*
X18974153Y-115883686D01*
X18780530Y-115593908D01*
X17901674Y-114777932D01*
X12679605Y-120000000D01*
X12320395Y-120000000D01*
X7098326Y-114777932D01*
X6219470Y-115593908D01*
X5480563Y-116903840D01*
X5011409Y-118332756D01*
X4830037Y-119825743D01*
X685000Y-119825743D01*
X685000Y-114598326D01*
X7277932Y-114598326D01*
X12500000Y-119820395D01*
X17722068Y-114598326D01*
X16906092Y-113719470D01*
X15596160Y-112980563D01*
X14167244Y-112511409D01*
X12674257Y-112330037D01*
X11174572Y-112443417D01*
X9725824Y-112847193D01*
X8383686Y-113525847D01*
X8093908Y-113719470D01*
X7277932Y-114598326D01*
X685000Y-114598326D01*
X685000Y-95401674D01*
X7277932Y-95401674D01*
X8093908Y-96280530D01*
X9403840Y-97019437D01*
X10832756Y-97488591D01*
X12325743Y-97669963D01*
X13825428Y-97556583D01*
X15274176Y-97152807D01*
X16616314Y-96474153D01*
X16906092Y-96280530D01*
X17722068Y-95401674D01*
X12500000Y-90179605D01*
X7277932Y-95401674D01*
X685000Y-95401674D01*
X685000Y-89825743D01*
X4830037Y-89825743D01*
X4943417Y-91325428D01*
X5347193Y-92774176D01*
X6025847Y-94116314D01*
X6219470Y-94406092D01*
X7098326Y-95222068D01*
X12320395Y-90000000D01*
X12679605Y-90000000D01*
X17901674Y-95222068D01*
X18780530Y-94406092D01*
X19221145Y-93624971D01*
X34054634Y-93624971D01*
X34570783Y-94247788D01*
X35455768Y-94737630D01*
X36419314Y-95045407D01*
X37424389Y-95159293D01*
X38432370Y-95074910D01*
X39404520Y-94795501D01*
X40303481Y-94331803D01*
X40429217Y-94247788D01*
X40945366Y-93624971D01*
X71554634Y-93624971D01*
X72070783Y-94247788D01*
X72955768Y-94737630D01*
X73919314Y-95045407D01*
X74924389Y-95159293D01*
X75932370Y-95074910D01*
X76904520Y-94795501D01*
X77803481Y-94331803D01*
X77929217Y-94247788D01*
X78445366Y-93624971D01*
X75000000Y-90179605D01*
X71554634Y-93624971D01*
X40945366Y-93624971D01*
X37500000Y-90179605D01*
X34054634Y-93624971D01*
X19221145Y-93624971D01*
X19519437Y-93096160D01*
X19988591Y-91667244D01*
X20169963Y-90174257D01*
X20151073Y-89924389D01*
X32340707Y-89924389D01*
X32425090Y-90932370D01*
X32704499Y-91904520D01*
X33168197Y-92803481D01*
X33252212Y-92929217D01*
X33875029Y-93445366D01*
X37320395Y-90000000D01*
X37679605Y-90000000D01*
X41124971Y-93445366D01*
X41747788Y-92929217D01*
X42237630Y-92044232D01*
X42545407Y-91080686D01*
X42659293Y-90075611D01*
X42646634Y-89924389D01*
X69840707Y-89924389D01*
X69925090Y-90932370D01*
X70204499Y-91904520D01*
X70668197Y-92803481D01*
X70752212Y-92929217D01*
X71375029Y-93445366D01*
X74820395Y-90000000D01*
X75179605Y-90000000D01*
X78624971Y-93445366D01*
X79247788Y-92929217D01*
X79737630Y-92044232D01*
X80045407Y-91080686D01*
X80159293Y-90075611D01*
X80074910Y-89067630D01*
X79795501Y-88095480D01*
X79331803Y-87196519D01*
X79247788Y-87070783D01*
X78624971Y-86554634D01*
X75179605Y-90000000D01*
X74820395Y-90000000D01*
X71375029Y-86554634D01*
X70752212Y-87070783D01*
X70262370Y-87955768D01*
X69954593Y-88919314D01*
X69840707Y-89924389D01*
X42646634Y-89924389D01*
X42574910Y-89067630D01*
X42295501Y-88095480D01*
X41831803Y-87196519D01*
X41747788Y-87070783D01*
X41124971Y-86554634D01*
X37679605Y-90000000D01*
X37320395Y-90000000D01*
X33875029Y-86554634D01*
X33252212Y-87070783D01*
X32762370Y-87955768D01*
X32454593Y-88919314D01*
X32340707Y-89924389D01*
X20151073Y-89924389D01*
X20056583Y-88674572D01*
X19652807Y-87225824D01*
X19222602Y-86375029D01*
X34054634Y-86375029D01*
X37500000Y-89820395D01*
X40945366Y-86375029D01*
X71554634Y-86375029D01*
X75000000Y-89820395D01*
X78445366Y-86375029D01*
X77929217Y-85752212D01*
X77044232Y-85262370D01*
X76080686Y-84954593D01*
X75075611Y-84840707D01*
X74067630Y-84925090D01*
X73095480Y-85204499D01*
X72196519Y-85668197D01*
X72070783Y-85752212D01*
X71554634Y-86375029D01*
X40945366Y-86375029D01*
X40429217Y-85752212D01*
X39544232Y-85262370D01*
X38580686Y-84954593D01*
X37575611Y-84840707D01*
X36567630Y-84925090D01*
X35595480Y-85204499D01*
X34696519Y-85668197D01*
X34570783Y-85752212D01*
X34054634Y-86375029D01*
X19222602Y-86375029D01*
X18974153Y-85883686D01*
X18780530Y-85593908D01*
X17901674Y-84777932D01*
X12679605Y-90000000D01*
X12320395Y-90000000D01*
X7098326Y-84777932D01*
X6219470Y-85593908D01*
X5480563Y-86903840D01*
X5011409Y-88332756D01*
X4830037Y-89825743D01*
X685000Y-89825743D01*
X685000Y-84598326D01*
X7277932Y-84598326D01*
X12500000Y-89820395D01*
X17722068Y-84598326D01*
X16906092Y-83719470D01*
X15596160Y-82980563D01*
X14167244Y-82511409D01*
X12674257Y-82330037D01*
X11174572Y-82443417D01*
X9725824Y-82847193D01*
X8383686Y-83525847D01*
X8093908Y-83719470D01*
X7277932Y-84598326D01*
X685000Y-84598326D01*
X685000Y-76079872D01*
X57596000Y-76079872D01*
X57596000Y-76520128D01*
X57681890Y-76951925D01*
X57850369Y-77358669D01*
X58094962Y-77724729D01*
X58406271Y-78036038D01*
X58772331Y-78280631D01*
X59179075Y-78449110D01*
X59610872Y-78535000D01*
X60051128Y-78535000D01*
X60482925Y-78449110D01*
X60889669Y-78280631D01*
X61255729Y-78036038D01*
X61567038Y-77724729D01*
X61811631Y-77358669D01*
X61980110Y-76951925D01*
X62066000Y-76520128D01*
X62066000Y-76079872D01*
X87934000Y-76079872D01*
X87934000Y-76520128D01*
X88019890Y-76951925D01*
X88188369Y-77358669D01*
X88432962Y-77724729D01*
X88744271Y-78036038D01*
X89110331Y-78280631D01*
X89517075Y-78449110D01*
X89948872Y-78535000D01*
X90389128Y-78535000D01*
X90820925Y-78449110D01*
X91227669Y-78280631D01*
X91593729Y-78036038D01*
X91905038Y-77724729D01*
X92149631Y-77358669D01*
X92318110Y-76951925D01*
X92404000Y-76520128D01*
X92404000Y-76079872D01*
X92318110Y-75648075D01*
X92149631Y-75241331D01*
X91905038Y-74875271D01*
X91593729Y-74563962D01*
X91227669Y-74319369D01*
X90820925Y-74150890D01*
X90389128Y-74065000D01*
X89948872Y-74065000D01*
X89517075Y-74150890D01*
X89110331Y-74319369D01*
X88744271Y-74563962D01*
X88432962Y-74875271D01*
X88188369Y-75241331D01*
X88019890Y-75648075D01*
X87934000Y-76079872D01*
X62066000Y-76079872D01*
X61980110Y-75648075D01*
X61811631Y-75241331D01*
X61567038Y-74875271D01*
X61255729Y-74563962D01*
X60889669Y-74319369D01*
X60482925Y-74150890D01*
X60051128Y-74065000D01*
X59610872Y-74065000D01*
X59179075Y-74150890D01*
X58772331Y-74319369D01*
X58406271Y-74563962D01*
X58094962Y-74875271D01*
X57850369Y-75241331D01*
X57681890Y-75648075D01*
X57596000Y-76079872D01*
X685000Y-76079872D01*
X685000Y-65401674D01*
X7277932Y-65401674D01*
X8093908Y-66280530D01*
X9403840Y-67019437D01*
X10832756Y-67488591D01*
X12325743Y-67669963D01*
X13825428Y-67556583D01*
X15274176Y-67152807D01*
X16616314Y-66474153D01*
X16906092Y-66280530D01*
X17722068Y-65401674D01*
X12500000Y-60179605D01*
X7277932Y-65401674D01*
X685000Y-65401674D01*
X685000Y-59825743D01*
X4830037Y-59825743D01*
X4943417Y-61325428D01*
X5347193Y-62774176D01*
X6025847Y-64116314D01*
X6219470Y-64406092D01*
X7098326Y-65222068D01*
X12320395Y-60000000D01*
X12679605Y-60000000D01*
X17901674Y-65222068D01*
X18780530Y-64406092D01*
X19221145Y-63624971D01*
X34054634Y-63624971D01*
X34570783Y-64247788D01*
X35455768Y-64737630D01*
X36419314Y-65045407D01*
X37424389Y-65159293D01*
X38432370Y-65074910D01*
X39404520Y-64795501D01*
X40303481Y-64331803D01*
X40429217Y-64247788D01*
X40945366Y-63624971D01*
X37500000Y-60179605D01*
X34054634Y-63624971D01*
X19221145Y-63624971D01*
X19519437Y-63096160D01*
X19988591Y-61667244D01*
X20169963Y-60174257D01*
X20151073Y-59924389D01*
X32340707Y-59924389D01*
X32425090Y-60932370D01*
X32704499Y-61904520D01*
X33168197Y-62803481D01*
X33252212Y-62929217D01*
X33875029Y-63445366D01*
X37320395Y-60000000D01*
X37679605Y-60000000D01*
X41124971Y-63445366D01*
X41747788Y-62929217D01*
X42237630Y-62044232D01*
X42545407Y-61080686D01*
X42659293Y-60075611D01*
X42574910Y-59067630D01*
X42295501Y-58095480D01*
X41831803Y-57196519D01*
X41747788Y-57070783D01*
X41124971Y-56554634D01*
X37679605Y-60000000D01*
X37320395Y-60000000D01*
X33875029Y-56554634D01*
X33252212Y-57070783D01*
X32762370Y-57955768D01*
X32454593Y-58919314D01*
X32340707Y-59924389D01*
X20151073Y-59924389D01*
X20056583Y-58674572D01*
X19652807Y-57225824D01*
X19222602Y-56375029D01*
X34054634Y-56375029D01*
X37500000Y-59820395D01*
X40945366Y-56375029D01*
X40429217Y-55752212D01*
X39544232Y-55262370D01*
X38580686Y-54954593D01*
X37575611Y-54840707D01*
X36567630Y-54925090D01*
X35595480Y-55204499D01*
X34696519Y-55668197D01*
X34570783Y-55752212D01*
X34054634Y-56375029D01*
X19222602Y-56375029D01*
X18974153Y-55883686D01*
X18780530Y-55593908D01*
X17901674Y-54777932D01*
X12679605Y-60000000D01*
X12320395Y-60000000D01*
X7098326Y-54777932D01*
X6219470Y-55593908D01*
X5480563Y-56903840D01*
X5011409Y-58332756D01*
X4830037Y-59825743D01*
X685000Y-59825743D01*
X685000Y-54598326D01*
X7277932Y-54598326D01*
X12500000Y-59820395D01*
X17722068Y-54598326D01*
X16906092Y-53719470D01*
X15596160Y-52980563D01*
X14589355Y-52650000D01*
X59601638Y-52650000D01*
X59605000Y-52684135D01*
X59605001Y-67315855D01*
X59601638Y-67350000D01*
X59615057Y-67486244D01*
X59654798Y-67617252D01*
X59719333Y-67737989D01*
X59806183Y-67843817D01*
X59912011Y-67930667D01*
X60032748Y-67995202D01*
X60163756Y-68034943D01*
X60265865Y-68045000D01*
X60265866Y-68045000D01*
X60300000Y-68048362D01*
X60334135Y-68045000D01*
X89665866Y-68045000D01*
X89700000Y-68048362D01*
X89836244Y-68034943D01*
X89967252Y-67995202D01*
X90087989Y-67930667D01*
X90193817Y-67843817D01*
X90280667Y-67737989D01*
X90345202Y-67617252D01*
X90384943Y-67486244D01*
X90395000Y-67384135D01*
X90398362Y-67350000D01*
X90395000Y-67315865D01*
X90395000Y-52684135D01*
X90398362Y-52650000D01*
X90384943Y-52513756D01*
X90345202Y-52382748D01*
X90280667Y-52262011D01*
X90193817Y-52156183D01*
X90087989Y-52069333D01*
X89967252Y-52004798D01*
X89836244Y-51965057D01*
X89734135Y-51955000D01*
X89734134Y-51955000D01*
X89700000Y-51951638D01*
X89665865Y-51955000D01*
X60334134Y-51955000D01*
X60300000Y-51951638D01*
X60265865Y-51955000D01*
X60163756Y-51965057D01*
X60032748Y-52004798D01*
X59912011Y-52069333D01*
X59806183Y-52156183D01*
X59719333Y-52262011D01*
X59654798Y-52382748D01*
X59615057Y-52513756D01*
X59601638Y-52650000D01*
X14589355Y-52650000D01*
X14167244Y-52511409D01*
X12674257Y-52330037D01*
X11174572Y-52443417D01*
X9725824Y-52847193D01*
X8383686Y-53525847D01*
X8093908Y-53719470D01*
X7277932Y-54598326D01*
X685000Y-54598326D01*
X685000Y-47579872D01*
X57596000Y-47579872D01*
X57596000Y-48020128D01*
X57681890Y-48451925D01*
X57850369Y-48858669D01*
X58094962Y-49224729D01*
X58406271Y-49536038D01*
X58772331Y-49780631D01*
X59179075Y-49949110D01*
X59610872Y-50035000D01*
X60051128Y-50035000D01*
X60482925Y-49949110D01*
X60889669Y-49780631D01*
X61255729Y-49536038D01*
X61567038Y-49224729D01*
X61811631Y-48858669D01*
X61980110Y-48451925D01*
X62066000Y-48020128D01*
X62066000Y-47579872D01*
X87934000Y-47579872D01*
X87934000Y-48020128D01*
X88019890Y-48451925D01*
X88188369Y-48858669D01*
X88432962Y-49224729D01*
X88744271Y-49536038D01*
X89110331Y-49780631D01*
X89517075Y-49949110D01*
X89948872Y-50035000D01*
X90389128Y-50035000D01*
X90820925Y-49949110D01*
X91227669Y-49780631D01*
X91593729Y-49536038D01*
X91905038Y-49224729D01*
X92149631Y-48858669D01*
X92318110Y-48451925D01*
X92404000Y-48020128D01*
X92404000Y-47579872D01*
X92318110Y-47148075D01*
X92149631Y-46741331D01*
X91905038Y-46375271D01*
X91593729Y-46063962D01*
X91227669Y-45819369D01*
X90820925Y-45650890D01*
X90389128Y-45565000D01*
X89948872Y-45565000D01*
X89517075Y-45650890D01*
X89110331Y-45819369D01*
X88744271Y-46063962D01*
X88432962Y-46375271D01*
X88188369Y-46741331D01*
X88019890Y-47148075D01*
X87934000Y-47579872D01*
X62066000Y-47579872D01*
X61980110Y-47148075D01*
X61811631Y-46741331D01*
X61567038Y-46375271D01*
X61255729Y-46063962D01*
X60889669Y-45819369D01*
X60482925Y-45650890D01*
X60051128Y-45565000D01*
X59610872Y-45565000D01*
X59179075Y-45650890D01*
X58772331Y-45819369D01*
X58406271Y-46063962D01*
X58094962Y-46375271D01*
X57850369Y-46741331D01*
X57681890Y-47148075D01*
X57596000Y-47579872D01*
X685000Y-47579872D01*
X685000Y-35401674D01*
X7277932Y-35401674D01*
X8093908Y-36280530D01*
X9403840Y-37019437D01*
X10832756Y-37488591D01*
X12325743Y-37669963D01*
X13825428Y-37556583D01*
X15274176Y-37152807D01*
X16616314Y-36474153D01*
X16906092Y-36280530D01*
X17722068Y-35401674D01*
X12500000Y-30179605D01*
X7277932Y-35401674D01*
X685000Y-35401674D01*
X685000Y-29825743D01*
X4830037Y-29825743D01*
X4943417Y-31325428D01*
X5347193Y-32774176D01*
X6025847Y-34116314D01*
X6219470Y-34406092D01*
X7098326Y-35222068D01*
X12320395Y-30000000D01*
X12679605Y-30000000D01*
X17901674Y-35222068D01*
X18780530Y-34406092D01*
X19221145Y-33624971D01*
X34054634Y-33624971D01*
X34570783Y-34247788D01*
X35455768Y-34737630D01*
X36419314Y-35045407D01*
X37424389Y-35159293D01*
X38432370Y-35074910D01*
X39404520Y-34795501D01*
X40303481Y-34331803D01*
X40429217Y-34247788D01*
X40945366Y-33624971D01*
X37500000Y-30179605D01*
X34054634Y-33624971D01*
X19221145Y-33624971D01*
X19519437Y-33096160D01*
X19988591Y-31667244D01*
X20169963Y-30174257D01*
X20151073Y-29924389D01*
X32340707Y-29924389D01*
X32425090Y-30932370D01*
X32704499Y-31904520D01*
X33168197Y-32803481D01*
X33252212Y-32929217D01*
X33875029Y-33445366D01*
X37320395Y-30000000D01*
X37679605Y-30000000D01*
X41124971Y-33445366D01*
X41747788Y-32929217D01*
X42237630Y-32044232D01*
X42545407Y-31080686D01*
X42659293Y-30075611D01*
X42574910Y-29067630D01*
X42295501Y-28095480D01*
X41831803Y-27196519D01*
X41747788Y-27070783D01*
X41124971Y-26554634D01*
X37679605Y-30000000D01*
X37320395Y-30000000D01*
X33875029Y-26554634D01*
X33252212Y-27070783D01*
X32762370Y-27955768D01*
X32454593Y-28919314D01*
X32340707Y-29924389D01*
X20151073Y-29924389D01*
X20056583Y-28674572D01*
X19652807Y-27225824D01*
X19222602Y-26375029D01*
X34054634Y-26375029D01*
X37500000Y-29820395D01*
X40945366Y-26375029D01*
X40429217Y-25752212D01*
X39544232Y-25262370D01*
X38580686Y-24954593D01*
X37575611Y-24840707D01*
X36567630Y-24925090D01*
X35595480Y-25204499D01*
X34696519Y-25668197D01*
X34570783Y-25752212D01*
X34054634Y-26375029D01*
X19222602Y-26375029D01*
X18974153Y-25883686D01*
X18780530Y-25593908D01*
X17901674Y-24777932D01*
X12679605Y-30000000D01*
X12320395Y-30000000D01*
X7098326Y-24777932D01*
X6219470Y-25593908D01*
X5480563Y-26903840D01*
X5011409Y-28332756D01*
X4830037Y-29825743D01*
X685000Y-29825743D01*
X685000Y-24598326D01*
X7277932Y-24598326D01*
X12500000Y-29820395D01*
X17722068Y-24598326D01*
X16906092Y-23719470D01*
X15596160Y-22980563D01*
X14167244Y-22511409D01*
X12674257Y-22330037D01*
X11174572Y-22443417D01*
X9725824Y-22847193D01*
X8383686Y-23525847D01*
X8093908Y-23719470D01*
X7277932Y-24598326D01*
X685000Y-24598326D01*
X685000Y-4245446D01*
X738519Y-4358331D01*
X1046970Y-4773424D01*
X1430475Y-5120365D01*
X1874296Y-5385822D01*
X2361377Y-5559593D01*
X2873000Y-5635000D01*
X4273000Y-5635000D01*
X4273000Y-3127000D01*
X4527000Y-3127000D01*
X4527000Y-5635000D01*
X5927000Y-5635000D01*
X6438623Y-5559593D01*
X6925704Y-5385822D01*
X7369525Y-5120365D01*
X7753030Y-4773424D01*
X8061481Y-4358331D01*
X8283025Y-3891038D01*
X8379667Y-3537162D01*
X91620333Y-3537162D01*
X91716975Y-3891038D01*
X91938519Y-4358331D01*
X92246970Y-4773424D01*
X92630475Y-5120365D01*
X93074296Y-5385822D01*
X93561377Y-5559593D01*
X94073000Y-5635000D01*
X95473000Y-5635000D01*
X95473000Y-3127000D01*
X91727009Y-3127000D01*
X91620333Y-3537162D01*
X8379667Y-3537162D01*
X8272991Y-3127000D01*
X4527000Y-3127000D01*
X4273000Y-3127000D01*
X4253000Y-3127000D01*
X4253000Y-2873000D01*
X4273000Y-2873000D01*
X4273000Y-2853000D01*
X4527000Y-2853000D01*
X4527000Y-2873000D01*
X8272991Y-2873000D01*
X8379667Y-2462838D01*
X8283025Y-2108962D01*
X8061481Y-1641669D01*
X7753030Y-1226576D01*
X7369525Y-879635D01*
X7044112Y-685000D01*
X92955888Y-685000D01*
X92630475Y-879635D01*
G37*
G04 #@! TD.AperFunction*
M02*
