G04 #@! TF.GenerationSoftware,KiCad,Pcbnew,5.1.10-88a1d61d58~90~ubuntu20.04.1*
G04 #@! TF.CreationDate,2021-10-03T08:03:09-04:00*
G04 #@! TF.ProjectId,gearseq_panel,67656172-7365-4715-9f70-616e656c2e6b,rev?*
G04 #@! TF.SameCoordinates,Original*
G04 #@! TF.FileFunction,Legend,Bot*
G04 #@! TF.FilePolarity,Positive*
%FSLAX46Y46*%
G04 Gerber Fmt 4.6, Leading zero omitted, Abs format (unit mm)*
G04 Created by KiCad (PCBNEW 5.1.10-88a1d61d58~90~ubuntu20.04.1) date 2021-10-03 08:03:09*
%MOMM*%
%LPD*%
G01*
G04 APERTURE LIST*
%ADD10C,0.150000*%
%ADD11C,0.010000*%
G04 APERTURE END LIST*
D10*
X79928571Y-97166666D02*
X79452380Y-97166666D01*
X80023809Y-97452380D02*
X79690476Y-96452380D01*
X79357142Y-97452380D01*
X78880952Y-97452380D02*
X78976190Y-97404761D01*
X79023809Y-97309523D01*
X79023809Y-96452380D01*
X78071428Y-96785714D02*
X78071428Y-97595238D01*
X78119047Y-97690476D01*
X78166666Y-97738095D01*
X78261904Y-97785714D01*
X78404761Y-97785714D01*
X78500000Y-97738095D01*
X78071428Y-97404761D02*
X78166666Y-97452380D01*
X78357142Y-97452380D01*
X78452380Y-97404761D01*
X78500000Y-97357142D01*
X78547619Y-97261904D01*
X78547619Y-96976190D01*
X78500000Y-96880952D01*
X78452380Y-96833333D01*
X78357142Y-96785714D01*
X78166666Y-96785714D01*
X78071428Y-96833333D01*
X77452380Y-97452380D02*
X77547619Y-97404761D01*
X77595238Y-97357142D01*
X77642857Y-97261904D01*
X77642857Y-96976190D01*
X77595238Y-96880952D01*
X77547619Y-96833333D01*
X77452380Y-96785714D01*
X77309523Y-96785714D01*
X77214285Y-96833333D01*
X77166666Y-96880952D01*
X77119047Y-96976190D01*
X77119047Y-97261904D01*
X77166666Y-97357142D01*
X77214285Y-97404761D01*
X77309523Y-97452380D01*
X77452380Y-97452380D01*
X76690476Y-97452380D02*
X76690476Y-96785714D01*
X76690476Y-96976190D02*
X76642857Y-96880952D01*
X76595238Y-96833333D01*
X76500000Y-96785714D01*
X76404761Y-96785714D01*
X76071428Y-97452380D02*
X76071428Y-96785714D01*
X76071428Y-96452380D02*
X76119047Y-96500000D01*
X76071428Y-96547619D01*
X76023809Y-96500000D01*
X76071428Y-96452380D01*
X76071428Y-96547619D01*
X75738095Y-96785714D02*
X75357142Y-96785714D01*
X75595238Y-96452380D02*
X75595238Y-97309523D01*
X75547619Y-97404761D01*
X75452380Y-97452380D01*
X75357142Y-97452380D01*
X75023809Y-97452380D02*
X75023809Y-96452380D01*
X74595238Y-97452380D02*
X74595238Y-96928571D01*
X74642857Y-96833333D01*
X74738095Y-96785714D01*
X74880952Y-96785714D01*
X74976190Y-96833333D01*
X75023809Y-96880952D01*
X74119047Y-97452380D02*
X74119047Y-96785714D01*
X74119047Y-96880952D02*
X74071428Y-96833333D01*
X73976190Y-96785714D01*
X73833333Y-96785714D01*
X73738095Y-96833333D01*
X73690476Y-96928571D01*
X73690476Y-97452380D01*
X73690476Y-96928571D02*
X73642857Y-96833333D01*
X73547619Y-96785714D01*
X73404761Y-96785714D01*
X73309523Y-96833333D01*
X73261904Y-96928571D01*
X73261904Y-97452380D01*
X72023809Y-96785714D02*
X72023809Y-97785714D01*
X72023809Y-96833333D02*
X71928571Y-96785714D01*
X71738095Y-96785714D01*
X71642857Y-96833333D01*
X71595238Y-96880952D01*
X71547619Y-96976190D01*
X71547619Y-97261904D01*
X71595238Y-97357142D01*
X71642857Y-97404761D01*
X71738095Y-97452380D01*
X71928571Y-97452380D01*
X72023809Y-97404761D01*
X70976190Y-97452380D02*
X71071428Y-97404761D01*
X71119047Y-97357142D01*
X71166666Y-97261904D01*
X71166666Y-96976190D01*
X71119047Y-96880952D01*
X71071428Y-96833333D01*
X70976190Y-96785714D01*
X70833333Y-96785714D01*
X70738095Y-96833333D01*
X70690476Y-96880952D01*
X70642857Y-96976190D01*
X70642857Y-97261904D01*
X70690476Y-97357142D01*
X70738095Y-97404761D01*
X70833333Y-97452380D01*
X70976190Y-97452380D01*
X70357142Y-96785714D02*
X69976190Y-96785714D01*
X70214285Y-96452380D02*
X70214285Y-97309523D01*
X70166666Y-97404761D01*
X70071428Y-97452380D01*
X69976190Y-97452380D01*
X28190476Y-174404761D02*
X28047619Y-174452380D01*
X27809523Y-174452380D01*
X27714285Y-174404761D01*
X27666666Y-174357142D01*
X27619047Y-174261904D01*
X27619047Y-174166666D01*
X27666666Y-174071428D01*
X27714285Y-174023809D01*
X27809523Y-173976190D01*
X28000000Y-173928571D01*
X28095238Y-173880952D01*
X28142857Y-173833333D01*
X28190476Y-173738095D01*
X28190476Y-173642857D01*
X28142857Y-173547619D01*
X28095238Y-173500000D01*
X28000000Y-173452380D01*
X27761904Y-173452380D01*
X27619047Y-173500000D01*
X27333333Y-173785714D02*
X26952380Y-173785714D01*
X27190476Y-173452380D02*
X27190476Y-174309523D01*
X27142857Y-174404761D01*
X27047619Y-174452380D01*
X26952380Y-174452380D01*
X26238095Y-174404761D02*
X26333333Y-174452380D01*
X26523809Y-174452380D01*
X26619047Y-174404761D01*
X26666666Y-174309523D01*
X26666666Y-173928571D01*
X26619047Y-173833333D01*
X26523809Y-173785714D01*
X26333333Y-173785714D01*
X26238095Y-173833333D01*
X26190476Y-173928571D01*
X26190476Y-174023809D01*
X26666666Y-174119047D01*
X25761904Y-173785714D02*
X25761904Y-174785714D01*
X25761904Y-173833333D02*
X25666666Y-173785714D01*
X25476190Y-173785714D01*
X25380952Y-173833333D01*
X25333333Y-173880952D01*
X25285714Y-173976190D01*
X25285714Y-174261904D01*
X25333333Y-174357142D01*
X25380952Y-174404761D01*
X25476190Y-174452380D01*
X25666666Y-174452380D01*
X25761904Y-174404761D01*
X23619047Y-174452380D02*
X24095238Y-174452380D01*
X24095238Y-173452380D01*
X23285714Y-173928571D02*
X22952380Y-173928571D01*
X22809523Y-174452380D02*
X23285714Y-174452380D01*
X23285714Y-173452380D01*
X22809523Y-173452380D01*
X22380952Y-174452380D02*
X22380952Y-173452380D01*
X22142857Y-173452380D01*
X22000000Y-173500000D01*
X21904761Y-173595238D01*
X21857142Y-173690476D01*
X21809523Y-173880952D01*
X21809523Y-174023809D01*
X21857142Y-174214285D01*
X21904761Y-174309523D01*
X22000000Y-174404761D01*
X22142857Y-174452380D01*
X22380952Y-174452380D01*
X27976190Y-184452380D02*
X28309523Y-183976190D01*
X28547619Y-184452380D02*
X28547619Y-183452380D01*
X28166666Y-183452380D01*
X28071428Y-183500000D01*
X28023809Y-183547619D01*
X27976190Y-183642857D01*
X27976190Y-183785714D01*
X28023809Y-183880952D01*
X28071428Y-183928571D01*
X28166666Y-183976190D01*
X28547619Y-183976190D01*
X27166666Y-184404761D02*
X27261904Y-184452380D01*
X27452380Y-184452380D01*
X27547619Y-184404761D01*
X27595238Y-184309523D01*
X27595238Y-183928571D01*
X27547619Y-183833333D01*
X27452380Y-183785714D01*
X27261904Y-183785714D01*
X27166666Y-183833333D01*
X27119047Y-183928571D01*
X27119047Y-184023809D01*
X27595238Y-184119047D01*
X26738095Y-184404761D02*
X26642857Y-184452380D01*
X26452380Y-184452380D01*
X26357142Y-184404761D01*
X26309523Y-184309523D01*
X26309523Y-184261904D01*
X26357142Y-184166666D01*
X26452380Y-184119047D01*
X26595238Y-184119047D01*
X26690476Y-184071428D01*
X26738095Y-183976190D01*
X26738095Y-183928571D01*
X26690476Y-183833333D01*
X26595238Y-183785714D01*
X26452380Y-183785714D01*
X26357142Y-183833333D01*
X25500000Y-184404761D02*
X25595238Y-184452380D01*
X25785714Y-184452380D01*
X25880952Y-184404761D01*
X25928571Y-184309523D01*
X25928571Y-183928571D01*
X25880952Y-183833333D01*
X25785714Y-183785714D01*
X25595238Y-183785714D01*
X25500000Y-183833333D01*
X25452380Y-183928571D01*
X25452380Y-184023809D01*
X25928571Y-184119047D01*
X25166666Y-183785714D02*
X24785714Y-183785714D01*
X25023809Y-183452380D02*
X25023809Y-184309523D01*
X24976190Y-184404761D01*
X24880952Y-184452380D01*
X24785714Y-184452380D01*
X23214285Y-184452380D02*
X23690476Y-184452380D01*
X23690476Y-183452380D01*
X22880952Y-183928571D02*
X22547619Y-183928571D01*
X22404761Y-184452380D02*
X22880952Y-184452380D01*
X22880952Y-183452380D01*
X22404761Y-183452380D01*
X21976190Y-184452380D02*
X21976190Y-183452380D01*
X21738095Y-183452380D01*
X21595238Y-183500000D01*
X21500000Y-183595238D01*
X21452380Y-183690476D01*
X21404761Y-183880952D01*
X21404761Y-184023809D01*
X21452380Y-184214285D01*
X21500000Y-184309523D01*
X21595238Y-184404761D01*
X21738095Y-184452380D01*
X21976190Y-184452380D01*
X78880952Y-174452380D02*
X78880952Y-173452380D01*
X78500000Y-173452380D01*
X78404761Y-173500000D01*
X78357142Y-173547619D01*
X78309523Y-173642857D01*
X78309523Y-173785714D01*
X78357142Y-173880952D01*
X78404761Y-173928571D01*
X78500000Y-173976190D01*
X78880952Y-173976190D01*
X77500000Y-174404761D02*
X77595238Y-174452380D01*
X77785714Y-174452380D01*
X77880952Y-174404761D01*
X77928571Y-174309523D01*
X77928571Y-173928571D01*
X77880952Y-173833333D01*
X77785714Y-173785714D01*
X77595238Y-173785714D01*
X77500000Y-173833333D01*
X77452380Y-173928571D01*
X77452380Y-174023809D01*
X77928571Y-174119047D01*
X77023809Y-174452380D02*
X77023809Y-173785714D01*
X77023809Y-173976190D02*
X76976190Y-173880952D01*
X76928571Y-173833333D01*
X76833333Y-173785714D01*
X76738095Y-173785714D01*
X76404761Y-174452380D02*
X76404761Y-173785714D01*
X76404761Y-173452380D02*
X76452380Y-173500000D01*
X76404761Y-173547619D01*
X76357142Y-173500000D01*
X76404761Y-173452380D01*
X76404761Y-173547619D01*
X75785714Y-174452380D02*
X75880952Y-174404761D01*
X75928571Y-174357142D01*
X75976190Y-174261904D01*
X75976190Y-173976190D01*
X75928571Y-173880952D01*
X75880952Y-173833333D01*
X75785714Y-173785714D01*
X75642857Y-173785714D01*
X75547619Y-173833333D01*
X75500000Y-173880952D01*
X75452380Y-173976190D01*
X75452380Y-174261904D01*
X75500000Y-174357142D01*
X75547619Y-174404761D01*
X75642857Y-174452380D01*
X75785714Y-174452380D01*
X74595238Y-174452380D02*
X74595238Y-173452380D01*
X74595238Y-174404761D02*
X74690476Y-174452380D01*
X74880952Y-174452380D01*
X74976190Y-174404761D01*
X75023809Y-174357142D01*
X75071428Y-174261904D01*
X75071428Y-173976190D01*
X75023809Y-173880952D01*
X74976190Y-173833333D01*
X74880952Y-173785714D01*
X74690476Y-173785714D01*
X74595238Y-173833333D01*
X72880952Y-174452380D02*
X73357142Y-174452380D01*
X73357142Y-173452380D01*
X72547619Y-173928571D02*
X72214285Y-173928571D01*
X72071428Y-174452380D02*
X72547619Y-174452380D01*
X72547619Y-173452380D01*
X72071428Y-173452380D01*
X71642857Y-174452380D02*
X71642857Y-173452380D01*
X71404761Y-173452380D01*
X71261904Y-173500000D01*
X71166666Y-173595238D01*
X71119047Y-173690476D01*
X71071428Y-173880952D01*
X71071428Y-174023809D01*
X71119047Y-174214285D01*
X71166666Y-174309523D01*
X71261904Y-174404761D01*
X71404761Y-174452380D01*
X71642857Y-174452380D01*
X80095238Y-184404761D02*
X79952380Y-184452380D01*
X79714285Y-184452380D01*
X79619047Y-184404761D01*
X79571428Y-184357142D01*
X79523809Y-184261904D01*
X79523809Y-184166666D01*
X79571428Y-184071428D01*
X79619047Y-184023809D01*
X79714285Y-183976190D01*
X79904761Y-183928571D01*
X80000000Y-183880952D01*
X80047619Y-183833333D01*
X80095238Y-183738095D01*
X80095238Y-183642857D01*
X80047619Y-183547619D01*
X80000000Y-183500000D01*
X79904761Y-183452380D01*
X79666666Y-183452380D01*
X79523809Y-183500000D01*
X78714285Y-184404761D02*
X78809523Y-184452380D01*
X79000000Y-184452380D01*
X79095238Y-184404761D01*
X79142857Y-184309523D01*
X79142857Y-183928571D01*
X79095238Y-183833333D01*
X79000000Y-183785714D01*
X78809523Y-183785714D01*
X78714285Y-183833333D01*
X78666666Y-183928571D01*
X78666666Y-184023809D01*
X79142857Y-184119047D01*
X77809523Y-183785714D02*
X77809523Y-184785714D01*
X77809523Y-184404761D02*
X77904761Y-184452380D01*
X78095238Y-184452380D01*
X78190476Y-184404761D01*
X78238095Y-184357142D01*
X78285714Y-184261904D01*
X78285714Y-183976190D01*
X78238095Y-183880952D01*
X78190476Y-183833333D01*
X78095238Y-183785714D01*
X77904761Y-183785714D01*
X77809523Y-183833333D01*
X76904761Y-183785714D02*
X76904761Y-184452380D01*
X77333333Y-183785714D02*
X77333333Y-184309523D01*
X77285714Y-184404761D01*
X77190476Y-184452380D01*
X77047619Y-184452380D01*
X76952380Y-184404761D01*
X76904761Y-184357142D01*
X76047619Y-184404761D02*
X76142857Y-184452380D01*
X76333333Y-184452380D01*
X76428571Y-184404761D01*
X76476190Y-184309523D01*
X76476190Y-183928571D01*
X76428571Y-183833333D01*
X76333333Y-183785714D01*
X76142857Y-183785714D01*
X76047619Y-183833333D01*
X76000000Y-183928571D01*
X76000000Y-184023809D01*
X76476190Y-184119047D01*
X75571428Y-183785714D02*
X75571428Y-184452380D01*
X75571428Y-183880952D02*
X75523809Y-183833333D01*
X75428571Y-183785714D01*
X75285714Y-183785714D01*
X75190476Y-183833333D01*
X75142857Y-183928571D01*
X75142857Y-184452380D01*
X74238095Y-184404761D02*
X74333333Y-184452380D01*
X74523809Y-184452380D01*
X74619047Y-184404761D01*
X74666666Y-184357142D01*
X74714285Y-184261904D01*
X74714285Y-183976190D01*
X74666666Y-183880952D01*
X74619047Y-183833333D01*
X74523809Y-183785714D01*
X74333333Y-183785714D01*
X74238095Y-183833333D01*
X73428571Y-184404761D02*
X73523809Y-184452380D01*
X73714285Y-184452380D01*
X73809523Y-184404761D01*
X73857142Y-184309523D01*
X73857142Y-183928571D01*
X73809523Y-183833333D01*
X73714285Y-183785714D01*
X73523809Y-183785714D01*
X73428571Y-183833333D01*
X73380952Y-183928571D01*
X73380952Y-184023809D01*
X73857142Y-184119047D01*
X71714285Y-184452380D02*
X72190476Y-184452380D01*
X72190476Y-183452380D01*
X71380952Y-183928571D02*
X71047619Y-183928571D01*
X70904761Y-184452380D02*
X71380952Y-184452380D01*
X71380952Y-183452380D01*
X70904761Y-183452380D01*
X70476190Y-184452380D02*
X70476190Y-183452380D01*
X70238095Y-183452380D01*
X70095238Y-183500000D01*
X70000000Y-183595238D01*
X69952380Y-183690476D01*
X69904761Y-183880952D01*
X69904761Y-184023809D01*
X69952380Y-184214285D01*
X70000000Y-184309523D01*
X70095238Y-184404761D01*
X70238095Y-184452380D01*
X70476190Y-184452380D01*
X92761904Y-184404761D02*
X92619047Y-184452380D01*
X92380952Y-184452380D01*
X92285714Y-184404761D01*
X92238095Y-184357142D01*
X92190476Y-184261904D01*
X92190476Y-184166666D01*
X92238095Y-184071428D01*
X92285714Y-184023809D01*
X92380952Y-183976190D01*
X92571428Y-183928571D01*
X92666666Y-183880952D01*
X92714285Y-183833333D01*
X92761904Y-183738095D01*
X92761904Y-183642857D01*
X92714285Y-183547619D01*
X92666666Y-183500000D01*
X92571428Y-183452380D01*
X92333333Y-183452380D01*
X92190476Y-183500000D01*
X91380952Y-184404761D02*
X91476190Y-184452380D01*
X91666666Y-184452380D01*
X91761904Y-184404761D01*
X91809523Y-184309523D01*
X91809523Y-183928571D01*
X91761904Y-183833333D01*
X91666666Y-183785714D01*
X91476190Y-183785714D01*
X91380952Y-183833333D01*
X91333333Y-183928571D01*
X91333333Y-184023809D01*
X91809523Y-184119047D01*
X90476190Y-183785714D02*
X90476190Y-184785714D01*
X90476190Y-184404761D02*
X90571428Y-184452380D01*
X90761904Y-184452380D01*
X90857142Y-184404761D01*
X90904761Y-184357142D01*
X90952380Y-184261904D01*
X90952380Y-183976190D01*
X90904761Y-183880952D01*
X90857142Y-183833333D01*
X90761904Y-183785714D01*
X90571428Y-183785714D01*
X90476190Y-183833333D01*
X89571428Y-183785714D02*
X89571428Y-184452380D01*
X90000000Y-183785714D02*
X90000000Y-184309523D01*
X89952380Y-184404761D01*
X89857142Y-184452380D01*
X89714285Y-184452380D01*
X89619047Y-184404761D01*
X89571428Y-184357142D01*
X88714285Y-184404761D02*
X88809523Y-184452380D01*
X89000000Y-184452380D01*
X89095238Y-184404761D01*
X89142857Y-184309523D01*
X89142857Y-183928571D01*
X89095238Y-183833333D01*
X89000000Y-183785714D01*
X88809523Y-183785714D01*
X88714285Y-183833333D01*
X88666666Y-183928571D01*
X88666666Y-184023809D01*
X89142857Y-184119047D01*
X88238095Y-183785714D02*
X88238095Y-184452380D01*
X88238095Y-183880952D02*
X88190476Y-183833333D01*
X88095238Y-183785714D01*
X87952380Y-183785714D01*
X87857142Y-183833333D01*
X87809523Y-183928571D01*
X87809523Y-184452380D01*
X86904761Y-184404761D02*
X87000000Y-184452380D01*
X87190476Y-184452380D01*
X87285714Y-184404761D01*
X87333333Y-184357142D01*
X87380952Y-184261904D01*
X87380952Y-183976190D01*
X87333333Y-183880952D01*
X87285714Y-183833333D01*
X87190476Y-183785714D01*
X87000000Y-183785714D01*
X86904761Y-183833333D01*
X86095238Y-184404761D02*
X86190476Y-184452380D01*
X86380952Y-184452380D01*
X86476190Y-184404761D01*
X86523809Y-184309523D01*
X86523809Y-183928571D01*
X86476190Y-183833333D01*
X86380952Y-183785714D01*
X86190476Y-183785714D01*
X86095238Y-183833333D01*
X86047619Y-183928571D01*
X86047619Y-184023809D01*
X86523809Y-184119047D01*
X84857142Y-183785714D02*
X84857142Y-184642857D01*
X84904761Y-184738095D01*
X85000000Y-184785714D01*
X85047619Y-184785714D01*
X84857142Y-183452380D02*
X84904761Y-183500000D01*
X84857142Y-183547619D01*
X84809523Y-183500000D01*
X84857142Y-183452380D01*
X84857142Y-183547619D01*
X83952380Y-184452380D02*
X83952380Y-183928571D01*
X84000000Y-183833333D01*
X84095238Y-183785714D01*
X84285714Y-183785714D01*
X84380952Y-183833333D01*
X83952380Y-184404761D02*
X84047619Y-184452380D01*
X84285714Y-184452380D01*
X84380952Y-184404761D01*
X84428571Y-184309523D01*
X84428571Y-184214285D01*
X84380952Y-184119047D01*
X84285714Y-184071428D01*
X84047619Y-184071428D01*
X83952380Y-184023809D01*
X83047619Y-184404761D02*
X83142857Y-184452380D01*
X83333333Y-184452380D01*
X83428571Y-184404761D01*
X83476190Y-184357142D01*
X83523809Y-184261904D01*
X83523809Y-183976190D01*
X83476190Y-183880952D01*
X83428571Y-183833333D01*
X83333333Y-183785714D01*
X83142857Y-183785714D01*
X83047619Y-183833333D01*
X82619047Y-184452380D02*
X82619047Y-183452380D01*
X82523809Y-184071428D02*
X82238095Y-184452380D01*
X82238095Y-183785714D02*
X82619047Y-184166666D01*
X66547619Y-184452380D02*
X66547619Y-183452380D01*
X66166666Y-183452380D01*
X66071428Y-183500000D01*
X66023809Y-183547619D01*
X65976190Y-183642857D01*
X65976190Y-183785714D01*
X66023809Y-183880952D01*
X66071428Y-183928571D01*
X66166666Y-183976190D01*
X66547619Y-183976190D01*
X65166666Y-184404761D02*
X65261904Y-184452380D01*
X65452380Y-184452380D01*
X65547619Y-184404761D01*
X65595238Y-184309523D01*
X65595238Y-183928571D01*
X65547619Y-183833333D01*
X65452380Y-183785714D01*
X65261904Y-183785714D01*
X65166666Y-183833333D01*
X65119047Y-183928571D01*
X65119047Y-184023809D01*
X65595238Y-184119047D01*
X64690476Y-184452380D02*
X64690476Y-183785714D01*
X64690476Y-183976190D02*
X64642857Y-183880952D01*
X64595238Y-183833333D01*
X64500000Y-183785714D01*
X64404761Y-183785714D01*
X64071428Y-184452380D02*
X64071428Y-183785714D01*
X64071428Y-183452380D02*
X64119047Y-183500000D01*
X64071428Y-183547619D01*
X64023809Y-183500000D01*
X64071428Y-183452380D01*
X64071428Y-183547619D01*
X63452380Y-184452380D02*
X63547619Y-184404761D01*
X63595238Y-184357142D01*
X63642857Y-184261904D01*
X63642857Y-183976190D01*
X63595238Y-183880952D01*
X63547619Y-183833333D01*
X63452380Y-183785714D01*
X63309523Y-183785714D01*
X63214285Y-183833333D01*
X63166666Y-183880952D01*
X63119047Y-183976190D01*
X63119047Y-184261904D01*
X63166666Y-184357142D01*
X63214285Y-184404761D01*
X63309523Y-184452380D01*
X63452380Y-184452380D01*
X62261904Y-184452380D02*
X62261904Y-183452380D01*
X62261904Y-184404761D02*
X62357142Y-184452380D01*
X62547619Y-184452380D01*
X62642857Y-184404761D01*
X62690476Y-184357142D01*
X62738095Y-184261904D01*
X62738095Y-183976190D01*
X62690476Y-183880952D01*
X62642857Y-183833333D01*
X62547619Y-183785714D01*
X62357142Y-183785714D01*
X62261904Y-183833333D01*
X61023809Y-183785714D02*
X61023809Y-184642857D01*
X61071428Y-184738095D01*
X61166666Y-184785714D01*
X61214285Y-184785714D01*
X61023809Y-183452380D02*
X61071428Y-183500000D01*
X61023809Y-183547619D01*
X60976190Y-183500000D01*
X61023809Y-183452380D01*
X61023809Y-183547619D01*
X60119047Y-184452380D02*
X60119047Y-183928571D01*
X60166666Y-183833333D01*
X60261904Y-183785714D01*
X60452380Y-183785714D01*
X60547619Y-183833333D01*
X60119047Y-184404761D02*
X60214285Y-184452380D01*
X60452380Y-184452380D01*
X60547619Y-184404761D01*
X60595238Y-184309523D01*
X60595238Y-184214285D01*
X60547619Y-184119047D01*
X60452380Y-184071428D01*
X60214285Y-184071428D01*
X60119047Y-184023809D01*
X59214285Y-184404761D02*
X59309523Y-184452380D01*
X59500000Y-184452380D01*
X59595238Y-184404761D01*
X59642857Y-184357142D01*
X59690476Y-184261904D01*
X59690476Y-183976190D01*
X59642857Y-183880952D01*
X59595238Y-183833333D01*
X59500000Y-183785714D01*
X59309523Y-183785714D01*
X59214285Y-183833333D01*
X58785714Y-184452380D02*
X58785714Y-183452380D01*
X58690476Y-184071428D02*
X58404761Y-184452380D01*
X58404761Y-183785714D02*
X58785714Y-184166666D01*
X40642857Y-184452380D02*
X40976190Y-183976190D01*
X41214285Y-184452380D02*
X41214285Y-183452380D01*
X40833333Y-183452380D01*
X40738095Y-183500000D01*
X40690476Y-183547619D01*
X40642857Y-183642857D01*
X40642857Y-183785714D01*
X40690476Y-183880952D01*
X40738095Y-183928571D01*
X40833333Y-183976190D01*
X41214285Y-183976190D01*
X39833333Y-184404761D02*
X39928571Y-184452380D01*
X40119047Y-184452380D01*
X40214285Y-184404761D01*
X40261904Y-184309523D01*
X40261904Y-183928571D01*
X40214285Y-183833333D01*
X40119047Y-183785714D01*
X39928571Y-183785714D01*
X39833333Y-183833333D01*
X39785714Y-183928571D01*
X39785714Y-184023809D01*
X40261904Y-184119047D01*
X39404761Y-184404761D02*
X39309523Y-184452380D01*
X39119047Y-184452380D01*
X39023809Y-184404761D01*
X38976190Y-184309523D01*
X38976190Y-184261904D01*
X39023809Y-184166666D01*
X39119047Y-184119047D01*
X39261904Y-184119047D01*
X39357142Y-184071428D01*
X39404761Y-183976190D01*
X39404761Y-183928571D01*
X39357142Y-183833333D01*
X39261904Y-183785714D01*
X39119047Y-183785714D01*
X39023809Y-183833333D01*
X38166666Y-184404761D02*
X38261904Y-184452380D01*
X38452380Y-184452380D01*
X38547619Y-184404761D01*
X38595238Y-184309523D01*
X38595238Y-183928571D01*
X38547619Y-183833333D01*
X38452380Y-183785714D01*
X38261904Y-183785714D01*
X38166666Y-183833333D01*
X38119047Y-183928571D01*
X38119047Y-184023809D01*
X38595238Y-184119047D01*
X37833333Y-183785714D02*
X37452380Y-183785714D01*
X37690476Y-183452380D02*
X37690476Y-184309523D01*
X37642857Y-184404761D01*
X37547619Y-184452380D01*
X37452380Y-184452380D01*
X36357142Y-183785714D02*
X36357142Y-184642857D01*
X36404761Y-184738095D01*
X36500000Y-184785714D01*
X36547619Y-184785714D01*
X36357142Y-183452380D02*
X36404761Y-183500000D01*
X36357142Y-183547619D01*
X36309523Y-183500000D01*
X36357142Y-183452380D01*
X36357142Y-183547619D01*
X35452380Y-184452380D02*
X35452380Y-183928571D01*
X35500000Y-183833333D01*
X35595238Y-183785714D01*
X35785714Y-183785714D01*
X35880952Y-183833333D01*
X35452380Y-184404761D02*
X35547619Y-184452380D01*
X35785714Y-184452380D01*
X35880952Y-184404761D01*
X35928571Y-184309523D01*
X35928571Y-184214285D01*
X35880952Y-184119047D01*
X35785714Y-184071428D01*
X35547619Y-184071428D01*
X35452380Y-184023809D01*
X34547619Y-184404761D02*
X34642857Y-184452380D01*
X34833333Y-184452380D01*
X34928571Y-184404761D01*
X34976190Y-184357142D01*
X35023809Y-184261904D01*
X35023809Y-183976190D01*
X34976190Y-183880952D01*
X34928571Y-183833333D01*
X34833333Y-183785714D01*
X34642857Y-183785714D01*
X34547619Y-183833333D01*
X34119047Y-184452380D02*
X34119047Y-183452380D01*
X34023809Y-184071428D02*
X33738095Y-184452380D01*
X33738095Y-183785714D02*
X34119047Y-184166666D01*
X15857142Y-184404761D02*
X15714285Y-184452380D01*
X15476190Y-184452380D01*
X15380952Y-184404761D01*
X15333333Y-184357142D01*
X15285714Y-184261904D01*
X15285714Y-184166666D01*
X15333333Y-184071428D01*
X15380952Y-184023809D01*
X15476190Y-183976190D01*
X15666666Y-183928571D01*
X15761904Y-183880952D01*
X15809523Y-183833333D01*
X15857142Y-183738095D01*
X15857142Y-183642857D01*
X15809523Y-183547619D01*
X15761904Y-183500000D01*
X15666666Y-183452380D01*
X15428571Y-183452380D01*
X15285714Y-183500000D01*
X15000000Y-183785714D02*
X14619047Y-183785714D01*
X14857142Y-183452380D02*
X14857142Y-184309523D01*
X14809523Y-184404761D01*
X14714285Y-184452380D01*
X14619047Y-184452380D01*
X13904761Y-184404761D02*
X14000000Y-184452380D01*
X14190476Y-184452380D01*
X14285714Y-184404761D01*
X14333333Y-184309523D01*
X14333333Y-183928571D01*
X14285714Y-183833333D01*
X14190476Y-183785714D01*
X14000000Y-183785714D01*
X13904761Y-183833333D01*
X13857142Y-183928571D01*
X13857142Y-184023809D01*
X14333333Y-184119047D01*
X13428571Y-183785714D02*
X13428571Y-184785714D01*
X13428571Y-183833333D02*
X13333333Y-183785714D01*
X13142857Y-183785714D01*
X13047619Y-183833333D01*
X12999999Y-183880952D01*
X12952380Y-183976190D01*
X12952380Y-184261904D01*
X12999999Y-184357142D01*
X13047619Y-184404761D01*
X13142857Y-184452380D01*
X13333333Y-184452380D01*
X13428571Y-184404761D01*
X11761904Y-183785714D02*
X11761904Y-184642857D01*
X11809523Y-184738095D01*
X11904761Y-184785714D01*
X11952380Y-184785714D01*
X11761904Y-183452380D02*
X11809523Y-183500000D01*
X11761904Y-183547619D01*
X11714285Y-183500000D01*
X11761904Y-183452380D01*
X11761904Y-183547619D01*
X10857142Y-184452380D02*
X10857142Y-183928571D01*
X10904761Y-183833333D01*
X10999999Y-183785714D01*
X11190476Y-183785714D01*
X11285714Y-183833333D01*
X10857142Y-184404761D02*
X10952380Y-184452380D01*
X11190476Y-184452380D01*
X11285714Y-184404761D01*
X11333333Y-184309523D01*
X11333333Y-184214285D01*
X11285714Y-184119047D01*
X11190476Y-184071428D01*
X10952380Y-184071428D01*
X10857142Y-184023809D01*
X9952380Y-184404761D02*
X10047619Y-184452380D01*
X10238095Y-184452380D01*
X10333333Y-184404761D01*
X10380952Y-184357142D01*
X10428571Y-184261904D01*
X10428571Y-183976190D01*
X10380952Y-183880952D01*
X10333333Y-183833333D01*
X10238095Y-183785714D01*
X10047619Y-183785714D01*
X9952380Y-183833333D01*
X9523809Y-184452380D02*
X9523809Y-183452380D01*
X9428571Y-184071428D02*
X9142857Y-184452380D01*
X9142857Y-183785714D02*
X9523809Y-184166666D01*
X43642857Y-162952380D02*
X43976190Y-162476190D01*
X44214285Y-162952380D02*
X44214285Y-161952380D01*
X43833333Y-161952380D01*
X43738095Y-162000000D01*
X43690476Y-162047619D01*
X43642857Y-162142857D01*
X43642857Y-162285714D01*
X43690476Y-162380952D01*
X43738095Y-162428571D01*
X43833333Y-162476190D01*
X44214285Y-162476190D01*
X42833333Y-162904761D02*
X42928571Y-162952380D01*
X43119047Y-162952380D01*
X43214285Y-162904761D01*
X43261904Y-162809523D01*
X43261904Y-162428571D01*
X43214285Y-162333333D01*
X43119047Y-162285714D01*
X42928571Y-162285714D01*
X42833333Y-162333333D01*
X42785714Y-162428571D01*
X42785714Y-162523809D01*
X43261904Y-162619047D01*
X42404761Y-162904761D02*
X42309523Y-162952380D01*
X42119047Y-162952380D01*
X42023809Y-162904761D01*
X41976190Y-162809523D01*
X41976190Y-162761904D01*
X42023809Y-162666666D01*
X42119047Y-162619047D01*
X42261904Y-162619047D01*
X42357142Y-162571428D01*
X42404761Y-162476190D01*
X42404761Y-162428571D01*
X42357142Y-162333333D01*
X42261904Y-162285714D01*
X42119047Y-162285714D01*
X42023809Y-162333333D01*
X41166666Y-162904761D02*
X41261904Y-162952380D01*
X41452380Y-162952380D01*
X41547619Y-162904761D01*
X41595238Y-162809523D01*
X41595238Y-162428571D01*
X41547619Y-162333333D01*
X41452380Y-162285714D01*
X41261904Y-162285714D01*
X41166666Y-162333333D01*
X41119047Y-162428571D01*
X41119047Y-162523809D01*
X41595238Y-162619047D01*
X40833333Y-162285714D02*
X40452380Y-162285714D01*
X40690476Y-161952380D02*
X40690476Y-162809523D01*
X40642857Y-162904761D01*
X40547619Y-162952380D01*
X40452380Y-162952380D01*
X39357142Y-162285714D02*
X39357142Y-163285714D01*
X39357142Y-162333333D02*
X39261904Y-162285714D01*
X39071428Y-162285714D01*
X38976190Y-162333333D01*
X38928571Y-162380952D01*
X38880952Y-162476190D01*
X38880952Y-162761904D01*
X38928571Y-162857142D01*
X38976190Y-162904761D01*
X39071428Y-162952380D01*
X39261904Y-162952380D01*
X39357142Y-162904761D01*
X38023809Y-162285714D02*
X38023809Y-162952380D01*
X38452380Y-162285714D02*
X38452380Y-162809523D01*
X38404761Y-162904761D01*
X38309523Y-162952380D01*
X38166666Y-162952380D01*
X38071428Y-162904761D01*
X38023809Y-162857142D01*
X37595238Y-162904761D02*
X37500000Y-162952380D01*
X37309523Y-162952380D01*
X37214285Y-162904761D01*
X37166666Y-162809523D01*
X37166666Y-162761904D01*
X37214285Y-162666666D01*
X37309523Y-162619047D01*
X37452380Y-162619047D01*
X37547619Y-162571428D01*
X37595238Y-162476190D01*
X37595238Y-162428571D01*
X37547619Y-162333333D01*
X37452380Y-162285714D01*
X37309523Y-162285714D01*
X37214285Y-162333333D01*
X36738095Y-162952380D02*
X36738095Y-161952380D01*
X36309523Y-162952380D02*
X36309523Y-162428571D01*
X36357142Y-162333333D01*
X36452380Y-162285714D01*
X36595238Y-162285714D01*
X36690476Y-162333333D01*
X36738095Y-162380952D01*
X35071428Y-162952380D02*
X35071428Y-161952380D01*
X35071428Y-162333333D02*
X34976190Y-162285714D01*
X34785714Y-162285714D01*
X34690476Y-162333333D01*
X34642857Y-162380952D01*
X34595238Y-162476190D01*
X34595238Y-162761904D01*
X34642857Y-162857142D01*
X34690476Y-162904761D01*
X34785714Y-162952380D01*
X34976190Y-162952380D01*
X35071428Y-162904761D01*
X33738095Y-162285714D02*
X33738095Y-162952380D01*
X34166666Y-162285714D02*
X34166666Y-162809523D01*
X34119047Y-162904761D01*
X34023809Y-162952380D01*
X33880952Y-162952380D01*
X33785714Y-162904761D01*
X33738095Y-162857142D01*
X33404761Y-162285714D02*
X33023809Y-162285714D01*
X33261904Y-161952380D02*
X33261904Y-162809523D01*
X33214285Y-162904761D01*
X33119047Y-162952380D01*
X33023809Y-162952380D01*
X32833333Y-162285714D02*
X32452380Y-162285714D01*
X32690476Y-161952380D02*
X32690476Y-162809523D01*
X32642857Y-162904761D01*
X32547619Y-162952380D01*
X32452380Y-162952380D01*
X31976190Y-162952380D02*
X32071428Y-162904761D01*
X32119047Y-162857142D01*
X32166666Y-162761904D01*
X32166666Y-162476190D01*
X32119047Y-162380952D01*
X32071428Y-162333333D01*
X31976190Y-162285714D01*
X31833333Y-162285714D01*
X31738095Y-162333333D01*
X31690476Y-162380952D01*
X31642857Y-162476190D01*
X31642857Y-162761904D01*
X31690476Y-162857142D01*
X31738095Y-162904761D01*
X31833333Y-162952380D01*
X31976190Y-162952380D01*
X31214285Y-162285714D02*
X31214285Y-162952380D01*
X31214285Y-162380952D02*
X31166666Y-162333333D01*
X31071428Y-162285714D01*
X30928571Y-162285714D01*
X30833333Y-162333333D01*
X30785714Y-162428571D01*
X30785714Y-162952380D01*
X18857142Y-162904761D02*
X18714285Y-162952380D01*
X18476190Y-162952380D01*
X18380952Y-162904761D01*
X18333333Y-162857142D01*
X18285714Y-162761904D01*
X18285714Y-162666666D01*
X18333333Y-162571428D01*
X18380952Y-162523809D01*
X18476190Y-162476190D01*
X18666666Y-162428571D01*
X18761904Y-162380952D01*
X18809523Y-162333333D01*
X18857142Y-162238095D01*
X18857142Y-162142857D01*
X18809523Y-162047619D01*
X18761904Y-162000000D01*
X18666666Y-161952380D01*
X18428571Y-161952380D01*
X18285714Y-162000000D01*
X18000000Y-162285714D02*
X17619047Y-162285714D01*
X17857142Y-161952380D02*
X17857142Y-162809523D01*
X17809523Y-162904761D01*
X17714285Y-162952380D01*
X17619047Y-162952380D01*
X16904761Y-162904761D02*
X17000000Y-162952380D01*
X17190476Y-162952380D01*
X17285714Y-162904761D01*
X17333333Y-162809523D01*
X17333333Y-162428571D01*
X17285714Y-162333333D01*
X17190476Y-162285714D01*
X17000000Y-162285714D01*
X16904761Y-162333333D01*
X16857142Y-162428571D01*
X16857142Y-162523809D01*
X17333333Y-162619047D01*
X16428571Y-162285714D02*
X16428571Y-163285714D01*
X16428571Y-162333333D02*
X16333333Y-162285714D01*
X16142857Y-162285714D01*
X16047619Y-162333333D01*
X16000000Y-162380952D01*
X15952380Y-162476190D01*
X15952380Y-162761904D01*
X16000000Y-162857142D01*
X16047619Y-162904761D01*
X16142857Y-162952380D01*
X16333333Y-162952380D01*
X16428571Y-162904761D01*
X14761904Y-162285714D02*
X14761904Y-163285714D01*
X14761904Y-162333333D02*
X14666666Y-162285714D01*
X14476190Y-162285714D01*
X14380952Y-162333333D01*
X14333333Y-162380952D01*
X14285714Y-162476190D01*
X14285714Y-162761904D01*
X14333333Y-162857142D01*
X14380952Y-162904761D01*
X14476190Y-162952380D01*
X14666666Y-162952380D01*
X14761904Y-162904761D01*
X13428571Y-162285714D02*
X13428571Y-162952380D01*
X13857142Y-162285714D02*
X13857142Y-162809523D01*
X13809523Y-162904761D01*
X13714285Y-162952380D01*
X13571428Y-162952380D01*
X13476190Y-162904761D01*
X13428571Y-162857142D01*
X13000000Y-162904761D02*
X12904761Y-162952380D01*
X12714285Y-162952380D01*
X12619047Y-162904761D01*
X12571428Y-162809523D01*
X12571428Y-162761904D01*
X12619047Y-162666666D01*
X12714285Y-162619047D01*
X12857142Y-162619047D01*
X12952380Y-162571428D01*
X13000000Y-162476190D01*
X13000000Y-162428571D01*
X12952380Y-162333333D01*
X12857142Y-162285714D01*
X12714285Y-162285714D01*
X12619047Y-162333333D01*
X12142857Y-162952380D02*
X12142857Y-161952380D01*
X11714285Y-162952380D02*
X11714285Y-162428571D01*
X11761904Y-162333333D01*
X11857142Y-162285714D01*
X12000000Y-162285714D01*
X12095238Y-162333333D01*
X12142857Y-162380952D01*
X10476190Y-162952380D02*
X10476190Y-161952380D01*
X10476190Y-162333333D02*
X10380952Y-162285714D01*
X10190476Y-162285714D01*
X10095238Y-162333333D01*
X10047619Y-162380952D01*
X10000000Y-162476190D01*
X10000000Y-162761904D01*
X10047619Y-162857142D01*
X10095238Y-162904761D01*
X10190476Y-162952380D01*
X10380952Y-162952380D01*
X10476190Y-162904761D01*
X9142857Y-162285714D02*
X9142857Y-162952380D01*
X9571428Y-162285714D02*
X9571428Y-162809523D01*
X9523809Y-162904761D01*
X9428571Y-162952380D01*
X9285714Y-162952380D01*
X9190476Y-162904761D01*
X9142857Y-162857142D01*
X8809523Y-162285714D02*
X8428571Y-162285714D01*
X8666666Y-161952380D02*
X8666666Y-162809523D01*
X8619047Y-162904761D01*
X8523809Y-162952380D01*
X8428571Y-162952380D01*
X8238095Y-162285714D02*
X7857142Y-162285714D01*
X8095238Y-161952380D02*
X8095238Y-162809523D01*
X8047619Y-162904761D01*
X7952380Y-162952380D01*
X7857142Y-162952380D01*
X7380952Y-162952380D02*
X7476190Y-162904761D01*
X7523809Y-162857142D01*
X7571428Y-162761904D01*
X7571428Y-162476190D01*
X7523809Y-162380952D01*
X7476190Y-162333333D01*
X7380952Y-162285714D01*
X7238095Y-162285714D01*
X7142857Y-162333333D01*
X7095238Y-162380952D01*
X7047619Y-162476190D01*
X7047619Y-162761904D01*
X7095238Y-162857142D01*
X7142857Y-162904761D01*
X7238095Y-162952380D01*
X7380952Y-162952380D01*
X6619047Y-162285714D02*
X6619047Y-162952380D01*
X6619047Y-162380952D02*
X6571428Y-162333333D01*
X6476190Y-162285714D01*
X6333333Y-162285714D01*
X6238095Y-162333333D01*
X6190476Y-162428571D01*
X6190476Y-162952380D01*
X14500000Y-130357142D02*
X14547619Y-130404761D01*
X14690476Y-130452380D01*
X14785714Y-130452380D01*
X14928571Y-130404761D01*
X15023809Y-130309523D01*
X15071428Y-130214285D01*
X15119047Y-130023809D01*
X15119047Y-129880952D01*
X15071428Y-129690476D01*
X15023809Y-129595238D01*
X14928571Y-129500000D01*
X14785714Y-129452380D01*
X14690476Y-129452380D01*
X14547619Y-129500000D01*
X14500000Y-129547619D01*
X14214285Y-129452380D02*
X13880952Y-130452380D01*
X13547619Y-129452380D01*
X12785714Y-129785714D02*
X12785714Y-130452380D01*
X13023809Y-129404761D02*
X13261904Y-130119047D01*
X12642857Y-130119047D01*
X11500000Y-129785714D02*
X11500000Y-130642857D01*
X11547619Y-130738095D01*
X11642857Y-130785714D01*
X11690476Y-130785714D01*
X11500000Y-129452380D02*
X11547619Y-129500000D01*
X11500000Y-129547619D01*
X11452380Y-129500000D01*
X11500000Y-129452380D01*
X11500000Y-129547619D01*
X10595238Y-130452380D02*
X10595238Y-129928571D01*
X10642857Y-129833333D01*
X10738095Y-129785714D01*
X10928571Y-129785714D01*
X11023809Y-129833333D01*
X10595238Y-130404761D02*
X10690476Y-130452380D01*
X10928571Y-130452380D01*
X11023809Y-130404761D01*
X11071428Y-130309523D01*
X11071428Y-130214285D01*
X11023809Y-130119047D01*
X10928571Y-130071428D01*
X10690476Y-130071428D01*
X10595238Y-130023809D01*
X9690476Y-130404761D02*
X9785714Y-130452380D01*
X9976190Y-130452380D01*
X10071428Y-130404761D01*
X10119047Y-130357142D01*
X10166666Y-130261904D01*
X10166666Y-129976190D01*
X10119047Y-129880952D01*
X10071428Y-129833333D01*
X9976190Y-129785714D01*
X9785714Y-129785714D01*
X9690476Y-129833333D01*
X9261904Y-130452380D02*
X9261904Y-129452380D01*
X9166666Y-130071428D02*
X8880952Y-130452380D01*
X8880952Y-129785714D02*
X9261904Y-130166666D01*
X39666666Y-127357142D02*
X39714285Y-127404761D01*
X39857142Y-127452380D01*
X39952380Y-127452380D01*
X40095238Y-127404761D01*
X40190476Y-127309523D01*
X40238095Y-127214285D01*
X40285714Y-127023809D01*
X40285714Y-126880952D01*
X40238095Y-126690476D01*
X40190476Y-126595238D01*
X40095238Y-126500000D01*
X39952380Y-126452380D01*
X39857142Y-126452380D01*
X39714285Y-126500000D01*
X39666666Y-126547619D01*
X39380952Y-126452380D02*
X39047619Y-127452380D01*
X38714285Y-126452380D01*
X37952380Y-126785714D02*
X37952380Y-127452380D01*
X38190476Y-126404761D02*
X38428571Y-127119047D01*
X37809523Y-127119047D01*
X36666666Y-126785714D02*
X36666666Y-127785714D01*
X36666666Y-126833333D02*
X36571428Y-126785714D01*
X36380952Y-126785714D01*
X36285714Y-126833333D01*
X36238095Y-126880952D01*
X36190476Y-126976190D01*
X36190476Y-127261904D01*
X36238095Y-127357142D01*
X36285714Y-127404761D01*
X36380952Y-127452380D01*
X36571428Y-127452380D01*
X36666666Y-127404761D01*
X35619047Y-127452380D02*
X35714285Y-127404761D01*
X35761904Y-127357142D01*
X35809523Y-127261904D01*
X35809523Y-126976190D01*
X35761904Y-126880952D01*
X35714285Y-126833333D01*
X35619047Y-126785714D01*
X35476190Y-126785714D01*
X35380952Y-126833333D01*
X35333333Y-126880952D01*
X35285714Y-126976190D01*
X35285714Y-127261904D01*
X35333333Y-127357142D01*
X35380952Y-127404761D01*
X35476190Y-127452380D01*
X35619047Y-127452380D01*
X35000000Y-126785714D02*
X34619047Y-126785714D01*
X34857142Y-126452380D02*
X34857142Y-127309523D01*
X34809523Y-127404761D01*
X34714285Y-127452380D01*
X34619047Y-127452380D01*
X39666666Y-97357142D02*
X39714285Y-97404761D01*
X39857142Y-97452380D01*
X39952380Y-97452380D01*
X40095238Y-97404761D01*
X40190476Y-97309523D01*
X40238095Y-97214285D01*
X40285714Y-97023809D01*
X40285714Y-96880952D01*
X40238095Y-96690476D01*
X40190476Y-96595238D01*
X40095238Y-96500000D01*
X39952380Y-96452380D01*
X39857142Y-96452380D01*
X39714285Y-96500000D01*
X39666666Y-96547619D01*
X39380952Y-96452380D02*
X39047619Y-97452380D01*
X38714285Y-96452380D01*
X38476190Y-96452380D02*
X37857142Y-96452380D01*
X38190476Y-96833333D01*
X38047619Y-96833333D01*
X37952380Y-96880952D01*
X37904761Y-96928571D01*
X37857142Y-97023809D01*
X37857142Y-97261904D01*
X37904761Y-97357142D01*
X37952380Y-97404761D01*
X38047619Y-97452380D01*
X38333333Y-97452380D01*
X38428571Y-97404761D01*
X38476190Y-97357142D01*
X36666666Y-96785714D02*
X36666666Y-97785714D01*
X36666666Y-96833333D02*
X36571428Y-96785714D01*
X36380952Y-96785714D01*
X36285714Y-96833333D01*
X36238095Y-96880952D01*
X36190476Y-96976190D01*
X36190476Y-97261904D01*
X36238095Y-97357142D01*
X36285714Y-97404761D01*
X36380952Y-97452380D01*
X36571428Y-97452380D01*
X36666666Y-97404761D01*
X35619047Y-97452380D02*
X35714285Y-97404761D01*
X35761904Y-97357142D01*
X35809523Y-97261904D01*
X35809523Y-96976190D01*
X35761904Y-96880952D01*
X35714285Y-96833333D01*
X35619047Y-96785714D01*
X35476190Y-96785714D01*
X35380952Y-96833333D01*
X35333333Y-96880952D01*
X35285714Y-96976190D01*
X35285714Y-97261904D01*
X35333333Y-97357142D01*
X35380952Y-97404761D01*
X35476190Y-97452380D01*
X35619047Y-97452380D01*
X35000000Y-96785714D02*
X34619047Y-96785714D01*
X34857142Y-96452380D02*
X34857142Y-97309523D01*
X34809523Y-97404761D01*
X34714285Y-97452380D01*
X34619047Y-97452380D01*
X14500000Y-100357142D02*
X14547619Y-100404761D01*
X14690476Y-100452380D01*
X14785714Y-100452380D01*
X14928571Y-100404761D01*
X15023809Y-100309523D01*
X15071428Y-100214285D01*
X15119047Y-100023809D01*
X15119047Y-99880952D01*
X15071428Y-99690476D01*
X15023809Y-99595238D01*
X14928571Y-99500000D01*
X14785714Y-99452380D01*
X14690476Y-99452380D01*
X14547619Y-99500000D01*
X14500000Y-99547619D01*
X14214285Y-99452380D02*
X13880952Y-100452380D01*
X13547619Y-99452380D01*
X13309523Y-99452380D02*
X12690476Y-99452380D01*
X13023809Y-99833333D01*
X12880952Y-99833333D01*
X12785714Y-99880952D01*
X12738095Y-99928571D01*
X12690476Y-100023809D01*
X12690476Y-100261904D01*
X12738095Y-100357142D01*
X12785714Y-100404761D01*
X12880952Y-100452380D01*
X13166666Y-100452380D01*
X13261904Y-100404761D01*
X13309523Y-100357142D01*
X11500000Y-99785714D02*
X11500000Y-100642857D01*
X11547619Y-100738095D01*
X11642857Y-100785714D01*
X11690476Y-100785714D01*
X11500000Y-99452380D02*
X11547619Y-99500000D01*
X11500000Y-99547619D01*
X11452380Y-99500000D01*
X11500000Y-99452380D01*
X11500000Y-99547619D01*
X10595238Y-100452380D02*
X10595238Y-99928571D01*
X10642857Y-99833333D01*
X10738095Y-99785714D01*
X10928571Y-99785714D01*
X11023809Y-99833333D01*
X10595238Y-100404761D02*
X10690476Y-100452380D01*
X10928571Y-100452380D01*
X11023809Y-100404761D01*
X11071428Y-100309523D01*
X11071428Y-100214285D01*
X11023809Y-100119047D01*
X10928571Y-100071428D01*
X10690476Y-100071428D01*
X10595238Y-100023809D01*
X9690476Y-100404761D02*
X9785714Y-100452380D01*
X9976190Y-100452380D01*
X10071428Y-100404761D01*
X10119047Y-100357142D01*
X10166666Y-100261904D01*
X10166666Y-99976190D01*
X10119047Y-99880952D01*
X10071428Y-99833333D01*
X9976190Y-99785714D01*
X9785714Y-99785714D01*
X9690476Y-99833333D01*
X9261904Y-100452380D02*
X9261904Y-99452380D01*
X9166666Y-100071428D02*
X8880952Y-100452380D01*
X8880952Y-99785714D02*
X9261904Y-100166666D01*
X14500000Y-70357142D02*
X14547619Y-70404761D01*
X14690476Y-70452380D01*
X14785714Y-70452380D01*
X14928571Y-70404761D01*
X15023809Y-70309523D01*
X15071428Y-70214285D01*
X15119047Y-70023809D01*
X15119047Y-69880952D01*
X15071428Y-69690476D01*
X15023809Y-69595238D01*
X14928571Y-69500000D01*
X14785714Y-69452380D01*
X14690476Y-69452380D01*
X14547619Y-69500000D01*
X14500000Y-69547619D01*
X14214285Y-69452380D02*
X13880952Y-70452380D01*
X13547619Y-69452380D01*
X13261904Y-69547619D02*
X13214285Y-69500000D01*
X13119047Y-69452380D01*
X12880952Y-69452380D01*
X12785714Y-69500000D01*
X12738095Y-69547619D01*
X12690476Y-69642857D01*
X12690476Y-69738095D01*
X12738095Y-69880952D01*
X13309523Y-70452380D01*
X12690476Y-70452380D01*
X11500000Y-69785714D02*
X11500000Y-70642857D01*
X11547619Y-70738095D01*
X11642857Y-70785714D01*
X11690476Y-70785714D01*
X11500000Y-69452380D02*
X11547619Y-69500000D01*
X11500000Y-69547619D01*
X11452380Y-69500000D01*
X11500000Y-69452380D01*
X11500000Y-69547619D01*
X10595238Y-70452380D02*
X10595238Y-69928571D01*
X10642857Y-69833333D01*
X10738095Y-69785714D01*
X10928571Y-69785714D01*
X11023809Y-69833333D01*
X10595238Y-70404761D02*
X10690476Y-70452380D01*
X10928571Y-70452380D01*
X11023809Y-70404761D01*
X11071428Y-70309523D01*
X11071428Y-70214285D01*
X11023809Y-70119047D01*
X10928571Y-70071428D01*
X10690476Y-70071428D01*
X10595238Y-70023809D01*
X9690476Y-70404761D02*
X9785714Y-70452380D01*
X9976190Y-70452380D01*
X10071428Y-70404761D01*
X10119047Y-70357142D01*
X10166666Y-70261904D01*
X10166666Y-69976190D01*
X10119047Y-69880952D01*
X10071428Y-69833333D01*
X9976190Y-69785714D01*
X9785714Y-69785714D01*
X9690476Y-69833333D01*
X9261904Y-70452380D02*
X9261904Y-69452380D01*
X9166666Y-70071428D02*
X8880952Y-70452380D01*
X8880952Y-69785714D02*
X9261904Y-70166666D01*
X39666666Y-67357142D02*
X39714285Y-67404761D01*
X39857142Y-67452380D01*
X39952380Y-67452380D01*
X40095238Y-67404761D01*
X40190476Y-67309523D01*
X40238095Y-67214285D01*
X40285714Y-67023809D01*
X40285714Y-66880952D01*
X40238095Y-66690476D01*
X40190476Y-66595238D01*
X40095238Y-66500000D01*
X39952380Y-66452380D01*
X39857142Y-66452380D01*
X39714285Y-66500000D01*
X39666666Y-66547619D01*
X39380952Y-66452380D02*
X39047619Y-67452380D01*
X38714285Y-66452380D01*
X38428571Y-66547619D02*
X38380952Y-66500000D01*
X38285714Y-66452380D01*
X38047619Y-66452380D01*
X37952380Y-66500000D01*
X37904761Y-66547619D01*
X37857142Y-66642857D01*
X37857142Y-66738095D01*
X37904761Y-66880952D01*
X38476190Y-67452380D01*
X37857142Y-67452380D01*
X36666666Y-66785714D02*
X36666666Y-67785714D01*
X36666666Y-66833333D02*
X36571428Y-66785714D01*
X36380952Y-66785714D01*
X36285714Y-66833333D01*
X36238095Y-66880952D01*
X36190476Y-66976190D01*
X36190476Y-67261904D01*
X36238095Y-67357142D01*
X36285714Y-67404761D01*
X36380952Y-67452380D01*
X36571428Y-67452380D01*
X36666666Y-67404761D01*
X35619047Y-67452380D02*
X35714285Y-67404761D01*
X35761904Y-67357142D01*
X35809523Y-67261904D01*
X35809523Y-66976190D01*
X35761904Y-66880952D01*
X35714285Y-66833333D01*
X35619047Y-66785714D01*
X35476190Y-66785714D01*
X35380952Y-66833333D01*
X35333333Y-66880952D01*
X35285714Y-66976190D01*
X35285714Y-67261904D01*
X35333333Y-67357142D01*
X35380952Y-67404761D01*
X35476190Y-67452380D01*
X35619047Y-67452380D01*
X35000000Y-66785714D02*
X34619047Y-66785714D01*
X34857142Y-66452380D02*
X34857142Y-67309523D01*
X34809523Y-67404761D01*
X34714285Y-67452380D01*
X34619047Y-67452380D01*
X39666666Y-37357142D02*
X39714285Y-37404761D01*
X39857142Y-37452380D01*
X39952380Y-37452380D01*
X40095238Y-37404761D01*
X40190476Y-37309523D01*
X40238095Y-37214285D01*
X40285714Y-37023809D01*
X40285714Y-36880952D01*
X40238095Y-36690476D01*
X40190476Y-36595238D01*
X40095238Y-36500000D01*
X39952380Y-36452380D01*
X39857142Y-36452380D01*
X39714285Y-36500000D01*
X39666666Y-36547619D01*
X39380952Y-36452380D02*
X39047619Y-37452380D01*
X38714285Y-36452380D01*
X37857142Y-37452380D02*
X38428571Y-37452380D01*
X38142857Y-37452380D02*
X38142857Y-36452380D01*
X38238095Y-36595238D01*
X38333333Y-36690476D01*
X38428571Y-36738095D01*
X36666666Y-36785714D02*
X36666666Y-37785714D01*
X36666666Y-36833333D02*
X36571428Y-36785714D01*
X36380952Y-36785714D01*
X36285714Y-36833333D01*
X36238095Y-36880952D01*
X36190476Y-36976190D01*
X36190476Y-37261904D01*
X36238095Y-37357142D01*
X36285714Y-37404761D01*
X36380952Y-37452380D01*
X36571428Y-37452380D01*
X36666666Y-37404761D01*
X35619047Y-37452380D02*
X35714285Y-37404761D01*
X35761904Y-37357142D01*
X35809523Y-37261904D01*
X35809523Y-36976190D01*
X35761904Y-36880952D01*
X35714285Y-36833333D01*
X35619047Y-36785714D01*
X35476190Y-36785714D01*
X35380952Y-36833333D01*
X35333333Y-36880952D01*
X35285714Y-36976190D01*
X35285714Y-37261904D01*
X35333333Y-37357142D01*
X35380952Y-37404761D01*
X35476190Y-37452380D01*
X35619047Y-37452380D01*
X35000000Y-36785714D02*
X34619047Y-36785714D01*
X34857142Y-36452380D02*
X34857142Y-37309523D01*
X34809523Y-37404761D01*
X34714285Y-37452380D01*
X34619047Y-37452380D01*
X14500000Y-40357142D02*
X14547619Y-40404761D01*
X14690476Y-40452380D01*
X14785714Y-40452380D01*
X14928571Y-40404761D01*
X15023809Y-40309523D01*
X15071428Y-40214285D01*
X15119047Y-40023809D01*
X15119047Y-39880952D01*
X15071428Y-39690476D01*
X15023809Y-39595238D01*
X14928571Y-39500000D01*
X14785714Y-39452380D01*
X14690476Y-39452380D01*
X14547619Y-39500000D01*
X14500000Y-39547619D01*
X14214285Y-39452380D02*
X13880952Y-40452380D01*
X13547619Y-39452380D01*
X12690476Y-40452380D02*
X13261904Y-40452380D01*
X12976190Y-40452380D02*
X12976190Y-39452380D01*
X13071428Y-39595238D01*
X13166666Y-39690476D01*
X13261904Y-39738095D01*
X11500000Y-39785714D02*
X11500000Y-40642857D01*
X11547619Y-40738095D01*
X11642857Y-40785714D01*
X11690476Y-40785714D01*
X11500000Y-39452380D02*
X11547619Y-39500000D01*
X11500000Y-39547619D01*
X11452380Y-39500000D01*
X11500000Y-39452380D01*
X11500000Y-39547619D01*
X10595238Y-40452380D02*
X10595238Y-39928571D01*
X10642857Y-39833333D01*
X10738095Y-39785714D01*
X10928571Y-39785714D01*
X11023809Y-39833333D01*
X10595238Y-40404761D02*
X10690476Y-40452380D01*
X10928571Y-40452380D01*
X11023809Y-40404761D01*
X11071428Y-40309523D01*
X11071428Y-40214285D01*
X11023809Y-40119047D01*
X10928571Y-40071428D01*
X10690476Y-40071428D01*
X10595238Y-40023809D01*
X9690476Y-40404761D02*
X9785714Y-40452380D01*
X9976190Y-40452380D01*
X10071428Y-40404761D01*
X10119047Y-40357142D01*
X10166666Y-40261904D01*
X10166666Y-39976190D01*
X10119047Y-39880952D01*
X10071428Y-39833333D01*
X9976190Y-39785714D01*
X9785714Y-39785714D01*
X9690476Y-39833333D01*
X9261904Y-40452380D02*
X9261904Y-39452380D01*
X9166666Y-40071428D02*
X8880952Y-40452380D01*
X8880952Y-39785714D02*
X9261904Y-40166666D01*
X76452380Y-69952380D02*
X76261904Y-69952380D01*
X76166666Y-70000000D01*
X76071428Y-70095238D01*
X76023809Y-70285714D01*
X76023809Y-70619047D01*
X76071428Y-70809523D01*
X76166666Y-70904761D01*
X76261904Y-70952380D01*
X76452380Y-70952380D01*
X76547619Y-70904761D01*
X76642857Y-70809523D01*
X76690476Y-70619047D01*
X76690476Y-70285714D01*
X76642857Y-70095238D01*
X76547619Y-70000000D01*
X76452380Y-69952380D01*
X75119047Y-70952380D02*
X75595238Y-70952380D01*
X75595238Y-69952380D01*
X74785714Y-70428571D02*
X74452380Y-70428571D01*
X74309523Y-70952380D02*
X74785714Y-70952380D01*
X74785714Y-69952380D01*
X74309523Y-69952380D01*
X73880952Y-70952380D02*
X73880952Y-69952380D01*
X73642857Y-69952380D01*
X73500000Y-70000000D01*
X73404761Y-70095238D01*
X73357142Y-70190476D01*
X73309523Y-70380952D01*
X73309523Y-70523809D01*
X73357142Y-70714285D01*
X73404761Y-70809523D01*
X73500000Y-70904761D01*
X73642857Y-70952380D01*
X73880952Y-70952380D01*
X61000000Y-187152380D02*
X61000000Y-186152380D01*
X60619047Y-186152380D01*
X60523809Y-186200000D01*
X60476190Y-186247619D01*
X60428571Y-186342857D01*
X60428571Y-186485714D01*
X60476190Y-186580952D01*
X60523809Y-186628571D01*
X60619047Y-186676190D01*
X61000000Y-186676190D01*
X59571428Y-187152380D02*
X59571428Y-186628571D01*
X59619047Y-186533333D01*
X59714285Y-186485714D01*
X59904761Y-186485714D01*
X60000000Y-186533333D01*
X59571428Y-187104761D02*
X59666666Y-187152380D01*
X59904761Y-187152380D01*
X60000000Y-187104761D01*
X60047619Y-187009523D01*
X60047619Y-186914285D01*
X60000000Y-186819047D01*
X59904761Y-186771428D01*
X59666666Y-186771428D01*
X59571428Y-186723809D01*
X59095238Y-186485714D02*
X59095238Y-187152380D01*
X59095238Y-186580952D02*
X59047619Y-186533333D01*
X58952380Y-186485714D01*
X58809523Y-186485714D01*
X58714285Y-186533333D01*
X58666666Y-186628571D01*
X58666666Y-187152380D01*
X57809523Y-187104761D02*
X57904761Y-187152380D01*
X58095238Y-187152380D01*
X58190476Y-187104761D01*
X58238095Y-187009523D01*
X58238095Y-186628571D01*
X58190476Y-186533333D01*
X58095238Y-186485714D01*
X57904761Y-186485714D01*
X57809523Y-186533333D01*
X57761904Y-186628571D01*
X57761904Y-186723809D01*
X58238095Y-186819047D01*
X57190476Y-187152380D02*
X57285714Y-187104761D01*
X57333333Y-187009523D01*
X57333333Y-186152380D01*
X55619047Y-187152380D02*
X55619047Y-186152380D01*
X55619047Y-187104761D02*
X55714285Y-187152380D01*
X55904761Y-187152380D01*
X56000000Y-187104761D01*
X56047619Y-187057142D01*
X56095238Y-186961904D01*
X56095238Y-186676190D01*
X56047619Y-186580952D01*
X56000000Y-186533333D01*
X55904761Y-186485714D01*
X55714285Y-186485714D01*
X55619047Y-186533333D01*
X54761904Y-187104761D02*
X54857142Y-187152380D01*
X55047619Y-187152380D01*
X55142857Y-187104761D01*
X55190476Y-187009523D01*
X55190476Y-186628571D01*
X55142857Y-186533333D01*
X55047619Y-186485714D01*
X54857142Y-186485714D01*
X54761904Y-186533333D01*
X54714285Y-186628571D01*
X54714285Y-186723809D01*
X55190476Y-186819047D01*
X54333333Y-187104761D02*
X54238095Y-187152380D01*
X54047619Y-187152380D01*
X53952380Y-187104761D01*
X53904761Y-187009523D01*
X53904761Y-186961904D01*
X53952380Y-186866666D01*
X54047619Y-186819047D01*
X54190476Y-186819047D01*
X54285714Y-186771428D01*
X54333333Y-186676190D01*
X54333333Y-186628571D01*
X54285714Y-186533333D01*
X54190476Y-186485714D01*
X54047619Y-186485714D01*
X53952380Y-186533333D01*
X53476190Y-187152380D02*
X53476190Y-186485714D01*
X53476190Y-186152380D02*
X53523809Y-186200000D01*
X53476190Y-186247619D01*
X53428571Y-186200000D01*
X53476190Y-186152380D01*
X53476190Y-186247619D01*
X52571428Y-186485714D02*
X52571428Y-187295238D01*
X52619047Y-187390476D01*
X52666666Y-187438095D01*
X52761904Y-187485714D01*
X52904761Y-187485714D01*
X53000000Y-187438095D01*
X52571428Y-187104761D02*
X52666666Y-187152380D01*
X52857142Y-187152380D01*
X52952380Y-187104761D01*
X53000000Y-187057142D01*
X53047619Y-186961904D01*
X53047619Y-186676190D01*
X53000000Y-186580952D01*
X52952380Y-186533333D01*
X52857142Y-186485714D01*
X52666666Y-186485714D01*
X52571428Y-186533333D01*
X52095238Y-186485714D02*
X52095238Y-187152380D01*
X52095238Y-186580952D02*
X52047619Y-186533333D01*
X51952380Y-186485714D01*
X51809523Y-186485714D01*
X51714285Y-186533333D01*
X51666666Y-186628571D01*
X51666666Y-187152380D01*
X50428571Y-187152380D02*
X50428571Y-186152380D01*
X50428571Y-186533333D02*
X50333333Y-186485714D01*
X50142857Y-186485714D01*
X50047619Y-186533333D01*
X50000000Y-186580952D01*
X49952380Y-186676190D01*
X49952380Y-186961904D01*
X50000000Y-187057142D01*
X50047619Y-187104761D01*
X50142857Y-187152380D01*
X50333333Y-187152380D01*
X50428571Y-187104761D01*
X49619047Y-186485714D02*
X49380952Y-187152380D01*
X49142857Y-186485714D02*
X49380952Y-187152380D01*
X49476190Y-187390476D01*
X49523809Y-187438095D01*
X49619047Y-187485714D01*
X47428571Y-187152380D02*
X47761904Y-186676190D01*
X48000000Y-187152380D02*
X48000000Y-186152380D01*
X47619047Y-186152380D01*
X47523809Y-186200000D01*
X47476190Y-186247619D01*
X47428571Y-186342857D01*
X47428571Y-186485714D01*
X47476190Y-186580952D01*
X47523809Y-186628571D01*
X47619047Y-186676190D01*
X48000000Y-186676190D01*
X47000000Y-187152380D02*
X47000000Y-186485714D01*
X47000000Y-186152380D02*
X47047619Y-186200000D01*
X47000000Y-186247619D01*
X46952380Y-186200000D01*
X47000000Y-186152380D01*
X47000000Y-186247619D01*
X46095238Y-187104761D02*
X46190476Y-187152380D01*
X46380952Y-187152380D01*
X46476190Y-187104761D01*
X46523809Y-187057142D01*
X46571428Y-186961904D01*
X46571428Y-186676190D01*
X46523809Y-186580952D01*
X46476190Y-186533333D01*
X46380952Y-186485714D01*
X46190476Y-186485714D01*
X46095238Y-186533333D01*
X45666666Y-187152380D02*
X45666666Y-186152380D01*
X45238095Y-187152380D02*
X45238095Y-186628571D01*
X45285714Y-186533333D01*
X45380952Y-186485714D01*
X45523809Y-186485714D01*
X45619047Y-186533333D01*
X45666666Y-186580952D01*
X44000000Y-187152380D02*
X44000000Y-186152380D01*
X44000000Y-186628571D02*
X43428571Y-186628571D01*
X43428571Y-187152380D02*
X43428571Y-186152380D01*
X42809523Y-187152380D02*
X42904761Y-187104761D01*
X42952380Y-187057142D01*
X43000000Y-186961904D01*
X43000000Y-186676190D01*
X42952380Y-186580952D01*
X42904761Y-186533333D01*
X42809523Y-186485714D01*
X42666666Y-186485714D01*
X42571428Y-186533333D01*
X42523809Y-186580952D01*
X42476190Y-186676190D01*
X42476190Y-186961904D01*
X42523809Y-187057142D01*
X42571428Y-187104761D01*
X42666666Y-187152380D01*
X42809523Y-187152380D01*
X41904761Y-187152380D02*
X42000000Y-187104761D01*
X42047619Y-187009523D01*
X42047619Y-186152380D01*
X41523809Y-187152380D02*
X41523809Y-186485714D01*
X41523809Y-186580952D02*
X41476190Y-186533333D01*
X41380952Y-186485714D01*
X41238095Y-186485714D01*
X41142857Y-186533333D01*
X41095238Y-186628571D01*
X41095238Y-187152380D01*
X41095238Y-186628571D02*
X41047619Y-186533333D01*
X40952380Y-186485714D01*
X40809523Y-186485714D01*
X40714285Y-186533333D01*
X40666666Y-186628571D01*
X40666666Y-187152380D01*
X39809523Y-187104761D02*
X39904761Y-187152380D01*
X40095238Y-187152380D01*
X40190476Y-187104761D01*
X40238095Y-187009523D01*
X40238095Y-186628571D01*
X40190476Y-186533333D01*
X40095238Y-186485714D01*
X39904761Y-186485714D01*
X39809523Y-186533333D01*
X39761904Y-186628571D01*
X39761904Y-186723809D01*
X40238095Y-186819047D01*
X39380952Y-187104761D02*
X39285714Y-187152380D01*
X39095238Y-187152380D01*
X39000000Y-187104761D01*
X38952380Y-187009523D01*
X38952380Y-186961904D01*
X39000000Y-186866666D01*
X39095238Y-186819047D01*
X39238095Y-186819047D01*
X39333333Y-186771428D01*
X39380952Y-186676190D01*
X39380952Y-186628571D01*
X39333333Y-186533333D01*
X39238095Y-186485714D01*
X39095238Y-186485714D01*
X39000000Y-186533333D01*
X54738095Y-187802380D02*
X54547619Y-187802380D01*
X54452380Y-187850000D01*
X54357142Y-187945238D01*
X54309523Y-188135714D01*
X54309523Y-188469047D01*
X54357142Y-188659523D01*
X54452380Y-188754761D01*
X54547619Y-188802380D01*
X54738095Y-188802380D01*
X54833333Y-188754761D01*
X54928571Y-188659523D01*
X54976190Y-188469047D01*
X54976190Y-188135714D01*
X54928571Y-187945238D01*
X54833333Y-187850000D01*
X54738095Y-187802380D01*
X53452380Y-188754761D02*
X53547619Y-188802380D01*
X53738095Y-188802380D01*
X53833333Y-188754761D01*
X53880952Y-188707142D01*
X53928571Y-188611904D01*
X53928571Y-188326190D01*
X53880952Y-188230952D01*
X53833333Y-188183333D01*
X53738095Y-188135714D01*
X53547619Y-188135714D01*
X53452380Y-188183333D01*
X53166666Y-188135714D02*
X52785714Y-188135714D01*
X53023809Y-187802380D02*
X53023809Y-188659523D01*
X52976190Y-188754761D01*
X52880952Y-188802380D01*
X52785714Y-188802380D01*
X52309523Y-188802380D02*
X52404761Y-188754761D01*
X52452380Y-188707142D01*
X52500000Y-188611904D01*
X52500000Y-188326190D01*
X52452380Y-188230952D01*
X52404761Y-188183333D01*
X52309523Y-188135714D01*
X52166666Y-188135714D01*
X52071428Y-188183333D01*
X52023809Y-188230952D01*
X51976190Y-188326190D01*
X51976190Y-188611904D01*
X52023809Y-188707142D01*
X52071428Y-188754761D01*
X52166666Y-188802380D01*
X52309523Y-188802380D01*
X51547619Y-188802380D02*
X51547619Y-187802380D01*
X51547619Y-188183333D02*
X51452380Y-188135714D01*
X51261904Y-188135714D01*
X51166666Y-188183333D01*
X51119047Y-188230952D01*
X51071428Y-188326190D01*
X51071428Y-188611904D01*
X51119047Y-188707142D01*
X51166666Y-188754761D01*
X51261904Y-188802380D01*
X51452380Y-188802380D01*
X51547619Y-188754761D01*
X50261904Y-188754761D02*
X50357142Y-188802380D01*
X50547619Y-188802380D01*
X50642857Y-188754761D01*
X50690476Y-188659523D01*
X50690476Y-188278571D01*
X50642857Y-188183333D01*
X50547619Y-188135714D01*
X50357142Y-188135714D01*
X50261904Y-188183333D01*
X50214285Y-188278571D01*
X50214285Y-188373809D01*
X50690476Y-188469047D01*
X49785714Y-188802380D02*
X49785714Y-188135714D01*
X49785714Y-188326190D02*
X49738095Y-188230952D01*
X49690476Y-188183333D01*
X49595238Y-188135714D01*
X49500000Y-188135714D01*
X48452380Y-187897619D02*
X48404761Y-187850000D01*
X48309523Y-187802380D01*
X48071428Y-187802380D01*
X47976190Y-187850000D01*
X47928571Y-187897619D01*
X47880952Y-187992857D01*
X47880952Y-188088095D01*
X47928571Y-188230952D01*
X48500000Y-188802380D01*
X47880952Y-188802380D01*
X47261904Y-187802380D02*
X47166666Y-187802380D01*
X47071428Y-187850000D01*
X47023809Y-187897619D01*
X46976190Y-187992857D01*
X46928571Y-188183333D01*
X46928571Y-188421428D01*
X46976190Y-188611904D01*
X47023809Y-188707142D01*
X47071428Y-188754761D01*
X47166666Y-188802380D01*
X47261904Y-188802380D01*
X47357142Y-188754761D01*
X47404761Y-188707142D01*
X47452380Y-188611904D01*
X47500000Y-188421428D01*
X47500000Y-188183333D01*
X47452380Y-187992857D01*
X47404761Y-187897619D01*
X47357142Y-187850000D01*
X47261904Y-187802380D01*
X46547619Y-187897619D02*
X46500000Y-187850000D01*
X46404761Y-187802380D01*
X46166666Y-187802380D01*
X46071428Y-187850000D01*
X46023809Y-187897619D01*
X45976190Y-187992857D01*
X45976190Y-188088095D01*
X46023809Y-188230952D01*
X46595238Y-188802380D01*
X45976190Y-188802380D01*
X45023809Y-188802380D02*
X45595238Y-188802380D01*
X45309523Y-188802380D02*
X45309523Y-187802380D01*
X45404761Y-187945238D01*
X45500000Y-188040476D01*
X45595238Y-188088095D01*
X52238095Y-190357142D02*
X52285714Y-190404761D01*
X52428571Y-190452380D01*
X52523809Y-190452380D01*
X52666666Y-190404761D01*
X52761904Y-190309523D01*
X52809523Y-190214285D01*
X52857142Y-190023809D01*
X52857142Y-189880952D01*
X52809523Y-189690476D01*
X52761904Y-189595238D01*
X52666666Y-189500000D01*
X52523809Y-189452380D01*
X52428571Y-189452380D01*
X52285714Y-189500000D01*
X52238095Y-189547619D01*
X51238095Y-190357142D02*
X51285714Y-190404761D01*
X51428571Y-190452380D01*
X51523809Y-190452380D01*
X51666666Y-190404761D01*
X51761904Y-190309523D01*
X51809523Y-190214285D01*
X51857142Y-190023809D01*
X51857142Y-189880952D01*
X51809523Y-189690476D01*
X51761904Y-189595238D01*
X51666666Y-189500000D01*
X51523809Y-189452380D01*
X51428571Y-189452380D01*
X51285714Y-189500000D01*
X51238095Y-189547619D01*
X50619047Y-189452380D02*
X50523809Y-189452380D01*
X50428571Y-189500000D01*
X50380952Y-189547619D01*
X50333333Y-189642857D01*
X50285714Y-189833333D01*
X50285714Y-190071428D01*
X50333333Y-190261904D01*
X50380952Y-190357142D01*
X50428571Y-190404761D01*
X50523809Y-190452380D01*
X50619047Y-190452380D01*
X50714285Y-190404761D01*
X50761904Y-190357142D01*
X50809523Y-190261904D01*
X50857142Y-190071428D01*
X50857142Y-189833333D01*
X50809523Y-189642857D01*
X50761904Y-189547619D01*
X50714285Y-189500000D01*
X50619047Y-189452380D01*
X48571428Y-190452380D02*
X49142857Y-190452380D01*
X48857142Y-190452380D02*
X48857142Y-189452380D01*
X48952380Y-189595238D01*
X49047619Y-189690476D01*
X49142857Y-189738095D01*
X48142857Y-190357142D02*
X48095238Y-190404761D01*
X48142857Y-190452380D01*
X48190476Y-190404761D01*
X48142857Y-190357142D01*
X48142857Y-190452380D01*
X47476190Y-189452380D02*
X47380952Y-189452380D01*
X47285714Y-189500000D01*
X47238095Y-189547619D01*
X47190476Y-189642857D01*
X47142857Y-189833333D01*
X47142857Y-190071428D01*
X47190476Y-190261904D01*
X47238095Y-190357142D01*
X47285714Y-190404761D01*
X47380952Y-190452380D01*
X47476190Y-190452380D01*
X47571428Y-190404761D01*
X47619047Y-190357142D01*
X47666666Y-190261904D01*
X47714285Y-190071428D01*
X47714285Y-189833333D01*
X47666666Y-189642857D01*
X47619047Y-189547619D01*
X47571428Y-189500000D01*
X47476190Y-189452380D01*
X54619047Y-192752380D02*
X54619047Y-193466666D01*
X54666666Y-193609523D01*
X54761904Y-193704761D01*
X54904761Y-193752380D01*
X55000000Y-193752380D01*
X53666666Y-193752380D02*
X54142857Y-193752380D01*
X54142857Y-192752380D01*
X52761904Y-193657142D02*
X52809523Y-193704761D01*
X52952380Y-193752380D01*
X53047619Y-193752380D01*
X53190476Y-193704761D01*
X53285714Y-193609523D01*
X53333333Y-193514285D01*
X53380952Y-193323809D01*
X53380952Y-193180952D01*
X53333333Y-192990476D01*
X53285714Y-192895238D01*
X53190476Y-192800000D01*
X53047619Y-192752380D01*
X52952380Y-192752380D01*
X52809523Y-192800000D01*
X52761904Y-192847619D01*
X52047619Y-192752380D02*
X52047619Y-193466666D01*
X52095238Y-193609523D01*
X52190476Y-193704761D01*
X52333333Y-193752380D01*
X52428571Y-193752380D01*
X51095238Y-193752380D02*
X51571428Y-193752380D01*
X51571428Y-192752380D01*
X50190476Y-193657142D02*
X50238095Y-193704761D01*
X50380952Y-193752380D01*
X50476190Y-193752380D01*
X50619047Y-193704761D01*
X50714285Y-193609523D01*
X50761904Y-193514285D01*
X50809523Y-193323809D01*
X50809523Y-193180952D01*
X50761904Y-192990476D01*
X50714285Y-192895238D01*
X50619047Y-192800000D01*
X50476190Y-192752380D01*
X50380952Y-192752380D01*
X50238095Y-192800000D01*
X50190476Y-192847619D01*
X49476190Y-192752380D02*
X49476190Y-193466666D01*
X49523809Y-193609523D01*
X49619047Y-193704761D01*
X49761904Y-193752380D01*
X49857142Y-193752380D01*
X48523809Y-193752380D02*
X49000000Y-193752380D01*
X49000000Y-192752380D01*
X47619047Y-193657142D02*
X47666666Y-193704761D01*
X47809523Y-193752380D01*
X47904761Y-193752380D01*
X48047619Y-193704761D01*
X48142857Y-193609523D01*
X48190476Y-193514285D01*
X48238095Y-193323809D01*
X48238095Y-193180952D01*
X48190476Y-192990476D01*
X48142857Y-192895238D01*
X48047619Y-192800000D01*
X47904761Y-192752380D01*
X47809523Y-192752380D01*
X47666666Y-192800000D01*
X47619047Y-192847619D01*
X46904761Y-192752380D02*
X46904761Y-193466666D01*
X46952380Y-193609523D01*
X47047619Y-193704761D01*
X47190476Y-193752380D01*
X47285714Y-193752380D01*
X45952380Y-193752380D02*
X46428571Y-193752380D01*
X46428571Y-192752380D01*
X45047619Y-193657142D02*
X45095238Y-193704761D01*
X45238095Y-193752380D01*
X45333333Y-193752380D01*
X45476190Y-193704761D01*
X45571428Y-193609523D01*
X45619047Y-193514285D01*
X45666666Y-193323809D01*
X45666666Y-193180952D01*
X45619047Y-192990476D01*
X45571428Y-192895238D01*
X45476190Y-192800000D01*
X45333333Y-192752380D01*
X45238095Y-192752380D01*
X45095238Y-192800000D01*
X45047619Y-192847619D01*
D11*
G36*
X41345762Y-188503295D02*
G01*
X41119275Y-188560725D01*
X40906042Y-188650861D01*
X40709636Y-188771823D01*
X40533628Y-188921729D01*
X40381589Y-189098696D01*
X40257089Y-189300844D01*
X40244249Y-189326541D01*
X40193712Y-189437295D01*
X40156951Y-189538132D01*
X40131999Y-189639067D01*
X40116892Y-189750114D01*
X40109665Y-189881287D01*
X40108257Y-190019538D01*
X40109141Y-190139418D01*
X40111786Y-190229550D01*
X40117274Y-190299255D01*
X40126685Y-190357855D01*
X40141101Y-190414672D01*
X40161488Y-190478692D01*
X40252320Y-190689619D01*
X40376092Y-190885212D01*
X40528345Y-191061404D01*
X40704617Y-191214128D01*
X40900450Y-191339317D01*
X41111382Y-191432904D01*
X41253751Y-191474692D01*
X41376333Y-191496312D01*
X41517661Y-191509844D01*
X41661804Y-191514540D01*
X41792831Y-191509650D01*
X41852036Y-191502835D01*
X42065147Y-191451615D01*
X42274960Y-191365903D01*
X42472932Y-191249928D01*
X42650519Y-191107922D01*
X42651575Y-191106935D01*
X42818861Y-190925473D01*
X42952401Y-190726943D01*
X43051194Y-190514250D01*
X43114239Y-190290302D01*
X43140535Y-190058003D01*
X43137084Y-189986371D01*
X42862601Y-189986371D01*
X42860389Y-190119780D01*
X42848612Y-190238052D01*
X42834995Y-190302846D01*
X42760380Y-190500843D01*
X42653427Y-190685299D01*
X42518836Y-190850554D01*
X42361307Y-190990947D01*
X42185539Y-191100816D01*
X42163640Y-191111586D01*
X42076119Y-191149895D01*
X41986608Y-191183320D01*
X41911196Y-191205990D01*
X41895231Y-191209527D01*
X41827822Y-191222939D01*
X41771304Y-191234585D01*
X41748692Y-191239505D01*
X41699174Y-191244004D01*
X41623233Y-191243264D01*
X41533045Y-191238131D01*
X41440787Y-191229448D01*
X41358637Y-191218062D01*
X41315852Y-191209472D01*
X41145852Y-191152534D01*
X40976986Y-191067240D01*
X40819642Y-190960299D01*
X40684202Y-190838415D01*
X40614407Y-190756457D01*
X40512259Y-190606814D01*
X40439983Y-190465157D01*
X40393839Y-190320154D01*
X40370085Y-190160468D01*
X40364724Y-190000000D01*
X40366764Y-189890885D01*
X40372805Y-189807322D01*
X40384761Y-189735844D01*
X40404547Y-189662980D01*
X40418866Y-189619187D01*
X40509318Y-189410739D01*
X40630477Y-189225634D01*
X40780224Y-189066010D01*
X40956439Y-188934010D01*
X41157005Y-188831773D01*
X41223114Y-188806696D01*
X41334844Y-188778184D01*
X41470736Y-188759903D01*
X41617025Y-188752684D01*
X41759944Y-188757356D01*
X41853669Y-188768657D01*
X42041649Y-188819565D01*
X42221627Y-188905315D01*
X42389038Y-189021826D01*
X42539315Y-189165015D01*
X42667892Y-189330800D01*
X42770203Y-189515098D01*
X42815676Y-189628769D01*
X42839862Y-189727521D01*
X42855631Y-189851170D01*
X42862601Y-189986371D01*
X43137084Y-189986371D01*
X43129080Y-189820259D01*
X43118648Y-189751252D01*
X43060541Y-189518286D01*
X42970059Y-189304919D01*
X42845439Y-189107891D01*
X42684913Y-188923940D01*
X42655132Y-188894885D01*
X42474249Y-188743935D01*
X42283837Y-188629231D01*
X42078478Y-188548158D01*
X41852752Y-188498104D01*
X41824219Y-188494081D01*
X41581934Y-188480453D01*
X41345762Y-188503295D01*
G37*
X41345762Y-188503295D02*
X41119275Y-188560725D01*
X40906042Y-188650861D01*
X40709636Y-188771823D01*
X40533628Y-188921729D01*
X40381589Y-189098696D01*
X40257089Y-189300844D01*
X40244249Y-189326541D01*
X40193712Y-189437295D01*
X40156951Y-189538132D01*
X40131999Y-189639067D01*
X40116892Y-189750114D01*
X40109665Y-189881287D01*
X40108257Y-190019538D01*
X40109141Y-190139418D01*
X40111786Y-190229550D01*
X40117274Y-190299255D01*
X40126685Y-190357855D01*
X40141101Y-190414672D01*
X40161488Y-190478692D01*
X40252320Y-190689619D01*
X40376092Y-190885212D01*
X40528345Y-191061404D01*
X40704617Y-191214128D01*
X40900450Y-191339317D01*
X41111382Y-191432904D01*
X41253751Y-191474692D01*
X41376333Y-191496312D01*
X41517661Y-191509844D01*
X41661804Y-191514540D01*
X41792831Y-191509650D01*
X41852036Y-191502835D01*
X42065147Y-191451615D01*
X42274960Y-191365903D01*
X42472932Y-191249928D01*
X42650519Y-191107922D01*
X42651575Y-191106935D01*
X42818861Y-190925473D01*
X42952401Y-190726943D01*
X43051194Y-190514250D01*
X43114239Y-190290302D01*
X43140535Y-190058003D01*
X43137084Y-189986371D01*
X42862601Y-189986371D01*
X42860389Y-190119780D01*
X42848612Y-190238052D01*
X42834995Y-190302846D01*
X42760380Y-190500843D01*
X42653427Y-190685299D01*
X42518836Y-190850554D01*
X42361307Y-190990947D01*
X42185539Y-191100816D01*
X42163640Y-191111586D01*
X42076119Y-191149895D01*
X41986608Y-191183320D01*
X41911196Y-191205990D01*
X41895231Y-191209527D01*
X41827822Y-191222939D01*
X41771304Y-191234585D01*
X41748692Y-191239505D01*
X41699174Y-191244004D01*
X41623233Y-191243264D01*
X41533045Y-191238131D01*
X41440787Y-191229448D01*
X41358637Y-191218062D01*
X41315852Y-191209472D01*
X41145852Y-191152534D01*
X40976986Y-191067240D01*
X40819642Y-190960299D01*
X40684202Y-190838415D01*
X40614407Y-190756457D01*
X40512259Y-190606814D01*
X40439983Y-190465157D01*
X40393839Y-190320154D01*
X40370085Y-190160468D01*
X40364724Y-190000000D01*
X40366764Y-189890885D01*
X40372805Y-189807322D01*
X40384761Y-189735844D01*
X40404547Y-189662980D01*
X40418866Y-189619187D01*
X40509318Y-189410739D01*
X40630477Y-189225634D01*
X40780224Y-189066010D01*
X40956439Y-188934010D01*
X41157005Y-188831773D01*
X41223114Y-188806696D01*
X41334844Y-188778184D01*
X41470736Y-188759903D01*
X41617025Y-188752684D01*
X41759944Y-188757356D01*
X41853669Y-188768657D01*
X42041649Y-188819565D01*
X42221627Y-188905315D01*
X42389038Y-189021826D01*
X42539315Y-189165015D01*
X42667892Y-189330800D01*
X42770203Y-189515098D01*
X42815676Y-189628769D01*
X42839862Y-189727521D01*
X42855631Y-189851170D01*
X42862601Y-189986371D01*
X43137084Y-189986371D01*
X43129080Y-189820259D01*
X43118648Y-189751252D01*
X43060541Y-189518286D01*
X42970059Y-189304919D01*
X42845439Y-189107891D01*
X42684913Y-188923940D01*
X42655132Y-188894885D01*
X42474249Y-188743935D01*
X42283837Y-188629231D01*
X42078478Y-188548158D01*
X41852752Y-188498104D01*
X41824219Y-188494081D01*
X41581934Y-188480453D01*
X41345762Y-188503295D01*
G36*
X38062551Y-188511587D02*
G01*
X37834872Y-188572319D01*
X37622761Y-188663945D01*
X37552602Y-188703708D01*
X37444068Y-188780779D01*
X37328792Y-188881493D01*
X37217359Y-188995134D01*
X37120353Y-189110982D01*
X37053888Y-189208692D01*
X36954077Y-189414999D01*
X36885850Y-189635241D01*
X36849306Y-189863459D01*
X36844543Y-190093698D01*
X36871660Y-190320000D01*
X36930753Y-190536409D01*
X37021923Y-190736967D01*
X37028497Y-190748509D01*
X37153060Y-190927855D01*
X37308404Y-191091903D01*
X37487535Y-191235367D01*
X37683462Y-191352963D01*
X37889193Y-191439403D01*
X37976363Y-191465024D01*
X38106088Y-191490687D01*
X38251603Y-191507309D01*
X38397718Y-191513928D01*
X38529245Y-191509587D01*
X38582701Y-191503333D01*
X38822036Y-191446757D01*
X39048814Y-191353934D01*
X39258665Y-191226800D01*
X39330318Y-191172122D01*
X39501565Y-191009450D01*
X39641960Y-190826151D01*
X39750979Y-190626239D01*
X39828098Y-190413730D01*
X39872791Y-190192639D01*
X39881016Y-190034606D01*
X39619198Y-190034606D01*
X39594064Y-190245751D01*
X39532679Y-190450690D01*
X39448267Y-190623249D01*
X39385076Y-190713441D01*
X39298995Y-190813314D01*
X39200572Y-190912322D01*
X39100350Y-190999920D01*
X39008876Y-191065561D01*
X39001557Y-191069958D01*
X38803936Y-191164254D01*
X38595157Y-191221992D01*
X38379243Y-191242623D01*
X38160214Y-191225598D01*
X38043253Y-191200863D01*
X37872303Y-191140458D01*
X37702582Y-191051041D01*
X37545288Y-190939843D01*
X37411618Y-190814097D01*
X37372085Y-190767478D01*
X37254299Y-190589023D01*
X37171467Y-190398686D01*
X37122905Y-190200620D01*
X37107932Y-189998975D01*
X37125863Y-189797904D01*
X37176017Y-189601558D01*
X37257710Y-189414089D01*
X37370259Y-189239647D01*
X37512983Y-189082385D01*
X37669918Y-188956741D01*
X37850595Y-188856346D01*
X38047052Y-188788856D01*
X38253455Y-188754622D01*
X38463972Y-188753993D01*
X38672769Y-188787319D01*
X38874013Y-188854950D01*
X38930339Y-188881134D01*
X39074147Y-188970458D01*
X39213615Y-189090242D01*
X39341458Y-189231978D01*
X39450390Y-189387160D01*
X39533123Y-189547282D01*
X39558456Y-189614411D01*
X39607517Y-189822433D01*
X39619198Y-190034606D01*
X39881016Y-190034606D01*
X39884536Y-189966982D01*
X39862808Y-189740772D01*
X39807082Y-189518025D01*
X39716833Y-189302756D01*
X39599584Y-189110151D01*
X39471384Y-188957078D01*
X39317123Y-188816554D01*
X39145551Y-188694696D01*
X38965418Y-188597626D01*
X38785476Y-188531460D01*
X38763914Y-188525788D01*
X38534579Y-188487219D01*
X38298289Y-188482853D01*
X38062551Y-188511587D01*
G37*
X38062551Y-188511587D02*
X37834872Y-188572319D01*
X37622761Y-188663945D01*
X37552602Y-188703708D01*
X37444068Y-188780779D01*
X37328792Y-188881493D01*
X37217359Y-188995134D01*
X37120353Y-189110982D01*
X37053888Y-189208692D01*
X36954077Y-189414999D01*
X36885850Y-189635241D01*
X36849306Y-189863459D01*
X36844543Y-190093698D01*
X36871660Y-190320000D01*
X36930753Y-190536409D01*
X37021923Y-190736967D01*
X37028497Y-190748509D01*
X37153060Y-190927855D01*
X37308404Y-191091903D01*
X37487535Y-191235367D01*
X37683462Y-191352963D01*
X37889193Y-191439403D01*
X37976363Y-191465024D01*
X38106088Y-191490687D01*
X38251603Y-191507309D01*
X38397718Y-191513928D01*
X38529245Y-191509587D01*
X38582701Y-191503333D01*
X38822036Y-191446757D01*
X39048814Y-191353934D01*
X39258665Y-191226800D01*
X39330318Y-191172122D01*
X39501565Y-191009450D01*
X39641960Y-190826151D01*
X39750979Y-190626239D01*
X39828098Y-190413730D01*
X39872791Y-190192639D01*
X39881016Y-190034606D01*
X39619198Y-190034606D01*
X39594064Y-190245751D01*
X39532679Y-190450690D01*
X39448267Y-190623249D01*
X39385076Y-190713441D01*
X39298995Y-190813314D01*
X39200572Y-190912322D01*
X39100350Y-190999920D01*
X39008876Y-191065561D01*
X39001557Y-191069958D01*
X38803936Y-191164254D01*
X38595157Y-191221992D01*
X38379243Y-191242623D01*
X38160214Y-191225598D01*
X38043253Y-191200863D01*
X37872303Y-191140458D01*
X37702582Y-191051041D01*
X37545288Y-190939843D01*
X37411618Y-190814097D01*
X37372085Y-190767478D01*
X37254299Y-190589023D01*
X37171467Y-190398686D01*
X37122905Y-190200620D01*
X37107932Y-189998975D01*
X37125863Y-189797904D01*
X37176017Y-189601558D01*
X37257710Y-189414089D01*
X37370259Y-189239647D01*
X37512983Y-189082385D01*
X37669918Y-188956741D01*
X37850595Y-188856346D01*
X38047052Y-188788856D01*
X38253455Y-188754622D01*
X38463972Y-188753993D01*
X38672769Y-188787319D01*
X38874013Y-188854950D01*
X38930339Y-188881134D01*
X39074147Y-188970458D01*
X39213615Y-189090242D01*
X39341458Y-189231978D01*
X39450390Y-189387160D01*
X39533123Y-189547282D01*
X39558456Y-189614411D01*
X39607517Y-189822433D01*
X39619198Y-190034606D01*
X39881016Y-190034606D01*
X39884536Y-189966982D01*
X39862808Y-189740772D01*
X39807082Y-189518025D01*
X39716833Y-189302756D01*
X39599584Y-189110151D01*
X39471384Y-188957078D01*
X39317123Y-188816554D01*
X39145551Y-188694696D01*
X38965418Y-188597626D01*
X38785476Y-188531460D01*
X38763914Y-188525788D01*
X38534579Y-188487219D01*
X38298289Y-188482853D01*
X38062551Y-188511587D01*
G36*
X41885462Y-189552643D02*
G01*
X41807960Y-189583771D01*
X41734173Y-189630000D01*
X41677964Y-189681844D01*
X41661191Y-189706135D01*
X41654405Y-189730461D01*
X41668257Y-189752581D01*
X41709064Y-189780299D01*
X41731679Y-189793211D01*
X41821809Y-189843585D01*
X41888507Y-189785023D01*
X41960737Y-189738519D01*
X42032889Y-189729439D01*
X42108372Y-189754847D01*
X42162338Y-189799575D01*
X42194410Y-189868778D01*
X42205949Y-189966390D01*
X42204160Y-190031687D01*
X42197588Y-190104710D01*
X42185977Y-190152001D01*
X42164231Y-190186901D01*
X42133179Y-190217499D01*
X42057933Y-190264544D01*
X41981404Y-190272549D01*
X41903904Y-190241518D01*
X41867775Y-190213928D01*
X41799883Y-190154317D01*
X41720557Y-190194786D01*
X41673096Y-190222496D01*
X41644755Y-190245796D01*
X41641231Y-190252736D01*
X41654834Y-190274078D01*
X41690081Y-190311448D01*
X41727998Y-190346592D01*
X41841914Y-190423137D01*
X41965441Y-190462801D01*
X42094244Y-190464942D01*
X42223988Y-190428916D01*
X42238695Y-190422334D01*
X42345027Y-190354034D01*
X42420464Y-190262318D01*
X42465242Y-190146736D01*
X42479597Y-190006835D01*
X42478269Y-189964501D01*
X42468911Y-189874717D01*
X42449251Y-189804936D01*
X42413931Y-189736398D01*
X42412411Y-189733898D01*
X42333280Y-189639869D01*
X42230981Y-189574047D01*
X42111332Y-189538433D01*
X41980151Y-189535030D01*
X41885462Y-189552643D01*
G37*
X41885462Y-189552643D02*
X41807960Y-189583771D01*
X41734173Y-189630000D01*
X41677964Y-189681844D01*
X41661191Y-189706135D01*
X41654405Y-189730461D01*
X41668257Y-189752581D01*
X41709064Y-189780299D01*
X41731679Y-189793211D01*
X41821809Y-189843585D01*
X41888507Y-189785023D01*
X41960737Y-189738519D01*
X42032889Y-189729439D01*
X42108372Y-189754847D01*
X42162338Y-189799575D01*
X42194410Y-189868778D01*
X42205949Y-189966390D01*
X42204160Y-190031687D01*
X42197588Y-190104710D01*
X42185977Y-190152001D01*
X42164231Y-190186901D01*
X42133179Y-190217499D01*
X42057933Y-190264544D01*
X41981404Y-190272549D01*
X41903904Y-190241518D01*
X41867775Y-190213928D01*
X41799883Y-190154317D01*
X41720557Y-190194786D01*
X41673096Y-190222496D01*
X41644755Y-190245796D01*
X41641231Y-190252736D01*
X41654834Y-190274078D01*
X41690081Y-190311448D01*
X41727998Y-190346592D01*
X41841914Y-190423137D01*
X41965441Y-190462801D01*
X42094244Y-190464942D01*
X42223988Y-190428916D01*
X42238695Y-190422334D01*
X42345027Y-190354034D01*
X42420464Y-190262318D01*
X42465242Y-190146736D01*
X42479597Y-190006835D01*
X42478269Y-189964501D01*
X42468911Y-189874717D01*
X42449251Y-189804936D01*
X42413931Y-189736398D01*
X42412411Y-189733898D01*
X42333280Y-189639869D01*
X42230981Y-189574047D01*
X42111332Y-189538433D01*
X41980151Y-189535030D01*
X41885462Y-189552643D01*
G36*
X41010240Y-189551947D02*
G01*
X40908378Y-189591970D01*
X40825953Y-189650711D01*
X40779557Y-189710874D01*
X40775227Y-189734377D01*
X40793686Y-189758572D01*
X40840859Y-189790489D01*
X40852388Y-189797323D01*
X40906758Y-189827060D01*
X40938765Y-189836991D01*
X40958361Y-189829280D01*
X40964922Y-189821783D01*
X41013678Y-189775036D01*
X41073913Y-189739854D01*
X41126890Y-189726461D01*
X41208245Y-189743534D01*
X41270310Y-189792865D01*
X41310986Y-189871618D01*
X41328177Y-189976958D01*
X41328616Y-189999038D01*
X41315565Y-190104520D01*
X41279697Y-190187197D01*
X41225937Y-190243996D01*
X41159213Y-190271845D01*
X41084451Y-190267673D01*
X41006578Y-190228406D01*
X40986663Y-190212275D01*
X40916888Y-190151013D01*
X40839444Y-190185935D01*
X40792090Y-190212301D01*
X40764706Y-190237249D01*
X40762000Y-190244709D01*
X40777365Y-190276272D01*
X40817095Y-190319399D01*
X40871639Y-190366241D01*
X40931448Y-190408947D01*
X40986973Y-190439670D01*
X41009070Y-190447792D01*
X41148419Y-190468493D01*
X41280352Y-190450937D01*
X41363723Y-190418395D01*
X41467214Y-190346141D01*
X41542881Y-190248191D01*
X41588536Y-190128345D01*
X41602154Y-190004694D01*
X41585124Y-189873486D01*
X41536905Y-189754228D01*
X41461800Y-189654078D01*
X41364117Y-189580196D01*
X41339475Y-189567928D01*
X41235087Y-189537553D01*
X41122242Y-189533017D01*
X41010240Y-189551947D01*
G37*
X41010240Y-189551947D02*
X40908378Y-189591970D01*
X40825953Y-189650711D01*
X40779557Y-189710874D01*
X40775227Y-189734377D01*
X40793686Y-189758572D01*
X40840859Y-189790489D01*
X40852388Y-189797323D01*
X40906758Y-189827060D01*
X40938765Y-189836991D01*
X40958361Y-189829280D01*
X40964922Y-189821783D01*
X41013678Y-189775036D01*
X41073913Y-189739854D01*
X41126890Y-189726461D01*
X41208245Y-189743534D01*
X41270310Y-189792865D01*
X41310986Y-189871618D01*
X41328177Y-189976958D01*
X41328616Y-189999038D01*
X41315565Y-190104520D01*
X41279697Y-190187197D01*
X41225937Y-190243996D01*
X41159213Y-190271845D01*
X41084451Y-190267673D01*
X41006578Y-190228406D01*
X40986663Y-190212275D01*
X40916888Y-190151013D01*
X40839444Y-190185935D01*
X40792090Y-190212301D01*
X40764706Y-190237249D01*
X40762000Y-190244709D01*
X40777365Y-190276272D01*
X40817095Y-190319399D01*
X40871639Y-190366241D01*
X40931448Y-190408947D01*
X40986973Y-190439670D01*
X41009070Y-190447792D01*
X41148419Y-190468493D01*
X41280352Y-190450937D01*
X41363723Y-190418395D01*
X41467214Y-190346141D01*
X41542881Y-190248191D01*
X41588536Y-190128345D01*
X41602154Y-190004694D01*
X41585124Y-189873486D01*
X41536905Y-189754228D01*
X41461800Y-189654078D01*
X41364117Y-189580196D01*
X41339475Y-189567928D01*
X41235087Y-189537553D01*
X41122242Y-189533017D01*
X41010240Y-189551947D01*
G36*
X38281189Y-189133741D02*
G01*
X38216567Y-189141437D01*
X38158500Y-189159197D01*
X38099562Y-189185884D01*
X37984604Y-189261996D01*
X37892347Y-189366970D01*
X37822002Y-189502151D01*
X37772779Y-189668883D01*
X37754570Y-189773464D01*
X37738268Y-189927178D01*
X37736482Y-190063482D01*
X37749484Y-190201356D01*
X37761779Y-190277732D01*
X37806600Y-190451964D01*
X37873289Y-190598191D01*
X37960509Y-190714342D01*
X38066924Y-190798346D01*
X38112792Y-190821706D01*
X38205941Y-190850276D01*
X38318276Y-190866619D01*
X38431329Y-190868967D01*
X38509283Y-190859705D01*
X38584600Y-190839781D01*
X38646195Y-190811095D01*
X38709094Y-190765485D01*
X38752785Y-190727434D01*
X38842941Y-190622255D01*
X38910807Y-190489080D01*
X38921390Y-190451694D01*
X38515077Y-190451694D01*
X38498366Y-190498731D01*
X38454685Y-190530658D01*
X38393708Y-190545931D01*
X38325111Y-190543004D01*
X38258571Y-190520334D01*
X38225245Y-190497962D01*
X38183099Y-190448793D01*
X38145795Y-190382909D01*
X38135151Y-190356308D01*
X38115890Y-190277223D01*
X38101250Y-190173359D01*
X38092197Y-190058843D01*
X38089697Y-189947802D01*
X38094716Y-189854362D01*
X38098892Y-189825889D01*
X38115027Y-189739702D01*
X38315052Y-190083738D01*
X38375656Y-190189104D01*
X38428881Y-190283798D01*
X38471760Y-190362368D01*
X38501331Y-190419360D01*
X38514629Y-190449321D01*
X38515077Y-190451694D01*
X38921390Y-190451694D01*
X38956836Y-190326483D01*
X38981480Y-190133041D01*
X38984805Y-190034984D01*
X38638146Y-190034984D01*
X38636185Y-190095716D01*
X38634167Y-190141666D01*
X38631418Y-190174212D01*
X38625578Y-190190645D01*
X38614288Y-190188254D01*
X38595189Y-190164330D01*
X38565921Y-190116164D01*
X38524124Y-190041045D01*
X38467438Y-189936263D01*
X38418921Y-189846196D01*
X38359859Y-189735619D01*
X38317835Y-189653656D01*
X38290655Y-189594906D01*
X38276125Y-189553967D01*
X38272053Y-189525434D01*
X38276246Y-189503908D01*
X38278145Y-189499389D01*
X38314080Y-189463197D01*
X38372173Y-189452645D01*
X38444564Y-189468352D01*
X38478683Y-189483617D01*
X38535785Y-189534136D01*
X38581276Y-189618397D01*
X38614163Y-189732535D01*
X38633451Y-189872686D01*
X38638146Y-190034984D01*
X38984805Y-190034984D01*
X38986238Y-189992731D01*
X38975312Y-189779678D01*
X38940721Y-189597138D01*
X38882214Y-189444339D01*
X38799538Y-189320506D01*
X38751492Y-189271396D01*
X38666009Y-189204584D01*
X38579519Y-189162242D01*
X38479434Y-189139819D01*
X38368539Y-189132925D01*
X38281189Y-189133741D01*
G37*
X38281189Y-189133741D02*
X38216567Y-189141437D01*
X38158500Y-189159197D01*
X38099562Y-189185884D01*
X37984604Y-189261996D01*
X37892347Y-189366970D01*
X37822002Y-189502151D01*
X37772779Y-189668883D01*
X37754570Y-189773464D01*
X37738268Y-189927178D01*
X37736482Y-190063482D01*
X37749484Y-190201356D01*
X37761779Y-190277732D01*
X37806600Y-190451964D01*
X37873289Y-190598191D01*
X37960509Y-190714342D01*
X38066924Y-190798346D01*
X38112792Y-190821706D01*
X38205941Y-190850276D01*
X38318276Y-190866619D01*
X38431329Y-190868967D01*
X38509283Y-190859705D01*
X38584600Y-190839781D01*
X38646195Y-190811095D01*
X38709094Y-190765485D01*
X38752785Y-190727434D01*
X38842941Y-190622255D01*
X38910807Y-190489080D01*
X38921390Y-190451694D01*
X38515077Y-190451694D01*
X38498366Y-190498731D01*
X38454685Y-190530658D01*
X38393708Y-190545931D01*
X38325111Y-190543004D01*
X38258571Y-190520334D01*
X38225245Y-190497962D01*
X38183099Y-190448793D01*
X38145795Y-190382909D01*
X38135151Y-190356308D01*
X38115890Y-190277223D01*
X38101250Y-190173359D01*
X38092197Y-190058843D01*
X38089697Y-189947802D01*
X38094716Y-189854362D01*
X38098892Y-189825889D01*
X38115027Y-189739702D01*
X38315052Y-190083738D01*
X38375656Y-190189104D01*
X38428881Y-190283798D01*
X38471760Y-190362368D01*
X38501331Y-190419360D01*
X38514629Y-190449321D01*
X38515077Y-190451694D01*
X38921390Y-190451694D01*
X38956836Y-190326483D01*
X38981480Y-190133041D01*
X38984805Y-190034984D01*
X38638146Y-190034984D01*
X38636185Y-190095716D01*
X38634167Y-190141666D01*
X38631418Y-190174212D01*
X38625578Y-190190645D01*
X38614288Y-190188254D01*
X38595189Y-190164330D01*
X38565921Y-190116164D01*
X38524124Y-190041045D01*
X38467438Y-189936263D01*
X38418921Y-189846196D01*
X38359859Y-189735619D01*
X38317835Y-189653656D01*
X38290655Y-189594906D01*
X38276125Y-189553967D01*
X38272053Y-189525434D01*
X38276246Y-189503908D01*
X38278145Y-189499389D01*
X38314080Y-189463197D01*
X38372173Y-189452645D01*
X38444564Y-189468352D01*
X38478683Y-189483617D01*
X38535785Y-189534136D01*
X38581276Y-189618397D01*
X38614163Y-189732535D01*
X38633451Y-189872686D01*
X38638146Y-190034984D01*
X38984805Y-190034984D01*
X38986238Y-189992731D01*
X38975312Y-189779678D01*
X38940721Y-189597138D01*
X38882214Y-189444339D01*
X38799538Y-189320506D01*
X38751492Y-189271396D01*
X38666009Y-189204584D01*
X38579519Y-189162242D01*
X38479434Y-189139819D01*
X38368539Y-189132925D01*
X38281189Y-189133741D01*
M02*
