M48
; DRILL file {KiCad 5.1.12-84ad8e8a86~92~ubuntu20.04.1} date Sat 13 Nov 2021 03:59:29 PM EST
; FORMAT={-:-/ absolute / inch / decimal}
; #@! TF.CreationDate,2021-11-13T15:59:29-05:00
; #@! TF.GenerationSoftware,Kicad,Pcbnew,5.1.12-84ad8e8a86~92~ubuntu20.04.1
; #@! TF.FileFunction,Plated,1,2,PTH
FMAT,2
INCH
T1C0.1260
T2C0.1969
T3C0.2756
T4C0.3937
T5C0.5984
%
G90
G05
T2
X0.9843Y-6.6929
X0.9843Y-7.0866
X2.9528Y-6.6929
X2.9528Y-7.0866
T3
X1.4764Y-1.1811
X1.4764Y-2.3622
X1.4764Y-3.5433
X1.4764Y-4.7244
X2.9528Y-3.5433
X2.9528Y-4.7244
T4
X0.4921Y-1.1811
X0.4921Y-2.3622
X0.4921Y-3.5433
X0.4921Y-4.7244
X0.4921Y-6.8898
X1.4764Y-6.8898
X2.4606Y-6.8898
X3.4449Y-6.8898
T5
X0.4921Y-5.9055
X1.4764Y-5.9055
T1
G00X0.1181Y-0.1181
M15
G01X0.2283Y-0.1181
M16
G05
G00X0.1181Y-7.7559
M15
G01X0.2283Y-7.7559
M16
G05
G00X3.7087Y-0.1181
M15
G01X3.8189Y-0.1181
M16
G05
G00X3.7087Y-7.7559
M15
G01X3.8189Y-7.7559
M16
G05
T0
M30
