M48
; DRILL file {KiCad 5.1.12-84ad8e8a86~92~ubuntu20.04.1} date Sat 13 Nov 2021 04:11:22 PM EST
; FORMAT={-:-/ absolute / inch / decimal}
; #@! TF.CreationDate,2021-11-13T16:11:22-05:00
; #@! TF.GenerationSoftware,Kicad,Pcbnew,5.1.12-84ad8e8a86~92~ubuntu20.04.1
; #@! TF.FileFunction,Plated,1,2,PTH
FMAT,2
INCH
T1C0.0157
T2C0.0315
T3C0.0354
T4C0.0394
T5C0.0400
T6C0.0433
T7C0.0472
%
G90
G05
T1
X2.789Y-4.3757
T2
X1.174Y-5.6657
X1.174Y-6.0657
X1.424Y-5.6657
X1.424Y-5.7657
X1.424Y-5.8657
X1.424Y-6.0157
X1.424Y-6.4157
X1.624Y-5.5657
X1.624Y-5.8657
X1.624Y-6.0157
X1.624Y-6.4157
X1.824Y-6.0157
X1.824Y-6.4157
X2.024Y-6.0157
X2.024Y-6.4157
X2.274Y-5.6657
X2.274Y-6.0657
X2.4756Y-1.1157
X2.524Y-5.6657
X2.524Y-5.7657
X2.524Y-5.8657
X2.524Y-6.0157
X2.524Y-6.4157
X2.574Y-1.1157
X2.574Y-1.4157
X2.574Y-1.5142
X2.574Y-2.1157
X2.574Y-2.7157
X2.574Y-3.3157
X2.574Y-3.9157
X2.674Y-1.4157
X2.724Y-5.5657
X2.724Y-5.8657
X2.724Y-6.0157
X2.724Y-6.4157
X2.774Y-1.4157
X2.874Y-1.4157
X2.974Y-1.4157
X2.974Y-1.5142
X2.974Y-2.1157
X2.974Y-2.7157
X2.974Y-3.3157
X2.974Y-3.9157
X3.3756Y-4.3681
X3.3756Y-4.6681
X3.3756Y-4.7681
X3.3756Y-4.8681
X3.3756Y-4.9681
X3.474Y-4.3681
X3.474Y-4.6681
X3.474Y-4.7681
X3.474Y-4.8681
X3.474Y-4.9681
X3.574Y-6.0157
X3.574Y-6.4157
X3.624Y-3.8681
X3.624Y-3.9681
X3.624Y-4.0681
X3.624Y-4.1681
X3.624Y-4.2681
X3.624Y-4.3681
X3.624Y-4.4681
X3.624Y-4.5681
X3.624Y-4.6681
X3.624Y-4.7681
X3.624Y-4.8681
X3.624Y-4.9681
X3.624Y-5.0681
X3.624Y-5.1681
X3.624Y-5.2681
X3.774Y-6.0157
X3.774Y-6.4157
X4.074Y-6.0157
X4.074Y-6.4157
X4.224Y-3.8681
X4.224Y-3.9681
X4.224Y-4.0681
X4.224Y-4.1681
X4.224Y-4.2681
X4.224Y-4.3681
X4.224Y-4.4681
X4.224Y-4.5681
X4.224Y-4.6681
X4.224Y-4.7681
X4.224Y-4.8681
X4.224Y-4.9681
X4.224Y-5.0681
X4.224Y-5.1681
X4.224Y-5.2681
X4.274Y-6.0157
X4.274Y-6.4157
T3
X1.8409Y-6.7756
X1.8409Y-7.1654
X1.9409Y-6.7756
X1.9409Y-7.1654
X3.8094Y-6.7717
X3.8094Y-7.1654
X3.9094Y-6.7717
X3.9094Y-7.1654
T4
X1.874Y-2.5157
X1.874Y-2.6157
X1.874Y-2.7157
X1.874Y-2.8157
X1.874Y-2.9157
X1.874Y-3.0157
X1.874Y-3.1157
X1.874Y-3.2157
X1.874Y-3.3157
X1.874Y-3.4157
X1.874Y-3.5157
X1.874Y-3.6157
X3.674Y-3.4181
X3.774Y-3.4181
X3.874Y-3.4181
X3.974Y-3.4181
T5
X2.224Y-1.5657
X2.224Y-1.6657
X2.224Y-1.7657
X2.224Y-1.8657
X2.224Y-1.9657
X2.324Y-1.5657
X2.324Y-1.6657
X2.324Y-1.7657
X2.324Y-1.8657
X2.324Y-1.9657
T6
X2.574Y-1.7157
X2.574Y-1.9157
X2.574Y-2.3181
X2.574Y-2.5157
X2.574Y-2.9181
X2.574Y-3.1157
X2.574Y-3.5181
X2.574Y-3.7157
X2.574Y-4.1181
X2.974Y-1.7157
X2.974Y-1.9157
X2.974Y-2.3181
X2.974Y-2.5157
X2.974Y-2.9181
X2.974Y-3.1157
X2.974Y-3.5181
X2.974Y-3.7157
X2.974Y-4.1181
X3.374Y-6.0157
X3.374Y-6.4157
X4.474Y-6.0157
X4.474Y-6.4157
T7
X1.124Y-6.4157
X1.224Y-6.4157
X2.224Y-6.4157
X2.324Y-6.4157
T4
G00X1.1457Y-1.128
M15
G01X1.1457Y-1.1949
M16
G05
G00X1.1457Y-2.3091
M15
G01X1.1457Y-2.376
M16
G05
G00X1.1457Y-3.4902
M15
G01X1.1457Y-3.5571
M16
G05
G00X1.1457Y-4.6713
M15
G01X1.1457Y-4.7382
M16
G05
G00X1.1457Y-6.8366
M15
G01X1.1457Y-6.9035
M16
G05
G00X1.1874Y-1.4228
M15
G01X1.2347Y-1.4701
M16
G05
G00X1.1874Y-2.6039
M15
G01X1.2347Y-2.6512
M16
G05
G00X1.1874Y-3.785
M15
G01X1.2347Y-3.8323
M16
G05
G00X1.1874Y-4.9661
M15
G01X1.2347Y-5.0134
M16
G05
G00X1.1874Y-7.1315
M15
G01X1.2347Y-7.1788
M16
G05
G00X1.4114Y-1.0079
M15
G01X1.3445Y-1.0079
M16
G05
G00X1.4114Y-2.189
M15
G01X1.3445Y-2.189
M16
G05
G00X1.4114Y-3.3701
M15
G01X1.3445Y-3.3701
M16
G05
G00X1.4114Y-4.5512
M15
G01X1.3445Y-4.5512
M16
G05
G00X1.4114Y-6.7165
M15
G01X1.3445Y-6.7165
M16
G05
G00X1.5295Y-1.5118
M15
G01X1.4626Y-1.5118
M16
G05
G00X1.5295Y-2.6929
M15
G01X1.4626Y-2.6929
M16
G05
G00X1.5295Y-3.874
M15
G01X1.4626Y-3.874
M16
G05
G00X1.5295Y-5.0551
M15
G01X1.4626Y-5.0551
M16
G05
G00X1.5295Y-7.2205
M15
G01X1.4626Y-7.2205
M16
G05
G00X1.6496Y-1.2461
M15
G01X1.6496Y-1.313
M16
G05
G00X1.6496Y-2.4272
M15
G01X1.6496Y-2.4941
M16
G05
G00X1.6496Y-3.6083
M15
G01X1.6496Y-3.6752
M16
G05
G00X1.6496Y-4.7894
M15
G01X1.6496Y-4.8563
M16
G05
G00X1.6496Y-6.9547
M15
G01X1.6496Y-7.0217
M16
G05
G00X2.1299Y-6.8366
M15
G01X2.1299Y-6.9035
M16
G05
G00X2.1716Y-7.1315
M15
G01X2.2189Y-7.1788
M16
G05
G00X2.3957Y-6.7165
M15
G01X2.3287Y-6.7165
M16
G05
G00X2.5138Y-7.2205
M15
G01X2.4469Y-7.2205
M16
G05
G00X2.6339Y-6.9547
M15
G01X2.6339Y-7.0217
M16
G05
G00X3.1142Y-6.8366
M15
G01X3.1142Y-6.9035
M16
G05
G00X3.1559Y-7.1315
M15
G01X3.2032Y-7.1788
M16
G05
G00X3.3799Y-6.7165
M15
G01X3.313Y-6.7165
M16
G05
G00X3.498Y-7.2205
M15
G01X3.4311Y-7.2205
M16
G05
G00X3.6181Y-6.9547
M15
G01X3.6181Y-7.0217
M16
G05
G00X4.0984Y-6.8366
M15
G01X4.0984Y-6.9035
M16
G05
G00X4.1401Y-7.1315
M15
G01X4.1874Y-7.1788
M16
G05
G00X4.3642Y-6.7165
M15
G01X4.2972Y-6.7165
M16
G05
G00X4.4823Y-7.2205
M15
G01X4.4154Y-7.2205
M16
G05
G00X4.6024Y-6.9547
M15
G01X4.6024Y-7.0217
M16
G05
T0
M30
