%TF.GenerationSoftware,KiCad,Pcbnew,5.1.12-84ad8e8a86~92~ubuntu20.04.1*%
%TF.CreationDate,2021-11-13T16:11:19-05:00*%
%TF.ProjectId,gearseq,67656172-7365-4712-9e6b-696361645f70,rev?*%
%TF.SameCoordinates,Original*%
%TF.FileFunction,Legend,Top*%
%TF.FilePolarity,Positive*%
%FSLAX46Y46*%
G04 Gerber Fmt 4.6, Leading zero omitted, Abs format (unit mm)*
G04 Created by KiCad (PCBNEW 5.1.12-84ad8e8a86~92~ubuntu20.04.1) date 2021-11-13 16:11:19*
%MOMM*%
%LPD*%
G01*
G04 APERTURE LIST*
%ADD10C,0.150000*%
%ADD11C,0.120000*%
G04 APERTURE END LIST*
D10*
X50234557Y-97223571D02*
X50341700Y-97259285D01*
X50520271Y-97259285D01*
X50591700Y-97223571D01*
X50627414Y-97187857D01*
X50663128Y-97116428D01*
X50663128Y-97045000D01*
X50627414Y-96973571D01*
X50591700Y-96937857D01*
X50520271Y-96902142D01*
X50377414Y-96866428D01*
X50305985Y-96830714D01*
X50270271Y-96795000D01*
X50234557Y-96723571D01*
X50234557Y-96652142D01*
X50270271Y-96580714D01*
X50305985Y-96545000D01*
X50377414Y-96509285D01*
X50555985Y-96509285D01*
X50663128Y-96545000D01*
X50877414Y-96759285D02*
X51163128Y-96759285D01*
X50984557Y-96509285D02*
X50984557Y-97152142D01*
X51020271Y-97223571D01*
X51091700Y-97259285D01*
X51163128Y-97259285D01*
X51698842Y-97223571D02*
X51627414Y-97259285D01*
X51484557Y-97259285D01*
X51413128Y-97223571D01*
X51377414Y-97152142D01*
X51377414Y-96866428D01*
X51413128Y-96795000D01*
X51484557Y-96759285D01*
X51627414Y-96759285D01*
X51698842Y-96795000D01*
X51734557Y-96866428D01*
X51734557Y-96937857D01*
X51377414Y-97009285D01*
X52055985Y-96759285D02*
X52055985Y-97509285D01*
X52055985Y-96795000D02*
X52127414Y-96759285D01*
X52270271Y-96759285D01*
X52341700Y-96795000D01*
X52377414Y-96830714D01*
X52413128Y-96902142D01*
X52413128Y-97116428D01*
X52377414Y-97187857D01*
X52341700Y-97223571D01*
X52270271Y-97259285D01*
X52127414Y-97259285D01*
X52055985Y-97223571D01*
X53305985Y-97259285D02*
X53305985Y-96509285D01*
X53305985Y-96795000D02*
X53377414Y-96759285D01*
X53520271Y-96759285D01*
X53591700Y-96795000D01*
X53627414Y-96830714D01*
X53663128Y-96902142D01*
X53663128Y-97116428D01*
X53627414Y-97187857D01*
X53591700Y-97223571D01*
X53520271Y-97259285D01*
X53377414Y-97259285D01*
X53305985Y-97223571D01*
X53877414Y-96759285D02*
X54163128Y-96759285D01*
X53984557Y-96509285D02*
X53984557Y-97152142D01*
X54020271Y-97223571D01*
X54091700Y-97259285D01*
X54163128Y-97259285D01*
X54413128Y-96759285D02*
X54413128Y-97259285D01*
X54413128Y-96830714D02*
X54448842Y-96795000D01*
X54520271Y-96759285D01*
X54627414Y-96759285D01*
X54698842Y-96795000D01*
X54734557Y-96866428D01*
X54734557Y-97259285D01*
X50698842Y-94719285D02*
X50448842Y-94362142D01*
X50270271Y-94719285D02*
X50270271Y-93969285D01*
X50555985Y-93969285D01*
X50627414Y-94005000D01*
X50663128Y-94040714D01*
X50698842Y-94112142D01*
X50698842Y-94219285D01*
X50663128Y-94290714D01*
X50627414Y-94326428D01*
X50555985Y-94362142D01*
X50270271Y-94362142D01*
X51305985Y-94683571D02*
X51234557Y-94719285D01*
X51091700Y-94719285D01*
X51020271Y-94683571D01*
X50984557Y-94612142D01*
X50984557Y-94326428D01*
X51020271Y-94255000D01*
X51091700Y-94219285D01*
X51234557Y-94219285D01*
X51305985Y-94255000D01*
X51341700Y-94326428D01*
X51341700Y-94397857D01*
X50984557Y-94469285D01*
X51627414Y-94683571D02*
X51698842Y-94719285D01*
X51841700Y-94719285D01*
X51913128Y-94683571D01*
X51948842Y-94612142D01*
X51948842Y-94576428D01*
X51913128Y-94505000D01*
X51841700Y-94469285D01*
X51734557Y-94469285D01*
X51663128Y-94433571D01*
X51627414Y-94362142D01*
X51627414Y-94326428D01*
X51663128Y-94255000D01*
X51734557Y-94219285D01*
X51841700Y-94219285D01*
X51913128Y-94255000D01*
X52555985Y-94683571D02*
X52484557Y-94719285D01*
X52341700Y-94719285D01*
X52270271Y-94683571D01*
X52234557Y-94612142D01*
X52234557Y-94326428D01*
X52270271Y-94255000D01*
X52341700Y-94219285D01*
X52484557Y-94219285D01*
X52555985Y-94255000D01*
X52591700Y-94326428D01*
X52591700Y-94397857D01*
X52234557Y-94469285D01*
X52805985Y-94219285D02*
X53091700Y-94219285D01*
X52913128Y-93969285D02*
X52913128Y-94612142D01*
X52948842Y-94683571D01*
X53020271Y-94719285D01*
X53091700Y-94719285D01*
X53913128Y-94719285D02*
X53913128Y-93969285D01*
X53913128Y-94255000D02*
X53984557Y-94219285D01*
X54127414Y-94219285D01*
X54198842Y-94255000D01*
X54234557Y-94290714D01*
X54270271Y-94362142D01*
X54270271Y-94576428D01*
X54234557Y-94647857D01*
X54198842Y-94683571D01*
X54127414Y-94719285D01*
X53984557Y-94719285D01*
X53913128Y-94683571D01*
X54484557Y-94219285D02*
X54770271Y-94219285D01*
X54591700Y-93969285D02*
X54591700Y-94612142D01*
X54627414Y-94683571D01*
X54698842Y-94719285D01*
X54770271Y-94719285D01*
X55020271Y-94219285D02*
X55020271Y-94719285D01*
X55020271Y-94290714D02*
X55055985Y-94255000D01*
X55127414Y-94219285D01*
X55234557Y-94219285D01*
X55305985Y-94255000D01*
X55341700Y-94326428D01*
X55341700Y-94719285D01*
X50289071Y-82146285D02*
X50289071Y-81396285D01*
X50467642Y-81396285D01*
X50574785Y-81432000D01*
X50646214Y-81503428D01*
X50681928Y-81574857D01*
X50717642Y-81717714D01*
X50717642Y-81824857D01*
X50681928Y-81967714D01*
X50646214Y-82039142D01*
X50574785Y-82110571D01*
X50467642Y-82146285D01*
X50289071Y-82146285D01*
X51039071Y-82146285D02*
X51039071Y-81646285D01*
X51039071Y-81396285D02*
X51003357Y-81432000D01*
X51039071Y-81467714D01*
X51074785Y-81432000D01*
X51039071Y-81396285D01*
X51039071Y-81467714D01*
X51360500Y-82110571D02*
X51431928Y-82146285D01*
X51574785Y-82146285D01*
X51646214Y-82110571D01*
X51681928Y-82039142D01*
X51681928Y-82003428D01*
X51646214Y-81932000D01*
X51574785Y-81896285D01*
X51467642Y-81896285D01*
X51396214Y-81860571D01*
X51360500Y-81789142D01*
X51360500Y-81753428D01*
X51396214Y-81682000D01*
X51467642Y-81646285D01*
X51574785Y-81646285D01*
X51646214Y-81682000D01*
X52003357Y-81646285D02*
X52003357Y-82396285D01*
X52003357Y-81682000D02*
X52074785Y-81646285D01*
X52217642Y-81646285D01*
X52289071Y-81682000D01*
X52324785Y-81717714D01*
X52360500Y-81789142D01*
X52360500Y-82003428D01*
X52324785Y-82074857D01*
X52289071Y-82110571D01*
X52217642Y-82146285D01*
X52074785Y-82146285D01*
X52003357Y-82110571D01*
X53217642Y-82110571D02*
X53289071Y-82146285D01*
X53431928Y-82146285D01*
X53503357Y-82110571D01*
X53539071Y-82039142D01*
X53539071Y-82003428D01*
X53503357Y-81932000D01*
X53431928Y-81896285D01*
X53324785Y-81896285D01*
X53253357Y-81860571D01*
X53217642Y-81789142D01*
X53217642Y-81753428D01*
X53253357Y-81682000D01*
X53324785Y-81646285D01*
X53431928Y-81646285D01*
X53503357Y-81682000D01*
X53789071Y-81646285D02*
X53931928Y-82146285D01*
X54074785Y-81789142D01*
X54217642Y-82146285D01*
X54360500Y-81646285D01*
X47706561Y-186789533D02*
X47658942Y-186741914D01*
X47563704Y-186599057D01*
X47516085Y-186503819D01*
X47468466Y-186360961D01*
X47420847Y-186122866D01*
X47420847Y-185932390D01*
X47468466Y-185694295D01*
X47516085Y-185551438D01*
X47563704Y-185456200D01*
X47658942Y-185313342D01*
X47706561Y-185265723D01*
X48658942Y-186408580D02*
X48325609Y-185932390D01*
X48087514Y-186408580D02*
X48087514Y-185408580D01*
X48468466Y-185408580D01*
X48563704Y-185456200D01*
X48611323Y-185503819D01*
X48658942Y-185599057D01*
X48658942Y-185741914D01*
X48611323Y-185837152D01*
X48563704Y-185884771D01*
X48468466Y-185932390D01*
X48087514Y-185932390D01*
X49087514Y-185884771D02*
X49420847Y-185884771D01*
X49563704Y-186408580D02*
X49087514Y-186408580D01*
X49087514Y-185408580D01*
X49563704Y-185408580D01*
X49992276Y-186408580D02*
X49992276Y-185408580D01*
X50230371Y-185408580D01*
X50373228Y-185456200D01*
X50468466Y-185551438D01*
X50516085Y-185646676D01*
X50563704Y-185837152D01*
X50563704Y-185980009D01*
X50516085Y-186170485D01*
X50468466Y-186265723D01*
X50373228Y-186360961D01*
X50230371Y-186408580D01*
X49992276Y-186408580D01*
X50897038Y-186789533D02*
X50944657Y-186741914D01*
X51039895Y-186599057D01*
X51087514Y-186503819D01*
X51135133Y-186360961D01*
X51182752Y-186122866D01*
X51182752Y-185932390D01*
X51135133Y-185694295D01*
X51087514Y-185551438D01*
X51039895Y-185456200D01*
X50944657Y-185313342D01*
X50897038Y-185265723D01*
X50238271Y-84622785D02*
X50238271Y-83872785D01*
X50523985Y-83872785D01*
X50595414Y-83908500D01*
X50631128Y-83944214D01*
X50666842Y-84015642D01*
X50666842Y-84122785D01*
X50631128Y-84194214D01*
X50595414Y-84229928D01*
X50523985Y-84265642D01*
X50238271Y-84265642D01*
X51095414Y-84622785D02*
X51023985Y-84587071D01*
X50988271Y-84551357D01*
X50952557Y-84479928D01*
X50952557Y-84265642D01*
X50988271Y-84194214D01*
X51023985Y-84158500D01*
X51095414Y-84122785D01*
X51202557Y-84122785D01*
X51273985Y-84158500D01*
X51309700Y-84194214D01*
X51345414Y-84265642D01*
X51345414Y-84479928D01*
X51309700Y-84551357D01*
X51273985Y-84587071D01*
X51202557Y-84622785D01*
X51095414Y-84622785D01*
X51559700Y-84122785D02*
X51845414Y-84122785D01*
X51666842Y-83872785D02*
X51666842Y-84515642D01*
X51702557Y-84587071D01*
X51773985Y-84622785D01*
X51845414Y-84622785D01*
X52631128Y-83944214D02*
X52666842Y-83908500D01*
X52738271Y-83872785D01*
X52916842Y-83872785D01*
X52988271Y-83908500D01*
X53023985Y-83944214D01*
X53059700Y-84015642D01*
X53059700Y-84087071D01*
X53023985Y-84194214D01*
X52595414Y-84622785D01*
X53059700Y-84622785D01*
X54273985Y-84587071D02*
X54202557Y-84622785D01*
X54059700Y-84622785D01*
X53988271Y-84587071D01*
X53952557Y-84551357D01*
X53916842Y-84479928D01*
X53916842Y-84265642D01*
X53952557Y-84194214D01*
X53988271Y-84158500D01*
X54059700Y-84122785D01*
X54202557Y-84122785D01*
X54273985Y-84158500D01*
X54523985Y-84122785D02*
X54666842Y-84622785D01*
X54809700Y-84265642D01*
X54952557Y-84622785D01*
X55095414Y-84122785D01*
X50321071Y-74399285D02*
X50321071Y-73649285D01*
X50606785Y-73649285D01*
X50678214Y-73685000D01*
X50713928Y-73720714D01*
X50749642Y-73792142D01*
X50749642Y-73899285D01*
X50713928Y-73970714D01*
X50678214Y-74006428D01*
X50606785Y-74042142D01*
X50321071Y-74042142D01*
X51178214Y-74399285D02*
X51106785Y-74363571D01*
X51071071Y-74327857D01*
X51035357Y-74256428D01*
X51035357Y-74042142D01*
X51071071Y-73970714D01*
X51106785Y-73935000D01*
X51178214Y-73899285D01*
X51285357Y-73899285D01*
X51356785Y-73935000D01*
X51392500Y-73970714D01*
X51428214Y-74042142D01*
X51428214Y-74256428D01*
X51392500Y-74327857D01*
X51356785Y-74363571D01*
X51285357Y-74399285D01*
X51178214Y-74399285D01*
X51642500Y-73899285D02*
X51928214Y-73899285D01*
X51749642Y-73649285D02*
X51749642Y-74292142D01*
X51785357Y-74363571D01*
X51856785Y-74399285D01*
X51928214Y-74399285D01*
X52678214Y-73649285D02*
X53142500Y-73649285D01*
X52892500Y-73935000D01*
X52999642Y-73935000D01*
X53071071Y-73970714D01*
X53106785Y-74006428D01*
X53142500Y-74077857D01*
X53142500Y-74256428D01*
X53106785Y-74327857D01*
X53071071Y-74363571D01*
X52999642Y-74399285D01*
X52785357Y-74399285D01*
X52713928Y-74363571D01*
X52678214Y-74327857D01*
X54356785Y-74363571D02*
X54285357Y-74399285D01*
X54142500Y-74399285D01*
X54071071Y-74363571D01*
X54035357Y-74327857D01*
X53999642Y-74256428D01*
X53999642Y-74042142D01*
X54035357Y-73970714D01*
X54071071Y-73935000D01*
X54142500Y-73899285D01*
X54285357Y-73899285D01*
X54356785Y-73935000D01*
X54606785Y-73899285D02*
X54749642Y-74399285D01*
X54892500Y-74042142D01*
X55035357Y-74399285D01*
X55178214Y-73899285D01*
X50321071Y-69319285D02*
X50321071Y-68569285D01*
X50606785Y-68569285D01*
X50678214Y-68605000D01*
X50713928Y-68640714D01*
X50749642Y-68712142D01*
X50749642Y-68819285D01*
X50713928Y-68890714D01*
X50678214Y-68926428D01*
X50606785Y-68962142D01*
X50321071Y-68962142D01*
X51178214Y-69319285D02*
X51106785Y-69283571D01*
X51071071Y-69247857D01*
X51035357Y-69176428D01*
X51035357Y-68962142D01*
X51071071Y-68890714D01*
X51106785Y-68855000D01*
X51178214Y-68819285D01*
X51285357Y-68819285D01*
X51356785Y-68855000D01*
X51392500Y-68890714D01*
X51428214Y-68962142D01*
X51428214Y-69176428D01*
X51392500Y-69247857D01*
X51356785Y-69283571D01*
X51285357Y-69319285D01*
X51178214Y-69319285D01*
X51642500Y-68819285D02*
X51928214Y-68819285D01*
X51749642Y-68569285D02*
X51749642Y-69212142D01*
X51785357Y-69283571D01*
X51856785Y-69319285D01*
X51928214Y-69319285D01*
X53142500Y-69319285D02*
X52713928Y-69319285D01*
X52928214Y-69319285D02*
X52928214Y-68569285D01*
X52856785Y-68676428D01*
X52785357Y-68747857D01*
X52713928Y-68783571D01*
X54356785Y-69283571D02*
X54285357Y-69319285D01*
X54142500Y-69319285D01*
X54071071Y-69283571D01*
X54035357Y-69247857D01*
X53999642Y-69176428D01*
X53999642Y-68962142D01*
X54035357Y-68890714D01*
X54071071Y-68855000D01*
X54142500Y-68819285D01*
X54285357Y-68819285D01*
X54356785Y-68855000D01*
X54606785Y-68819285D02*
X54749642Y-69319285D01*
X54892500Y-68962142D01*
X55035357Y-69319285D01*
X55178214Y-68819285D01*
X50213928Y-66029285D02*
X50463928Y-66779285D01*
X50713928Y-66029285D01*
X51392500Y-66707857D02*
X51356785Y-66743571D01*
X51249642Y-66779285D01*
X51178214Y-66779285D01*
X51071071Y-66743571D01*
X50999642Y-66672142D01*
X50963928Y-66600714D01*
X50928214Y-66457857D01*
X50928214Y-66350714D01*
X50963928Y-66207857D01*
X50999642Y-66136428D01*
X51071071Y-66065000D01*
X51178214Y-66029285D01*
X51249642Y-66029285D01*
X51356785Y-66065000D01*
X51392500Y-66100714D01*
X52142500Y-66707857D02*
X52106785Y-66743571D01*
X51999642Y-66779285D01*
X51928214Y-66779285D01*
X51821071Y-66743571D01*
X51749642Y-66672142D01*
X51713928Y-66600714D01*
X51678214Y-66457857D01*
X51678214Y-66350714D01*
X51713928Y-66207857D01*
X51749642Y-66136428D01*
X51821071Y-66065000D01*
X51928214Y-66029285D01*
X51999642Y-66029285D01*
X52106785Y-66065000D01*
X52142500Y-66100714D01*
X50321071Y-76939285D02*
X50321071Y-76189285D01*
X50606785Y-76189285D01*
X50678214Y-76225000D01*
X50713928Y-76260714D01*
X50749642Y-76332142D01*
X50749642Y-76439285D01*
X50713928Y-76510714D01*
X50678214Y-76546428D01*
X50606785Y-76582142D01*
X50321071Y-76582142D01*
X51178214Y-76939285D02*
X51106785Y-76903571D01*
X51071071Y-76867857D01*
X51035357Y-76796428D01*
X51035357Y-76582142D01*
X51071071Y-76510714D01*
X51106785Y-76475000D01*
X51178214Y-76439285D01*
X51285357Y-76439285D01*
X51356785Y-76475000D01*
X51392500Y-76510714D01*
X51428214Y-76582142D01*
X51428214Y-76796428D01*
X51392500Y-76867857D01*
X51356785Y-76903571D01*
X51285357Y-76939285D01*
X51178214Y-76939285D01*
X51642500Y-76439285D02*
X51928214Y-76439285D01*
X51749642Y-76189285D02*
X51749642Y-76832142D01*
X51785357Y-76903571D01*
X51856785Y-76939285D01*
X51928214Y-76939285D01*
X52678214Y-76189285D02*
X53142500Y-76189285D01*
X52892500Y-76475000D01*
X52999642Y-76475000D01*
X53071071Y-76510714D01*
X53106785Y-76546428D01*
X53142500Y-76617857D01*
X53142500Y-76796428D01*
X53106785Y-76867857D01*
X53071071Y-76903571D01*
X52999642Y-76939285D01*
X52785357Y-76939285D01*
X52713928Y-76903571D01*
X52678214Y-76867857D01*
X53963928Y-76439285D02*
X54106785Y-76939285D01*
X54249642Y-76582142D01*
X54392500Y-76939285D01*
X54535357Y-76439285D01*
X50270271Y-87162785D02*
X50270271Y-86412785D01*
X50555985Y-86412785D01*
X50627414Y-86448500D01*
X50663128Y-86484214D01*
X50698842Y-86555642D01*
X50698842Y-86662785D01*
X50663128Y-86734214D01*
X50627414Y-86769928D01*
X50555985Y-86805642D01*
X50270271Y-86805642D01*
X51127414Y-87162785D02*
X51055985Y-87127071D01*
X51020271Y-87091357D01*
X50984557Y-87019928D01*
X50984557Y-86805642D01*
X51020271Y-86734214D01*
X51055985Y-86698500D01*
X51127414Y-86662785D01*
X51234557Y-86662785D01*
X51305985Y-86698500D01*
X51341700Y-86734214D01*
X51377414Y-86805642D01*
X51377414Y-87019928D01*
X51341700Y-87091357D01*
X51305985Y-87127071D01*
X51234557Y-87162785D01*
X51127414Y-87162785D01*
X51591700Y-86662785D02*
X51877414Y-86662785D01*
X51698842Y-86412785D02*
X51698842Y-87055642D01*
X51734557Y-87127071D01*
X51805985Y-87162785D01*
X51877414Y-87162785D01*
X52663128Y-86484214D02*
X52698842Y-86448500D01*
X52770271Y-86412785D01*
X52948842Y-86412785D01*
X53020271Y-86448500D01*
X53055985Y-86484214D01*
X53091700Y-86555642D01*
X53091700Y-86627071D01*
X53055985Y-86734214D01*
X52627414Y-87162785D01*
X53091700Y-87162785D01*
X53913128Y-86662785D02*
X54055985Y-87162785D01*
X54198842Y-86805642D01*
X54341700Y-87162785D01*
X54484557Y-86662785D01*
X50285357Y-79265000D02*
X50642500Y-79265000D01*
X50213928Y-79479285D02*
X50463928Y-78729285D01*
X50713928Y-79479285D01*
X51071071Y-79479285D02*
X50999642Y-79443571D01*
X50963928Y-79372142D01*
X50963928Y-78729285D01*
X51678214Y-78979285D02*
X51678214Y-79586428D01*
X51642500Y-79657857D01*
X51606785Y-79693571D01*
X51535357Y-79729285D01*
X51428214Y-79729285D01*
X51356785Y-79693571D01*
X51678214Y-79443571D02*
X51606785Y-79479285D01*
X51463928Y-79479285D01*
X51392500Y-79443571D01*
X51356785Y-79407857D01*
X51321071Y-79336428D01*
X51321071Y-79122142D01*
X51356785Y-79050714D01*
X51392500Y-79015000D01*
X51463928Y-78979285D01*
X51606785Y-78979285D01*
X51678214Y-79015000D01*
X52606785Y-78979285D02*
X52606785Y-79729285D01*
X52606785Y-79015000D02*
X52678214Y-78979285D01*
X52821071Y-78979285D01*
X52892500Y-79015000D01*
X52928214Y-79050714D01*
X52963928Y-79122142D01*
X52963928Y-79336428D01*
X52928214Y-79407857D01*
X52892500Y-79443571D01*
X52821071Y-79479285D01*
X52678214Y-79479285D01*
X52606785Y-79443571D01*
X53392500Y-79479285D02*
X53321071Y-79443571D01*
X53285357Y-79407857D01*
X53249642Y-79336428D01*
X53249642Y-79122142D01*
X53285357Y-79050714D01*
X53321071Y-79015000D01*
X53392500Y-78979285D01*
X53499642Y-78979285D01*
X53571071Y-79015000D01*
X53606785Y-79050714D01*
X53642500Y-79122142D01*
X53642500Y-79336428D01*
X53606785Y-79407857D01*
X53571071Y-79443571D01*
X53499642Y-79479285D01*
X53392500Y-79479285D01*
X53856785Y-78979285D02*
X54142500Y-78979285D01*
X53963928Y-78729285D02*
X53963928Y-79372142D01*
X53999642Y-79443571D01*
X54071071Y-79479285D01*
X54142500Y-79479285D01*
X50270271Y-92242785D02*
X50270271Y-91492785D01*
X50555985Y-91492785D01*
X50627414Y-91528500D01*
X50663128Y-91564214D01*
X50698842Y-91635642D01*
X50698842Y-91742785D01*
X50663128Y-91814214D01*
X50627414Y-91849928D01*
X50555985Y-91885642D01*
X50270271Y-91885642D01*
X51127414Y-92242785D02*
X51055985Y-92207071D01*
X51020271Y-92171357D01*
X50984557Y-92099928D01*
X50984557Y-91885642D01*
X51020271Y-91814214D01*
X51055985Y-91778500D01*
X51127414Y-91742785D01*
X51234557Y-91742785D01*
X51305985Y-91778500D01*
X51341700Y-91814214D01*
X51377414Y-91885642D01*
X51377414Y-92099928D01*
X51341700Y-92171357D01*
X51305985Y-92207071D01*
X51234557Y-92242785D01*
X51127414Y-92242785D01*
X51591700Y-91742785D02*
X51877414Y-91742785D01*
X51698842Y-91492785D02*
X51698842Y-92135642D01*
X51734557Y-92207071D01*
X51805985Y-92242785D01*
X51877414Y-92242785D01*
X53020271Y-91742785D02*
X53020271Y-92242785D01*
X52841700Y-91457071D02*
X52663128Y-91992785D01*
X53127414Y-91992785D01*
X53913128Y-91742785D02*
X54055985Y-92242785D01*
X54198842Y-91885642D01*
X54341700Y-92242785D01*
X54484557Y-91742785D01*
X50321071Y-71859285D02*
X50321071Y-71109285D01*
X50606785Y-71109285D01*
X50678214Y-71145000D01*
X50713928Y-71180714D01*
X50749642Y-71252142D01*
X50749642Y-71359285D01*
X50713928Y-71430714D01*
X50678214Y-71466428D01*
X50606785Y-71502142D01*
X50321071Y-71502142D01*
X51178214Y-71859285D02*
X51106785Y-71823571D01*
X51071071Y-71787857D01*
X51035357Y-71716428D01*
X51035357Y-71502142D01*
X51071071Y-71430714D01*
X51106785Y-71395000D01*
X51178214Y-71359285D01*
X51285357Y-71359285D01*
X51356785Y-71395000D01*
X51392500Y-71430714D01*
X51428214Y-71502142D01*
X51428214Y-71716428D01*
X51392500Y-71787857D01*
X51356785Y-71823571D01*
X51285357Y-71859285D01*
X51178214Y-71859285D01*
X51642500Y-71359285D02*
X51928214Y-71359285D01*
X51749642Y-71109285D02*
X51749642Y-71752142D01*
X51785357Y-71823571D01*
X51856785Y-71859285D01*
X51928214Y-71859285D01*
X53142500Y-71859285D02*
X52713928Y-71859285D01*
X52928214Y-71859285D02*
X52928214Y-71109285D01*
X52856785Y-71216428D01*
X52785357Y-71287857D01*
X52713928Y-71323571D01*
X53963928Y-71359285D02*
X54106785Y-71859285D01*
X54249642Y-71502142D01*
X54392500Y-71859285D01*
X54535357Y-71359285D01*
X50713928Y-63525000D02*
X50642500Y-63489285D01*
X50535357Y-63489285D01*
X50428214Y-63525000D01*
X50356785Y-63596428D01*
X50321071Y-63667857D01*
X50285357Y-63810714D01*
X50285357Y-63917857D01*
X50321071Y-64060714D01*
X50356785Y-64132142D01*
X50428214Y-64203571D01*
X50535357Y-64239285D01*
X50606785Y-64239285D01*
X50713928Y-64203571D01*
X50749642Y-64167857D01*
X50749642Y-63917857D01*
X50606785Y-63917857D01*
X51071071Y-64239285D02*
X51071071Y-63489285D01*
X51499642Y-64239285D01*
X51499642Y-63489285D01*
X51856785Y-64239285D02*
X51856785Y-63489285D01*
X52035357Y-63489285D01*
X52142500Y-63525000D01*
X52213928Y-63596428D01*
X52249642Y-63667857D01*
X52285357Y-63810714D01*
X52285357Y-63917857D01*
X52249642Y-64060714D01*
X52213928Y-64132142D01*
X52142500Y-64203571D01*
X52035357Y-64239285D01*
X51856785Y-64239285D01*
X50270271Y-89702785D02*
X50270271Y-88952785D01*
X50555985Y-88952785D01*
X50627414Y-88988500D01*
X50663128Y-89024214D01*
X50698842Y-89095642D01*
X50698842Y-89202785D01*
X50663128Y-89274214D01*
X50627414Y-89309928D01*
X50555985Y-89345642D01*
X50270271Y-89345642D01*
X51127414Y-89702785D02*
X51055985Y-89667071D01*
X51020271Y-89631357D01*
X50984557Y-89559928D01*
X50984557Y-89345642D01*
X51020271Y-89274214D01*
X51055985Y-89238500D01*
X51127414Y-89202785D01*
X51234557Y-89202785D01*
X51305985Y-89238500D01*
X51341700Y-89274214D01*
X51377414Y-89345642D01*
X51377414Y-89559928D01*
X51341700Y-89631357D01*
X51305985Y-89667071D01*
X51234557Y-89702785D01*
X51127414Y-89702785D01*
X51591700Y-89202785D02*
X51877414Y-89202785D01*
X51698842Y-88952785D02*
X51698842Y-89595642D01*
X51734557Y-89667071D01*
X51805985Y-89702785D01*
X51877414Y-89702785D01*
X53020271Y-89202785D02*
X53020271Y-89702785D01*
X52841700Y-88917071D02*
X52663128Y-89452785D01*
X53127414Y-89452785D01*
X54305985Y-89667071D02*
X54234557Y-89702785D01*
X54091700Y-89702785D01*
X54020271Y-89667071D01*
X53984557Y-89631357D01*
X53948842Y-89559928D01*
X53948842Y-89345642D01*
X53984557Y-89274214D01*
X54020271Y-89238500D01*
X54091700Y-89202785D01*
X54234557Y-89202785D01*
X54305985Y-89238500D01*
X54555985Y-89202785D02*
X54698842Y-89702785D01*
X54841700Y-89345642D01*
X54984557Y-89702785D01*
X55127414Y-89202785D01*
D11*
%TO.C,J11*%
X46270000Y-93170000D02*
X48930000Y-93170000D01*
X46270000Y-65170000D02*
X46270000Y-93170000D01*
X48930000Y-65170000D02*
X48930000Y-93170000D01*
X46270000Y-65170000D02*
X48930000Y-65170000D01*
X46270000Y-63900000D02*
X46270000Y-62570000D01*
X46270000Y-62570000D02*
X47600000Y-62570000D01*
%TO.C,J9*%
X43400000Y-129850000D02*
X40200000Y-129850000D01*
X29650000Y-129850000D02*
X27650000Y-127350000D01*
X27650000Y-117500000D02*
X27650000Y-114100000D01*
X27650000Y-114100000D02*
X33000000Y-114100000D01*
X43400000Y-124500000D02*
X43400000Y-129850000D01*
X27650000Y-127350000D02*
X27650000Y-121500000D01*
X35900000Y-129850000D02*
X29700000Y-129850000D01*
X29700000Y-129850000D02*
X29650000Y-129850000D01*
X43400000Y-114100000D02*
X43400000Y-120500000D01*
X37000000Y-114100000D02*
X43400000Y-114100000D01*
%TO.C,J8*%
X43400000Y-99850000D02*
X40200000Y-99850000D01*
X29650000Y-99850000D02*
X27650000Y-97350000D01*
X27650000Y-87500000D02*
X27650000Y-84100000D01*
X27650000Y-84100000D02*
X33000000Y-84100000D01*
X43400000Y-94500000D02*
X43400000Y-99850000D01*
X27650000Y-97350000D02*
X27650000Y-91500000D01*
X35900000Y-99850000D02*
X29700000Y-99850000D01*
X29700000Y-99850000D02*
X29650000Y-99850000D01*
X43400000Y-84100000D02*
X43400000Y-90500000D01*
X37000000Y-84100000D02*
X43400000Y-84100000D01*
%TO.C,J13*%
X93400000Y-184850000D02*
X90200000Y-184850000D01*
X79650000Y-184850000D02*
X77650000Y-182350000D01*
X77650000Y-172500000D02*
X77650000Y-169100000D01*
X77650000Y-169100000D02*
X83000000Y-169100000D01*
X93400000Y-179500000D02*
X93400000Y-184850000D01*
X77650000Y-182350000D02*
X77650000Y-176500000D01*
X85900000Y-184850000D02*
X79700000Y-184850000D01*
X79700000Y-184850000D02*
X79650000Y-184850000D01*
X93400000Y-169100000D02*
X93400000Y-175500000D01*
X87000000Y-169100000D02*
X93400000Y-169100000D01*
%TO.C,J12*%
X118400000Y-184850000D02*
X115200000Y-184850000D01*
X104650000Y-184850000D02*
X102650000Y-182350000D01*
X102650000Y-172500000D02*
X102650000Y-169100000D01*
X102650000Y-169100000D02*
X108000000Y-169100000D01*
X118400000Y-179500000D02*
X118400000Y-184850000D01*
X102650000Y-182350000D02*
X102650000Y-176500000D01*
X110900000Y-184850000D02*
X104700000Y-184850000D01*
X104700000Y-184850000D02*
X104650000Y-184850000D01*
X118400000Y-169100000D02*
X118400000Y-175500000D01*
X112000000Y-169100000D02*
X118400000Y-169100000D01*
%TO.C,J4*%
X43400000Y-184850000D02*
X40200000Y-184850000D01*
X29650000Y-184850000D02*
X27650000Y-182350000D01*
X27650000Y-172500000D02*
X27650000Y-169100000D01*
X27650000Y-169100000D02*
X33000000Y-169100000D01*
X43400000Y-179500000D02*
X43400000Y-184850000D01*
X27650000Y-182350000D02*
X27650000Y-176500000D01*
X35900000Y-184850000D02*
X29700000Y-184850000D01*
X29700000Y-184850000D02*
X29650000Y-184850000D01*
X43400000Y-169100000D02*
X43400000Y-175500000D01*
X37000000Y-169100000D02*
X43400000Y-169100000D01*
%TO.C,J3*%
X68400000Y-184850000D02*
X65200000Y-184850000D01*
X54650000Y-184850000D02*
X52650000Y-182350000D01*
X52650000Y-172500000D02*
X52650000Y-169100000D01*
X52650000Y-169100000D02*
X58000000Y-169100000D01*
X68400000Y-179500000D02*
X68400000Y-184850000D01*
X52650000Y-182350000D02*
X52650000Y-176500000D01*
X60900000Y-184850000D02*
X54700000Y-184850000D01*
X54700000Y-184850000D02*
X54650000Y-184850000D01*
X68400000Y-169100000D02*
X68400000Y-175500000D01*
X62000000Y-169100000D02*
X68400000Y-169100000D01*
%TO.C,J2*%
X43400000Y-69850000D02*
X40200000Y-69850000D01*
X29650000Y-69850000D02*
X27650000Y-67350000D01*
X27650000Y-57500000D02*
X27650000Y-54100000D01*
X27650000Y-54100000D02*
X33000000Y-54100000D01*
X43400000Y-64500000D02*
X43400000Y-69850000D01*
X27650000Y-67350000D02*
X27650000Y-61500000D01*
X35900000Y-69850000D02*
X29700000Y-69850000D01*
X29700000Y-69850000D02*
X29650000Y-69850000D01*
X43400000Y-54100000D02*
X43400000Y-60500000D01*
X37000000Y-54100000D02*
X43400000Y-54100000D01*
%TO.C,J1*%
X43400000Y-39850000D02*
X40200000Y-39850000D01*
X29650000Y-39850000D02*
X27650000Y-37350000D01*
X27650000Y-27500000D02*
X27650000Y-24100000D01*
X27650000Y-24100000D02*
X33000000Y-24100000D01*
X43400000Y-34500000D02*
X43400000Y-39850000D01*
X27650000Y-37350000D02*
X27650000Y-31500000D01*
X35900000Y-39850000D02*
X29700000Y-39850000D01*
X29700000Y-39850000D02*
X29650000Y-39850000D01*
X43400000Y-24100000D02*
X43400000Y-30500000D01*
X37000000Y-24100000D02*
X43400000Y-24100000D01*
%TO.C,D17*%
X100530000Y-172000000D02*
G75*
G03*
X100530000Y-172000000I-2500000J0D01*
G01*
X100590000Y-173545000D02*
X100590000Y-170455000D01*
X95040000Y-172000462D02*
G75*
G02*
X100590000Y-170455170I2990000J462D01*
G01*
X95040000Y-171999538D02*
G75*
G03*
X100590000Y-173544830I2990000J-462D01*
G01*
%TO.C,D16*%
X100530000Y-182000000D02*
G75*
G03*
X100530000Y-182000000I-2500000J0D01*
G01*
X100590000Y-183545000D02*
X100590000Y-180455000D01*
X95040000Y-182000462D02*
G75*
G02*
X100590000Y-180455170I2990000J462D01*
G01*
X95040000Y-181999538D02*
G75*
G03*
X100590000Y-183544830I2990000J-462D01*
G01*
%TO.C,D9*%
X50530000Y-172100000D02*
G75*
G03*
X50530000Y-172100000I-2500000J0D01*
G01*
X50590000Y-173645000D02*
X50590000Y-170555000D01*
X45040000Y-172100462D02*
G75*
G02*
X50590000Y-170555170I2990000J462D01*
G01*
X45040000Y-172099538D02*
G75*
G03*
X50590000Y-173644830I2990000J-462D01*
G01*
%TO.C,D8*%
X50530000Y-182000000D02*
G75*
G03*
X50530000Y-182000000I-2500000J0D01*
G01*
X50590000Y-183545000D02*
X50590000Y-180455000D01*
X45040000Y-182000462D02*
G75*
G02*
X50590000Y-180455170I2990000J462D01*
G01*
X45040000Y-181999538D02*
G75*
G03*
X50590000Y-183544830I2990000J-462D01*
G01*
%TO.C,J11*%
D10*
X46790476Y-61022380D02*
X46790476Y-61736666D01*
X46742857Y-61879523D01*
X46647619Y-61974761D01*
X46504761Y-62022380D01*
X46409523Y-62022380D01*
X47790476Y-62022380D02*
X47219047Y-62022380D01*
X47504761Y-62022380D02*
X47504761Y-61022380D01*
X47409523Y-61165238D01*
X47314285Y-61260476D01*
X47219047Y-61308095D01*
X48742857Y-62022380D02*
X48171428Y-62022380D01*
X48457142Y-62022380D02*
X48457142Y-61022380D01*
X48361904Y-61165238D01*
X48266666Y-61260476D01*
X48171428Y-61308095D01*
%TO.C,J9*%
X44589285Y-122250000D02*
X45125000Y-122250000D01*
X45232142Y-122285714D01*
X45303571Y-122357142D01*
X45339285Y-122464285D01*
X45339285Y-122535714D01*
X45339285Y-121857142D02*
X45339285Y-121714285D01*
X45303571Y-121642857D01*
X45267857Y-121607142D01*
X45160714Y-121535714D01*
X45017857Y-121500000D01*
X44732142Y-121500000D01*
X44660714Y-121535714D01*
X44625000Y-121571428D01*
X44589285Y-121642857D01*
X44589285Y-121785714D01*
X44625000Y-121857142D01*
X44660714Y-121892857D01*
X44732142Y-121928571D01*
X44910714Y-121928571D01*
X44982142Y-121892857D01*
X45017857Y-121857142D01*
X45053571Y-121785714D01*
X45053571Y-121642857D01*
X45017857Y-121571428D01*
X44982142Y-121535714D01*
X44910714Y-121500000D01*
%TO.C,J8*%
X44589285Y-92250000D02*
X45125000Y-92250000D01*
X45232142Y-92285714D01*
X45303571Y-92357142D01*
X45339285Y-92464285D01*
X45339285Y-92535714D01*
X44910714Y-91785714D02*
X44875000Y-91857142D01*
X44839285Y-91892857D01*
X44767857Y-91928571D01*
X44732142Y-91928571D01*
X44660714Y-91892857D01*
X44625000Y-91857142D01*
X44589285Y-91785714D01*
X44589285Y-91642857D01*
X44625000Y-91571428D01*
X44660714Y-91535714D01*
X44732142Y-91500000D01*
X44767857Y-91500000D01*
X44839285Y-91535714D01*
X44875000Y-91571428D01*
X44910714Y-91642857D01*
X44910714Y-91785714D01*
X44946428Y-91857142D01*
X44982142Y-91892857D01*
X45053571Y-91928571D01*
X45196428Y-91928571D01*
X45267857Y-91892857D01*
X45303571Y-91857142D01*
X45339285Y-91785714D01*
X45339285Y-91642857D01*
X45303571Y-91571428D01*
X45267857Y-91535714D01*
X45196428Y-91500000D01*
X45053571Y-91500000D01*
X44982142Y-91535714D01*
X44946428Y-91571428D01*
X44910714Y-91642857D01*
%TO.C,J13*%
X94589285Y-177607142D02*
X95125000Y-177607142D01*
X95232142Y-177642857D01*
X95303571Y-177714285D01*
X95339285Y-177821428D01*
X95339285Y-177892857D01*
X95339285Y-176857142D02*
X95339285Y-177285714D01*
X95339285Y-177071428D02*
X94589285Y-177071428D01*
X94696428Y-177142857D01*
X94767857Y-177214285D01*
X94803571Y-177285714D01*
X94589285Y-176607142D02*
X94589285Y-176142857D01*
X94875000Y-176392857D01*
X94875000Y-176285714D01*
X94910714Y-176214285D01*
X94946428Y-176178571D01*
X95017857Y-176142857D01*
X95196428Y-176142857D01*
X95267857Y-176178571D01*
X95303571Y-176214285D01*
X95339285Y-176285714D01*
X95339285Y-176500000D01*
X95303571Y-176571428D01*
X95267857Y-176607142D01*
%TO.C,J12*%
X119589285Y-177607142D02*
X120125000Y-177607142D01*
X120232142Y-177642857D01*
X120303571Y-177714285D01*
X120339285Y-177821428D01*
X120339285Y-177892857D01*
X120339285Y-176857142D02*
X120339285Y-177285714D01*
X120339285Y-177071428D02*
X119589285Y-177071428D01*
X119696428Y-177142857D01*
X119767857Y-177214285D01*
X119803571Y-177285714D01*
X119660714Y-176571428D02*
X119625000Y-176535714D01*
X119589285Y-176464285D01*
X119589285Y-176285714D01*
X119625000Y-176214285D01*
X119660714Y-176178571D01*
X119732142Y-176142857D01*
X119803571Y-176142857D01*
X119910714Y-176178571D01*
X120339285Y-176607142D01*
X120339285Y-176142857D01*
%TO.C,J4*%
X44589285Y-177250000D02*
X45125000Y-177250000D01*
X45232142Y-177285714D01*
X45303571Y-177357142D01*
X45339285Y-177464285D01*
X45339285Y-177535714D01*
X44839285Y-176571428D02*
X45339285Y-176571428D01*
X44553571Y-176750000D02*
X45089285Y-176928571D01*
X45089285Y-176464285D01*
%TO.C,J3*%
X69589285Y-177250000D02*
X70125000Y-177250000D01*
X70232142Y-177285714D01*
X70303571Y-177357142D01*
X70339285Y-177464285D01*
X70339285Y-177535714D01*
X69589285Y-176964285D02*
X69589285Y-176500000D01*
X69875000Y-176750000D01*
X69875000Y-176642857D01*
X69910714Y-176571428D01*
X69946428Y-176535714D01*
X70017857Y-176500000D01*
X70196428Y-176500000D01*
X70267857Y-176535714D01*
X70303571Y-176571428D01*
X70339285Y-176642857D01*
X70339285Y-176857142D01*
X70303571Y-176928571D01*
X70267857Y-176964285D01*
%TO.C,J2*%
X44589285Y-62250000D02*
X45125000Y-62250000D01*
X45232142Y-62285714D01*
X45303571Y-62357142D01*
X45339285Y-62464285D01*
X45339285Y-62535714D01*
X44660714Y-61928571D02*
X44625000Y-61892857D01*
X44589285Y-61821428D01*
X44589285Y-61642857D01*
X44625000Y-61571428D01*
X44660714Y-61535714D01*
X44732142Y-61500000D01*
X44803571Y-61500000D01*
X44910714Y-61535714D01*
X45339285Y-61964285D01*
X45339285Y-61500000D01*
%TO.C,J1*%
X44589285Y-32250000D02*
X45125000Y-32250000D01*
X45232142Y-32285714D01*
X45303571Y-32357142D01*
X45339285Y-32464285D01*
X45339285Y-32535714D01*
X45339285Y-31500000D02*
X45339285Y-31928571D01*
X45339285Y-31714285D02*
X44589285Y-31714285D01*
X44696428Y-31785714D01*
X44767857Y-31857142D01*
X44803571Y-31928571D01*
%TO.C,D17*%
X96815714Y-176412380D02*
X96815714Y-175412380D01*
X97053809Y-175412380D01*
X97196666Y-175460000D01*
X97291904Y-175555238D01*
X97339523Y-175650476D01*
X97387142Y-175840952D01*
X97387142Y-175983809D01*
X97339523Y-176174285D01*
X97291904Y-176269523D01*
X97196666Y-176364761D01*
X97053809Y-176412380D01*
X96815714Y-176412380D01*
X98339523Y-176412380D02*
X97768095Y-176412380D01*
X98053809Y-176412380D02*
X98053809Y-175412380D01*
X97958571Y-175555238D01*
X97863333Y-175650476D01*
X97768095Y-175698095D01*
X98672857Y-175412380D02*
X99339523Y-175412380D01*
X98910952Y-176412380D01*
%TO.C,D16*%
X96815714Y-186412380D02*
X96815714Y-185412380D01*
X97053809Y-185412380D01*
X97196666Y-185460000D01*
X97291904Y-185555238D01*
X97339523Y-185650476D01*
X97387142Y-185840952D01*
X97387142Y-185983809D01*
X97339523Y-186174285D01*
X97291904Y-186269523D01*
X97196666Y-186364761D01*
X97053809Y-186412380D01*
X96815714Y-186412380D01*
X98339523Y-186412380D02*
X97768095Y-186412380D01*
X98053809Y-186412380D02*
X98053809Y-185412380D01*
X97958571Y-185555238D01*
X97863333Y-185650476D01*
X97768095Y-185698095D01*
X99196666Y-185412380D02*
X99006190Y-185412380D01*
X98910952Y-185460000D01*
X98863333Y-185507619D01*
X98768095Y-185650476D01*
X98720476Y-185840952D01*
X98720476Y-186221904D01*
X98768095Y-186317142D01*
X98815714Y-186364761D01*
X98910952Y-186412380D01*
X99101428Y-186412380D01*
X99196666Y-186364761D01*
X99244285Y-186317142D01*
X99291904Y-186221904D01*
X99291904Y-185983809D01*
X99244285Y-185888571D01*
X99196666Y-185840952D01*
X99101428Y-185793333D01*
X98910952Y-185793333D01*
X98815714Y-185840952D01*
X98768095Y-185888571D01*
X98720476Y-185983809D01*
%TO.C,D9*%
X47291904Y-176512380D02*
X47291904Y-175512380D01*
X47530000Y-175512380D01*
X47672857Y-175560000D01*
X47768095Y-175655238D01*
X47815714Y-175750476D01*
X47863333Y-175940952D01*
X47863333Y-176083809D01*
X47815714Y-176274285D01*
X47768095Y-176369523D01*
X47672857Y-176464761D01*
X47530000Y-176512380D01*
X47291904Y-176512380D01*
X48339523Y-176512380D02*
X48530000Y-176512380D01*
X48625238Y-176464761D01*
X48672857Y-176417142D01*
X48768095Y-176274285D01*
X48815714Y-176083809D01*
X48815714Y-175702857D01*
X48768095Y-175607619D01*
X48720476Y-175560000D01*
X48625238Y-175512380D01*
X48434761Y-175512380D01*
X48339523Y-175560000D01*
X48291904Y-175607619D01*
X48244285Y-175702857D01*
X48244285Y-175940952D01*
X48291904Y-176036190D01*
X48339523Y-176083809D01*
X48434761Y-176131428D01*
X48625238Y-176131428D01*
X48720476Y-176083809D01*
X48768095Y-176036190D01*
X48815714Y-175940952D01*
%TO.C,D8*%
X44956904Y-186412380D02*
X44956904Y-185412380D01*
X45195000Y-185412380D01*
X45337857Y-185460000D01*
X45433095Y-185555238D01*
X45480714Y-185650476D01*
X45528333Y-185840952D01*
X45528333Y-185983809D01*
X45480714Y-186174285D01*
X45433095Y-186269523D01*
X45337857Y-186364761D01*
X45195000Y-186412380D01*
X44956904Y-186412380D01*
X46099761Y-185840952D02*
X46004523Y-185793333D01*
X45956904Y-185745714D01*
X45909285Y-185650476D01*
X45909285Y-185602857D01*
X45956904Y-185507619D01*
X46004523Y-185460000D01*
X46099761Y-185412380D01*
X46290238Y-185412380D01*
X46385476Y-185460000D01*
X46433095Y-185507619D01*
X46480714Y-185602857D01*
X46480714Y-185650476D01*
X46433095Y-185745714D01*
X46385476Y-185793333D01*
X46290238Y-185840952D01*
X46099761Y-185840952D01*
X46004523Y-185888571D01*
X45956904Y-185936190D01*
X45909285Y-186031428D01*
X45909285Y-186221904D01*
X45956904Y-186317142D01*
X46004523Y-186364761D01*
X46099761Y-186412380D01*
X46290238Y-186412380D01*
X46385476Y-186364761D01*
X46433095Y-186317142D01*
X46480714Y-186221904D01*
X46480714Y-186031428D01*
X46433095Y-185936190D01*
X46385476Y-185888571D01*
X46290238Y-185840952D01*
%TD*%
M02*
